G04 #@! TF.GenerationSoftware,KiCad,Pcbnew,9.0.7*
G04 #@! TF.CreationDate,2026-02-02T08:38:10+11:00*
G04 #@! TF.ProjectId,E-ink watch,452d696e-6b20-4776-9174-63682e6b6963,rev?*
G04 #@! TF.SameCoordinates,Original*
G04 #@! TF.FileFunction,Other,User*
%FSLAX46Y46*%
G04 Gerber Fmt 4.6, Leading zero omitted, Abs format (unit mm)*
G04 Created by KiCad (PCBNEW 9.0.7) date 2026-02-02 08:38:10*
%MOMM*%
%LPD*%
G01*
G04 APERTURE LIST*
G04 APERTURE END LIST*
G36*
X116331081Y-90300264D02*
G01*
X116331083Y-90300062D01*
X116343486Y-90300132D01*
X116344757Y-90300146D01*
X116356458Y-90300332D01*
X116357658Y-90300357D01*
X116369423Y-90300658D01*
X116370700Y-90300697D01*
X116382429Y-90301118D01*
X116383655Y-90301168D01*
X116395443Y-90301708D01*
X116396677Y-90301771D01*
X116408399Y-90302425D01*
X116409653Y-90302501D01*
X116421402Y-90303276D01*
X116422622Y-90303362D01*
X116434285Y-90304247D01*
X116435524Y-90304348D01*
X116447319Y-90305362D01*
X116448559Y-90305475D01*
X116460235Y-90306597D01*
X116461490Y-90306724D01*
X116473204Y-90307970D01*
X116474429Y-90308106D01*
X116486058Y-90309460D01*
X116487241Y-90309604D01*
X116499017Y-90311090D01*
X116500269Y-90311254D01*
X116511811Y-90312830D01*
X116513058Y-90313007D01*
X116524732Y-90314722D01*
X116525981Y-90314912D01*
X116537670Y-90316751D01*
X116538816Y-90316937D01*
X116550335Y-90318860D01*
X116551655Y-90319087D01*
X116563162Y-90321136D01*
X116564317Y-90321348D01*
X116575954Y-90323534D01*
X116577187Y-90323772D01*
X116588732Y-90326062D01*
X116589938Y-90326307D01*
X116601438Y-90328707D01*
X116602651Y-90328967D01*
X116614136Y-90331484D01*
X116615347Y-90331755D01*
X116626868Y-90334401D01*
X116628062Y-90334682D01*
X116639357Y-90337394D01*
X116640633Y-90337707D01*
X116652211Y-90340617D01*
X116653311Y-90340899D01*
X116664575Y-90343840D01*
X116665835Y-90344176D01*
X116677217Y-90347276D01*
X116678388Y-90347601D01*
X116689727Y-90350809D01*
X116690949Y-90351162D01*
X116702145Y-90354454D01*
X116703304Y-90354801D01*
X116714651Y-90358258D01*
X116715803Y-90358615D01*
X116726982Y-90362140D01*
X116728218Y-90362537D01*
X116739406Y-90366194D01*
X116740605Y-90366592D01*
X116751732Y-90370355D01*
X116752862Y-90370744D01*
X116763932Y-90374607D01*
X116765119Y-90375028D01*
X116776243Y-90379037D01*
X116777365Y-90379447D01*
X116788439Y-90383559D01*
X116789602Y-90383997D01*
X116800486Y-90388163D01*
X116801672Y-90388625D01*
X116812633Y-90392950D01*
X116813802Y-90393418D01*
X116824637Y-90397821D01*
X116825814Y-90398306D01*
X116836785Y-90402896D01*
X116837808Y-90403329D01*
X116848553Y-90407938D01*
X116849806Y-90408484D01*
X116860481Y-90413203D01*
X116861511Y-90413664D01*
X116872368Y-90418582D01*
X116873578Y-90419138D01*
X116884104Y-90424043D01*
X116885240Y-90424579D01*
X116895922Y-90429689D01*
X116897013Y-90430218D01*
X116907536Y-90435379D01*
X116908607Y-90435911D01*
X116919129Y-90441198D01*
X116920242Y-90441764D01*
X116930773Y-90447189D01*
X116931838Y-90447744D01*
X116942233Y-90453227D01*
X116943375Y-90453837D01*
X116953599Y-90459367D01*
X116954676Y-90459957D01*
X116965038Y-90465695D01*
X116966160Y-90466323D01*
X116976363Y-90472112D01*
X116977401Y-90472708D01*
X116987599Y-90478625D01*
X116988636Y-90479233D01*
X116998824Y-90485277D01*
X116999901Y-90485924D01*
X117009815Y-90491942D01*
X117010956Y-90492643D01*
X117021001Y-90498890D01*
X117021958Y-90499491D01*
X117031868Y-90505780D01*
X117032960Y-90506481D01*
X117042874Y-90512919D01*
X117043946Y-90513623D01*
X117053651Y-90520069D01*
X117054600Y-90520706D01*
X117064450Y-90527380D01*
X117065488Y-90528090D01*
X117075103Y-90534748D01*
X117076144Y-90535477D01*
X117085673Y-90542221D01*
X117086686Y-90542946D01*
X117096304Y-90549899D01*
X117097333Y-90550651D01*
X117106774Y-90557625D01*
X117107650Y-90558278D01*
X117117028Y-90565334D01*
X117118138Y-90566179D01*
X117127471Y-90573367D01*
X117128327Y-90574032D01*
X117137613Y-90581314D01*
X117138721Y-90582194D01*
X117147858Y-90589529D01*
X117148774Y-90590271D01*
X117157845Y-90597696D01*
X117158810Y-90598494D01*
X117167852Y-90606049D01*
X117168772Y-90606825D01*
X117177721Y-90614451D01*
X117178632Y-90615236D01*
X117187551Y-90622987D01*
X117188449Y-90623774D01*
X117197298Y-90631615D01*
X117198323Y-90632533D01*
X117206906Y-90640310D01*
X117207771Y-90641102D01*
X117216447Y-90649114D01*
X117217441Y-90650042D01*
X117225977Y-90658100D01*
X117226817Y-90658901D01*
X117235310Y-90667070D01*
X117236161Y-90667896D01*
X117244545Y-90676116D01*
X117245484Y-90677046D01*
X117253823Y-90685398D01*
X117254633Y-90686217D01*
X117262989Y-90694743D01*
X117263787Y-90695565D01*
X117271786Y-90703879D01*
X117272835Y-90704983D01*
X117280865Y-90713537D01*
X117281610Y-90714337D01*
X117289644Y-90723048D01*
X117290420Y-90723898D01*
X117298311Y-90732615D01*
X117299172Y-90733576D01*
X117306990Y-90742395D01*
X117307855Y-90743381D01*
X117315521Y-90752215D01*
X117316360Y-90753192D01*
X117323960Y-90762136D01*
X117324658Y-90762965D01*
X117332273Y-90772087D01*
X117333094Y-90773081D01*
X117340502Y-90782145D01*
X117341301Y-90783133D01*
X117348649Y-90792314D01*
X117349435Y-90793306D01*
X117356607Y-90802457D01*
X117357387Y-90803464D01*
X117364631Y-90812905D01*
X117365268Y-90813741D01*
X117372342Y-90823124D01*
X117373207Y-90824286D01*
X117380201Y-90833792D01*
X117380817Y-90834637D01*
X117387676Y-90844126D01*
X117388522Y-90845311D01*
X117395236Y-90854833D01*
X117395941Y-90855842D01*
X117402647Y-90865556D01*
X117403220Y-90866394D01*
X117409873Y-90876202D01*
X117410677Y-90877402D01*
X117417101Y-90887114D01*
X117417739Y-90888090D01*
X117424179Y-90898028D01*
X117424860Y-90899089D01*
X117431108Y-90908949D01*
X117431772Y-90910010D01*
X117438022Y-90920097D01*
X117438611Y-90921057D01*
X117444761Y-90931187D01*
X117445402Y-90932254D01*
X117451371Y-90942312D01*
X117452052Y-90943474D01*
X117457946Y-90953656D01*
X117458511Y-90954642D01*
X117464272Y-90964808D01*
X117464877Y-90965889D01*
X117470561Y-90976157D01*
X117471273Y-90977462D01*
X117476814Y-90987761D01*
X117477278Y-90988632D01*
X117482871Y-90999229D01*
X117483459Y-91000357D01*
X117488749Y-91010634D01*
X117489407Y-91011931D01*
X117494675Y-91022467D01*
X117495126Y-91023377D01*
X117500336Y-91034014D01*
X117500930Y-91035245D01*
X117506013Y-91045919D01*
X117506435Y-91046813D01*
X117511379Y-91057412D01*
X117512044Y-91058863D01*
X117516858Y-91069540D01*
X117517273Y-91070471D01*
X117522022Y-91081239D01*
X117522514Y-91082370D01*
X117527163Y-91093202D01*
X117527654Y-91094361D01*
X117532143Y-91105120D01*
X117532692Y-91106458D01*
X117537109Y-91117402D01*
X117537496Y-91118374D01*
X117541841Y-91129407D01*
X117542243Y-91130440D01*
X117546486Y-91141503D01*
X117546969Y-91142783D01*
X117551027Y-91153723D01*
X117551469Y-91154936D01*
X117555390Y-91165854D01*
X117555832Y-91167103D01*
X117559729Y-91178330D01*
X117560097Y-91179406D01*
X117563845Y-91190532D01*
X117564246Y-91191743D01*
X117567907Y-91202992D01*
X117568219Y-91203966D01*
X117571772Y-91215197D01*
X117572183Y-91216520D01*
X117575575Y-91227674D01*
X117575956Y-91228952D01*
X117579244Y-91240197D01*
X117579594Y-91241418D01*
X117582779Y-91252740D01*
X117583063Y-91253767D01*
X117586180Y-91265224D01*
X117586505Y-91266445D01*
X117589475Y-91277818D01*
X117589817Y-91279154D01*
X117592659Y-91290554D01*
X117592898Y-91291532D01*
X117595633Y-91302895D01*
X117595986Y-91304401D01*
X117598599Y-91315885D01*
X117598823Y-91316888D01*
X117601347Y-91328422D01*
X117601619Y-91329700D01*
X117603996Y-91341138D01*
X117604248Y-91342384D01*
X117606563Y-91354127D01*
X117606760Y-91355149D01*
X117608898Y-91366495D01*
X117609177Y-91368025D01*
X117611217Y-91379650D01*
X117611379Y-91380595D01*
X117613345Y-91392331D01*
X117613563Y-91393678D01*
X117615356Y-91405155D01*
X117615538Y-91406358D01*
X117617244Y-91418028D01*
X117617427Y-91419327D01*
X117618996Y-91430915D01*
X117619153Y-91432118D01*
X117620607Y-91443708D01*
X117620767Y-91445046D01*
X117622123Y-91456896D01*
X117622229Y-91457852D01*
X117623485Y-91469637D01*
X117623614Y-91470911D01*
X117624723Y-91482446D01*
X117624860Y-91483976D01*
X117625840Y-91495691D01*
X117625920Y-91496691D01*
X117626811Y-91508490D01*
X117626900Y-91509761D01*
X117627663Y-91521466D01*
X117627739Y-91522716D01*
X117628386Y-91534469D01*
X117628449Y-91535733D01*
X117628974Y-91547447D01*
X117629023Y-91548701D01*
X117629434Y-91560552D01*
X117629466Y-91561576D01*
X117629778Y-91573387D01*
X117629808Y-91574891D01*
X117629972Y-91586378D01*
X117629984Y-91587638D01*
X117630034Y-91599800D01*
X117630035Y-91600310D01*
X117630035Y-101425017D01*
X117630114Y-101438145D01*
X117630297Y-101451044D01*
X117630641Y-101463989D01*
X117631095Y-101477086D01*
X117631676Y-101490056D01*
X117632390Y-101503021D01*
X117633232Y-101515940D01*
X117634221Y-101529009D01*
X117635295Y-101541838D01*
X117636545Y-101554851D01*
X117637900Y-101567836D01*
X117639394Y-101580629D01*
X117641021Y-101593624D01*
X117642755Y-101606421D01*
X117644634Y-101619275D01*
X117646649Y-101632167D01*
X117648795Y-101645011D01*
X117651043Y-101657788D01*
X117653463Y-101670631D01*
X117655954Y-101683269D01*
X117658613Y-101696060D01*
X117661381Y-101708716D01*
X117664283Y-101721470D01*
X117667294Y-101733986D01*
X117670473Y-101746726D01*
X117673757Y-101759309D01*
X117677126Y-101771807D01*
X117680686Y-101784350D01*
X117684323Y-101796789D01*
X117688107Y-101809223D01*
X117692002Y-101821651D01*
X117693835Y-101827243D01*
X117700000Y-101865854D01*
X117700000Y-111134252D01*
X117693836Y-111172861D01*
X117692313Y-111177506D01*
X117688408Y-111189883D01*
X117684620Y-111202331D01*
X117680967Y-111214803D01*
X117677421Y-111227313D01*
X117673998Y-111239896D01*
X117670727Y-111252427D01*
X117667563Y-111265006D01*
X117664504Y-111277721D01*
X117661602Y-111290328D01*
X117658819Y-111303045D01*
X117656182Y-111315736D01*
X117653637Y-111328509D01*
X117651219Y-111341347D01*
X117648964Y-111354033D01*
X117646796Y-111366993D01*
X117644801Y-111379750D01*
X117642933Y-111392535D01*
X117641146Y-111405531D01*
X117639499Y-111418458D01*
X117638025Y-111431296D01*
X117636656Y-111444191D01*
X117635402Y-111457231D01*
X117634302Y-111470063D01*
X117633287Y-111483126D01*
X117632441Y-111496106D01*
X117631728Y-111509033D01*
X117631120Y-111522016D01*
X117630671Y-111534988D01*
X117630324Y-111548109D01*
X117630114Y-111560959D01*
X117630035Y-111574071D01*
X117630035Y-121708841D01*
X117630034Y-121709358D01*
X117629984Y-121721354D01*
X117629969Y-121722859D01*
X117629781Y-121734389D01*
X117629753Y-121735656D01*
X117629441Y-121747414D01*
X117629411Y-121748414D01*
X117629001Y-121760261D01*
X117628944Y-121761676D01*
X117628391Y-121773685D01*
X117628334Y-121774800D01*
X117627696Y-121786384D01*
X117627603Y-121787906D01*
X117626817Y-121799565D01*
X117626747Y-121800549D01*
X117625847Y-121812483D01*
X117625745Y-121813751D01*
X117624753Y-121825321D01*
X117624616Y-121826808D01*
X117623508Y-121838127D01*
X117623405Y-121839139D01*
X117622131Y-121851138D01*
X117621992Y-121852385D01*
X117620613Y-121864230D01*
X117620498Y-121865191D01*
X117619052Y-121876821D01*
X117618855Y-121878329D01*
X117617264Y-121889958D01*
X117617075Y-121891285D01*
X117615353Y-121902933D01*
X117615220Y-121903810D01*
X117613431Y-121915340D01*
X117613127Y-121917205D01*
X117611172Y-121928651D01*
X117611115Y-121928980D01*
X117609021Y-121941044D01*
X117608679Y-121942930D01*
X117606576Y-121954025D01*
X117606339Y-121955241D01*
X117604034Y-121966771D01*
X117603830Y-121967768D01*
X117601386Y-121979492D01*
X117601134Y-121980677D01*
X117598635Y-121992105D01*
X117598364Y-121993315D01*
X117595720Y-122004852D01*
X117595443Y-122006031D01*
X117592768Y-122017201D01*
X117592323Y-122019000D01*
X117589454Y-122030236D01*
X117589367Y-122030576D01*
X117586321Y-122042366D01*
X117585841Y-122044168D01*
X117582764Y-122055379D01*
X117582617Y-122055910D01*
X117579342Y-122067638D01*
X117578888Y-122069221D01*
X117575674Y-122080167D01*
X117575260Y-122081547D01*
X117571829Y-122092749D01*
X117571541Y-122093679D01*
X117568006Y-122104905D01*
X117567467Y-122106575D01*
X117563785Y-122117715D01*
X117563663Y-122118082D01*
X117559898Y-122129355D01*
X117559247Y-122131253D01*
X117555314Y-122142424D01*
X117555189Y-122142777D01*
X117551163Y-122154103D01*
X117550559Y-122155765D01*
X117546724Y-122166085D01*
X117545972Y-122168057D01*
X117541703Y-122178972D01*
X117541689Y-122179006D01*
X117537147Y-122190609D01*
X117536725Y-122191675D01*
X117532387Y-122202462D01*
X117531671Y-122204203D01*
X117527252Y-122214727D01*
X117526788Y-122215818D01*
X117522132Y-122226616D01*
X117521669Y-122227676D01*
X117516790Y-122238707D01*
X117516427Y-122239520D01*
X117511673Y-122250063D01*
X117510831Y-122251891D01*
X117505815Y-122262550D01*
X117505786Y-122262611D01*
X117500589Y-122273639D01*
X117499737Y-122275410D01*
X117494713Y-122285647D01*
X117494203Y-122286675D01*
X117489086Y-122296862D01*
X117488156Y-122298674D01*
X117482713Y-122309078D01*
X117482714Y-122309079D01*
X117477108Y-122319845D01*
X117476047Y-122321839D01*
X117470623Y-122331808D01*
X117470188Y-122332600D01*
X117464396Y-122343063D01*
X117463859Y-122344022D01*
X117458147Y-122354128D01*
X117457207Y-122355763D01*
X117451140Y-122366126D01*
X117445079Y-122376508D01*
X117443980Y-122378354D01*
X117438360Y-122387609D01*
X117437217Y-122389454D01*
X117431001Y-122399296D01*
X117431002Y-122399297D01*
X117424483Y-122409665D01*
X117423423Y-122411321D01*
X117417173Y-122420920D01*
X117416594Y-122421801D01*
X117409926Y-122431854D01*
X117409442Y-122432579D01*
X117402964Y-122442198D01*
X117401819Y-122443868D01*
X117395290Y-122453229D01*
X117394701Y-122454066D01*
X117387703Y-122463925D01*
X117387206Y-122464620D01*
X117380552Y-122473859D01*
X117379203Y-122475697D01*
X117372148Y-122485122D01*
X117365081Y-122494702D01*
X117363583Y-122496689D01*
X117357112Y-122505102D01*
X117355676Y-122506934D01*
X117348369Y-122516072D01*
X117340975Y-122525467D01*
X117339479Y-122527330D01*
X117332767Y-122535527D01*
X117331248Y-122537347D01*
X117323615Y-122546312D01*
X117315973Y-122555417D01*
X117314536Y-122557099D01*
X117306972Y-122565790D01*
X117306484Y-122566347D01*
X117298890Y-122574968D01*
X117297236Y-122576808D01*
X117289584Y-122585153D01*
X117289218Y-122585551D01*
X117280830Y-122594619D01*
X117280325Y-122595161D01*
X117272465Y-122603557D01*
X117270761Y-122605342D01*
X117262902Y-122613409D01*
X117262529Y-122613790D01*
X117253760Y-122622714D01*
X117253247Y-122623232D01*
X117245110Y-122631416D01*
X117243450Y-122633055D01*
X117235256Y-122640992D01*
X117234876Y-122641358D01*
X117225857Y-122650020D01*
X117225367Y-122650489D01*
X117217054Y-122658386D01*
X117215295Y-122660024D01*
X117206809Y-122667778D01*
X117206337Y-122668208D01*
X117197222Y-122676451D01*
X117196958Y-122676689D01*
X117188193Y-122684570D01*
X117186287Y-122686248D01*
X117177572Y-122693767D01*
X117177045Y-122694219D01*
X117168389Y-122701603D01*
X117166674Y-122703040D01*
X117157528Y-122710560D01*
X117149240Y-122717541D01*
X117145699Y-122720414D01*
X117137346Y-122726938D01*
X117127953Y-122734461D01*
X117126196Y-122735842D01*
X117117867Y-122742269D01*
X117115712Y-122743894D01*
X117106406Y-122750757D01*
X117106203Y-122750907D01*
X117096239Y-122758224D01*
X117095747Y-122758583D01*
X117086343Y-122765418D01*
X117084425Y-122766785D01*
X117074956Y-122773396D01*
X117074610Y-122773636D01*
X117064221Y-122780837D01*
X117063861Y-122781086D01*
X117054328Y-122787644D01*
X117052281Y-122789022D01*
X117042759Y-122795297D01*
X117042466Y-122795490D01*
X117032624Y-122801936D01*
X117030519Y-122803284D01*
X117020690Y-122809442D01*
X117020365Y-122809645D01*
X117010579Y-122815734D01*
X117008457Y-122817025D01*
X116998470Y-122822965D01*
X116998210Y-122823119D01*
X116987508Y-122829449D01*
X116987224Y-122829617D01*
X116977001Y-122835627D01*
X116974927Y-122836820D01*
X116964913Y-122842450D01*
X116964586Y-122842633D01*
X116954438Y-122848298D01*
X116952163Y-122849537D01*
X116941938Y-122854968D01*
X116941855Y-122855012D01*
X116930704Y-122860924D01*
X116930362Y-122861104D01*
X116919921Y-122866598D01*
X116917633Y-122867772D01*
X116908263Y-122872457D01*
X116906112Y-122873507D01*
X116895696Y-122878466D01*
X116895493Y-122878562D01*
X116883821Y-122884093D01*
X116883580Y-122884207D01*
X116873148Y-122889123D01*
X116870815Y-122890193D01*
X116860129Y-122894961D01*
X116860057Y-122894993D01*
X116848257Y-122900249D01*
X116847994Y-122900366D01*
X116838483Y-122904576D01*
X116834074Y-122906427D01*
X116824290Y-122910313D01*
X116813384Y-122914858D01*
X116811125Y-122915774D01*
X116801279Y-122919651D01*
X116798911Y-122920555D01*
X116788000Y-122924595D01*
X116778059Y-122928479D01*
X116773485Y-122930163D01*
X116763678Y-122933556D01*
X116763577Y-122933591D01*
X116751302Y-122937826D01*
X116751129Y-122937885D01*
X116740129Y-122941662D01*
X116737807Y-122942434D01*
X116726735Y-122945993D01*
X116726608Y-122946034D01*
X116715470Y-122949601D01*
X116712988Y-122950367D01*
X116701781Y-122953699D01*
X116701764Y-122953704D01*
X116690504Y-122957050D01*
X116688063Y-122957748D01*
X116676867Y-122960827D01*
X116676791Y-122960848D01*
X116664291Y-122964277D01*
X116664130Y-122964321D01*
X116652828Y-122967405D01*
X116650495Y-122968017D01*
X116640300Y-122970587D01*
X116637802Y-122971190D01*
X116626479Y-122973796D01*
X116626410Y-122973812D01*
X116614966Y-122976439D01*
X116612500Y-122976978D01*
X116601031Y-122979365D01*
X116590761Y-122981717D01*
X116585857Y-122982736D01*
X116575625Y-122984647D01*
X116575562Y-122984659D01*
X116562793Y-122987037D01*
X116562778Y-122987040D01*
X116551209Y-122989193D01*
X116548672Y-122989638D01*
X116538392Y-122991331D01*
X116535979Y-122991704D01*
X116524320Y-122993389D01*
X116524246Y-122993400D01*
X116511460Y-122995240D01*
X116511447Y-122995241D01*
X116499834Y-122996911D01*
X116497328Y-122997246D01*
X116485658Y-122998682D01*
X116485657Y-122998681D01*
X116474024Y-123000114D01*
X116471490Y-123000400D01*
X116459840Y-123001592D01*
X116459834Y-123001593D01*
X116448168Y-123002786D01*
X116445613Y-123003020D01*
X116435146Y-123003872D01*
X116432716Y-123004046D01*
X116420987Y-123004769D01*
X116410503Y-123005622D01*
X116405480Y-123005928D01*
X116394990Y-123006354D01*
X116384573Y-123006993D01*
X116379501Y-123007200D01*
X116369045Y-123007412D01*
X116369046Y-123007413D01*
X116356036Y-123007680D01*
X116355977Y-123007681D01*
X116344302Y-123007915D01*
X116341817Y-123007940D01*
X107387527Y-123007940D01*
X107385042Y-123007915D01*
X107373366Y-123007681D01*
X107373343Y-123007673D01*
X107373298Y-123007680D01*
X107361553Y-123007438D01*
X107359059Y-123007361D01*
X107347327Y-123006883D01*
X107347323Y-123006881D01*
X107347312Y-123006883D01*
X107335569Y-123006403D01*
X107333078Y-123006276D01*
X107321332Y-123005559D01*
X107321332Y-123005558D01*
X107309673Y-123004849D01*
X107307099Y-123004665D01*
X107295411Y-123003709D01*
X107295411Y-123003708D01*
X107282449Y-123002648D01*
X107282449Y-123002649D01*
X107272034Y-123001798D01*
X107267009Y-123001284D01*
X107256603Y-123000005D01*
X107246174Y-122998936D01*
X107241236Y-122998330D01*
X107230746Y-122996827D01*
X107219127Y-122995393D01*
X107216649Y-122995062D01*
X107206277Y-122993569D01*
X107203770Y-122993182D01*
X107192205Y-122991275D01*
X107192196Y-122991270D01*
X107192196Y-122991273D01*
X107180649Y-122989368D01*
X107178129Y-122988926D01*
X107166585Y-122986776D01*
X107166585Y-122986772D01*
X107166545Y-122986769D01*
X107153794Y-122984390D01*
X107153794Y-122984389D01*
X107142296Y-122982246D01*
X107139731Y-122981740D01*
X107129578Y-122979625D01*
X107127164Y-122979097D01*
X107115628Y-122976453D01*
X107115629Y-122976447D01*
X107115578Y-122976442D01*
X107102979Y-122973549D01*
X107102948Y-122973531D01*
X107102946Y-122973541D01*
X107091555Y-122970922D01*
X107089000Y-122970306D01*
X107078879Y-122967752D01*
X107076582Y-122967149D01*
X107065124Y-122964023D01*
X107065130Y-122963999D01*
X107064949Y-122963975D01*
X107052638Y-122960597D01*
X107052581Y-122960561D01*
X107052576Y-122960580D01*
X107041254Y-122957467D01*
X107038835Y-122956775D01*
X107027599Y-122953439D01*
X107027456Y-122953397D01*
X107016363Y-122950089D01*
X107013961Y-122949346D01*
X107002785Y-122945765D01*
X106991675Y-122942206D01*
X106989179Y-122941377D01*
X106978097Y-122937566D01*
X106977954Y-122937517D01*
X106967000Y-122933735D01*
X106964654Y-122932898D01*
X106953602Y-122928832D01*
X106953607Y-122928817D01*
X106953519Y-122928802D01*
X106941398Y-122924333D01*
X106941221Y-122924268D01*
X106931543Y-122920683D01*
X106927023Y-122918907D01*
X106917181Y-122914816D01*
X106906322Y-122910521D01*
X106903967Y-122909561D01*
X106893141Y-122905020D01*
X106893148Y-122905001D01*
X106893044Y-122904980D01*
X106882398Y-122900504D01*
X106880009Y-122899469D01*
X106869299Y-122894699D01*
X106869202Y-122894656D01*
X106858642Y-122889942D01*
X106856257Y-122888847D01*
X106845675Y-122883852D01*
X106845695Y-122883808D01*
X106845479Y-122883760D01*
X106835090Y-122878834D01*
X106832887Y-122877763D01*
X106822283Y-122872476D01*
X106822058Y-122872363D01*
X106811795Y-122867220D01*
X106809596Y-122866091D01*
X106799108Y-122860571D01*
X106799136Y-122860516D01*
X106798883Y-122860453D01*
X106787596Y-122854483D01*
X106787304Y-122854328D01*
X106777271Y-122848987D01*
X106775093Y-122847799D01*
X106764966Y-122842145D01*
X106764672Y-122841980D01*
X106754588Y-122836314D01*
X106752466Y-122835094D01*
X106742249Y-122829085D01*
X106741991Y-122828933D01*
X106731181Y-122822540D01*
X106730785Y-122822305D01*
X106720958Y-122816444D01*
X106718993Y-122815247D01*
X106709224Y-122809172D01*
X106708863Y-122808947D01*
X106698980Y-122802754D01*
X106696874Y-122801404D01*
X106687263Y-122795108D01*
X106686882Y-122794858D01*
X106677163Y-122788440D01*
X106675221Y-122787131D01*
X106665659Y-122780554D01*
X106665292Y-122780300D01*
X106654991Y-122773160D01*
X106654635Y-122772913D01*
X106645138Y-122766281D01*
X106643125Y-122764845D01*
X106633964Y-122758172D01*
X106633578Y-122757890D01*
X106624070Y-122750908D01*
X106622214Y-122749518D01*
X106612915Y-122742418D01*
X106612432Y-122742047D01*
X106602685Y-122734529D01*
X106602466Y-122734360D01*
X106593297Y-122727255D01*
X106591219Y-122725609D01*
X106582176Y-122718287D01*
X106581848Y-122718021D01*
X106572994Y-122710802D01*
X106571072Y-122709202D01*
X106562060Y-122701547D01*
X106553856Y-122694750D01*
X106550546Y-122691908D01*
X106542360Y-122684626D01*
X106533592Y-122677001D01*
X106531672Y-122675296D01*
X106523828Y-122668184D01*
X106522103Y-122666590D01*
X106513454Y-122658445D01*
X106504873Y-122650512D01*
X106503153Y-122648890D01*
X106495448Y-122641490D01*
X106493779Y-122639857D01*
X106485343Y-122631444D01*
X106477616Y-122623874D01*
X106474752Y-122620975D01*
X106467038Y-122612905D01*
X106458827Y-122604451D01*
X106457246Y-122602793D01*
X106449399Y-122594410D01*
X106448914Y-122593889D01*
X106440586Y-122584889D01*
X106440170Y-122584437D01*
X106432420Y-122575978D01*
X106430816Y-122574192D01*
X106423221Y-122565573D01*
X106422722Y-122565004D01*
X106415233Y-122556400D01*
X106413666Y-122554564D01*
X106406033Y-122545443D01*
X106398481Y-122536569D01*
X106396956Y-122534742D01*
X106390216Y-122526508D01*
X106388737Y-122524665D01*
X106381391Y-122515334D01*
X106374072Y-122506155D01*
X106372619Y-122504297D01*
X106366054Y-122495735D01*
X106364763Y-122494020D01*
X106357648Y-122484401D01*
X106350604Y-122474962D01*
X106349236Y-122473093D01*
X106342463Y-122463655D01*
X106342099Y-122463145D01*
X106335503Y-122453855D01*
X106334093Y-122451826D01*
X106327420Y-122442019D01*
X106320823Y-122432457D01*
X106319443Y-122430413D01*
X106313529Y-122421465D01*
X106312342Y-122419635D01*
X106305903Y-122409510D01*
X106299507Y-122399538D01*
X106298339Y-122397681D01*
X106292289Y-122387871D01*
X106291840Y-122387136D01*
X106285574Y-122376816D01*
X106285115Y-122376054D01*
X106279245Y-122366228D01*
X106278065Y-122364211D01*
X106272059Y-122353713D01*
X106266297Y-122343717D01*
X106265236Y-122341839D01*
X106260032Y-122332436D01*
X106258942Y-122330424D01*
X106253229Y-122319636D01*
X106253229Y-122319635D01*
X106247748Y-122309345D01*
X106246783Y-122307495D01*
X106241508Y-122297176D01*
X106241013Y-122296198D01*
X106235702Y-122285578D01*
X106235298Y-122284763D01*
X106230004Y-122273980D01*
X106229506Y-122272953D01*
X106224583Y-122262688D01*
X106223731Y-122260873D01*
X106218723Y-122249983D01*
X106213769Y-122239246D01*
X106212862Y-122237234D01*
X106208474Y-122227261D01*
X106207722Y-122225514D01*
X106202946Y-122214191D01*
X106202878Y-122214031D01*
X106198193Y-122202880D01*
X106197736Y-122201776D01*
X106193423Y-122191227D01*
X106192722Y-122189475D01*
X106188463Y-122178588D01*
X106188131Y-122177731D01*
X106183897Y-122166667D01*
X106183476Y-122165549D01*
X106179314Y-122154351D01*
X106178902Y-122153228D01*
X106175084Y-122142644D01*
X106174419Y-122140752D01*
X106170482Y-122129259D01*
X106170444Y-122129147D01*
X106166664Y-122118078D01*
X106166023Y-122116150D01*
X106162459Y-122105126D01*
X106162174Y-122104233D01*
X106158549Y-122092724D01*
X106158190Y-122091565D01*
X106154798Y-122080416D01*
X106154451Y-122079254D01*
X106151117Y-122067898D01*
X106150782Y-122066738D01*
X106147664Y-122055722D01*
X106147224Y-122054126D01*
X106144078Y-122042417D01*
X106143933Y-122041872D01*
X106140985Y-122030697D01*
X106140529Y-122028915D01*
X106137732Y-122017637D01*
X106137440Y-122016434D01*
X106134692Y-122004860D01*
X106134470Y-122003910D01*
X106131802Y-121992266D01*
X106131534Y-121991068D01*
X106129033Y-121979634D01*
X106128777Y-121978436D01*
X106126368Y-121966877D01*
X106126118Y-121965645D01*
X106123817Y-121954015D01*
X106123630Y-121953051D01*
X106121508Y-121941861D01*
X106121162Y-121939955D01*
X106119104Y-121928093D01*
X106119006Y-121927521D01*
X106117065Y-121916014D01*
X106116803Y-121914396D01*
X106114988Y-121902695D01*
X106114858Y-121901833D01*
X106113153Y-121890307D01*
X106112927Y-121888709D01*
X106111379Y-121877212D01*
X106111221Y-121875990D01*
X106109760Y-121864259D01*
X106109611Y-121863013D01*
X106108231Y-121850937D01*
X106108150Y-121850208D01*
X106106920Y-121838850D01*
X106106742Y-121837095D01*
X106105658Y-121825553D01*
X106105569Y-121824556D01*
X106104547Y-121812642D01*
X106104444Y-121811364D01*
X106103560Y-121799636D01*
X106103473Y-121798404D01*
X106102711Y-121786747D01*
X106102635Y-121785486D01*
X106101990Y-121773788D01*
X106101926Y-121772512D01*
X106101401Y-121760796D01*
X106101349Y-121759475D01*
X106100939Y-121747463D01*
X106100910Y-121746508D01*
X106100597Y-121734662D01*
X106100567Y-121733159D01*
X106100403Y-121721683D01*
X106100391Y-121720412D01*
X106100342Y-121708281D01*
X106100341Y-121707780D01*
X106100341Y-91599442D01*
X106100343Y-91598693D01*
X106100417Y-91586450D01*
X106100428Y-91585433D01*
X106100593Y-91573848D01*
X106100623Y-91572336D01*
X106100934Y-91560577D01*
X106100974Y-91559313D01*
X106101402Y-91547635D01*
X106101444Y-91546621D01*
X106101979Y-91534693D01*
X106102042Y-91533430D01*
X106102682Y-91521809D01*
X106102774Y-91520300D01*
X106103562Y-91508594D01*
X106103634Y-91507584D01*
X106104529Y-91495733D01*
X106104630Y-91494476D01*
X106105625Y-91482873D01*
X106105740Y-91481610D01*
X106106867Y-91469879D01*
X106106996Y-91468605D01*
X106108237Y-91456953D01*
X106108378Y-91455691D01*
X106109766Y-91443815D01*
X106109886Y-91442826D01*
X106111325Y-91431316D01*
X106111522Y-91429813D01*
X106113127Y-91418137D01*
X106113276Y-91417089D01*
X106114988Y-91405376D01*
X106115179Y-91404114D01*
X106116968Y-91392697D01*
X106117208Y-91391221D01*
X106119199Y-91379445D01*
X106119332Y-91378673D01*
X106121370Y-91367066D01*
X106121655Y-91365502D01*
X106123809Y-91354095D01*
X106124044Y-91352884D01*
X106126333Y-91341390D01*
X106126541Y-91340368D01*
X106128975Y-91328661D01*
X106129243Y-91327405D01*
X106131748Y-91315953D01*
X106132029Y-91314698D01*
X106134644Y-91303310D01*
X106134939Y-91302059D01*
X106137668Y-91290715D01*
X106137992Y-91289397D01*
X106140882Y-91277937D01*
X106141121Y-91277004D01*
X106144117Y-91265501D01*
X106144466Y-91264191D01*
X106147545Y-91252878D01*
X106147889Y-91251642D01*
X106151072Y-91240407D01*
X106151380Y-91239335D01*
X106154688Y-91228047D01*
X106155123Y-91226597D01*
X106158571Y-91215342D01*
X106158875Y-91214363D01*
X106162432Y-91203086D01*
X106162782Y-91201996D01*
X106166446Y-91190743D01*
X106166869Y-91189466D01*
X106170602Y-91178410D01*
X106171014Y-91177210D01*
X106174862Y-91166187D01*
X106175320Y-91164900D01*
X106179338Y-91153785D01*
X106179694Y-91152812D01*
X106183778Y-91141803D01*
X106184255Y-91140538D01*
X106188493Y-91129485D01*
X106188900Y-91128438D01*
X106193189Y-91117548D01*
X106193692Y-91116290D01*
X106198130Y-91105373D01*
X106198570Y-91104305D01*
X106203137Y-91093364D01*
X106203619Y-91092227D01*
X106208160Y-91081646D01*
X106208742Y-91080310D01*
X106213552Y-91069456D01*
X106213975Y-91068512D01*
X106218862Y-91057728D01*
X106219376Y-91056610D01*
X106224314Y-91045995D01*
X106224887Y-91044779D01*
X106229980Y-91034134D01*
X106230431Y-91033201D01*
X106235581Y-91022664D01*
X106236229Y-91021358D01*
X106241473Y-91010941D01*
X106242038Y-91009833D01*
X106247444Y-90999357D01*
X106248017Y-90998261D01*
X106253546Y-90987804D01*
X106254028Y-90986900D01*
X106259627Y-90976519D01*
X106260275Y-90975333D01*
X106265902Y-90965167D01*
X106266621Y-90963887D01*
X106272507Y-90953544D01*
X106272959Y-90952756D01*
X106278834Y-90942606D01*
X106279514Y-90941445D01*
X106285553Y-90931268D01*
X106286199Y-90930192D01*
X106292253Y-90920221D01*
X106292909Y-90919154D01*
X106299070Y-90909234D01*
X106299783Y-90908100D01*
X106306147Y-90898096D01*
X106306721Y-90897201D01*
X106313118Y-90887333D01*
X106313888Y-90886160D01*
X106320377Y-90876394D01*
X106321047Y-90875396D01*
X106327655Y-90865657D01*
X106328240Y-90864803D01*
X106334973Y-90855056D01*
X106335807Y-90853863D01*
X106342517Y-90844389D01*
X106343227Y-90843398D01*
X106350122Y-90833863D01*
X106350864Y-90832847D01*
X106357849Y-90823391D01*
X106358593Y-90822395D01*
X106365737Y-90812924D01*
X106366378Y-90812082D01*
X106373536Y-90802759D01*
X106374437Y-90801599D01*
X106381684Y-90792388D01*
X106382356Y-90791541D01*
X106389734Y-90782330D01*
X106390519Y-90781360D01*
X106398007Y-90772202D01*
X106398837Y-90771199D01*
X106406258Y-90762315D01*
X106407082Y-90761337D01*
X106414781Y-90752311D01*
X106415511Y-90751464D01*
X106423251Y-90742554D01*
X106424100Y-90741587D01*
X106431828Y-90732875D01*
X106432690Y-90731913D01*
X106440618Y-90723161D01*
X106441391Y-90722316D01*
X106449411Y-90713625D01*
X106450308Y-90712663D01*
X106458295Y-90704190D01*
X106459196Y-90703244D01*
X106467385Y-90694738D01*
X106468188Y-90693912D01*
X106476362Y-90685578D01*
X106477297Y-90684635D01*
X106485699Y-90676250D01*
X106486527Y-90675431D01*
X106494921Y-90667210D01*
X106495748Y-90666407D01*
X106504234Y-90658249D01*
X106505215Y-90657317D01*
X106513814Y-90649229D01*
X106514680Y-90648422D01*
X106523273Y-90640493D01*
X106524277Y-90639577D01*
X106533018Y-90631687D01*
X106533783Y-90631002D01*
X106542636Y-90623143D01*
X106543647Y-90622255D01*
X106552370Y-90614679D01*
X106553423Y-90613775D01*
X106562473Y-90606091D01*
X106563286Y-90605406D01*
X106572375Y-90597822D01*
X106573298Y-90597060D01*
X106582345Y-90589658D01*
X106583431Y-90588779D01*
X106592520Y-90581512D01*
X106593474Y-90580757D01*
X106602923Y-90573353D01*
X106603791Y-90572679D01*
X106613018Y-90565580D01*
X106614132Y-90564733D01*
X106623462Y-90557721D01*
X106624461Y-90556978D01*
X106633990Y-90549965D01*
X106634892Y-90549308D01*
X106644488Y-90542378D01*
X106645499Y-90541655D01*
X106655135Y-90534842D01*
X106656182Y-90534110D01*
X106665754Y-90527489D01*
X106666810Y-90526767D01*
X106676524Y-90520195D01*
X106677574Y-90519492D01*
X106687367Y-90513011D01*
X106688328Y-90512381D01*
X106698267Y-90505935D01*
X106699349Y-90505242D01*
X106709246Y-90498968D01*
X106710347Y-90498278D01*
X106720369Y-90492071D01*
X106721363Y-90491462D01*
X106731386Y-90485384D01*
X106732491Y-90484721D01*
X106742601Y-90478733D01*
X106743616Y-90478138D01*
X106753926Y-90472163D01*
X106754957Y-90471573D01*
X106765068Y-90465842D01*
X106766233Y-90465190D01*
X106776505Y-90459513D01*
X106777644Y-90458891D01*
X106787982Y-90453318D01*
X106789043Y-90452753D01*
X106799593Y-90447197D01*
X106800568Y-90446689D01*
X106810949Y-90441339D01*
X106812236Y-90440685D01*
X106822637Y-90435477D01*
X106823634Y-90434983D01*
X106834391Y-90429717D01*
X106835487Y-90429187D01*
X106845945Y-90424194D01*
X106847140Y-90423632D01*
X106857863Y-90418652D01*
X106859011Y-90418126D01*
X106869679Y-90413303D01*
X106870698Y-90412847D01*
X106881566Y-90408051D01*
X106882805Y-90407513D01*
X106893523Y-90402922D01*
X106894581Y-90402474D01*
X106905407Y-90397955D01*
X106906668Y-90397437D01*
X106917655Y-90392992D01*
X106918744Y-90392557D01*
X106929628Y-90388273D01*
X106930776Y-90387828D01*
X106941810Y-90383611D01*
X106943002Y-90383162D01*
X106954029Y-90379077D01*
X106955128Y-90378676D01*
X106966224Y-90374684D01*
X106967429Y-90374258D01*
X106978421Y-90370431D01*
X106979640Y-90370013D01*
X106990907Y-90366221D01*
X106992031Y-90365849D01*
X107003155Y-90362223D01*
X107004286Y-90361860D01*
X107015472Y-90358332D01*
X107016787Y-90357926D01*
X107028095Y-90354497D01*
X107029176Y-90354174D01*
X107040467Y-90350862D01*
X107041709Y-90350505D01*
X107052959Y-90347332D01*
X107054126Y-90347009D01*
X107065517Y-90343916D01*
X107066778Y-90343581D01*
X107078155Y-90340620D01*
X107079258Y-90340338D01*
X107090636Y-90337488D01*
X107091905Y-90337177D01*
X107103388Y-90334429D01*
X107104599Y-90334146D01*
X107115992Y-90331540D01*
X107117186Y-90331273D01*
X107128744Y-90328749D01*
X107129931Y-90328496D01*
X107141500Y-90326088D01*
X107142745Y-90325835D01*
X107154144Y-90323584D01*
X107155382Y-90323346D01*
X107167017Y-90321171D01*
X107168212Y-90320954D01*
X107179789Y-90318907D01*
X107181011Y-90318697D01*
X107192631Y-90316762D01*
X107193865Y-90316563D01*
X107205403Y-90314761D01*
X107206607Y-90314579D01*
X107218302Y-90312870D01*
X107219529Y-90312697D01*
X107231218Y-90311108D01*
X107232490Y-90310942D01*
X107244107Y-90309485D01*
X107245303Y-90309341D01*
X107256985Y-90307991D01*
X107258198Y-90307857D01*
X107269874Y-90306624D01*
X107271141Y-90306496D01*
X107282881Y-90305378D01*
X107284122Y-90305267D01*
X107295815Y-90304272D01*
X107297030Y-90304174D01*
X107308811Y-90303288D01*
X107310044Y-90303202D01*
X107321734Y-90302440D01*
X107322978Y-90302365D01*
X107334756Y-90301716D01*
X107336009Y-90301653D01*
X107347754Y-90301125D01*
X107348991Y-90301076D01*
X107360691Y-90300667D01*
X107361937Y-90300629D01*
X107373745Y-90300335D01*
X107374960Y-90300311D01*
X107386757Y-90300133D01*
X107388005Y-90300121D01*
X107399956Y-90300061D01*
X107400579Y-90300059D01*
X116330383Y-90300059D01*
X116331081Y-90300264D01*
G37*
G36*
X187601150Y-89992062D02*
G01*
X187613151Y-89992133D01*
X187614369Y-89992146D01*
X187626186Y-89992332D01*
X187627441Y-89992358D01*
X187639077Y-89992659D01*
X187640314Y-89992698D01*
X187652026Y-89993118D01*
X187653281Y-89993169D01*
X187665061Y-89993711D01*
X187666284Y-89993773D01*
X187677981Y-89994427D01*
X187679048Y-89994492D01*
X187691145Y-89995273D01*
X187692547Y-89995371D01*
X187704068Y-89996246D01*
X187705512Y-89996364D01*
X187716947Y-89997367D01*
X187717942Y-89997459D01*
X187729899Y-89998605D01*
X187731140Y-89998730D01*
X187742838Y-89999970D01*
X187744016Y-90000100D01*
X187755721Y-90001454D01*
X187756957Y-90001604D01*
X187768573Y-90003066D01*
X187770111Y-90003269D01*
X187781670Y-90004871D01*
X187782531Y-90004993D01*
X187794421Y-90006726D01*
X187795580Y-90006901D01*
X187807168Y-90008702D01*
X187808783Y-90008964D01*
X187820147Y-90010884D01*
X187821335Y-90011091D01*
X187833007Y-90013180D01*
X187833763Y-90013317D01*
X187845555Y-90015503D01*
X187847176Y-90015815D01*
X187858432Y-90018057D01*
X187859600Y-90018295D01*
X187871168Y-90020715D01*
X187872325Y-90020963D01*
X187883859Y-90023491D01*
X187884997Y-90023746D01*
X187896575Y-90026398D01*
X187897734Y-90026670D01*
X187908964Y-90029356D01*
X187910662Y-90029774D01*
X187922061Y-90032671D01*
X187922645Y-90032821D01*
X187934167Y-90035809D01*
X187935852Y-90036259D01*
X187947011Y-90039321D01*
X187947491Y-90039454D01*
X187959252Y-90042732D01*
X187961004Y-90043234D01*
X187971991Y-90046471D01*
X187973108Y-90046806D01*
X187984470Y-90050270D01*
X187985553Y-90050605D01*
X187996506Y-90054054D01*
X187998316Y-90054640D01*
X188009475Y-90058343D01*
X188009745Y-90058433D01*
X188021127Y-90062239D01*
X188022949Y-90062864D01*
X188033661Y-90066632D01*
X188034746Y-90067019D01*
X188045808Y-90071026D01*
X188046824Y-90071399D01*
X188058105Y-90075597D01*
X188059105Y-90075974D01*
X188070171Y-90080201D01*
X188071176Y-90080590D01*
X188082404Y-90084991D01*
X188083402Y-90085387D01*
X188094136Y-90089702D01*
X188095983Y-90090462D01*
X188106422Y-90094855D01*
X188107420Y-90095280D01*
X188118402Y-90100015D01*
X188119332Y-90100421D01*
X188130296Y-90105255D01*
X188131275Y-90105691D01*
X188141770Y-90110427D01*
X188143629Y-90111285D01*
X188154287Y-90116308D01*
X188165255Y-90121469D01*
X188167162Y-90122386D01*
X188177411Y-90127424D01*
X188178336Y-90127884D01*
X188188590Y-90133031D01*
X188190467Y-90133992D01*
X188200969Y-90139489D01*
X188200968Y-90139489D01*
X188211637Y-90145053D01*
X188213484Y-90146036D01*
X188223457Y-90151453D01*
X188224348Y-90151942D01*
X188234882Y-90157776D01*
X188235688Y-90158226D01*
X188245690Y-90163863D01*
X188247574Y-90164947D01*
X188257359Y-90170690D01*
X188258155Y-90171161D01*
X188268542Y-90177362D01*
X188269371Y-90177861D01*
X188279563Y-90184054D01*
X188280310Y-90184512D01*
X188290800Y-90190988D01*
X188291530Y-90191442D01*
X188301242Y-90197531D01*
X188303142Y-90198746D01*
X188312736Y-90205007D01*
X188313442Y-90205472D01*
X188322952Y-90211771D01*
X188324851Y-90213054D01*
X188334437Y-90219661D01*
X188344374Y-90226442D01*
X188346282Y-90227770D01*
X188355681Y-90234445D01*
X188356269Y-90234865D01*
X188365564Y-90241548D01*
X188367485Y-90242958D01*
X188376805Y-90249934D01*
X188386460Y-90257067D01*
X188388341Y-90258485D01*
X188396804Y-90264989D01*
X188398619Y-90266410D01*
X188407553Y-90273544D01*
X188408142Y-90274018D01*
X188417839Y-90281858D01*
X188426671Y-90288910D01*
X188429634Y-90291351D01*
X188438010Y-90298474D01*
X188447069Y-90306071D01*
X188448891Y-90307629D01*
X188456913Y-90314625D01*
X188458650Y-90316169D01*
X188467353Y-90324051D01*
X188476222Y-90331954D01*
X188477969Y-90333540D01*
X188486396Y-90341342D01*
X188486881Y-90341793D01*
X188495276Y-90349649D01*
X188497088Y-90351380D01*
X188505225Y-90359309D01*
X188505614Y-90359690D01*
X188514394Y-90368321D01*
X188514822Y-90368744D01*
X188523096Y-90376957D01*
X188524810Y-90378691D01*
X188532731Y-90386869D01*
X188533156Y-90387311D01*
X188541632Y-90396149D01*
X188541992Y-90396526D01*
X188550104Y-90405056D01*
X188551815Y-90406892D01*
X188559409Y-90415208D01*
X188559780Y-90415616D01*
X188568226Y-90424948D01*
X188568556Y-90425314D01*
X188576299Y-90433938D01*
X188577921Y-90435781D01*
X188585481Y-90444544D01*
X188585817Y-90444935D01*
X188593222Y-90453591D01*
X188594856Y-90455542D01*
X188602163Y-90464447D01*
X188602443Y-90464789D01*
X188610457Y-90474627D01*
X188610734Y-90474968D01*
X188617854Y-90483772D01*
X188619419Y-90485747D01*
X188626472Y-90494840D01*
X188626750Y-90495200D01*
X188634538Y-90505317D01*
X188634789Y-90505645D01*
X188641710Y-90514698D01*
X188643194Y-90516679D01*
X188649987Y-90525942D01*
X188650269Y-90526329D01*
X188657098Y-90535717D01*
X188658524Y-90537718D01*
X188665097Y-90547141D01*
X188665320Y-90547462D01*
X188672548Y-90557894D01*
X188672778Y-90558227D01*
X188679353Y-90567783D01*
X188680703Y-90569787D01*
X188687194Y-90579626D01*
X188687438Y-90579997D01*
X188693669Y-90589516D01*
X188694992Y-90591582D01*
X188701037Y-90601228D01*
X188701222Y-90601524D01*
X188707426Y-90611486D01*
X188708763Y-90613682D01*
X188714703Y-90623676D01*
X188714829Y-90623890D01*
X188721149Y-90634572D01*
X188721320Y-90634862D01*
X188727324Y-90645073D01*
X188728545Y-90647197D01*
X188734294Y-90657432D01*
X188734470Y-90657746D01*
X188740021Y-90667696D01*
X188741198Y-90669857D01*
X188746726Y-90680245D01*
X188746879Y-90680533D01*
X188752712Y-90691564D01*
X188752763Y-90691772D01*
X188752809Y-90691749D01*
X188758315Y-90702204D01*
X188759466Y-90704444D01*
X188764146Y-90713786D01*
X188765257Y-90716062D01*
X188770272Y-90726605D01*
X188770377Y-90726826D01*
X188775827Y-90738342D01*
X188775918Y-90738533D01*
X188780861Y-90749024D01*
X188781891Y-90751269D01*
X188786593Y-90761787D01*
X188786637Y-90761993D01*
X188786677Y-90761976D01*
X188791456Y-90772714D01*
X188792460Y-90775034D01*
X188796995Y-90785810D01*
X188797096Y-90786050D01*
X188802019Y-90797817D01*
X188802063Y-90797923D01*
X188806581Y-90808750D01*
X188807509Y-90811036D01*
X188811326Y-90820721D01*
X188812253Y-90823148D01*
X188816306Y-90834099D01*
X188816339Y-90834188D01*
X188820809Y-90846294D01*
X188820878Y-90846482D01*
X188824861Y-90857323D01*
X188825693Y-90859661D01*
X188829535Y-90870802D01*
X188829573Y-90870912D01*
X188833352Y-90881904D01*
X188834164Y-90884345D01*
X188837744Y-90895506D01*
X188837743Y-90895506D01*
X188841299Y-90906580D01*
X188842108Y-90909198D01*
X188845415Y-90920337D01*
X188845416Y-90920340D01*
X188848758Y-90931598D01*
X188849446Y-90934005D01*
X188852535Y-90945237D01*
X188852545Y-90945314D01*
X188852555Y-90945312D01*
X188855961Y-90957727D01*
X188855979Y-90957864D01*
X188855997Y-90957860D01*
X188859119Y-90969289D01*
X188859740Y-90971653D01*
X188862300Y-90981808D01*
X188862897Y-90984281D01*
X188865498Y-90995571D01*
X188865512Y-90995697D01*
X188865526Y-90995694D01*
X188868165Y-91007202D01*
X188868692Y-91009611D01*
X188871054Y-91020941D01*
X188871066Y-91021066D01*
X188871079Y-91021064D01*
X188873716Y-91033777D01*
X188876104Y-91045278D01*
X188876596Y-91047776D01*
X188878746Y-91059315D01*
X188880888Y-91070806D01*
X188881339Y-91073373D01*
X188883047Y-91083741D01*
X188883431Y-91086228D01*
X188885089Y-91097748D01*
X188886931Y-91110479D01*
X188886943Y-91110655D01*
X188886956Y-91110654D01*
X188888631Y-91122348D01*
X188888948Y-91124724D01*
X188890396Y-91136443D01*
X188890415Y-91136595D01*
X188891834Y-91148197D01*
X188892101Y-91150569D01*
X188893169Y-91160957D01*
X188893410Y-91163580D01*
X188894353Y-91175174D01*
X188895429Y-91185681D01*
X188895837Y-91190653D01*
X188896476Y-91200987D01*
X188896480Y-91201136D01*
X188896485Y-91201136D01*
X188897273Y-91214131D01*
X188897272Y-91214131D01*
X188897990Y-91225878D01*
X188898116Y-91228341D01*
X188898599Y-91240079D01*
X188898603Y-91240167D01*
X188899074Y-91251815D01*
X188899149Y-91254270D01*
X188899392Y-91266059D01*
X188899392Y-91266066D01*
X188899633Y-91277791D01*
X188899659Y-91280339D01*
X188899659Y-121412799D01*
X188899633Y-121415352D01*
X188899392Y-121427057D01*
X188899392Y-121427059D01*
X188899150Y-121438802D01*
X188899074Y-121441273D01*
X188898602Y-121452908D01*
X188898599Y-121452994D01*
X188898115Y-121464724D01*
X188897989Y-121467184D01*
X188897265Y-121479018D01*
X188896567Y-121490765D01*
X188896366Y-121493587D01*
X188895428Y-121504974D01*
X188895417Y-121505112D01*
X188894450Y-121516693D01*
X188894249Y-121518868D01*
X188893057Y-121530639D01*
X188893044Y-121530767D01*
X188891714Y-121543766D01*
X188890656Y-121554156D01*
X188890035Y-121559220D01*
X188888538Y-121569638D01*
X188887102Y-121581196D01*
X188886791Y-121583517D01*
X188885265Y-121594147D01*
X188884906Y-121596487D01*
X188882998Y-121608186D01*
X188882934Y-121608576D01*
X188881078Y-121619732D01*
X188880638Y-121622217D01*
X188878523Y-121633505D01*
X188876117Y-121646568D01*
X188876043Y-121646963D01*
X188873942Y-121658166D01*
X188873471Y-121660548D01*
X188871341Y-121670794D01*
X188870798Y-121673279D01*
X188868173Y-121684720D01*
X188868174Y-121684721D01*
X188865275Y-121697390D01*
X188865256Y-121697470D01*
X188862678Y-121708702D01*
X188861971Y-121711620D01*
X188859403Y-121721684D01*
X188858937Y-121723456D01*
X188855828Y-121734930D01*
X188855653Y-121735570D01*
X188852300Y-121747683D01*
X188849232Y-121759009D01*
X188848422Y-121761859D01*
X188845199Y-121772718D01*
X188845152Y-121772877D01*
X188841793Y-121784139D01*
X188841080Y-121786449D01*
X188837592Y-121797362D01*
X188837391Y-121797986D01*
X188833771Y-121809109D01*
X188833219Y-121810763D01*
X188829416Y-121821913D01*
X188829172Y-121822623D01*
X188825410Y-121833438D01*
X188824616Y-121835651D01*
X188820562Y-121846630D01*
X188820541Y-121846688D01*
X188816449Y-121857753D01*
X188815626Y-121859916D01*
X188811281Y-121871020D01*
X188811282Y-121871021D01*
X188806520Y-121883196D01*
X188806515Y-121883209D01*
X188802352Y-121893849D01*
X188801109Y-121896906D01*
X188796730Y-121907276D01*
X188792145Y-121918134D01*
X188791209Y-121920293D01*
X188786871Y-121930046D01*
X188785950Y-121932067D01*
X188780865Y-121942968D01*
X188776294Y-121953034D01*
X188774795Y-121956214D01*
X188769761Y-121966512D01*
X188764670Y-121977181D01*
X188763658Y-121979251D01*
X188759136Y-121988291D01*
X188757577Y-121991304D01*
X188752280Y-122001205D01*
X188746401Y-122012442D01*
X188745899Y-122013392D01*
X188740672Y-122023174D01*
X188739573Y-122025186D01*
X188733755Y-122035606D01*
X188733754Y-122035605D01*
X188728252Y-122045465D01*
X188726534Y-122048446D01*
X188720807Y-122058070D01*
X188720796Y-122058088D01*
X188714181Y-122069200D01*
X188714179Y-122069205D01*
X188708148Y-122079335D01*
X188707018Y-122081195D01*
X188701223Y-122090551D01*
X188700100Y-122092329D01*
X188693545Y-122102520D01*
X188687222Y-122112500D01*
X188686057Y-122114304D01*
X188680520Y-122122716D01*
X188678526Y-122125653D01*
X188672120Y-122134803D01*
X188665118Y-122145055D01*
X188664312Y-122146221D01*
X188657874Y-122155419D01*
X188656667Y-122157112D01*
X188650032Y-122166261D01*
X188649177Y-122167427D01*
X188642169Y-122176857D01*
X188641832Y-122177307D01*
X188634425Y-122187180D01*
X188633525Y-122188365D01*
X188626548Y-122197436D01*
X188625617Y-122198632D01*
X188618312Y-122207893D01*
X188617990Y-122208300D01*
X188610392Y-122217850D01*
X188609432Y-122219041D01*
X188602875Y-122227077D01*
X188600578Y-122229811D01*
X188593258Y-122238272D01*
X188586831Y-122246160D01*
X188583222Y-122250392D01*
X188576241Y-122258215D01*
X188576240Y-122258214D01*
X188568106Y-122267374D01*
X188567868Y-122267642D01*
X188560256Y-122276163D01*
X188557954Y-122278669D01*
X188550169Y-122286916D01*
X188542610Y-122295164D01*
X188540139Y-122297782D01*
X188533070Y-122305059D01*
X188531793Y-122306354D01*
X188523171Y-122314972D01*
X188523172Y-122314973D01*
X188514570Y-122323581D01*
X188513257Y-122324875D01*
X188504631Y-122333254D01*
X188495985Y-122341654D01*
X188494723Y-122342863D01*
X188486554Y-122350579D01*
X188485168Y-122351868D01*
X188476324Y-122359968D01*
X188476325Y-122359969D01*
X188467380Y-122368165D01*
X188466189Y-122369242D01*
X188457743Y-122376782D01*
X188456255Y-122378089D01*
X188447824Y-122385377D01*
X188446598Y-122386423D01*
X188437163Y-122394367D01*
X188436987Y-122394515D01*
X188428637Y-122401519D01*
X188426070Y-122403615D01*
X188417035Y-122410790D01*
X188408353Y-122417875D01*
X188405555Y-122420092D01*
X188396683Y-122426915D01*
X188396682Y-122426914D01*
X188386371Y-122434844D01*
X188386372Y-122434845D01*
X188376863Y-122442162D01*
X188375218Y-122443406D01*
X188366323Y-122450018D01*
X188365125Y-122450898D01*
X188355972Y-122457533D01*
X188354269Y-122458745D01*
X188345148Y-122465125D01*
X188344042Y-122465890D01*
X188333733Y-122472935D01*
X188324511Y-122479386D01*
X188321703Y-122481293D01*
X188312897Y-122487100D01*
X188311682Y-122487891D01*
X188301573Y-122494389D01*
X188300892Y-122494824D01*
X188290823Y-122501204D01*
X188289761Y-122501869D01*
X188280112Y-122507847D01*
X188278247Y-122508980D01*
X188268127Y-122515006D01*
X188268094Y-122515026D01*
X188257582Y-122521281D01*
X188256446Y-122521949D01*
X188245868Y-122528092D01*
X188245152Y-122528504D01*
X188235111Y-122534246D01*
X188234002Y-122534873D01*
X188224604Y-122540120D01*
X188221590Y-122541748D01*
X188211560Y-122546989D01*
X188200597Y-122552857D01*
X188199480Y-122553447D01*
X188189416Y-122558702D01*
X188187509Y-122559677D01*
X188177836Y-122564517D01*
X188175754Y-122565534D01*
X188165176Y-122570582D01*
X188165157Y-122570591D01*
X188154044Y-122575892D01*
X188153129Y-122576324D01*
X188142650Y-122581218D01*
X188140515Y-122582191D01*
X188129695Y-122586997D01*
X188129694Y-122586996D01*
X188118854Y-122591816D01*
X188116708Y-122592746D01*
X188105909Y-122597305D01*
X188105896Y-122597311D01*
X188094494Y-122602123D01*
X188093631Y-122602483D01*
X188082488Y-122607087D01*
X188081165Y-122607625D01*
X188071424Y-122611519D01*
X188068387Y-122612687D01*
X188057752Y-122616618D01*
X188057751Y-122616617D01*
X188045583Y-122621116D01*
X188045574Y-122621120D01*
X188034897Y-122625066D01*
X188031879Y-122626137D01*
X188020989Y-122629844D01*
X188010324Y-122633558D01*
X188007247Y-122634584D01*
X187996378Y-122638052D01*
X187996366Y-122638056D01*
X187985070Y-122641659D01*
X187982798Y-122642360D01*
X187971528Y-122645718D01*
X187971492Y-122645729D01*
X187960213Y-122649086D01*
X187957896Y-122649751D01*
X187946934Y-122652783D01*
X187946344Y-122652944D01*
X187933947Y-122656307D01*
X187922957Y-122659342D01*
X187920027Y-122660113D01*
X187909988Y-122662623D01*
X187907623Y-122663190D01*
X187896100Y-122665832D01*
X187896082Y-122665836D01*
X187884586Y-122668470D01*
X187882200Y-122668992D01*
X187870703Y-122671389D01*
X187870690Y-122671392D01*
X187857987Y-122674039D01*
X187857962Y-122674044D01*
X187846519Y-122676426D01*
X187844101Y-122676904D01*
X187832592Y-122679062D01*
X187832159Y-122679142D01*
X187820692Y-122681250D01*
X187818639Y-122681610D01*
X187808315Y-122683329D01*
X187805500Y-122683765D01*
X187793974Y-122685412D01*
X187781578Y-122687219D01*
X187781252Y-122687266D01*
X187769523Y-122688943D01*
X187767036Y-122689273D01*
X187755311Y-122690708D01*
X187755310Y-122690707D01*
X187743654Y-122692138D01*
X187741111Y-122692423D01*
X187730542Y-122693499D01*
X187728276Y-122693709D01*
X187716721Y-122694671D01*
X187706226Y-122695743D01*
X187701237Y-122696150D01*
X187690774Y-122696792D01*
X187680293Y-122697647D01*
X187675296Y-122697953D01*
X187664989Y-122698375D01*
X187664845Y-122698381D01*
X187651547Y-122698910D01*
X187651546Y-122698909D01*
X187639878Y-122699385D01*
X187637396Y-122699461D01*
X187625696Y-122699703D01*
X187625622Y-122699705D01*
X187613970Y-122699939D01*
X187611480Y-122699964D01*
X178648817Y-122699964D01*
X178646327Y-122699939D01*
X178635872Y-122699729D01*
X178633401Y-122699655D01*
X178621388Y-122699174D01*
X178621388Y-122699171D01*
X178621291Y-122699170D01*
X178609727Y-122698698D01*
X178607212Y-122698570D01*
X178595460Y-122697851D01*
X178595460Y-122697849D01*
X178595424Y-122697848D01*
X178582516Y-122697054D01*
X178582516Y-122697055D01*
X178570791Y-122696340D01*
X178568265Y-122696160D01*
X178557825Y-122695309D01*
X178555311Y-122695078D01*
X178543600Y-122693883D01*
X178543600Y-122693881D01*
X178543560Y-122693879D01*
X178530821Y-122692575D01*
X178530748Y-122692545D01*
X178530633Y-122692556D01*
X178519056Y-122691353D01*
X178516756Y-122691092D01*
X178506139Y-122689788D01*
X178503779Y-122689475D01*
X178492343Y-122687847D01*
X178491909Y-122687785D01*
X178479149Y-122685922D01*
X178467549Y-122684263D01*
X178465157Y-122683897D01*
X178454834Y-122682214D01*
X178451914Y-122681702D01*
X178440666Y-122679591D01*
X178440666Y-122679590D01*
X178427981Y-122677213D01*
X178427981Y-122677210D01*
X178427954Y-122677208D01*
X178416247Y-122675011D01*
X178414347Y-122674640D01*
X178402629Y-122672251D01*
X178402137Y-122672149D01*
X178390830Y-122669796D01*
X178388363Y-122669257D01*
X178377079Y-122666668D01*
X178376552Y-122666545D01*
X178365430Y-122663942D01*
X178363608Y-122663501D01*
X178351782Y-122660544D01*
X178351782Y-122660545D01*
X178340547Y-122657737D01*
X178337540Y-122656945D01*
X178326624Y-122653924D01*
X178326624Y-122653923D01*
X178315084Y-122650732D01*
X178313394Y-122650252D01*
X178301681Y-122646833D01*
X178301069Y-122646652D01*
X178290265Y-122643438D01*
X178287899Y-122642709D01*
X178276905Y-122639198D01*
X178276219Y-122638977D01*
X178265248Y-122635403D01*
X178263685Y-122634882D01*
X178252394Y-122631037D01*
X178251629Y-122630773D01*
X178239992Y-122626725D01*
X178228904Y-122622946D01*
X178225944Y-122621894D01*
X178215253Y-122617945D01*
X178215227Y-122617936D01*
X178204611Y-122614012D01*
X178201574Y-122612844D01*
X178191828Y-122608948D01*
X178190513Y-122608414D01*
X178178925Y-122603627D01*
X178168769Y-122599561D01*
X178165472Y-122598186D01*
X178154954Y-122593619D01*
X178145126Y-122589467D01*
X178140950Y-122587611D01*
X178131127Y-122583027D01*
X178120023Y-122577980D01*
X178118876Y-122577451D01*
X178109056Y-122572866D01*
X178106092Y-122571434D01*
X178095921Y-122566352D01*
X178095887Y-122566335D01*
X178084798Y-122560790D01*
X178083802Y-122560286D01*
X178073359Y-122554946D01*
X178072377Y-122554439D01*
X178061888Y-122548957D01*
X178060814Y-122548389D01*
X178050821Y-122543041D01*
X178048878Y-122541978D01*
X178038519Y-122536194D01*
X178027116Y-122529831D01*
X178027116Y-122529830D01*
X178017302Y-122524358D01*
X178014231Y-122522588D01*
X178004631Y-122516869D01*
X178004631Y-122516868D01*
X177994431Y-122510794D01*
X177992602Y-122509684D01*
X177982390Y-122503361D01*
X177982390Y-122503360D01*
X177972829Y-122497449D01*
X177969800Y-122495515D01*
X177960440Y-122489346D01*
X177960440Y-122489345D01*
X177949628Y-122482225D01*
X177940247Y-122476051D01*
X177937301Y-122474051D01*
X177929015Y-122468250D01*
X177927363Y-122467073D01*
X177917589Y-122459989D01*
X177907822Y-122453146D01*
X177906233Y-122452014D01*
X177897878Y-122445962D01*
X177894971Y-122443790D01*
X177886147Y-122436996D01*
X177886147Y-122436997D01*
X177875785Y-122429032D01*
X177875727Y-122428987D01*
X177866095Y-122421574D01*
X177864896Y-122420640D01*
X177855588Y-122413293D01*
X177855254Y-122413028D01*
X177847111Y-122406555D01*
X177843139Y-122403261D01*
X177835309Y-122396486D01*
X177827415Y-122390053D01*
X177823176Y-122386437D01*
X177815458Y-122379547D01*
X177806459Y-122371771D01*
X177804977Y-122370469D01*
X177796443Y-122362854D01*
X177795240Y-122361766D01*
X177787064Y-122354276D01*
X177785660Y-122352970D01*
X177777486Y-122345246D01*
X177776226Y-122344039D01*
X177767565Y-122335621D01*
X177767565Y-122335620D01*
X177758935Y-122327238D01*
X177757666Y-122325987D01*
X177749078Y-122317402D01*
X177741715Y-122310251D01*
X177737954Y-122306437D01*
X177730769Y-122298829D01*
X177723050Y-122290881D01*
X177720594Y-122288279D01*
X177713614Y-122280664D01*
X177712497Y-122279428D01*
X177704369Y-122270318D01*
X177696774Y-122262025D01*
X177694494Y-122259465D01*
X177687731Y-122251658D01*
X177686577Y-122250307D01*
X177678660Y-122240899D01*
X177671378Y-122232479D01*
X177669092Y-122229758D01*
X177662521Y-122221705D01*
X177661490Y-122220424D01*
X177653811Y-122210754D01*
X177653620Y-122210513D01*
X177646364Y-122201329D01*
X177645360Y-122200040D01*
X177637934Y-122190382D01*
X177637925Y-122190371D01*
X177631042Y-122181417D01*
X177629026Y-122178720D01*
X177622287Y-122169443D01*
X177615080Y-122159740D01*
X177614231Y-122158583D01*
X177607991Y-122149976D01*
X177605992Y-122147137D01*
X177599730Y-122137970D01*
X177599369Y-122137438D01*
X177592456Y-122127205D01*
X177585566Y-122117105D01*
X177584457Y-122115451D01*
X177578837Y-122106922D01*
X177576955Y-122103976D01*
X177570986Y-122094336D01*
X177564480Y-122084072D01*
X177563798Y-122082983D01*
X177558133Y-122073837D01*
X177556340Y-122070850D01*
X177550621Y-122061009D01*
X177544881Y-122051366D01*
X177543145Y-122048353D01*
X177537648Y-122038499D01*
X177537648Y-122038498D01*
X177531855Y-122028120D01*
X177530792Y-122026176D01*
X177525212Y-122015745D01*
X177525219Y-122015741D01*
X177525196Y-122015716D01*
X177519457Y-122004981D01*
X177518926Y-122003977D01*
X177513545Y-121993686D01*
X177512525Y-121991692D01*
X177507232Y-121981108D01*
X177507228Y-121981099D01*
X177501900Y-121970443D01*
X177500920Y-121968439D01*
X177495841Y-121957807D01*
X177495816Y-121957754D01*
X177490539Y-121946694D01*
X177490084Y-121945729D01*
X177485228Y-121935322D01*
X177484269Y-121933217D01*
X177479909Y-121923399D01*
X177478999Y-121921297D01*
X177474404Y-121910412D01*
X177474404Y-121910411D01*
X177469581Y-121899009D01*
X177469153Y-121897986D01*
X177464646Y-121887059D01*
X177464144Y-121885822D01*
X177459758Y-121874855D01*
X177459433Y-121874034D01*
X177455265Y-121863393D01*
X177454402Y-121861125D01*
X177450509Y-121850583D01*
X177450232Y-121849825D01*
X177446120Y-121838463D01*
X177445583Y-121836948D01*
X177441636Y-121825584D01*
X177437911Y-121814897D01*
X177436867Y-121811768D01*
X177433405Y-121800916D01*
X177429815Y-121789663D01*
X177429100Y-121787344D01*
X177425725Y-121776003D01*
X177425725Y-121776002D01*
X177422029Y-121763610D01*
X177422019Y-121763579D01*
X177418769Y-121752673D01*
X177417903Y-121749624D01*
X177414872Y-121738416D01*
X177411861Y-121727533D01*
X177411068Y-121724522D01*
X177408503Y-121714257D01*
X177408061Y-121712429D01*
X177405433Y-121701190D01*
X177405316Y-121700686D01*
X177402450Y-121688194D01*
X177402457Y-121688192D01*
X177402433Y-121688121D01*
X177399816Y-121676683D01*
X177399304Y-121674343D01*
X177396902Y-121662827D01*
X177394548Y-121651565D01*
X177393962Y-121648576D01*
X177391882Y-121637245D01*
X177389715Y-121625690D01*
X177389268Y-121623163D01*
X177387420Y-121612047D01*
X177387369Y-121611737D01*
X177385453Y-121600029D01*
X177385062Y-121597477D01*
X177383369Y-121585583D01*
X177381753Y-121574518D01*
X177381370Y-121571665D01*
X177379959Y-121560135D01*
X177379959Y-121560134D01*
X177378524Y-121548411D01*
X177378249Y-121545966D01*
X177377046Y-121534210D01*
X177377041Y-121534155D01*
X177375842Y-121522386D01*
X177375633Y-121520136D01*
X177374665Y-121508543D01*
X177374701Y-121508539D01*
X177374646Y-121508327D01*
X177373604Y-121495579D01*
X177373599Y-121495517D01*
X177372657Y-121483921D01*
X177372473Y-121481310D01*
X177371828Y-121470563D01*
X177371710Y-121468232D01*
X177371224Y-121456421D01*
X177371221Y-121456360D01*
X177370748Y-121444726D01*
X177370672Y-121442233D01*
X177370431Y-121430497D01*
X177370164Y-121417531D01*
X177370162Y-121417394D01*
X177369959Y-121406979D01*
X177369959Y-121402148D01*
X177370164Y-121391624D01*
X177370164Y-121084966D01*
X177369935Y-121073166D01*
X177369912Y-121070760D01*
X177369912Y-121059034D01*
X177369430Y-121047349D01*
X177369351Y-121044786D01*
X177369110Y-121033092D01*
X177368393Y-121021379D01*
X177368266Y-121018891D01*
X177367783Y-121007166D01*
X177366998Y-120994208D01*
X177365937Y-120981233D01*
X177365936Y-120981225D01*
X177364875Y-120968255D01*
X177363553Y-120955270D01*
X177363553Y-120955269D01*
X177362229Y-120942332D01*
X177360642Y-120929309D01*
X177360642Y-120929308D01*
X177359058Y-120916434D01*
X177357209Y-120903713D01*
X177357176Y-120903483D01*
X177355366Y-120890864D01*
X177353506Y-120878079D01*
X177351383Y-120865053D01*
X177349041Y-120852556D01*
X177348972Y-120852185D01*
X177346652Y-120839596D01*
X177344241Y-120826731D01*
X177341588Y-120813997D01*
X177338687Y-120801329D01*
X177338687Y-120801323D01*
X177335785Y-120788648D01*
X177332866Y-120775929D01*
X177329695Y-120763499D01*
X177326478Y-120751625D01*
X177326015Y-120749866D01*
X177323069Y-120738327D01*
X177319501Y-120726334D01*
X177319323Y-120725730D01*
X177315693Y-120713300D01*
X177311953Y-120700756D01*
X177308103Y-120688943D01*
X177307863Y-120688199D01*
X177304032Y-120676189D01*
X177299789Y-120663732D01*
X177295560Y-120651575D01*
X177293589Y-120645912D01*
X177286701Y-120605904D01*
X177114893Y-92257651D01*
X177117002Y-92234114D01*
X177118833Y-92224319D01*
X177121204Y-92211566D01*
X177123312Y-92198764D01*
X177124972Y-92187224D01*
X177125363Y-92184691D01*
X177127282Y-92173054D01*
X177128860Y-92160248D01*
X177128869Y-92160173D01*
X177130475Y-92147198D01*
X177132046Y-92134347D01*
X177133373Y-92121409D01*
X177134689Y-92108505D01*
X177135751Y-92095537D01*
X177135753Y-92095537D01*
X177135752Y-92095516D01*
X177136809Y-92082623D01*
X177137597Y-92069604D01*
X177137618Y-92069605D01*
X177137606Y-92069438D01*
X177138399Y-92056607D01*
X177138925Y-92043651D01*
X177138933Y-92043651D01*
X177138927Y-92043574D01*
X177139459Y-92030640D01*
X177139717Y-92017737D01*
X177139718Y-92017669D01*
X177139985Y-92004647D01*
X177139985Y-91279243D01*
X177140010Y-91276777D01*
X177140242Y-91265115D01*
X177140264Y-91265043D01*
X177140244Y-91265043D01*
X177140485Y-91253277D01*
X177140561Y-91250790D01*
X177140984Y-91240363D01*
X177141118Y-91237746D01*
X177141838Y-91226072D01*
X177142312Y-91214358D01*
X177142438Y-91211863D01*
X177143071Y-91201415D01*
X177143258Y-91198790D01*
X177144213Y-91187132D01*
X177144219Y-91187132D01*
X177144216Y-91187077D01*
X177145182Y-91175348D01*
X177145397Y-91173011D01*
X177146574Y-91161409D01*
X177146592Y-91161238D01*
X177147792Y-91149570D01*
X177148066Y-91147137D01*
X177149506Y-91135415D01*
X177149506Y-91135405D01*
X177150937Y-91123763D01*
X177151277Y-91121220D01*
X177152944Y-91109642D01*
X177152946Y-91109624D01*
X177154620Y-91098009D01*
X177155002Y-91095535D01*
X177156917Y-91083915D01*
X177159002Y-91071251D01*
X177159027Y-91071104D01*
X177160946Y-91059536D01*
X177161386Y-91057043D01*
X177163313Y-91046735D01*
X177163776Y-91044382D01*
X177166178Y-91032780D01*
X177166202Y-91032785D01*
X177166202Y-91032660D01*
X177168826Y-91020048D01*
X177168835Y-91020049D01*
X177168835Y-91019996D01*
X177171215Y-91008581D01*
X177171741Y-91006179D01*
X177174094Y-90995916D01*
X177174691Y-90993430D01*
X177177525Y-90982143D01*
X177177552Y-90982035D01*
X177180711Y-90969501D01*
X177180724Y-90969449D01*
X177183602Y-90958051D01*
X177184250Y-90955591D01*
X177187027Y-90945472D01*
X177187677Y-90943191D01*
X177191034Y-90931815D01*
X177193818Y-90921729D01*
X177195240Y-90916953D01*
X177198460Y-90906883D01*
X177198460Y-90906879D01*
X177202427Y-90894474D01*
X177202472Y-90894488D01*
X177202482Y-90894300D01*
X177206004Y-90883342D01*
X177206799Y-90880951D01*
X177210570Y-90869988D01*
X177210626Y-90869826D01*
X177214867Y-90857552D01*
X177214867Y-90857547D01*
X177218285Y-90847656D01*
X177219990Y-90843024D01*
X177223858Y-90833125D01*
X177227913Y-90822188D01*
X177228801Y-90819864D01*
X177232671Y-90810035D01*
X177233622Y-90807691D01*
X177238074Y-90797027D01*
X177238145Y-90796856D01*
X177243173Y-90784863D01*
X177243216Y-90784757D01*
X177247676Y-90774146D01*
X177248735Y-90771700D01*
X177253465Y-90761091D01*
X177253506Y-90761041D01*
X177253492Y-90761035D01*
X177258269Y-90750335D01*
X177259337Y-90748008D01*
X177264341Y-90737394D01*
X177264348Y-90737397D01*
X177264431Y-90737201D01*
X177269336Y-90726843D01*
X177270442Y-90724568D01*
X177275717Y-90713992D01*
X177275727Y-90713997D01*
X177275826Y-90713770D01*
X177281420Y-90702610D01*
X177281532Y-90702387D01*
X177286794Y-90691942D01*
X177287955Y-90689695D01*
X177292863Y-90680428D01*
X177294027Y-90678282D01*
X177299772Y-90667931D01*
X177304773Y-90658591D01*
X177307057Y-90654512D01*
X177312502Y-90645201D01*
X177318225Y-90635065D01*
X177319492Y-90632872D01*
X177324814Y-90623879D01*
X177326107Y-90621744D01*
X177332238Y-90611844D01*
X177332425Y-90611542D01*
X177339074Y-90600874D01*
X177339218Y-90600644D01*
X177345446Y-90590700D01*
X177346801Y-90588584D01*
X177352991Y-90579132D01*
X177353230Y-90578769D01*
X177359740Y-90568904D01*
X177361063Y-90566941D01*
X177367644Y-90557371D01*
X177367950Y-90556928D01*
X177375040Y-90546713D01*
X177375195Y-90546489D01*
X177381849Y-90536947D01*
X177383375Y-90534809D01*
X177390105Y-90525581D01*
X177390283Y-90525336D01*
X177397950Y-90514877D01*
X177398240Y-90514484D01*
X177404884Y-90505495D01*
X177406361Y-90503537D01*
X177412832Y-90495135D01*
X177414350Y-90493204D01*
X177421501Y-90484290D01*
X177421837Y-90483873D01*
X177429809Y-90474023D01*
X177430086Y-90473682D01*
X177438019Y-90463951D01*
X177438333Y-90463568D01*
X177445610Y-90454714D01*
X177447171Y-90452852D01*
X177454652Y-90444105D01*
X177455018Y-90443679D01*
X177462504Y-90435006D01*
X177464093Y-90433201D01*
X177471882Y-90424523D01*
X177472261Y-90424102D01*
X177480526Y-90414978D01*
X177480977Y-90414483D01*
X177488735Y-90406011D01*
X177490313Y-90404320D01*
X177498263Y-90395957D01*
X177498688Y-90395512D01*
X177507280Y-90386563D01*
X177507680Y-90386149D01*
X177515639Y-90377936D01*
X177517319Y-90376234D01*
X177525588Y-90368024D01*
X177526070Y-90367549D01*
X177534163Y-90359601D01*
X177535871Y-90357955D01*
X177544502Y-90349796D01*
X177552309Y-90342287D01*
X177555335Y-90339472D01*
X177563578Y-90332054D01*
X177572239Y-90324127D01*
X177573999Y-90322547D01*
X177582625Y-90314948D01*
X177583167Y-90314473D01*
X177592353Y-90306475D01*
X177592930Y-90305976D01*
X177601617Y-90298506D01*
X177603355Y-90297039D01*
X177612218Y-90289696D01*
X177612814Y-90289205D01*
X177622377Y-90281382D01*
X177622979Y-90280893D01*
X177631729Y-90273826D01*
X177633514Y-90272411D01*
X177642693Y-90265272D01*
X177643339Y-90264773D01*
X177652911Y-90257429D01*
X177653512Y-90256971D01*
X177662679Y-90250026D01*
X177664557Y-90248631D01*
X177673877Y-90241843D01*
X177674517Y-90241380D01*
X177684322Y-90234334D01*
X177684972Y-90233870D01*
X177695061Y-90226718D01*
X177695750Y-90226233D01*
X177704991Y-90219776D01*
X177706873Y-90218486D01*
X177716413Y-90212078D01*
X177717128Y-90211602D01*
X177727237Y-90204913D01*
X177727929Y-90204458D01*
X177737493Y-90198221D01*
X177739453Y-90196969D01*
X177749572Y-90190637D01*
X177759449Y-90184395D01*
X177761392Y-90183192D01*
X177770602Y-90177606D01*
X177772479Y-90176490D01*
X177782892Y-90170422D01*
X177793106Y-90164439D01*
X177794953Y-90163378D01*
X177804950Y-90157750D01*
X177805787Y-90157284D01*
X177816385Y-90151425D01*
X177817219Y-90150968D01*
X177827227Y-90145535D01*
X177829146Y-90144515D01*
X177839723Y-90139010D01*
X177850265Y-90133504D01*
X177852109Y-90132561D01*
X177862372Y-90127417D01*
X177863310Y-90126952D01*
X177873522Y-90121941D01*
X177875426Y-90121026D01*
X177886411Y-90115866D01*
X177897087Y-90110844D01*
X177898947Y-90109988D01*
X177909477Y-90105245D01*
X177910451Y-90104811D01*
X177921339Y-90100019D01*
X177922268Y-90099615D01*
X177932807Y-90095079D01*
X177934696Y-90094284D01*
X177945824Y-90089711D01*
X177945911Y-90089701D01*
X177945903Y-90089680D01*
X177956877Y-90085179D01*
X177958733Y-90084435D01*
X177969437Y-90080245D01*
X177970482Y-90079842D01*
X177981664Y-90075581D01*
X177982646Y-90075211D01*
X177993785Y-90071074D01*
X177994845Y-90070686D01*
X178006034Y-90066646D01*
X178007062Y-90066280D01*
X178017741Y-90062530D01*
X178019558Y-90061907D01*
X178030542Y-90058240D01*
X178031592Y-90057895D01*
X178043056Y-90054181D01*
X178044138Y-90053836D01*
X178055413Y-90050297D01*
X178056475Y-90049969D01*
X178067818Y-90046520D01*
X178068936Y-90046186D01*
X178080331Y-90042838D01*
X178081436Y-90042519D01*
X178092752Y-90039308D01*
X178093831Y-90039007D01*
X178104830Y-90035993D01*
X178106592Y-90035524D01*
X178117762Y-90032639D01*
X178118919Y-90032346D01*
X178131010Y-90029347D01*
X178131539Y-90029217D01*
X178142674Y-90026507D01*
X178144354Y-90026110D01*
X178155671Y-90023522D01*
X178156869Y-90023255D01*
X178168409Y-90020736D01*
X178169569Y-90020488D01*
X178180765Y-90018156D01*
X178182399Y-90017827D01*
X178194370Y-90015501D01*
X178195069Y-90015368D01*
X178206659Y-90013185D01*
X178207870Y-90012963D01*
X178219224Y-90010941D01*
X178220811Y-90010669D01*
X178232631Y-90008722D01*
X178233428Y-90008593D01*
X178244893Y-90006781D01*
X178246455Y-90006545D01*
X178257992Y-90004872D01*
X178259223Y-90004699D01*
X178271257Y-90003077D01*
X178272107Y-90002966D01*
X178283504Y-90001510D01*
X178285057Y-90001321D01*
X178296662Y-89999987D01*
X178297867Y-89999855D01*
X178309613Y-89998621D01*
X178310809Y-89998501D01*
X178322618Y-89997376D01*
X178323859Y-89997264D01*
X178335522Y-89996271D01*
X178336751Y-89996172D01*
X178348557Y-89995285D01*
X178349799Y-89995198D01*
X178361469Y-89994439D01*
X178362694Y-89994366D01*
X178374435Y-89993719D01*
X178375665Y-89993657D01*
X178387360Y-89993129D01*
X178388608Y-89993079D01*
X178400387Y-89992666D01*
X178401614Y-89992629D01*
X178413341Y-89992334D01*
X178414596Y-89992309D01*
X178426244Y-89992134D01*
X178427508Y-89992121D01*
X178439935Y-89992061D01*
X178440534Y-89992060D01*
X187600416Y-89992060D01*
X187601150Y-89992062D01*
G37*
G36*
X165532585Y-90300061D02*
G01*
X165533060Y-90300063D01*
X165545085Y-90300132D01*
X165546339Y-90300146D01*
X165558007Y-90300331D01*
X165559233Y-90300356D01*
X165570962Y-90300658D01*
X165572218Y-90300697D01*
X165583918Y-90301117D01*
X165585161Y-90301168D01*
X165596915Y-90301708D01*
X165598144Y-90301770D01*
X165609934Y-90302429D01*
X165611170Y-90302505D01*
X165622881Y-90303277D01*
X165624117Y-90303364D01*
X165635728Y-90304246D01*
X165636950Y-90304345D01*
X165648834Y-90305366D01*
X165650059Y-90305477D01*
X165661684Y-90306592D01*
X165662903Y-90306716D01*
X165674735Y-90307969D01*
X165675965Y-90308105D01*
X165687681Y-90309464D01*
X165688859Y-90309606D01*
X165700537Y-90311074D01*
X165702085Y-90311279D01*
X165713412Y-90312848D01*
X165714271Y-90312970D01*
X165726141Y-90314699D01*
X165727739Y-90314942D01*
X165739173Y-90316760D01*
X165739922Y-90316882D01*
X165751781Y-90318842D01*
X165753425Y-90319125D01*
X165764763Y-90321156D01*
X165765923Y-90321369D01*
X165777592Y-90323574D01*
X165778323Y-90323715D01*
X165790127Y-90326019D01*
X165791755Y-90326348D01*
X165803078Y-90328716D01*
X165804247Y-90328966D01*
X165815747Y-90331487D01*
X165816885Y-90331742D01*
X165828173Y-90334328D01*
X165829894Y-90334735D01*
X165841227Y-90337502D01*
X165841811Y-90337647D01*
X165853600Y-90340586D01*
X165854684Y-90340861D01*
X165866005Y-90343792D01*
X165867768Y-90344262D01*
X165878807Y-90347294D01*
X165879937Y-90347610D01*
X165891195Y-90350817D01*
X165892248Y-90351122D01*
X165903564Y-90354454D01*
X165904685Y-90354790D01*
X165916108Y-90358271D01*
X165917201Y-90358610D01*
X165928489Y-90362164D01*
X165929545Y-90362502D01*
X165941020Y-90366228D01*
X165942066Y-90366572D01*
X165953024Y-90370238D01*
X165954843Y-90370862D01*
X165965571Y-90374637D01*
X165966617Y-90375011D01*
X165977750Y-90379041D01*
X165978801Y-90379427D01*
X165989899Y-90383558D01*
X165990887Y-90383930D01*
X166002074Y-90388203D01*
X166003066Y-90388587D01*
X166013872Y-90392821D01*
X166015776Y-90393585D01*
X166026690Y-90398071D01*
X166026793Y-90398114D01*
X166037922Y-90402700D01*
X166039729Y-90403461D01*
X166050270Y-90408001D01*
X166051251Y-90408429D01*
X166062186Y-90413251D01*
X166063147Y-90413679D01*
X166073678Y-90418430D01*
X166075542Y-90419290D01*
X166085722Y-90424087D01*
X166086674Y-90424540D01*
X166097902Y-90429948D01*
X166097901Y-90429948D01*
X166108331Y-90434963D01*
X166111177Y-90436376D01*
X166121203Y-90441517D01*
X166121202Y-90441517D01*
X166132333Y-90447211D01*
X166133214Y-90447666D01*
X166143510Y-90453037D01*
X166145347Y-90454015D01*
X166155360Y-90459454D01*
X166156244Y-90459938D01*
X166166203Y-90465453D01*
X166168081Y-90466515D01*
X166178286Y-90472400D01*
X166188684Y-90478364D01*
X166190602Y-90479487D01*
X166200505Y-90485405D01*
X166201232Y-90485843D01*
X166211487Y-90492067D01*
X166212276Y-90492550D01*
X166222043Y-90498578D01*
X166223975Y-90499795D01*
X166233835Y-90506134D01*
X166244008Y-90512612D01*
X166245895Y-90513838D01*
X166254896Y-90519802D01*
X166256785Y-90521078D01*
X166266498Y-90527773D01*
X166276341Y-90534494D01*
X166278154Y-90535755D01*
X166287434Y-90542336D01*
X166288107Y-90542817D01*
X166297478Y-90549557D01*
X166299386Y-90550957D01*
X166308451Y-90557743D01*
X166309033Y-90558181D01*
X166318674Y-90565487D01*
X166319342Y-90565997D01*
X166329045Y-90573454D01*
X166329619Y-90573899D01*
X166338763Y-90581012D01*
X166340611Y-90582477D01*
X166349537Y-90589697D01*
X166350102Y-90590157D01*
X166359459Y-90597817D01*
X166360075Y-90598325D01*
X166368964Y-90605698D01*
X166370691Y-90607157D01*
X166379435Y-90614683D01*
X166380013Y-90615183D01*
X166389094Y-90623097D01*
X166389622Y-90623560D01*
X166399015Y-90631840D01*
X166399530Y-90632297D01*
X166408114Y-90639949D01*
X166409838Y-90641515D01*
X166417659Y-90648755D01*
X166419458Y-90650454D01*
X166427802Y-90658493D01*
X166436404Y-90666625D01*
X166438183Y-90668340D01*
X166446458Y-90676481D01*
X166446867Y-90676885D01*
X166454980Y-90684941D01*
X166456674Y-90686656D01*
X166464650Y-90694890D01*
X166465033Y-90695288D01*
X166473638Y-90704251D01*
X166474096Y-90704730D01*
X166482012Y-90713064D01*
X166483652Y-90714825D01*
X166491276Y-90723170D01*
X166491670Y-90723604D01*
X166500135Y-90732958D01*
X166500469Y-90733328D01*
X166508207Y-90741948D01*
X166509823Y-90743785D01*
X166517348Y-90752508D01*
X166517718Y-90752938D01*
X166525154Y-90761638D01*
X166526719Y-90763505D01*
X166534094Y-90772485D01*
X166534400Y-90772861D01*
X166542048Y-90782248D01*
X166542356Y-90782627D01*
X166549802Y-90791840D01*
X166551309Y-90793742D01*
X166558391Y-90802864D01*
X166558712Y-90803279D01*
X166566164Y-90812962D01*
X166566435Y-90813316D01*
X166573656Y-90822769D01*
X166575114Y-90824717D01*
X166581965Y-90834060D01*
X166582209Y-90834393D01*
X166588978Y-90843689D01*
X166590430Y-90845726D01*
X166596898Y-90854996D01*
X166597033Y-90855400D01*
X166597131Y-90855333D01*
X166603835Y-90865009D01*
X166605205Y-90867028D01*
X166611690Y-90876794D01*
X166617804Y-90885740D01*
X166620319Y-90889570D01*
X166625973Y-90898539D01*
X166632438Y-90908478D01*
X166633770Y-90910572D01*
X166639340Y-90919523D01*
X166640616Y-90921619D01*
X166646417Y-90931366D01*
X166646604Y-90931682D01*
X166653086Y-90942647D01*
X166653159Y-90942917D01*
X166653223Y-90942880D01*
X166659220Y-90953075D01*
X166660447Y-90955209D01*
X166666182Y-90965417D01*
X166666331Y-90965683D01*
X166671885Y-90975626D01*
X166673155Y-90977958D01*
X166678616Y-90988246D01*
X166678643Y-90988296D01*
X166684098Y-90998584D01*
X166685298Y-91000906D01*
X166690455Y-91011148D01*
X166696351Y-91022940D01*
X166696400Y-91023037D01*
X166701610Y-91033480D01*
X166702711Y-91035745D01*
X166707727Y-91046332D01*
X166707832Y-91046555D01*
X166712727Y-91056940D01*
X166713808Y-91059295D01*
X166718575Y-91069982D01*
X166718614Y-91070069D01*
X166723340Y-91080686D01*
X166724366Y-91083058D01*
X166728881Y-91093798D01*
X166728887Y-91093828D01*
X166728892Y-91093826D01*
X166733843Y-91105611D01*
X166734008Y-91106004D01*
X166738470Y-91116728D01*
X166739361Y-91118931D01*
X166743255Y-91128820D01*
X166744147Y-91131153D01*
X166748206Y-91142103D01*
X166748270Y-91142276D01*
X166752709Y-91154306D01*
X166752760Y-91154445D01*
X166756765Y-91165339D01*
X166757604Y-91167694D01*
X166761436Y-91178804D01*
X166761488Y-91178954D01*
X166765266Y-91189953D01*
X166766055Y-91192329D01*
X166769639Y-91203492D01*
X166769662Y-91203564D01*
X166773219Y-91214666D01*
X166773961Y-91217066D01*
X166777313Y-91228307D01*
X166777377Y-91228521D01*
X166780664Y-91239617D01*
X166781333Y-91241960D01*
X166784454Y-91253310D01*
X166784453Y-91253310D01*
X166784473Y-91253379D01*
X166787560Y-91264631D01*
X166788205Y-91267076D01*
X166791040Y-91278302D01*
X166791055Y-91278425D01*
X166791070Y-91278422D01*
X166794244Y-91291043D01*
X166794242Y-91291043D01*
X166794258Y-91291099D01*
X166797121Y-91302506D01*
X166797699Y-91304910D01*
X166800046Y-91315119D01*
X166800588Y-91317592D01*
X166802969Y-91329012D01*
X166802974Y-91329066D01*
X166802980Y-91329065D01*
X166805602Y-91341668D01*
X166805614Y-91341793D01*
X166805627Y-91341791D01*
X166808017Y-91353337D01*
X166808495Y-91355769D01*
X166810425Y-91366132D01*
X166810854Y-91368571D01*
X166812768Y-91380126D01*
X166812768Y-91380128D01*
X166814889Y-91392934D01*
X166814915Y-91393092D01*
X166816803Y-91404583D01*
X166817175Y-91406993D01*
X166818840Y-91418542D01*
X166818848Y-91418661D01*
X166818857Y-91418660D01*
X166820535Y-91430378D01*
X166820848Y-91432722D01*
X166822132Y-91443095D01*
X166822430Y-91445734D01*
X166823616Y-91457355D01*
X166824898Y-91467787D01*
X166825408Y-91472773D01*
X166826263Y-91483200D01*
X166826271Y-91483296D01*
X166827314Y-91496139D01*
X166828273Y-91507861D01*
X166828455Y-91510399D01*
X166829171Y-91522101D01*
X166829171Y-91522109D01*
X166829888Y-91533839D01*
X166830018Y-91536389D01*
X166830493Y-91548125D01*
X166830492Y-91548125D01*
X166830971Y-91559782D01*
X166831050Y-91562317D01*
X166831292Y-91574060D01*
X166831285Y-91574085D01*
X166831293Y-91574137D01*
X166831526Y-91585799D01*
X166831551Y-91588276D01*
X166831551Y-92003616D01*
X166831818Y-92016637D01*
X166831819Y-92016697D01*
X166832077Y-92029628D01*
X166832612Y-92042615D01*
X166832616Y-92042702D01*
X166833138Y-92055627D01*
X166833930Y-92068549D01*
X166833931Y-92068572D01*
X166834723Y-92081555D01*
X166835783Y-92094474D01*
X166835784Y-92094499D01*
X166835785Y-92094499D01*
X166836844Y-92107455D01*
X166838165Y-92120398D01*
X166839482Y-92133297D01*
X166840815Y-92146267D01*
X166842488Y-92157895D01*
X166842821Y-92160391D01*
X166844252Y-92172011D01*
X166846105Y-92184868D01*
X166848220Y-92197730D01*
X166850348Y-92210655D01*
X166852454Y-92223348D01*
X166854857Y-92234949D01*
X166855328Y-92237340D01*
X166857487Y-92248904D01*
X166860122Y-92261608D01*
X166862756Y-92273086D01*
X166863276Y-92275460D01*
X166865681Y-92286971D01*
X166868850Y-92299599D01*
X166872019Y-92312197D01*
X166875204Y-92324813D01*
X166878639Y-92337332D01*
X166882083Y-92349860D01*
X166885789Y-92362367D01*
X166889407Y-92373706D01*
X166890083Y-92375895D01*
X166894170Y-92389572D01*
X166893791Y-92389685D01*
X166900000Y-92426939D01*
X166900000Y-98376000D01*
X166880315Y-98443039D01*
X166827511Y-98488794D01*
X166776000Y-98500000D01*
X164800000Y-98500000D01*
X164800000Y-114000000D01*
X166776000Y-114000000D01*
X166843039Y-114019685D01*
X166888794Y-114072489D01*
X166900000Y-114124000D01*
X166900000Y-120649433D01*
X166894101Y-120687225D01*
X166893998Y-120687543D01*
X166893999Y-120687544D01*
X166890010Y-120700021D01*
X166886054Y-120712424D01*
X166882923Y-120723736D01*
X166882271Y-120726006D01*
X166878912Y-120737294D01*
X166875472Y-120749727D01*
X166872313Y-120762369D01*
X166872299Y-120762428D01*
X166869178Y-120774889D01*
X166869041Y-120775430D01*
X166865940Y-120787575D01*
X166863037Y-120800257D01*
X166860395Y-120812939D01*
X166860390Y-120812962D01*
X166857754Y-120825599D01*
X166855103Y-120838624D01*
X166852715Y-120851319D01*
X166850765Y-120863036D01*
X166850410Y-120865065D01*
X166848222Y-120876982D01*
X166846339Y-120889890D01*
X166844527Y-120902605D01*
X166844522Y-120902644D01*
X166842663Y-120915650D01*
X166841065Y-120928439D01*
X166839485Y-120941279D01*
X166838166Y-120954242D01*
X166838166Y-120954243D01*
X166836844Y-120967218D01*
X166835786Y-120980167D01*
X166835786Y-120980173D01*
X166834725Y-120993132D01*
X166833933Y-121006092D01*
X166833932Y-121006103D01*
X166833138Y-121019062D01*
X166832615Y-121031958D01*
X166832612Y-121032034D01*
X166832077Y-121045006D01*
X166831819Y-121057896D01*
X166831818Y-121057960D01*
X166831551Y-121070938D01*
X166831551Y-121412865D01*
X166831526Y-121415347D01*
X166831293Y-121426986D01*
X166831292Y-121427058D01*
X166831051Y-121438755D01*
X166830972Y-121441307D01*
X166830489Y-121453026D01*
X166830016Y-121464675D01*
X166829887Y-121467219D01*
X166829167Y-121478987D01*
X166829166Y-121478986D01*
X166828457Y-121490807D01*
X166828267Y-121493487D01*
X166827328Y-121504969D01*
X166827317Y-121505111D01*
X166826361Y-121516638D01*
X166826140Y-121519019D01*
X166824939Y-121530742D01*
X166824940Y-121530743D01*
X166823743Y-121542495D01*
X166823463Y-121544989D01*
X166822031Y-121556693D01*
X166822029Y-121556710D01*
X166820615Y-121568254D01*
X166820235Y-121571089D01*
X166818563Y-121582543D01*
X166816738Y-121595303D01*
X166816739Y-121595304D01*
X166815099Y-121606817D01*
X166814645Y-121609749D01*
X166812969Y-121619788D01*
X166812540Y-121622210D01*
X166810378Y-121633745D01*
X166808272Y-121645214D01*
X166807703Y-121648117D01*
X166805362Y-121659349D01*
X166805359Y-121659364D01*
X166802720Y-121672015D01*
X166802721Y-121672016D01*
X166800338Y-121683484D01*
X166799790Y-121685990D01*
X166797425Y-121696296D01*
X166796864Y-121698634D01*
X166794024Y-121709995D01*
X166793875Y-121710587D01*
X166790794Y-121722655D01*
X166787996Y-121733828D01*
X166787223Y-121736762D01*
X166784161Y-121747827D01*
X166781137Y-121758986D01*
X166780306Y-121761909D01*
X166777393Y-121771700D01*
X166776679Y-121774017D01*
X166773084Y-121785287D01*
X166770165Y-121795078D01*
X166768474Y-121800322D01*
X166765142Y-121809914D01*
X166761677Y-121820778D01*
X166760635Y-121823901D01*
X166757303Y-121833461D01*
X166756535Y-121835602D01*
X166752463Y-121846630D01*
X166752441Y-121846688D01*
X166748349Y-121857753D01*
X166747526Y-121859916D01*
X166743181Y-121871020D01*
X166743182Y-121871021D01*
X166738420Y-121883196D01*
X166738417Y-121883204D01*
X166734253Y-121893848D01*
X166733007Y-121896911D01*
X166729089Y-121906189D01*
X166728164Y-121908324D01*
X166723343Y-121919168D01*
X166723334Y-121919188D01*
X166718025Y-121931124D01*
X166713438Y-121941453D01*
X166712029Y-121944514D01*
X166707167Y-121954706D01*
X166701904Y-121965973D01*
X166701474Y-121966884D01*
X166696564Y-121977176D01*
X166695550Y-121979253D01*
X166691013Y-121988324D01*
X166689476Y-121991296D01*
X166684156Y-122001250D01*
X166678333Y-122012381D01*
X166677799Y-122013391D01*
X166672518Y-122023262D01*
X166671476Y-122025169D01*
X166665672Y-122035575D01*
X166665656Y-122035603D01*
X166660152Y-122045465D01*
X166658434Y-122048446D01*
X166652707Y-122058070D01*
X166652694Y-122058091D01*
X166646662Y-122068223D01*
X166645538Y-122070075D01*
X166639216Y-122080283D01*
X166633681Y-122089582D01*
X166631444Y-122093196D01*
X166625810Y-122101962D01*
X166625053Y-122103126D01*
X166618292Y-122113391D01*
X166618291Y-122113390D01*
X166611546Y-122123635D01*
X166610766Y-122124806D01*
X166604210Y-122134521D01*
X166603818Y-122135098D01*
X166597579Y-122144232D01*
X166595579Y-122147074D01*
X166588926Y-122156250D01*
X166583108Y-122164560D01*
X166579840Y-122169013D01*
X166573577Y-122177158D01*
X166566945Y-122186306D01*
X166564810Y-122189164D01*
X166558424Y-122197458D01*
X166557529Y-122198606D01*
X166550241Y-122207845D01*
X166549961Y-122208199D01*
X166542298Y-122217841D01*
X166541295Y-122219086D01*
X166534771Y-122227081D01*
X166532480Y-122229808D01*
X166525133Y-122238300D01*
X166517198Y-122247723D01*
X166516165Y-122248934D01*
X166509414Y-122256744D01*
X166507036Y-122259417D01*
X166499508Y-122267633D01*
X166491287Y-122276843D01*
X166490190Y-122278055D01*
X166482662Y-122286267D01*
X166481417Y-122287605D01*
X166473632Y-122295850D01*
X166472410Y-122297126D01*
X166464051Y-122305730D01*
X166464041Y-122305741D01*
X166455609Y-122314418D01*
X166454401Y-122315644D01*
X166446478Y-122323574D01*
X166445151Y-122324882D01*
X166436525Y-122333260D01*
X166427888Y-122341650D01*
X166426610Y-122342874D01*
X166418440Y-122350587D01*
X166417103Y-122351830D01*
X166408818Y-122359424D01*
X166407582Y-122360542D01*
X166398436Y-122368701D01*
X166390851Y-122375657D01*
X166386890Y-122379137D01*
X166378865Y-122385890D01*
X166370386Y-122393224D01*
X166367706Y-122395477D01*
X166359093Y-122402511D01*
X166359010Y-122402578D01*
X166348962Y-122410768D01*
X166348963Y-122410769D01*
X166340289Y-122417845D01*
X166337483Y-122420067D01*
X166328610Y-122426887D01*
X166328611Y-122426888D01*
X166318269Y-122434848D01*
X166318258Y-122434857D01*
X166309373Y-122441694D01*
X166306501Y-122443838D01*
X166297345Y-122450470D01*
X166289047Y-122456643D01*
X166284968Y-122459551D01*
X166276219Y-122465524D01*
X166266197Y-122472541D01*
X166265000Y-122473368D01*
X166255595Y-122479789D01*
X166253917Y-122480915D01*
X166243976Y-122487467D01*
X166243903Y-122487515D01*
X166233930Y-122494078D01*
X166232163Y-122495219D01*
X166222807Y-122501151D01*
X166221711Y-122501838D01*
X166212055Y-122507820D01*
X166210167Y-122508967D01*
X166199996Y-122515020D01*
X166199992Y-122515022D01*
X166189474Y-122521281D01*
X166188366Y-122521933D01*
X166178399Y-122527725D01*
X166176554Y-122528776D01*
X166166132Y-122534596D01*
X166166115Y-122534605D01*
X166155734Y-122540400D01*
X166153782Y-122541467D01*
X166143362Y-122547041D01*
X166132500Y-122552855D01*
X166131408Y-122553433D01*
X166121345Y-122558691D01*
X166119374Y-122559698D01*
X166109718Y-122564526D01*
X166107668Y-122565528D01*
X166097075Y-122570583D01*
X166097052Y-122570594D01*
X166085944Y-122575892D01*
X166085068Y-122576305D01*
X166074578Y-122581208D01*
X166072386Y-122582207D01*
X166061585Y-122587002D01*
X166050753Y-122591817D01*
X166048609Y-122592746D01*
X166037807Y-122597306D01*
X166037796Y-122597311D01*
X166026394Y-122602123D01*
X166025538Y-122602480D01*
X166014818Y-122606910D01*
X166012641Y-122607786D01*
X166002231Y-122611859D01*
X166000852Y-122612389D01*
X165990036Y-122616473D01*
X165989224Y-122616777D01*
X165977877Y-122620971D01*
X165977086Y-122621260D01*
X165965785Y-122625350D01*
X165964285Y-122625881D01*
X165953251Y-122629715D01*
X165952577Y-122629948D01*
X165941194Y-122633830D01*
X165939580Y-122634368D01*
X165928668Y-122637923D01*
X165927937Y-122638158D01*
X165916970Y-122641656D01*
X165914721Y-122642350D01*
X165903405Y-122645724D01*
X165903366Y-122645736D01*
X165892436Y-122648991D01*
X165889466Y-122649835D01*
X165878249Y-122652873D01*
X165866286Y-122656183D01*
X165865624Y-122656365D01*
X165853935Y-122659529D01*
X165852194Y-122659986D01*
X165842169Y-122662544D01*
X165839224Y-122663257D01*
X165828007Y-122665829D01*
X165827985Y-122665835D01*
X165816453Y-122668477D01*
X165814073Y-122668997D01*
X165802606Y-122671388D01*
X165802590Y-122671392D01*
X165789887Y-122674039D01*
X165789867Y-122674043D01*
X165778604Y-122676388D01*
X165775716Y-122676953D01*
X165764178Y-122679070D01*
X165752785Y-122681209D01*
X165750274Y-122681654D01*
X165740193Y-122683332D01*
X165737390Y-122683766D01*
X165725896Y-122685410D01*
X165725860Y-122685415D01*
X165712877Y-122687268D01*
X165701598Y-122688913D01*
X165698787Y-122689290D01*
X165687233Y-122690706D01*
X165687228Y-122690707D01*
X165675515Y-122692142D01*
X165673003Y-122692423D01*
X165662549Y-122693488D01*
X165660062Y-122693717D01*
X165648321Y-122694674D01*
X165637828Y-122695745D01*
X165632861Y-122696151D01*
X165622376Y-122696796D01*
X165611948Y-122697646D01*
X165606945Y-122697952D01*
X165596479Y-122698380D01*
X165596446Y-122698382D01*
X165583499Y-122698908D01*
X165583498Y-122698907D01*
X165571841Y-122699384D01*
X165569329Y-122699462D01*
X165557582Y-122699704D01*
X165557518Y-122699705D01*
X165545867Y-122699939D01*
X165543377Y-122699964D01*
X163424000Y-122699964D01*
X163356961Y-122680279D01*
X163311206Y-122627475D01*
X163300000Y-122575964D01*
X163300000Y-122151362D01*
X163319685Y-122084323D01*
X163336319Y-122063681D01*
X163350000Y-122050000D01*
X163350000Y-115700000D01*
X161050000Y-115700000D01*
X161050000Y-122050000D01*
X161063681Y-122063681D01*
X161097166Y-122125004D01*
X161100000Y-122151362D01*
X161100000Y-122575964D01*
X161080315Y-122643003D01*
X161027511Y-122688758D01*
X160976000Y-122699964D01*
X133773634Y-122699964D01*
X133771144Y-122699939D01*
X133759493Y-122699705D01*
X133759472Y-122699698D01*
X133759431Y-122699704D01*
X133747729Y-122699463D01*
X133745224Y-122699386D01*
X133733490Y-122698907D01*
X133733490Y-122698906D01*
X133721846Y-122698434D01*
X133719269Y-122698302D01*
X133707614Y-122697585D01*
X133707614Y-122697586D01*
X133695904Y-122696873D01*
X133693331Y-122696689D01*
X133681643Y-122695733D01*
X133681636Y-122695733D01*
X133669871Y-122694770D01*
X133667425Y-122694545D01*
X133655749Y-122693356D01*
X133655737Y-122693351D01*
X133655719Y-122693353D01*
X133642749Y-122692029D01*
X133642745Y-122692029D01*
X133632247Y-122690957D01*
X133627320Y-122690353D01*
X133616837Y-122688856D01*
X133605183Y-122687398D01*
X133603054Y-122687113D01*
X133592422Y-122685595D01*
X133589962Y-122685219D01*
X133578402Y-122683331D01*
X133578004Y-122683265D01*
X133566688Y-122681379D01*
X133564227Y-122680943D01*
X133552845Y-122678809D01*
X133540074Y-122676465D01*
X133539613Y-122676380D01*
X133528380Y-122674274D01*
X133525939Y-122673790D01*
X133515624Y-122671641D01*
X133513205Y-122671112D01*
X133501703Y-122668475D01*
X133501703Y-122668474D01*
X133489097Y-122665590D01*
X133489027Y-122665551D01*
X133489023Y-122665573D01*
X133477772Y-122662991D01*
X133474846Y-122662282D01*
X133464799Y-122659718D01*
X133463027Y-122659252D01*
X133451525Y-122656135D01*
X133450887Y-122655960D01*
X133438749Y-122652601D01*
X133438749Y-122652600D01*
X133427145Y-122649392D01*
X133425499Y-122648925D01*
X133413984Y-122645569D01*
X133413248Y-122645352D01*
X133402714Y-122642211D01*
X133399720Y-122641277D01*
X133389017Y-122637788D01*
X133377731Y-122634188D01*
X133375486Y-122633448D01*
X133364553Y-122629729D01*
X133363712Y-122629439D01*
X133353054Y-122625728D01*
X133350845Y-122624936D01*
X133339799Y-122620854D01*
X133339790Y-122620850D01*
X133328709Y-122616754D01*
X133326533Y-122615927D01*
X133315465Y-122611598D01*
X133315465Y-122611597D01*
X133303834Y-122607049D01*
X133302930Y-122606692D01*
X133292027Y-122602329D01*
X133290750Y-122601809D01*
X133279567Y-122597189D01*
X133278701Y-122596828D01*
X133268386Y-122592475D01*
X133266214Y-122591534D01*
X133256443Y-122587189D01*
X133254407Y-122586261D01*
X133243514Y-122581179D01*
X133232455Y-122576154D01*
X133231302Y-122575623D01*
X133221451Y-122571024D01*
X133218452Y-122569574D01*
X133208294Y-122564495D01*
X133198185Y-122559439D01*
X133195191Y-122557890D01*
X133185309Y-122552607D01*
X133174197Y-122546796D01*
X133173169Y-122546253D01*
X133163209Y-122540925D01*
X133161288Y-122539875D01*
X133150893Y-122534076D01*
X133150898Y-122534066D01*
X133150857Y-122534056D01*
X133141011Y-122528559D01*
X133138033Y-122526842D01*
X133128405Y-122521111D01*
X133128397Y-122521107D01*
X133117279Y-122514488D01*
X133117279Y-122514487D01*
X133107112Y-122508436D01*
X133105267Y-122507316D01*
X133095949Y-122501548D01*
X133094169Y-122500425D01*
X133084029Y-122493908D01*
X133073988Y-122487540D01*
X133072190Y-122486377D01*
X133063718Y-122480797D01*
X133060810Y-122478823D01*
X133051643Y-122472405D01*
X133041403Y-122465414D01*
X133040218Y-122464595D01*
X133031100Y-122458213D01*
X133029411Y-122457010D01*
X133020257Y-122450372D01*
X133019059Y-122449492D01*
X133010155Y-122442871D01*
X133008536Y-122441646D01*
X132999007Y-122434315D01*
X132999007Y-122434314D01*
X132988697Y-122426386D01*
X132979792Y-122419536D01*
X132976989Y-122417315D01*
X132968344Y-122410259D01*
X132959036Y-122402668D01*
X132957559Y-122401445D01*
X132948235Y-122393598D01*
X132940276Y-122387101D01*
X132936146Y-122383575D01*
X132928472Y-122376730D01*
X132919031Y-122368343D01*
X132918824Y-122368159D01*
X132910369Y-122360614D01*
X132907790Y-122358245D01*
X132899582Y-122350493D01*
X132891316Y-122342915D01*
X132888714Y-122340459D01*
X132881417Y-122333371D01*
X132880129Y-122332101D01*
X132871505Y-122323476D01*
X132871505Y-122323477D01*
X132862860Y-122314837D01*
X132861570Y-122313528D01*
X132853230Y-122304942D01*
X132853219Y-122304931D01*
X132844814Y-122296276D01*
X132843631Y-122295041D01*
X132835897Y-122286854D01*
X132834634Y-122285496D01*
X132826507Y-122276631D01*
X132826476Y-122276598D01*
X132818333Y-122267709D01*
X132817244Y-122266504D01*
X132809681Y-122258028D01*
X132808413Y-122256584D01*
X132801133Y-122248166D01*
X132800071Y-122246923D01*
X132792113Y-122237472D01*
X132791929Y-122237253D01*
X132784946Y-122228921D01*
X132782907Y-122226422D01*
X132775717Y-122217376D01*
X132768628Y-122208684D01*
X132766425Y-122205902D01*
X132759568Y-122196986D01*
X132759568Y-122196985D01*
X132751633Y-122186671D01*
X132751633Y-122186672D01*
X132744289Y-122177126D01*
X132743085Y-122175534D01*
X132736473Y-122166647D01*
X132735550Y-122165391D01*
X132728944Y-122156275D01*
X132727775Y-122154633D01*
X132721384Y-122145505D01*
X132720565Y-122144321D01*
X132713522Y-122134010D01*
X132707123Y-122124864D01*
X132705167Y-122121984D01*
X132699937Y-122114044D01*
X132698062Y-122111108D01*
X132692101Y-122101480D01*
X132685917Y-122092090D01*
X132684034Y-122089142D01*
X132678653Y-122080447D01*
X132677540Y-122078613D01*
X132671459Y-122068396D01*
X132671459Y-122068395D01*
X132665191Y-122057868D01*
X132664529Y-122056744D01*
X132658446Y-122046279D01*
X132657989Y-122045485D01*
X132652201Y-122035356D01*
X132651589Y-122034273D01*
X132646361Y-122024907D01*
X132644743Y-122021913D01*
X132639452Y-122011792D01*
X132634154Y-122001884D01*
X132632594Y-121998867D01*
X132627550Y-121988780D01*
X132622506Y-121979133D01*
X132620478Y-121975075D01*
X132615899Y-121965478D01*
X132615899Y-121965477D01*
X132610548Y-121954265D01*
X132610084Y-121953281D01*
X132605292Y-121943009D01*
X132604355Y-121940954D01*
X132599496Y-121930023D01*
X132599496Y-121930022D01*
X132599492Y-121930014D01*
X132594670Y-121919164D01*
X132593751Y-121917044D01*
X132589178Y-121906215D01*
X132589177Y-121906214D01*
X132584382Y-121894859D01*
X132584005Y-121893956D01*
X132579359Y-121882707D01*
X132578836Y-121881420D01*
X132574986Y-121871794D01*
X132573804Y-121868720D01*
X132569865Y-121858059D01*
X132569865Y-121858060D01*
X132565366Y-121845885D01*
X132565366Y-121845884D01*
X132561426Y-121835227D01*
X132560348Y-121832191D01*
X132556641Y-121821304D01*
X132552927Y-121810627D01*
X132551916Y-121807594D01*
X132548432Y-121796681D01*
X132548419Y-121796640D01*
X132544811Y-121785325D01*
X132544119Y-121783081D01*
X132540771Y-121771851D01*
X132540770Y-121771808D01*
X132540760Y-121771812D01*
X132537402Y-121760535D01*
X132536734Y-121758211D01*
X132533701Y-121747248D01*
X132533522Y-121746593D01*
X132530174Y-121734228D01*
X132527477Y-121724482D01*
X132526116Y-121719099D01*
X132523823Y-121709089D01*
X132520948Y-121697587D01*
X132520383Y-121695226D01*
X132518023Y-121684932D01*
X132517492Y-121682507D01*
X132515099Y-121671018D01*
X132512448Y-121658305D01*
X132512437Y-121658251D01*
X132510053Y-121646793D01*
X132509581Y-121644409D01*
X132507698Y-121634377D01*
X132507188Y-121631466D01*
X132505343Y-121620155D01*
X132503248Y-121607589D01*
X132503182Y-121607188D01*
X132501242Y-121595312D01*
X132500916Y-121593201D01*
X132499220Y-121581562D01*
X132499172Y-121581230D01*
X132497551Y-121569891D01*
X132497220Y-121567397D01*
X132495781Y-121555632D01*
X132495781Y-121555631D01*
X132494348Y-121543933D01*
X132494068Y-121541442D01*
X132492989Y-121530871D01*
X132492776Y-121528573D01*
X132491812Y-121517006D01*
X132490746Y-121506555D01*
X132490338Y-121501560D01*
X132489695Y-121491080D01*
X132489693Y-121491054D01*
X132488902Y-121478123D01*
X132488188Y-121466454D01*
X132488056Y-121463832D01*
X132487582Y-121451982D01*
X132487582Y-121451983D01*
X132487100Y-121440193D01*
X132487022Y-121437637D01*
X132486786Y-121425975D01*
X132486786Y-121425974D01*
X132486546Y-121414294D01*
X132486520Y-121411745D01*
X132486520Y-111562057D01*
X132486255Y-111549054D01*
X132486255Y-111549042D01*
X132485992Y-111536104D01*
X132485462Y-111523062D01*
X132485462Y-111523061D01*
X132484931Y-111510060D01*
X132484139Y-111497110D01*
X132484138Y-111497090D01*
X132483346Y-111484129D01*
X132482287Y-111471176D01*
X132482285Y-111471159D01*
X132481225Y-111458182D01*
X132479909Y-111445295D01*
X132478581Y-111432330D01*
X132476999Y-111419454D01*
X132476999Y-111419455D01*
X132475407Y-111406545D01*
X132475404Y-111406521D01*
X132473821Y-111393663D01*
X132471968Y-111380800D01*
X132469848Y-111367925D01*
X132469848Y-111367924D01*
X132467730Y-111355090D01*
X132465354Y-111342331D01*
X132465354Y-111342332D01*
X132462981Y-111329591D01*
X132460583Y-111316763D01*
X132457950Y-111304091D01*
X132455038Y-111291388D01*
X132452116Y-111278661D01*
X132452116Y-111278660D01*
X132449214Y-111266051D01*
X132446029Y-111253397D01*
X132446029Y-111253396D01*
X132442863Y-111240852D01*
X132439426Y-111228298D01*
X132436062Y-111216956D01*
X132435392Y-111214613D01*
X132432283Y-111203322D01*
X132428667Y-111191995D01*
X132427971Y-111189743D01*
X132424605Y-111178464D01*
X132420742Y-111167190D01*
X132420035Y-111165063D01*
X132416411Y-111153830D01*
X132412309Y-111142637D01*
X132411528Y-111140443D01*
X132407254Y-111128067D01*
X132407437Y-111128003D01*
X132400000Y-111086337D01*
X132400000Y-101914077D01*
X132406797Y-101873587D01*
X132411654Y-101859528D01*
X132415893Y-101847237D01*
X132420113Y-101834968D01*
X132424103Y-101822549D01*
X132428049Y-101810208D01*
X132431760Y-101797749D01*
X132435476Y-101785251D01*
X132439156Y-101772822D01*
X132442600Y-101760255D01*
X132445791Y-101747628D01*
X132448940Y-101735107D01*
X132451852Y-101722453D01*
X132451860Y-101722422D01*
X132454789Y-101709707D01*
X132457675Y-101697105D01*
X132460328Y-101684342D01*
X132462979Y-101671571D01*
X132465348Y-101658850D01*
X132467472Y-101646008D01*
X132469596Y-101633160D01*
X132471707Y-101620317D01*
X132473558Y-101607471D01*
X132475408Y-101594595D01*
X132476999Y-101581698D01*
X132478581Y-101568831D01*
X132479908Y-101555863D01*
X132481227Y-101542945D01*
X132482286Y-101529978D01*
X132483003Y-101518287D01*
X132483180Y-101515807D01*
X132484140Y-101504020D01*
X132484618Y-101492340D01*
X132484744Y-101489856D01*
X132485461Y-101478088D01*
X132485700Y-101466328D01*
X132485778Y-101463781D01*
X132486255Y-101452092D01*
X132486255Y-101440337D01*
X132486281Y-101437806D01*
X132486520Y-101426099D01*
X132486520Y-91587307D01*
X132486546Y-91584763D01*
X132486787Y-91573018D01*
X132487024Y-91561283D01*
X132487102Y-91558730D01*
X132487580Y-91547023D01*
X132488057Y-91535331D01*
X132488185Y-91532823D01*
X132488903Y-91521067D01*
X132488904Y-91521067D01*
X132488903Y-91521050D01*
X132489620Y-91509335D01*
X132489800Y-91506809D01*
X132490754Y-91495137D01*
X132491707Y-91483462D01*
X132491938Y-91480946D01*
X132493135Y-91469230D01*
X132493141Y-91469230D01*
X132493139Y-91469183D01*
X132494329Y-91457578D01*
X132494609Y-91455090D01*
X132496046Y-91443406D01*
X132497626Y-91430553D01*
X132497632Y-91430506D01*
X132498915Y-91420101D01*
X132499628Y-91415146D01*
X132501332Y-91404787D01*
X132503014Y-91393143D01*
X132503394Y-91390689D01*
X132505103Y-91380327D01*
X132505539Y-91377840D01*
X132507666Y-91366400D01*
X132507688Y-91366283D01*
X132510076Y-91353507D01*
X132511985Y-91343264D01*
X132513010Y-91338324D01*
X132515362Y-91328042D01*
X132517747Y-91316600D01*
X132518284Y-91314147D01*
X132520628Y-91303938D01*
X132521219Y-91301480D01*
X132524088Y-91290054D01*
X132526449Y-91279831D01*
X132527654Y-91275048D01*
X132530404Y-91264981D01*
X132530440Y-91264849D01*
X132533867Y-91252358D01*
X132533879Y-91252314D01*
X132536976Y-91241042D01*
X132537687Y-91238557D01*
X132541007Y-91227390D01*
X132541021Y-91227340D01*
X132544369Y-91216096D01*
X132545110Y-91213698D01*
X132548700Y-91202477D01*
X132548740Y-91202490D01*
X132548749Y-91202322D01*
X132552278Y-91191341D01*
X132553081Y-91188926D01*
X132556903Y-91177821D01*
X132556919Y-91177826D01*
X132556923Y-91177760D01*
X132560701Y-91166801D01*
X132561561Y-91164387D01*
X132565634Y-91153320D01*
X132565655Y-91153327D01*
X132565661Y-91153243D01*
X132569688Y-91142323D01*
X132570590Y-91139952D01*
X132574892Y-91128983D01*
X132574963Y-91128799D01*
X132579594Y-91117046D01*
X132579651Y-91116900D01*
X132583948Y-91106035D01*
X132584906Y-91103684D01*
X132588973Y-91093986D01*
X132589940Y-91091743D01*
X132594731Y-91080921D01*
X132598845Y-91071198D01*
X132600769Y-91066882D01*
X132605318Y-91057176D01*
X132609629Y-91047585D01*
X132611676Y-91043256D01*
X132616419Y-91033704D01*
X132621426Y-91023167D01*
X132622567Y-91020830D01*
X132627227Y-91011530D01*
X132628424Y-91009202D01*
X132633858Y-90998906D01*
X132633896Y-90998835D01*
X132639801Y-90987664D01*
X132639977Y-90987332D01*
X132645516Y-90976930D01*
X132646687Y-90974781D01*
X132652230Y-90964849D01*
X132652412Y-90964525D01*
X132658152Y-90954312D01*
X132659369Y-90952195D01*
X132665382Y-90941973D01*
X132665401Y-90941984D01*
X132665517Y-90941742D01*
X132671802Y-90931110D01*
X132671992Y-90930790D01*
X132677947Y-90920785D01*
X132679277Y-90918602D01*
X132684872Y-90909628D01*
X132686165Y-90907598D01*
X132692642Y-90897643D01*
X132698278Y-90888712D01*
X132700807Y-90884863D01*
X132706923Y-90875922D01*
X132713393Y-90866177D01*
X132714793Y-90864114D01*
X132720763Y-90855502D01*
X132722189Y-90853488D01*
X132729147Y-90843864D01*
X132735827Y-90834363D01*
X132737298Y-90832315D01*
X132743500Y-90823863D01*
X132744966Y-90821906D01*
X132752082Y-90812599D01*
X132752357Y-90812240D01*
X132759815Y-90802559D01*
X132760094Y-90802199D01*
X132767289Y-90792930D01*
X132768822Y-90790995D01*
X132776121Y-90781969D01*
X132776435Y-90781582D01*
X132783680Y-90772696D01*
X132785243Y-90770818D01*
X132792685Y-90762049D01*
X132793003Y-90761675D01*
X132801262Y-90752021D01*
X132801612Y-90751614D01*
X132809614Y-90742342D01*
X132809988Y-90741910D01*
X132817517Y-90733267D01*
X132819108Y-90731476D01*
X132826194Y-90723652D01*
X132827855Y-90721854D01*
X132836035Y-90713171D01*
X132843956Y-90704591D01*
X132845619Y-90702825D01*
X132852920Y-90695219D01*
X132854604Y-90693498D01*
X132862787Y-90685298D01*
X132863211Y-90684875D01*
X132872083Y-90676070D01*
X132872540Y-90675619D01*
X132881199Y-90667114D01*
X132881646Y-90666677D01*
X132889967Y-90658586D01*
X132891712Y-90656922D01*
X132900095Y-90649082D01*
X132900580Y-90648630D01*
X132908982Y-90640856D01*
X132910726Y-90639274D01*
X132919653Y-90631322D01*
X132928272Y-90623525D01*
X132930037Y-90621958D01*
X132938077Y-90614957D01*
X132939858Y-90613435D01*
X132948733Y-90605997D01*
X132949311Y-90605516D01*
X132958824Y-90597641D01*
X132959375Y-90597187D01*
X132968839Y-90589444D01*
X132969427Y-90588966D01*
X132978266Y-90581824D01*
X132980092Y-90580376D01*
X132989225Y-90573276D01*
X132989838Y-90572803D01*
X132999375Y-90565484D01*
X133000003Y-90565006D01*
X133009907Y-90557505D01*
X133010546Y-90557024D01*
X133019516Y-90550321D01*
X133021378Y-90548956D01*
X133030644Y-90542297D01*
X133031294Y-90541833D01*
X133040690Y-90535172D01*
X133042583Y-90533856D01*
X133052142Y-90527343D01*
X133052822Y-90526884D01*
X133063127Y-90519961D01*
X133072389Y-90513680D01*
X133075442Y-90511675D01*
X133084962Y-90505618D01*
X133094899Y-90499242D01*
X133096813Y-90498039D01*
X133106616Y-90491997D01*
X133107370Y-90491535D01*
X133117638Y-90485307D01*
X133118426Y-90484833D01*
X133128271Y-90478961D01*
X133130159Y-90477857D01*
X133140224Y-90472092D01*
X133141044Y-90471627D01*
X133151470Y-90465760D01*
X133152288Y-90465304D01*
X133162975Y-90459396D01*
X133163817Y-90458935D01*
X133174190Y-90453305D01*
X133175035Y-90452850D01*
X133185133Y-90447470D01*
X133187034Y-90446479D01*
X133197326Y-90441222D01*
X133198222Y-90440768D01*
X133208891Y-90435427D01*
X133209776Y-90434988D01*
X133220514Y-90429719D01*
X133221410Y-90429284D01*
X133231727Y-90424324D01*
X133233625Y-90423432D01*
X133244114Y-90418606D01*
X133245035Y-90418187D01*
X133255951Y-90413272D01*
X133256906Y-90412846D01*
X133267841Y-90408033D01*
X133268775Y-90407627D01*
X133279856Y-90402858D01*
X133280846Y-90402437D01*
X133291245Y-90398068D01*
X133293121Y-90397298D01*
X133304225Y-90392845D01*
X133304341Y-90392798D01*
X133315290Y-90388420D01*
X133317145Y-90387696D01*
X133327941Y-90383579D01*
X133328968Y-90383192D01*
X133339686Y-90379213D01*
X133341499Y-90378556D01*
X133353036Y-90374476D01*
X133353301Y-90374383D01*
X133364278Y-90370529D01*
X133366098Y-90369906D01*
X133377645Y-90366052D01*
X133377661Y-90366101D01*
X133377959Y-90365946D01*
X133388857Y-90362341D01*
X133390645Y-90361764D01*
X133401789Y-90358264D01*
X133402896Y-90357922D01*
X133414116Y-90354513D01*
X133415187Y-90354193D01*
X133426190Y-90350958D01*
X133427963Y-90350451D01*
X133439815Y-90347157D01*
X133440269Y-90347032D01*
X133451374Y-90343991D01*
X133453135Y-90343523D01*
X133464735Y-90340529D01*
X133465234Y-90340401D01*
X133476465Y-90337552D01*
X133478212Y-90337122D01*
X133489589Y-90334411D01*
X133490732Y-90334145D01*
X133502190Y-90331529D01*
X133503337Y-90331272D01*
X133514887Y-90328750D01*
X133516020Y-90328509D01*
X133527574Y-90326099D01*
X133528780Y-90325853D01*
X133540331Y-90323563D01*
X133541515Y-90323335D01*
X133552755Y-90321220D01*
X133554352Y-90320930D01*
X133566239Y-90318854D01*
X133567004Y-90318723D01*
X133578407Y-90316805D01*
X133580026Y-90316543D01*
X133591660Y-90314744D01*
X133592827Y-90314570D01*
X133604725Y-90312846D01*
X133605572Y-90312726D01*
X133617112Y-90311135D01*
X133618671Y-90310930D01*
X133630234Y-90309485D01*
X133631426Y-90309342D01*
X133643159Y-90307991D01*
X133644381Y-90307856D01*
X133656169Y-90306617D01*
X133657404Y-90306494D01*
X133669309Y-90305363D01*
X133670289Y-90305274D01*
X133681646Y-90304286D01*
X133683112Y-90304167D01*
X133694783Y-90303291D01*
X133696143Y-90303196D01*
X133708048Y-90302434D01*
X133709141Y-90302369D01*
X133721018Y-90301714D01*
X133722267Y-90301652D01*
X133733879Y-90301129D01*
X133735109Y-90301079D01*
X133746876Y-90300666D01*
X133748141Y-90300628D01*
X133759918Y-90300335D01*
X133761126Y-90300311D01*
X133772888Y-90300133D01*
X133774138Y-90300121D01*
X133786030Y-90300061D01*
X133786656Y-90300059D01*
X165531540Y-90300059D01*
X165532585Y-90300061D01*
G37*
M02*
