G04 #@! TF.GenerationSoftware,KiCad,Pcbnew,9.0.7*
G04 #@! TF.CreationDate,2026-02-02T08:38:10+11:00*
G04 #@! TF.ProjectId,E-ink watch,452d696e-6b20-4776-9174-63682e6b6963,rev?*
G04 #@! TF.SameCoordinates,Original*
G04 #@! TF.FileFunction,Profile,NP*
%FSLAX46Y46*%
G04 Gerber Fmt 4.6, Leading zero omitted, Abs format (unit mm)*
G04 Created by KiCad (PCBNEW 9.0.7) date 2026-02-02 08:38:10*
%MOMM*%
%LPD*%
G01*
G04 APERTURE LIST*
G04 #@! TA.AperFunction,Profile*
%ADD10C,0.100000*%
G04 #@! TD*
G04 #@! TA.AperFunction,Profile*
%ADD11C,0.114101*%
G04 #@! TD*
G04 APERTURE END LIST*
D10*
X161050000Y-115700000D02*
X163350000Y-115700000D01*
X163350000Y-122050000D01*
X161050000Y-122050000D01*
X161050000Y-115700000D01*
X164800000Y-98500000D02*
X167100000Y-98500000D01*
X167100000Y-114000000D01*
X164800000Y-114000000D01*
X164800000Y-98500000D01*
D11*
X187613778Y-89992137D02*
X187626740Y-89992341D01*
X187639710Y-89992677D01*
X187652673Y-89993142D01*
X187665635Y-89993738D01*
X187678597Y-89994463D01*
X187691834Y-89995317D01*
X187704789Y-89996301D01*
X187717492Y-89997415D01*
X187730462Y-89998659D01*
X187743424Y-90000032D01*
X187756387Y-90001532D01*
X187769357Y-90003165D01*
X187782052Y-90004924D01*
X187795014Y-90006813D01*
X187807984Y-90008829D01*
X187820687Y-90010975D01*
X187833383Y-90013248D01*
X187846345Y-90015650D01*
X187859048Y-90018180D01*
X187871743Y-90020836D01*
X187884446Y-90023620D01*
X187897149Y-90026530D01*
X187909852Y-90029568D01*
X187922288Y-90032729D01*
X187934983Y-90036021D01*
X187947419Y-90039434D01*
X187960122Y-90042974D01*
X187972558Y-90046638D01*
X187984994Y-90050430D01*
X187997422Y-90054343D01*
X188009591Y-90058381D01*
X188022027Y-90062540D01*
X188034203Y-90066823D01*
X188046372Y-90071231D01*
X188058541Y-90075759D01*
X188070718Y-90080410D01*
X188082887Y-90085180D01*
X188095055Y-90090072D01*
X188106965Y-90095084D01*
X188118867Y-90100216D01*
X188130776Y-90105466D01*
X188142678Y-90110837D01*
X188154321Y-90116324D01*
X188166230Y-90121928D01*
X188177873Y-90127651D01*
X188189507Y-90133491D01*
X188200883Y-90139444D01*
X188212525Y-90145516D01*
X188223908Y-90151699D01*
X188235284Y-90157999D01*
X188246659Y-90164410D01*
X188257775Y-90170934D01*
X188268891Y-90177570D01*
X188280000Y-90184320D01*
X188291108Y-90191178D01*
X188302224Y-90198147D01*
X188313073Y-90205227D01*
X188323922Y-90212413D01*
X188334504Y-90219708D01*
X188345353Y-90227111D01*
X188355927Y-90234620D01*
X188366517Y-90242234D01*
X188376832Y-90249955D01*
X188387421Y-90257778D01*
X188397736Y-90265705D01*
X188407792Y-90273736D01*
X188417848Y-90281866D01*
X188428162Y-90290100D01*
X188437959Y-90298432D01*
X188448014Y-90306864D01*
X188457795Y-90315394D01*
X188467324Y-90324025D01*
X188477113Y-90332748D01*
X188486642Y-90341569D01*
X188496171Y-90350486D01*
X188505418Y-90359498D01*
X188514680Y-90368602D01*
X188523942Y-90377796D01*
X188532937Y-90387083D01*
X188541932Y-90396462D01*
X188550935Y-90405929D01*
X188559663Y-90415486D01*
X188568391Y-90425130D01*
X188577126Y-90434859D01*
X188585595Y-90444675D01*
X188594064Y-90454576D01*
X188602258Y-90464561D01*
X188610459Y-90474629D01*
X188618668Y-90484778D01*
X188626603Y-90495009D01*
X188634538Y-90505317D01*
X188642480Y-90515705D01*
X188650155Y-90526172D01*
X188657823Y-90536713D01*
X188665231Y-90547333D01*
X188672639Y-90558025D01*
X188680047Y-90568791D01*
X188687196Y-90579628D01*
X188694337Y-90590537D01*
X188701218Y-90601517D01*
X188708100Y-90612566D01*
X188714707Y-90623684D01*
X188721322Y-90634865D01*
X188727937Y-90646116D01*
X188734292Y-90657429D01*
X188740640Y-90668806D01*
X188746728Y-90680247D01*
X188752809Y-90691748D01*
X188758897Y-90703308D01*
X188764718Y-90714928D01*
X188770272Y-90726604D01*
X188775826Y-90738339D01*
X188781381Y-90750128D01*
X188786675Y-90761971D01*
X188791970Y-90773867D01*
X188796998Y-90785816D01*
X188802018Y-90797814D01*
X188807046Y-90809863D01*
X188811814Y-90821960D01*
X188816308Y-90834104D01*
X188820809Y-90846294D01*
X188825303Y-90858526D01*
X188829537Y-90870805D01*
X188833772Y-90883124D01*
X188837739Y-90895491D01*
X188841714Y-90907873D01*
X188845414Y-90920335D01*
X188849114Y-90932797D01*
X188852555Y-90945311D01*
X188855996Y-90957853D01*
X188859437Y-90970447D01*
X188862611Y-90983041D01*
X188865525Y-90995688D01*
X188868432Y-91008362D01*
X188871079Y-91021062D01*
X188873719Y-91033788D01*
X188876367Y-91046541D01*
X188878747Y-91059321D01*
X188881135Y-91072126D01*
X188883248Y-91084959D01*
X188885095Y-91097791D01*
X188886956Y-91110650D01*
X188888802Y-91123535D01*
X188890397Y-91136447D01*
X188891976Y-91149358D01*
X188893304Y-91162270D01*
X188894357Y-91175208D01*
X188895684Y-91188172D01*
X188896485Y-91201137D01*
X188897271Y-91214102D01*
X188898065Y-91227093D01*
X188898599Y-91240084D01*
X188899125Y-91253075D01*
X188899392Y-91266066D01*
X188899659Y-91279057D01*
X188899659Y-91292048D01*
X188899659Y-121400068D01*
X188899659Y-121401128D01*
X188899659Y-121414090D01*
X188899392Y-121427057D01*
X188899125Y-121440023D01*
X188898599Y-121452985D01*
X188898065Y-121465951D01*
X188897271Y-121478914D01*
X188896485Y-121492143D01*
X188895417Y-121505109D01*
X188894357Y-121517808D01*
X188893044Y-121530771D01*
X188891717Y-121543737D01*
X188890397Y-121556703D01*
X188888535Y-121569665D01*
X188886956Y-121582364D01*
X188885095Y-121595331D01*
X188882981Y-121608297D01*
X188880868Y-121620996D01*
X188878488Y-121633695D01*
X188876100Y-121646661D01*
X188873719Y-121659360D01*
X188871079Y-121672059D01*
X188868165Y-121684758D01*
X188865258Y-121697461D01*
X188862344Y-121710161D01*
X188859170Y-121722597D01*
X188855729Y-121735296D01*
X188852288Y-121747731D01*
X188848847Y-121760431D01*
X188845155Y-121772867D01*
X188841447Y-121785303D01*
X188837472Y-121797738D01*
X188833512Y-121809907D01*
X188829270Y-121822343D01*
X188825036Y-121834516D01*
X188820542Y-121846685D01*
X188816041Y-121858857D01*
X188811280Y-121871026D01*
X188806519Y-121883199D01*
X188801759Y-121895368D01*
X188796731Y-121907274D01*
X188791703Y-121919183D01*
X188786408Y-121931089D01*
X188780854Y-121942994D01*
X188775567Y-121954637D01*
X188769746Y-121966543D01*
X188764192Y-121978185D01*
X188758370Y-121989824D01*
X188752282Y-122001203D01*
X188746194Y-122012841D01*
X188740113Y-122024221D01*
X188733758Y-122035600D01*
X188727410Y-122046975D01*
X188720796Y-122058088D01*
X188714181Y-122069200D01*
X188707566Y-122080312D01*
X188700684Y-122091424D01*
X188693536Y-122102536D01*
X188686662Y-122113386D01*
X188679521Y-122124234D01*
X188672112Y-122134816D01*
X188664704Y-122145662D01*
X188657296Y-122156247D01*
X188649621Y-122166829D01*
X188641953Y-122177148D01*
X188634011Y-122187734D01*
X188626077Y-122198049D01*
X188618142Y-122208108D01*
X188609933Y-122218427D01*
X188601731Y-122228479D01*
X188593263Y-122238267D01*
X188585069Y-122248323D01*
X188576333Y-122258111D01*
X188567872Y-122267637D01*
X188559129Y-122277425D01*
X188550134Y-122286954D01*
X188541406Y-122296479D01*
X188532411Y-122305738D01*
X188523148Y-122314996D01*
X188513894Y-122324258D01*
X188504632Y-122333253D01*
X188495370Y-122342252D01*
X188485848Y-122351247D01*
X188476319Y-122359975D01*
X188466790Y-122368707D01*
X188457009Y-122377439D01*
X188447213Y-122385907D01*
X188437158Y-122394372D01*
X188427377Y-122402578D01*
X188417054Y-122410776D01*
X188406999Y-122418981D01*
X188396684Y-122426915D01*
X188386361Y-122434854D01*
X188376046Y-122442792D01*
X188365724Y-122450464D01*
X188355142Y-122458135D01*
X188344552Y-122465543D01*
X188333711Y-122472951D01*
X188323121Y-122480359D01*
X188312280Y-122487508D01*
X188301171Y-122494649D01*
X188290315Y-122501527D01*
X188279206Y-122508409D01*
X188268098Y-122515023D01*
X188256982Y-122521638D01*
X188245599Y-122528249D01*
X188234490Y-122534601D01*
X188223115Y-122540952D01*
X188211472Y-122547036D01*
X188200097Y-122553125D01*
X188188447Y-122559209D01*
X188176812Y-122565030D01*
X188165170Y-122570585D01*
X188153527Y-122576139D01*
X188141618Y-122581701D01*
X188129716Y-122586988D01*
X188117806Y-122592283D01*
X188105904Y-122597307D01*
X188093995Y-122602334D01*
X188081826Y-122607362D01*
X188069917Y-122612123D01*
X188057748Y-122616620D01*
X188045579Y-122621118D01*
X188033402Y-122625619D01*
X188020974Y-122629850D01*
X188008805Y-122634088D01*
X187996369Y-122638055D01*
X187983933Y-122642022D01*
X187971497Y-122645727D01*
X187959054Y-122649431D01*
X187946618Y-122652871D01*
X187933930Y-122656312D01*
X187921487Y-122659749D01*
X187908791Y-122662923D01*
X187896089Y-122665834D01*
X187883393Y-122668744D01*
X187870690Y-122671392D01*
X187857987Y-122674039D01*
X187845284Y-122676683D01*
X187832589Y-122679063D01*
X187819627Y-122681447D01*
X187806924Y-122683561D01*
X187793954Y-122685415D01*
X187781258Y-122687265D01*
X187768296Y-122689119D01*
X187755326Y-122690706D01*
X187742364Y-122692296D01*
X187729401Y-122693616D01*
X187716699Y-122694673D01*
X187703736Y-122695997D01*
X187690774Y-122696794D01*
X187677804Y-122697851D01*
X187664842Y-122698381D01*
X187651612Y-122698907D01*
X187638642Y-122699437D01*
X187625687Y-122699704D01*
X187612718Y-122699964D01*
X187599763Y-122699964D01*
X178670075Y-122699964D01*
X178660546Y-122699964D01*
X178647576Y-122699964D01*
X178634614Y-122699704D01*
X178621385Y-122699174D01*
X178608422Y-122698644D01*
X178595460Y-122697851D01*
X178582490Y-122697053D01*
X178569528Y-122696264D01*
X178556565Y-122695207D01*
X178543595Y-122693883D01*
X178530633Y-122692556D01*
X178517930Y-122691236D01*
X178504968Y-122689645D01*
X178492005Y-122687799D01*
X178479302Y-122685945D01*
X178466340Y-122684091D01*
X178453378Y-122681978D01*
X178440675Y-122679593D01*
X178427979Y-122677213D01*
X178415276Y-122674829D01*
X178402306Y-122672185D01*
X178389604Y-122669542D01*
X178376916Y-122666631D01*
X178364480Y-122663720D01*
X178351777Y-122660543D01*
X178339074Y-122657369D01*
X178326638Y-122653928D01*
X178314210Y-122650491D01*
X178301507Y-122646783D01*
X178289071Y-122643083D01*
X178276635Y-122639112D01*
X178264459Y-122635145D01*
X178252023Y-122630910D01*
X178239861Y-122626680D01*
X178227425Y-122622442D01*
X178215249Y-122617944D01*
X178203080Y-122613447D01*
X178191171Y-122608686D01*
X178179002Y-122603658D01*
X178167100Y-122598893D01*
X178154923Y-122593606D01*
X178143022Y-122588579D01*
X178131112Y-122583021D01*
X178119470Y-122577729D01*
X178107568Y-122572171D01*
X178095925Y-122566354D01*
X178084283Y-122560533D01*
X178072900Y-122554712D01*
X178061257Y-122548627D01*
X178049882Y-122542539D01*
X178038506Y-122536187D01*
X178027131Y-122529840D01*
X178015748Y-122523492D01*
X178004640Y-122516874D01*
X177993531Y-122510259D01*
X177982423Y-122503381D01*
X177971299Y-122496503D01*
X177960458Y-122489358D01*
X177949609Y-122482213D01*
X177938760Y-122475072D01*
X177928178Y-122467664D01*
X177917588Y-122459989D01*
X177907014Y-122452581D01*
X177896424Y-122444909D01*
X177886109Y-122436967D01*
X177875787Y-122429033D01*
X177865472Y-122421094D01*
X177855416Y-122413156D01*
X177845101Y-122404958D01*
X177835313Y-122396489D01*
X177825250Y-122388288D01*
X177815469Y-122379556D01*
X177805673Y-122371091D01*
X177795884Y-122362356D01*
X177786355Y-122353627D01*
X177776833Y-122344629D01*
X177767579Y-122335634D01*
X177758317Y-122326638D01*
X177749055Y-122317380D01*
X177739793Y-122308385D01*
X177730798Y-122298860D01*
X177721803Y-122289598D01*
X177713075Y-122280076D01*
X177704339Y-122270284D01*
X177695611Y-122260755D01*
X177687135Y-122250970D01*
X177678674Y-122240915D01*
X177670205Y-122231122D01*
X177662003Y-122221071D01*
X177653809Y-122210752D01*
X177645867Y-122200700D01*
X177637933Y-122190381D01*
X177629998Y-122180059D01*
X177622315Y-122169481D01*
X177614648Y-122159158D01*
X177606973Y-122148572D01*
X177599564Y-122137727D01*
X177592416Y-122127145D01*
X177585015Y-122116296D01*
X177577866Y-122105447D01*
X177570985Y-122094335D01*
X177564111Y-122083490D01*
X177557229Y-122072378D01*
X177550614Y-122060998D01*
X177544000Y-122049886D01*
X177537652Y-122038507D01*
X177531304Y-122027131D01*
X177525216Y-122015752D01*
X177519135Y-122004377D01*
X177513047Y-121992734D01*
X177507226Y-121981096D01*
X177501405Y-121969453D01*
X177495843Y-121957811D01*
X177490289Y-121946168D01*
X177484734Y-121934263D01*
X177479447Y-121922357D01*
X177474420Y-121910451D01*
X177469384Y-121898542D01*
X177464364Y-121886373D01*
X177459603Y-121874467D01*
X177454835Y-121862295D01*
X177450341Y-121850126D01*
X177445840Y-121837690D01*
X177441613Y-121825517D01*
X177437371Y-121813348D01*
X177433404Y-121800912D01*
X177429437Y-121788476D01*
X177425736Y-121776040D01*
X177422028Y-121763608D01*
X177418321Y-121751169D01*
X177414887Y-121738469D01*
X177411446Y-121726034D01*
X177408273Y-121713334D01*
X177405366Y-121700902D01*
X177402451Y-121688199D01*
X177399545Y-121675500D01*
X177396897Y-121662801D01*
X177394242Y-121650102D01*
X177391862Y-121637136D01*
X177389481Y-121624437D01*
X177387368Y-121611734D01*
X177385247Y-121598771D01*
X177383401Y-121585805D01*
X177381547Y-121573106D01*
X177379960Y-121560140D01*
X177378373Y-121547178D01*
X177377046Y-121534211D01*
X177375726Y-121521249D01*
X177374665Y-121508546D01*
X177373605Y-121495584D01*
X177372552Y-121482618D01*
X177371758Y-121469392D01*
X177371224Y-121456426D01*
X177370698Y-121443460D01*
X177370431Y-121430497D01*
X177370164Y-121417531D01*
X177369912Y-121404565D01*
X177370164Y-121391603D01*
X177370164Y-121084951D01*
X177369912Y-121071985D01*
X177369912Y-121059022D01*
X177369378Y-121046056D01*
X177369111Y-121033094D01*
X177368317Y-121020128D01*
X177367783Y-121007161D01*
X177366998Y-120994199D01*
X177365937Y-120981233D01*
X177364877Y-120968267D01*
X177363557Y-120955304D01*
X177362229Y-120942338D01*
X177360650Y-120929376D01*
X177359055Y-120916410D01*
X177357209Y-120903711D01*
X177355348Y-120890745D01*
X177353501Y-120878045D01*
X177351388Y-120865079D01*
X177349008Y-120852380D01*
X177346619Y-120839418D01*
X177344239Y-120826719D01*
X177341592Y-120814016D01*
X177338685Y-120801317D01*
X177335778Y-120788617D01*
X177332864Y-120775918D01*
X177329690Y-120763479D01*
X177326249Y-120750779D01*
X177323075Y-120738347D01*
X177319375Y-120725911D01*
X177315667Y-120713212D01*
X177311959Y-120700773D01*
X177307992Y-120688604D01*
X177304025Y-120676168D01*
X177299790Y-120663732D01*
X177295556Y-120651563D01*
X177291322Y-120639394D01*
X177286820Y-120627221D01*
X177282067Y-120615049D01*
X177277306Y-120602880D01*
X177272538Y-120590707D01*
X177267510Y-120578801D01*
X177262223Y-120566896D01*
X177257188Y-120554990D01*
X177251634Y-120543081D01*
X177246346Y-120531442D01*
X177240525Y-120519536D01*
X177234971Y-120507894D01*
X177229150Y-120496251D01*
X177223061Y-120484876D01*
X177216981Y-120473234D01*
X177210893Y-120461854D01*
X177204545Y-120450479D01*
X177198190Y-120439103D01*
X177191575Y-120427987D01*
X177184960Y-120416612D01*
X177178353Y-120405500D01*
X177171472Y-120394388D01*
X177164590Y-120383539D01*
X177157449Y-120372690D01*
X177150300Y-120361844D01*
X177142899Y-120350995D01*
X177135484Y-120340413D01*
X177128083Y-120329828D01*
X177120400Y-120319246D01*
X177112733Y-120308664D01*
X177105058Y-120298345D01*
X177097123Y-120288026D01*
X177088921Y-120277707D01*
X177080979Y-120267652D01*
X177072778Y-120257600D01*
X177064317Y-120247545D01*
X177055848Y-120237754D01*
X177047372Y-120227966D01*
X177038911Y-120218175D01*
X177030175Y-120208385D01*
X177021180Y-120198861D01*
X177012452Y-120189334D01*
X177003457Y-120180076D01*
X176994195Y-120170814D01*
X176984933Y-120161556D01*
X176975671Y-120152559D01*
X176966416Y-120143564D01*
X176956895Y-120134567D01*
X176947366Y-120125835D01*
X176937837Y-120117105D01*
X176928048Y-120108373D01*
X176918267Y-120099906D01*
X176908204Y-120091440D01*
X176898415Y-120082973D01*
X176888368Y-120074771D01*
X176878045Y-120066833D01*
X176867997Y-120058631D01*
X176857675Y-120050693D01*
X176847352Y-120043020D01*
X176836770Y-120035348D01*
X176826188Y-120027675D01*
X176815606Y-120020002D01*
X176805024Y-120012594D01*
X176794167Y-120005451D01*
X176783326Y-119998306D01*
X176772469Y-119991163D01*
X176761361Y-119984283D01*
X176750520Y-119977405D01*
X176739404Y-119970525D01*
X176728021Y-119963910D01*
X176716912Y-119957296D01*
X176705537Y-119950944D01*
X176694161Y-119944597D01*
X176682786Y-119938510D01*
X176671403Y-119932424D01*
X176659760Y-119926605D01*
X176648118Y-119920518D01*
X176636483Y-119914964D01*
X176624841Y-119909406D01*
X176612931Y-119903852D01*
X176601029Y-119898559D01*
X176589120Y-119893268D01*
X176577218Y-119887975D01*
X176565308Y-119882949D01*
X176553140Y-119878187D01*
X176541230Y-119873422D01*
X176529061Y-119868661D01*
X176516892Y-119864164D01*
X176504449Y-119859929D01*
X176492280Y-119855430D01*
X176479844Y-119851463D01*
X176467683Y-119847228D01*
X176455247Y-119843524D01*
X176442811Y-119839557D01*
X176430367Y-119835853D01*
X176417931Y-119832412D01*
X176405229Y-119828973D01*
X176392800Y-119825797D01*
X176380105Y-119822622D01*
X176367402Y-119819450D01*
X176354699Y-119816537D01*
X176342004Y-119813892D01*
X176329301Y-119811244D01*
X176316598Y-119808601D01*
X176303895Y-119806218D01*
X176290940Y-119804101D01*
X176278237Y-119801721D01*
X176265267Y-119799869D01*
X176252564Y-119798017D01*
X176239610Y-119796165D01*
X176226640Y-119794578D01*
X176213670Y-119792989D01*
X176200982Y-119791667D01*
X176188012Y-119790344D01*
X176175042Y-119789285D01*
X176162087Y-119788226D01*
X176149117Y-119787433D01*
X176136147Y-119786639D01*
X176123193Y-119786109D01*
X176109956Y-119785581D01*
X176097001Y-119785316D01*
X176084031Y-119785053D01*
X176071061Y-119785053D01*
X176070008Y-119785053D01*
X168131448Y-119785053D01*
X168118485Y-119785053D01*
X168105523Y-119785316D01*
X168092553Y-119785581D01*
X168079591Y-119786109D01*
X168066628Y-119786639D01*
X168053666Y-119787433D01*
X168040696Y-119788226D01*
X168027734Y-119789285D01*
X168014771Y-119790344D01*
X168001801Y-119791667D01*
X167988839Y-119792989D01*
X167975877Y-119794313D01*
X167963174Y-119795900D01*
X167950211Y-119797754D01*
X167937241Y-119799604D01*
X167924546Y-119801721D01*
X167911584Y-119803836D01*
X167898881Y-119805955D01*
X167886186Y-119808336D01*
X167873216Y-119810981D01*
X167860520Y-119813627D01*
X167847817Y-119816274D01*
X167835114Y-119819183D01*
X167822679Y-119822358D01*
X167809983Y-119825532D01*
X167797280Y-119828708D01*
X167784844Y-119832149D01*
X167772408Y-119835588D01*
X167759713Y-119839292D01*
X167747277Y-119842996D01*
X167735108Y-119846965D01*
X167722672Y-119850932D01*
X167710229Y-119855167D01*
X167698068Y-119859399D01*
X167685891Y-119863899D01*
X167673722Y-119868396D01*
X167661553Y-119873159D01*
X167649377Y-119877920D01*
X167637208Y-119882684D01*
X167625298Y-119887710D01*
X167613397Y-119892736D01*
X167601487Y-119898029D01*
X167589585Y-119903320D01*
X167577943Y-119908878D01*
X167566033Y-119914432D01*
X167554398Y-119920255D01*
X167542748Y-119926076D01*
X167531373Y-119931896D01*
X167519730Y-119937982D01*
X167508355Y-119944331D01*
X167496980Y-119950416D01*
X167485604Y-119956767D01*
X167474488Y-119963382D01*
X167463113Y-119969997D01*
X167451997Y-119976875D01*
X167441148Y-119983754D01*
X167430039Y-119990632D01*
X167419190Y-119997777D01*
X167408341Y-120004920D01*
X167397500Y-120012065D01*
X167386910Y-120019473D01*
X167376328Y-120027145D01*
X167365746Y-120034555D01*
X167355164Y-120042226D01*
X167344842Y-120050165D01*
X167334527Y-120058101D01*
X167324204Y-120066039D01*
X167314149Y-120074241D01*
X167304101Y-120082443D01*
X167294045Y-120090644D01*
X167284249Y-120099113D01*
X167274468Y-120107579D01*
X167264680Y-120116309D01*
X167254884Y-120125041D01*
X167245362Y-120133773D01*
X167236100Y-120142770D01*
X167226579Y-120151765D01*
X167217317Y-120160760D01*
X167208054Y-120170020D01*
X167199059Y-120179281D01*
X167190064Y-120188806D01*
X167181062Y-120198068D01*
X167172334Y-120207591D01*
X167163606Y-120217382D01*
X167154870Y-120227172D01*
X167146409Y-120236961D01*
X167137940Y-120246751D01*
X167129739Y-120256807D01*
X167121270Y-120266858D01*
X167113335Y-120276914D01*
X167105134Y-120287233D01*
X167097192Y-120297551D01*
X167089524Y-120307866D01*
X167081849Y-120318452D01*
X167074174Y-120328771D01*
X167066499Y-120339353D01*
X167059358Y-120350202D01*
X167051949Y-120361051D01*
X167044808Y-120371633D01*
X167037660Y-120382745D01*
X167030785Y-120393594D01*
X167023904Y-120404706D01*
X167017022Y-120415819D01*
X167010415Y-120426931D01*
X167004060Y-120438310D01*
X166997445Y-120449422D01*
X166991097Y-120460798D01*
X166985009Y-120472440D01*
X166978928Y-120483815D01*
X166973107Y-120495458D01*
X166967286Y-120507100D01*
X166961457Y-120518743D01*
X166955903Y-120530382D01*
X166950349Y-120542287D01*
X166945054Y-120553930D01*
X166939767Y-120565839D01*
X166934480Y-120577745D01*
X166929711Y-120589914D01*
X166924683Y-120601819D01*
X166919923Y-120613992D01*
X166915162Y-120626161D01*
X166910661Y-120638334D01*
X166906426Y-120650506D01*
X166901933Y-120662938D01*
X166897965Y-120675111D01*
X166893998Y-120687547D01*
X166890023Y-120699979D01*
X166886056Y-120712419D01*
X166882615Y-120724851D01*
X166878915Y-120737287D01*
X166875474Y-120749723D01*
X166872300Y-120762422D01*
X166869119Y-120775125D01*
X166865945Y-120787557D01*
X166863038Y-120800256D01*
X166860391Y-120812959D01*
X166857743Y-120825658D01*
X166855103Y-120838624D01*
X166852715Y-120851323D01*
X166850602Y-120864023D01*
X166848222Y-120876985D01*
X166846368Y-120889688D01*
X166844521Y-120902650D01*
X166842668Y-120915616D01*
X166841081Y-120928315D01*
X166839486Y-120941282D01*
X166838166Y-120954244D01*
X166836846Y-120967210D01*
X166835786Y-120980172D01*
X166834725Y-120993139D01*
X166833932Y-121006105D01*
X166833138Y-121019067D01*
X166832612Y-121032033D01*
X166832078Y-121044999D01*
X166831818Y-121057962D01*
X166831551Y-121070928D01*
X166831551Y-121083894D01*
X166831551Y-121084951D01*
X166831551Y-121400068D01*
X166831551Y-121401128D01*
X166831551Y-121414090D01*
X166831292Y-121427057D01*
X166831025Y-121440023D01*
X166830491Y-121452985D01*
X166829965Y-121465951D01*
X166829171Y-121478914D01*
X166828378Y-121492143D01*
X166827317Y-121505109D01*
X166826264Y-121517808D01*
X166824937Y-121530771D01*
X166823617Y-121543737D01*
X166822030Y-121556703D01*
X166820443Y-121569665D01*
X166818589Y-121582364D01*
X166816735Y-121595331D01*
X166814889Y-121608297D01*
X166812768Y-121620996D01*
X166810388Y-121633695D01*
X166808007Y-121646661D01*
X166805360Y-121659360D01*
X166802712Y-121672059D01*
X166800073Y-121684758D01*
X166797158Y-121697461D01*
X166793984Y-121710161D01*
X166790810Y-121722597D01*
X166787629Y-121735296D01*
X166784188Y-121747731D01*
X166780747Y-121760431D01*
X166777047Y-121772867D01*
X166773080Y-121785303D01*
X166769372Y-121797738D01*
X166765145Y-121809907D01*
X166761178Y-121822343D01*
X166756936Y-121834516D01*
X166752442Y-121846685D01*
X166747941Y-121858857D01*
X166743180Y-121871026D01*
X166738419Y-121883199D01*
X166733659Y-121895368D01*
X166728631Y-121907274D01*
X166723336Y-121919183D01*
X166718041Y-121931089D01*
X166712754Y-121942994D01*
X166707200Y-121954637D01*
X166701638Y-121966543D01*
X166696084Y-121978185D01*
X166690263Y-121989824D01*
X166684182Y-122001203D01*
X166678094Y-122012841D01*
X166672006Y-122024221D01*
X166665658Y-122035600D01*
X166659310Y-122046975D01*
X166652696Y-122058088D01*
X166646081Y-122069200D01*
X166639199Y-122080312D01*
X166632584Y-122091424D01*
X166625443Y-122102536D01*
X166618295Y-122113386D01*
X166611153Y-122124234D01*
X166604012Y-122134816D01*
X166596604Y-122145662D01*
X166588929Y-122156247D01*
X166581521Y-122166829D01*
X166573586Y-122177148D01*
X166565911Y-122187734D01*
X166557969Y-122198049D01*
X166550034Y-122208108D01*
X166541833Y-122218427D01*
X166533631Y-122228479D01*
X166525163Y-122238267D01*
X166516694Y-122248323D01*
X166508233Y-122258111D01*
X166499505Y-122267637D01*
X166490769Y-122277425D01*
X166482034Y-122286954D01*
X166473039Y-122296479D01*
X166464044Y-122305738D01*
X166455048Y-122314996D01*
X166445794Y-122324258D01*
X166436532Y-122333253D01*
X166427270Y-122342252D01*
X166417741Y-122351247D01*
X166408219Y-122359975D01*
X166398431Y-122368707D01*
X166388909Y-122377439D01*
X166378846Y-122385907D01*
X166369058Y-122394372D01*
X166359010Y-122402578D01*
X166348954Y-122410776D01*
X166338899Y-122418981D01*
X166328576Y-122426915D01*
X166318261Y-122434854D01*
X166307946Y-122442792D01*
X166297356Y-122450464D01*
X166287042Y-122458135D01*
X166276193Y-122465543D01*
X166265611Y-122472951D01*
X166254762Y-122480359D01*
X166243913Y-122487508D01*
X166233064Y-122494649D01*
X166222215Y-122501527D01*
X166211106Y-122508409D01*
X166199990Y-122515023D01*
X166188874Y-122521638D01*
X166177499Y-122528249D01*
X166166123Y-122534601D01*
X166154748Y-122540952D01*
X166143372Y-122547036D01*
X166131997Y-122553125D01*
X166120355Y-122559209D01*
X166108712Y-122565030D01*
X166097070Y-122570585D01*
X166085427Y-122576139D01*
X166073525Y-122581701D01*
X166061616Y-122586988D01*
X166049706Y-122592283D01*
X166037804Y-122597307D01*
X166025895Y-122602334D01*
X166013726Y-122607362D01*
X166001557Y-122612123D01*
X165989648Y-122616620D01*
X165977479Y-122621118D01*
X165965043Y-122625619D01*
X165952866Y-122629850D01*
X165940438Y-122634088D01*
X165928262Y-122638055D01*
X165915826Y-122642022D01*
X165903397Y-122645727D01*
X165890962Y-122649431D01*
X165878259Y-122652871D01*
X165865823Y-122656312D01*
X165853124Y-122659749D01*
X165840688Y-122662923D01*
X165827989Y-122665834D01*
X165815289Y-122668744D01*
X165802590Y-122671392D01*
X165789887Y-122674039D01*
X165777188Y-122676683D01*
X165764222Y-122679063D01*
X165751523Y-122681447D01*
X165738824Y-122683561D01*
X165725858Y-122685415D01*
X165712895Y-122687265D01*
X165700192Y-122689119D01*
X165687230Y-122690706D01*
X165674264Y-122692296D01*
X165661301Y-122693616D01*
X165648335Y-122694673D01*
X165635369Y-122695997D01*
X165622407Y-122696794D01*
X165609445Y-122697851D01*
X165596475Y-122698381D01*
X165583512Y-122698907D01*
X165570550Y-122699437D01*
X165557580Y-122699704D01*
X165544618Y-122699964D01*
X165531655Y-122699964D01*
X133786418Y-122699964D01*
X133785361Y-122699964D01*
X133772395Y-122699964D01*
X133759431Y-122699704D01*
X133746467Y-122699437D01*
X133733502Y-122698907D01*
X133720536Y-122698381D01*
X133707574Y-122697583D01*
X133694608Y-122696794D01*
X133681643Y-122695733D01*
X133668679Y-122694673D01*
X133655715Y-122693353D01*
X133642749Y-122692029D01*
X133629786Y-122690706D01*
X133616820Y-122688855D01*
X133604121Y-122687265D01*
X133591157Y-122685415D01*
X133578193Y-122683297D01*
X133565492Y-122681180D01*
X133552792Y-122678800D01*
X133539826Y-122676420D01*
X133527127Y-122674039D01*
X133514426Y-122671392D01*
X133501727Y-122668481D01*
X133489026Y-122665574D01*
X133476327Y-122662660D01*
X133463891Y-122659486D01*
X133451192Y-122656045D01*
X133438758Y-122652604D01*
X133426320Y-122649164D01*
X133413621Y-122645463D01*
X133401185Y-122641755D01*
X133389014Y-122637788D01*
X133376580Y-122633821D01*
X133364142Y-122629590D01*
X133351973Y-122625352D01*
X133339803Y-122620855D01*
X133327630Y-122616357D01*
X133315461Y-122611596D01*
X133303290Y-122606836D01*
X133291383Y-122602071D01*
X133279212Y-122597043D01*
X133267306Y-122592019D01*
X133255401Y-122586725D01*
X133243493Y-122581170D01*
X133231851Y-122575879D01*
X133219945Y-122570321D01*
X133208304Y-122564500D01*
X133196664Y-122558679D01*
X133185286Y-122552595D01*
X133173642Y-122546506D01*
X133162267Y-122540422D01*
X133150889Y-122534074D01*
X133139512Y-122527723D01*
X133128400Y-122521108D01*
X133117288Y-122514493D01*
X133106175Y-122507879D01*
X133095063Y-122501001D01*
X133083949Y-122493856D01*
X133073102Y-122486978D01*
X133062253Y-122479833D01*
X133051671Y-122472425D01*
X133040822Y-122465017D01*
X133030238Y-122457609D01*
X133019658Y-122449937D01*
X133009337Y-122442262D01*
X132999019Y-122434324D01*
X132988700Y-122426389D01*
X132978381Y-122418451D01*
X132968327Y-122410245D01*
X132958274Y-122402047D01*
X132948218Y-122393583D01*
X132938165Y-122385377D01*
X132928376Y-122376645D01*
X132918849Y-122368181D01*
X132909060Y-122359445D01*
X132899535Y-122350450D01*
X132890010Y-122341718D01*
X132880750Y-122332723D01*
X132871489Y-122323461D01*
X132862229Y-122314206D01*
X132853232Y-122304944D01*
X132844237Y-122295682D01*
X132835240Y-122286157D01*
X132826510Y-122276635D01*
X132817780Y-122267106D01*
X132809047Y-122257318D01*
X132800582Y-122247529D01*
X132792115Y-122237474D01*
X132783912Y-122227685D01*
X132775710Y-122217366D01*
X132767508Y-122207311D01*
X132759572Y-122196992D01*
X132751634Y-122186673D01*
X132743695Y-122176355D01*
X132736022Y-122166040D01*
X132728349Y-122155454D01*
X132720941Y-122144872D01*
X132713532Y-122134023D01*
X132706124Y-122123437D01*
X132698981Y-122112592D01*
X132692101Y-122101480D01*
X132684956Y-122090631D01*
X132678080Y-122079519D01*
X132671466Y-122068406D01*
X132664849Y-122057294D01*
X132658235Y-122045915D01*
X132651885Y-122034803D01*
X132645535Y-122023427D01*
X132639449Y-122011785D01*
X132633365Y-122000409D01*
X132627543Y-121988767D01*
X132621457Y-121977125D01*
X132615903Y-121965486D01*
X132610345Y-121953840D01*
X132604791Y-121941934D01*
X132599498Y-121930028D01*
X132594207Y-121918123D01*
X132589179Y-121906217D01*
X132584151Y-121894311D01*
X132579125Y-121882139D01*
X132574363Y-121870233D01*
X132569865Y-121858060D01*
X132565368Y-121845891D01*
X132560870Y-121833722D01*
X132556636Y-121821287D01*
X132552401Y-121809114D01*
X132548432Y-121796682D01*
X132544465Y-121784242D01*
X132540759Y-121771810D01*
X132537055Y-121759370D01*
X132533616Y-121746938D01*
X132530177Y-121734239D01*
X132526736Y-121721803D01*
X132523827Y-121709104D01*
X132520652Y-121696401D01*
X132517741Y-121683702D01*
X132515096Y-121671003D01*
X132512448Y-121658304D01*
X132509805Y-121645601D01*
X132507422Y-121632901D01*
X132505307Y-121619939D01*
X132503190Y-121607236D01*
X132501073Y-121594274D01*
X132499221Y-121581571D01*
X132497369Y-121568609D01*
X132495782Y-121555642D01*
X132494195Y-121542676D01*
X132492871Y-121529714D01*
X132491813Y-121517015D01*
X132490491Y-121504049D01*
X132489695Y-121491086D01*
X132488902Y-121478120D01*
X132488109Y-121465154D01*
X132487580Y-121451928D01*
X132487050Y-121438962D01*
X132486787Y-121426000D01*
X132486520Y-121413034D01*
X132486520Y-121400068D01*
X132486520Y-111575057D01*
X132486520Y-111562068D01*
X132486255Y-111549051D01*
X132485991Y-111536058D01*
X132485463Y-111523067D01*
X132484933Y-111510076D01*
X132484139Y-111497112D01*
X132483346Y-111484121D01*
X132482287Y-111471183D01*
X132481229Y-111458219D01*
X132479907Y-111445279D01*
X132478583Y-111432342D01*
X132476996Y-111419431D01*
X132475407Y-111406545D01*
X132473821Y-111393659D01*
X132471969Y-111380802D01*
X132469851Y-111367942D01*
X132467734Y-111355110D01*
X132465354Y-111342330D01*
X132462974Y-111329551D01*
X132460591Y-111316798D01*
X132457946Y-111304071D01*
X132455035Y-111291372D01*
X132452124Y-111278697D01*
X132449214Y-111266052D01*
X132446038Y-111253431D01*
X132442866Y-111240863D01*
X132439425Y-111228296D01*
X132435721Y-111215808D01*
X132432282Y-111203319D01*
X132428313Y-111190885D01*
X132424609Y-111178474D01*
X132420375Y-111166118D01*
X132416406Y-111153814D01*
X132411908Y-111141540D01*
X132407676Y-111129289D01*
X132403178Y-111117091D01*
X132398414Y-111104945D01*
X132393651Y-111092855D01*
X132388890Y-111080818D01*
X132383861Y-111068805D01*
X132378835Y-111056873D01*
X132373544Y-111044965D01*
X132367988Y-111033138D01*
X132362697Y-111021339D01*
X132357139Y-111009591D01*
X132351319Y-110997922D01*
X132345498Y-110986308D01*
X132339677Y-110974746D01*
X132333592Y-110963235D01*
X132327241Y-110951806D01*
X132320891Y-110940429D01*
X132314542Y-110929105D01*
X132308192Y-110917859D01*
X132301577Y-110906694D01*
X132294698Y-110895555D01*
X132287818Y-110884521D01*
X132280938Y-110873542D01*
X132273797Y-110862615D01*
X132266652Y-110851795D01*
X132259509Y-110841024D01*
X132252101Y-110830337D01*
X132244428Y-110819726D01*
X132237019Y-110809169D01*
X132229081Y-110798719D01*
X132221408Y-110788320D01*
X132213471Y-110778001D01*
X132205533Y-110767787D01*
X132197331Y-110757627D01*
X132189130Y-110747547D01*
X132180661Y-110737573D01*
X132172196Y-110727678D01*
X132163730Y-110717860D01*
X132155261Y-110708125D01*
X132146531Y-110698495D01*
X132137534Y-110688917D01*
X132128804Y-110679471D01*
X132119809Y-110670076D01*
X132110547Y-110660791D01*
X132101552Y-110651611D01*
X132092292Y-110642509D01*
X132082768Y-110633485D01*
X132073241Y-110624568D01*
X132063716Y-110615758D01*
X132054192Y-110607026D01*
X132044402Y-110598401D01*
X132034612Y-110589855D01*
X132024823Y-110581441D01*
X132014769Y-110573108D01*
X132004714Y-110564853D01*
X131994660Y-110556730D01*
X131984342Y-110548713D01*
X131974023Y-110540777D01*
X131963704Y-110532945D01*
X131953120Y-110525245D01*
X131942536Y-110517625D01*
X131931954Y-110510110D01*
X131921372Y-110502702D01*
X131910523Y-110495401D01*
X131899676Y-110488229D01*
X131888827Y-110481138D01*
X131877980Y-110474180D01*
X131866868Y-110467326D01*
X131855754Y-110460580D01*
X131844642Y-110453941D01*
X131833264Y-110447404D01*
X131821889Y-110441001D01*
X131810510Y-110434705D01*
X131799132Y-110428514D01*
X131787755Y-110422454D01*
X131776114Y-110416501D01*
X131764474Y-110410653D01*
X131752831Y-110404937D01*
X131741191Y-110399328D01*
X131729283Y-110393825D01*
X131717378Y-110388454D01*
X131705472Y-110383216D01*
X131693564Y-110378082D01*
X131681657Y-110373082D01*
X131669488Y-110368186D01*
X131657582Y-110363399D01*
X131645411Y-110358768D01*
X131633239Y-110354219D01*
X131621068Y-110349826D01*
X131608634Y-110345540D01*
X131596461Y-110341386D01*
X131584027Y-110337337D01*
X131571591Y-110333421D01*
X131559155Y-110329637D01*
X131546721Y-110325959D01*
X131534285Y-110322440D01*
X131521586Y-110319028D01*
X131509148Y-110315721D01*
X131496449Y-110312572D01*
X131483750Y-110309530D01*
X131471049Y-110306619D01*
X131458350Y-110303842D01*
X131445649Y-110301170D01*
X131432950Y-110298656D01*
X131420249Y-110296249D01*
X131407287Y-110293973D01*
X131394586Y-110291829D01*
X131381621Y-110289819D01*
X131368920Y-110287914D01*
X131355956Y-110286166D01*
X131342992Y-110284526D01*
X131330293Y-110283017D01*
X131317326Y-110281669D01*
X131304362Y-110280425D01*
X131291398Y-110279287D01*
X131278434Y-110278308D01*
X131265468Y-110277463D01*
X131252505Y-110276748D01*
X131239539Y-110276138D01*
X131226577Y-110275663D01*
X131213611Y-110275346D01*
X131200381Y-110275132D01*
X131187417Y-110275054D01*
X131186358Y-110275054D01*
X118930037Y-110275054D01*
X118917048Y-110275132D01*
X118904057Y-110275319D01*
X118891038Y-110275636D01*
X118878049Y-110276086D01*
X118865083Y-110276697D01*
X118852092Y-110277410D01*
X118839127Y-110278230D01*
X118826163Y-110279209D01*
X118813199Y-110280319D01*
X118800259Y-110281562D01*
X118787322Y-110282913D01*
X118774411Y-110284421D01*
X118761525Y-110286033D01*
X118748641Y-110287782D01*
X118735782Y-110289659D01*
X118722922Y-110291669D01*
X118710116Y-110293786D01*
X118697312Y-110296062D01*
X118684531Y-110298444D01*
X118671779Y-110300983D01*
X118659053Y-110303630D01*
X118646354Y-110306381D01*
X118633679Y-110309293D01*
X118621032Y-110312309D01*
X118608411Y-110315482D01*
X118595843Y-110318763D01*
X118583302Y-110322151D01*
X118570786Y-110325696D01*
X118558299Y-110329347D01*
X118545863Y-110333129D01*
X118533481Y-110337020D01*
X118521100Y-110341041D01*
X118508796Y-110345195D01*
X118496520Y-110349483D01*
X118484269Y-110353874D01*
X118472098Y-110358400D01*
X118459954Y-110363027D01*
X118447862Y-110367792D01*
X118435798Y-110372686D01*
X118423812Y-110377687D01*
X118411853Y-110382791D01*
X118399945Y-110388032D01*
X118388120Y-110393401D01*
X118376319Y-110398879D01*
X118364598Y-110404487D01*
X118352904Y-110410205D01*
X118341288Y-110416025D01*
X118329726Y-110421977D01*
X118318242Y-110428037D01*
X118306786Y-110434202D01*
X118295409Y-110440498D01*
X118284112Y-110446901D01*
X118272839Y-110453410D01*
X118261676Y-110460023D01*
X118250564Y-110466771D01*
X118239503Y-110473625D01*
X118228522Y-110480583D01*
X118217622Y-110487647D01*
X118206775Y-110494844D01*
X118196006Y-110502120D01*
X118185317Y-110509528D01*
X118174706Y-110517015D01*
X118164149Y-110524635D01*
X118153699Y-110532335D01*
X118143300Y-110540141D01*
X118132981Y-110548078D01*
X118122769Y-110556096D01*
X118112609Y-110564218D01*
X118102555Y-110572446D01*
X118092553Y-110580755D01*
X118082658Y-110589195D01*
X118072841Y-110597713D01*
X118063104Y-110606338D01*
X118053473Y-110615043D01*
X118043923Y-110623855D01*
X118034450Y-110632770D01*
X118025058Y-110641767D01*
X118015771Y-110650869D01*
X118006591Y-110660051D01*
X117997489Y-110669336D01*
X117988467Y-110678703D01*
X117979548Y-110688175D01*
X117970738Y-110697725D01*
X117962008Y-110707359D01*
X117953381Y-110717094D01*
X117944863Y-110726884D01*
X117936423Y-110736779D01*
X117928088Y-110746753D01*
X117919860Y-110756833D01*
X117911712Y-110766967D01*
X117903693Y-110777179D01*
X117895755Y-110787500D01*
X117887950Y-110797870D01*
X117880225Y-110808322D01*
X117872605Y-110818877D01*
X117865090Y-110829488D01*
X117857683Y-110840179D01*
X117850407Y-110850919D01*
X117843210Y-110861768D01*
X117836145Y-110872669D01*
X117829161Y-110883649D01*
X117822307Y-110894681D01*
X117815561Y-110905795D01*
X117808920Y-110916961D01*
X117802385Y-110928205D01*
X117795982Y-110939529D01*
X117789685Y-110950906D01*
X117783494Y-110962337D01*
X117777435Y-110973819D01*
X117771480Y-110985381D01*
X117765634Y-110996997D01*
X117759919Y-111008664D01*
X117754310Y-111020412D01*
X117748834Y-111032188D01*
X117743461Y-111044013D01*
X117738197Y-111055919D01*
X117733064Y-111067851D01*
X117728063Y-111079864D01*
X117723168Y-111091903D01*
X117718406Y-111103996D01*
X117713750Y-111116140D01*
X117709225Y-111128309D01*
X117704806Y-111140559D01*
X117700519Y-111152835D01*
X117696366Y-111165140D01*
X117692318Y-111177495D01*
X117688402Y-111189905D01*
X117684618Y-111202340D01*
X117680967Y-111214803D01*
X117677421Y-111227315D01*
X117674009Y-111239858D01*
X117670728Y-111252425D01*
X117667553Y-111265046D01*
X117664511Y-111277692D01*
X117661600Y-111290342D01*
X117658821Y-111303041D01*
X117656176Y-111315767D01*
X117653636Y-111328519D01*
X117651228Y-111341298D01*
X117648952Y-111354104D01*
X117646810Y-111366910D01*
X117644799Y-111379770D01*
X117642920Y-111392627D01*
X117641148Y-111405513D01*
X117639507Y-111418397D01*
X117638025Y-111431310D01*
X117636650Y-111444248D01*
X117635406Y-111457187D01*
X117634295Y-111470151D01*
X117633290Y-111483091D01*
X117632443Y-111496080D01*
X117631728Y-111509046D01*
X117631120Y-111522035D01*
X117630670Y-111535026D01*
X117630326Y-111548019D01*
X117630114Y-111561035D01*
X117630035Y-111574025D01*
X117630035Y-111575057D01*
X117630035Y-121708043D01*
X117630035Y-121709104D01*
X117629982Y-121722066D01*
X117629770Y-121735032D01*
X117629426Y-121747995D01*
X117628977Y-121760961D01*
X117628368Y-121774190D01*
X117627654Y-121787153D01*
X117626780Y-121800119D01*
X117625802Y-121813085D01*
X117624691Y-121826047D01*
X117623447Y-121838746D01*
X117622071Y-121851713D01*
X117620562Y-121864675D01*
X117618949Y-121877641D01*
X117617176Y-121890607D01*
X117615298Y-121903306D01*
X117613287Y-121916269D01*
X117611117Y-121928972D01*
X117608868Y-121941934D01*
X117606460Y-121954637D01*
X117603921Y-121967336D01*
X117601274Y-121980035D01*
X117598497Y-121992734D01*
X117595587Y-122005433D01*
X117592544Y-122018136D01*
X117589369Y-122030568D01*
X117586088Y-122043271D01*
X117582674Y-122055707D01*
X117579129Y-122068406D01*
X117575477Y-122080842D01*
X117571668Y-122093278D01*
X117567752Y-122105714D01*
X117563730Y-122117883D01*
X117559576Y-122130319D01*
X117555291Y-122142492D01*
X117550872Y-122154924D01*
X117546348Y-122167096D01*
X117541691Y-122179002D01*
X117536928Y-122191171D01*
X117532033Y-122203344D01*
X117527034Y-122215249D01*
X117521900Y-122227155D01*
X117516634Y-122239061D01*
X117511264Y-122250970D01*
X117505787Y-122262609D01*
X117500177Y-122274514D01*
X117494463Y-122286157D01*
X117488615Y-122297799D01*
X117482662Y-122309179D01*
X117476603Y-122320817D01*
X117470412Y-122332197D01*
X117464115Y-122343572D01*
X117457686Y-122354947D01*
X117451177Y-122366063D01*
X117444536Y-122377439D01*
X117437789Y-122388551D01*
X117430937Y-122399400D01*
X117423951Y-122410512D01*
X117416887Y-122421361D01*
X117409691Y-122432210D01*
X117402387Y-122443055D01*
X117395006Y-122453637D01*
X117387492Y-122464223D01*
X117379871Y-122474805D01*
X117372146Y-122485124D01*
X117364341Y-122495706D01*
X117356403Y-122506025D01*
X117348360Y-122516084D01*
X117340238Y-122526403D01*
X117332008Y-122536455D01*
X117323674Y-122546243D01*
X117315233Y-122556299D01*
X117306714Y-122566087D01*
X117298089Y-122575879D01*
X117289358Y-122585401D01*
X117280547Y-122594926D01*
X117271630Y-122604451D01*
X117262608Y-122613710D01*
X117253507Y-122622972D01*
X117244299Y-122632234D01*
X117235012Y-122641229D01*
X117225646Y-122650224D01*
X117216174Y-122659223D01*
X117206622Y-122667951D01*
X117196965Y-122676683D01*
X117187255Y-122685415D01*
X117177440Y-122693883D01*
X117167517Y-122702348D01*
X117157542Y-122710550D01*
X117147488Y-122719018D01*
X117137328Y-122726953D01*
X117127089Y-122735154D01*
X117116796Y-122743097D01*
X117106398Y-122750764D01*
X117095947Y-122758439D01*
X117085391Y-122766111D01*
X117074780Y-122773519D01*
X117064092Y-122780927D01*
X117053323Y-122788335D01*
X117042475Y-122795484D01*
X117031574Y-122802625D01*
X117020594Y-122809503D01*
X117009534Y-122816385D01*
X116998422Y-122822995D01*
X116987229Y-122829614D01*
X116975985Y-122836225D01*
X116964687Y-122842576D01*
X116953310Y-122848928D01*
X116941854Y-122855012D01*
X116930371Y-122861100D01*
X116918809Y-122867185D01*
X116907167Y-122873006D01*
X116895499Y-122878560D01*
X116883778Y-122884115D01*
X116871977Y-122889676D01*
X116860124Y-122894964D01*
X116848245Y-122900255D01*
X116836285Y-122905549D01*
X116824300Y-122910310D01*
X116812234Y-122915338D01*
X116800143Y-122920099D01*
X116787999Y-122924596D01*
X116775802Y-122929361D01*
X116763577Y-122933591D01*
X116751302Y-122937826D01*
X116738972Y-122942060D01*
X116726616Y-122946031D01*
X116714232Y-122949998D01*
X116701771Y-122953702D01*
X116689309Y-122957406D01*
X116676795Y-122960847D01*
X116664253Y-122964288D01*
X116651659Y-122967725D01*
X116639065Y-122970899D01*
X116626418Y-122973810D01*
X116613745Y-122976720D01*
X116601045Y-122979364D01*
X116588318Y-122982278D01*
X116575564Y-122984659D01*
X116562785Y-122987039D01*
X116549979Y-122989423D01*
X116537147Y-122991536D01*
X116524315Y-122993390D01*
X116511456Y-122995240D01*
X116498571Y-122997094D01*
X116485660Y-122998681D01*
X116472748Y-123000272D01*
X116459836Y-123001592D01*
X116446898Y-123002916D01*
X116433933Y-123003972D01*
X116420969Y-123004770D01*
X116408005Y-123005826D01*
X116395013Y-123006353D01*
X116382022Y-123007150D01*
X116369031Y-123007413D01*
X116356040Y-123007680D01*
X116343049Y-123007940D01*
X116330058Y-123007940D01*
X107400344Y-123007940D01*
X107399286Y-123007940D01*
X107386295Y-123007940D01*
X107373304Y-123007680D01*
X107360313Y-123007413D01*
X107347321Y-123006883D01*
X107334331Y-123006353D01*
X107321339Y-123005559D01*
X107308375Y-123004770D01*
X107295411Y-123003709D01*
X107282446Y-123002649D01*
X107269508Y-123001592D01*
X107256596Y-123000005D01*
X107243685Y-122998681D01*
X107230773Y-122996831D01*
X107217888Y-122995240D01*
X107205029Y-122993390D01*
X107192196Y-122991273D01*
X107179364Y-122989156D01*
X107166585Y-122986776D01*
X107153806Y-122984392D01*
X107141053Y-122982015D01*
X107128326Y-122979364D01*
X107115626Y-122976453D01*
X107102953Y-122973543D01*
X107090306Y-122970636D01*
X107077712Y-122967458D01*
X107065117Y-122964021D01*
X107052576Y-122960580D01*
X107040061Y-122957139D01*
X107027599Y-122953439D01*
X107015164Y-122949731D01*
X107002782Y-122945764D01*
X106990399Y-122941797D01*
X106978096Y-122937566D01*
X106965819Y-122933328D01*
X106953595Y-122928830D01*
X106941398Y-122924333D01*
X106929254Y-122919835D01*
X106917162Y-122914808D01*
X106905124Y-122910047D01*
X106893138Y-122905019D01*
X106881179Y-122899991D01*
X106869299Y-122894700D01*
X106857446Y-122889409D01*
X106845672Y-122883851D01*
X106833950Y-122878293D01*
X106822283Y-122872476D01*
X106810667Y-122866655D01*
X106799106Y-122860570D01*
X106787596Y-122854482D01*
X106776166Y-122848398D01*
X106764789Y-122842046D01*
X106753491Y-122835698D01*
X106742246Y-122829084D01*
X106731055Y-122822465D01*
X106719968Y-122815854D01*
X106708909Y-122808976D01*
X106697928Y-122802095D01*
X106687027Y-122794954D01*
X106676207Y-122787809D01*
X106665438Y-122780401D01*
X106654748Y-122772992D01*
X106644139Y-122765584D01*
X106633609Y-122757913D01*
X106623157Y-122750238D01*
X106612759Y-122742299D01*
X106602467Y-122734361D01*
X106592227Y-122726426D01*
X106582094Y-122718221D01*
X106572040Y-122710023D01*
X106562065Y-122701551D01*
X106552170Y-122693353D01*
X106542354Y-122684621D01*
X106532617Y-122676153D01*
X106522986Y-122667421D01*
X106513435Y-122658426D01*
X106503989Y-122649694D01*
X106494623Y-122640699D01*
X106485336Y-122631437D01*
X106476155Y-122622442D01*
X106467053Y-122612920D01*
X106458057Y-122603658D01*
X106449141Y-122594133D01*
X106440330Y-122584611D01*
X106431599Y-122575082D01*
X106422974Y-122565294D01*
X106414454Y-122555505D01*
X106406040Y-122545450D01*
X106397705Y-122535657D01*
X106389477Y-122525605D01*
X106381354Y-122515287D01*
X106373338Y-122505235D01*
X106365426Y-122494916D01*
X106357595Y-122484330D01*
X106349896Y-122474012D01*
X106342302Y-122463430D01*
X106334788Y-122452848D01*
X106327406Y-122441999D01*
X106320104Y-122431413D01*
X106312933Y-122420564D01*
X106305869Y-122409456D01*
X106298910Y-122398607D01*
X106292057Y-122387494D01*
X106285311Y-122376382D01*
X106278670Y-122365266D01*
X106272161Y-122353891D01*
X106265758Y-122342782D01*
X106259461Y-122331403D01*
X106253296Y-122319761D01*
X106247238Y-122308385D01*
X106241284Y-122296739D01*
X106235464Y-122285100D01*
X106229748Y-122273458D01*
X106224166Y-122261819D01*
X106218689Y-122249910D01*
X106213318Y-122238267D01*
X106208079Y-122226362D01*
X106202946Y-122214193D01*
X106197945Y-122202287D01*
X106193077Y-122190381D01*
X106188315Y-122178209D01*
X106183658Y-122166040D01*
X106179133Y-122153867D01*
X106174742Y-122141694D01*
X106170482Y-122129258D01*
X106166327Y-122117090D01*
X106162306Y-122104654D01*
X106158390Y-122092218D01*
X106154607Y-122079786D01*
X106150955Y-122067346D01*
X106147436Y-122054914D01*
X106144023Y-122042211D01*
X106140743Y-122029779D01*
X106137594Y-122017080D01*
X106134578Y-122004377D01*
X106131668Y-121991678D01*
X106128889Y-121978975D01*
X106126244Y-121966279D01*
X106123730Y-121953576D01*
X106121322Y-121940877D01*
X106119073Y-121927911D01*
X106116930Y-121915212D01*
X106114919Y-121902246D01*
X106113041Y-121889547D01*
X106111295Y-121876584D01*
X106109680Y-121863618D01*
X106108199Y-121850652D01*
X106106823Y-121837953D01*
X106105606Y-121824991D01*
X106104494Y-121812024D01*
X106103516Y-121799058D01*
X106102669Y-121786096D01*
X106101954Y-121773130D01*
X106101373Y-121760167D01*
X106100922Y-121746938D01*
X106100579Y-121733972D01*
X106100394Y-121721010D01*
X106100341Y-121708043D01*
X106100341Y-91600050D01*
X106100341Y-91599017D01*
X106100420Y-91586027D01*
X106100605Y-91573036D01*
X106100949Y-91560018D01*
X106101426Y-91547027D01*
X106102007Y-91534062D01*
X106102722Y-91521071D01*
X106103595Y-91508106D01*
X106104574Y-91495142D01*
X106105686Y-91482178D01*
X106106929Y-91469239D01*
X106108304Y-91456328D01*
X106109813Y-91443416D01*
X106111427Y-91430504D01*
X106113199Y-91417619D01*
X106115078Y-91404761D01*
X106117089Y-91391928D01*
X106119258Y-91379096D01*
X106121507Y-91366290D01*
X106123915Y-91353537D01*
X106126455Y-91340784D01*
X106129101Y-91328058D01*
X106131879Y-91315358D01*
X106134789Y-91302684D01*
X106137832Y-91290037D01*
X106141007Y-91277443D01*
X106144288Y-91264849D01*
X106147701Y-91252307D01*
X106151246Y-91239793D01*
X106154898Y-91227331D01*
X106158708Y-91214895D01*
X106162623Y-91202486D01*
X106166645Y-91190131D01*
X106170799Y-91177827D01*
X106175085Y-91165551D01*
X106179504Y-91153327D01*
X106184028Y-91141130D01*
X106188685Y-91128985D01*
X106193447Y-91116894D01*
X106198342Y-91104855D01*
X106203343Y-91092870D01*
X106208476Y-91080911D01*
X106213741Y-91069031D01*
X106219112Y-91057177D01*
X106224589Y-91045404D01*
X106230198Y-91033682D01*
X106235913Y-91021988D01*
X106241761Y-91010372D01*
X106247713Y-90998837D01*
X106253799Y-90987327D01*
X106259964Y-90975897D01*
X106266261Y-90964520D01*
X106272690Y-90953223D01*
X106279199Y-90941978D01*
X106285840Y-90930786D01*
X106292587Y-90919673D01*
X106299440Y-90908640D01*
X106306425Y-90897660D01*
X106313489Y-90886762D01*
X106320686Y-90875930D01*
X106327988Y-90865169D01*
X106335370Y-90854483D01*
X106342884Y-90843873D01*
X106350504Y-90833335D01*
X106358230Y-90822876D01*
X106366062Y-90812493D01*
X106373973Y-90802190D01*
X106382016Y-90791967D01*
X106390139Y-90781825D01*
X106398367Y-90771763D01*
X106406701Y-90761786D01*
X106415142Y-90751890D01*
X106423662Y-90742082D01*
X106432287Y-90732359D01*
X106441018Y-90722720D01*
X106449829Y-90713172D01*
X106458745Y-90703713D01*
X106467768Y-90694341D01*
X106476869Y-90685062D01*
X106486077Y-90675873D01*
X106495364Y-90666777D01*
X106504730Y-90657773D01*
X106514202Y-90648864D01*
X106523753Y-90640051D01*
X106533411Y-90631333D01*
X106543121Y-90622713D01*
X106552937Y-90614188D01*
X106562859Y-90605764D01*
X106572834Y-90597440D01*
X106582888Y-90589214D01*
X106593048Y-90581091D01*
X106603287Y-90573069D01*
X106613580Y-90565150D01*
X106623977Y-90557335D01*
X106634455Y-90549624D01*
X106644986Y-90542018D01*
X106655595Y-90534517D01*
X106666284Y-90527124D01*
X106677053Y-90519838D01*
X106687900Y-90512660D01*
X106698801Y-90505590D01*
X106709782Y-90498629D01*
X106720841Y-90491779D01*
X106731954Y-90485040D01*
X106743146Y-90478412D01*
X106754391Y-90471895D01*
X106765688Y-90465492D01*
X106777065Y-90459203D01*
X106788522Y-90453028D01*
X106800032Y-90446966D01*
X106811567Y-90441021D01*
X106823209Y-90435192D01*
X106834876Y-90429480D01*
X106846598Y-90423884D01*
X106858398Y-90418404D01*
X106870252Y-90413044D01*
X106882131Y-90407803D01*
X106894091Y-90402680D01*
X106906076Y-90397677D01*
X106918141Y-90392796D01*
X106930233Y-90388036D01*
X106942377Y-90383395D01*
X106954574Y-90378876D01*
X106966798Y-90374478D01*
X106979074Y-90370205D01*
X106991404Y-90366054D01*
X107003760Y-90362027D01*
X107016143Y-90358122D01*
X107028605Y-90354343D01*
X107041067Y-90350687D01*
X107053582Y-90347157D01*
X107066122Y-90343752D01*
X107078717Y-90340474D01*
X107091311Y-90337320D01*
X107103958Y-90334293D01*
X107116632Y-90331394D01*
X107129332Y-90328621D01*
X107142058Y-90325972D01*
X107154811Y-90323454D01*
X107167591Y-90321064D01*
X107180396Y-90318800D01*
X107193229Y-90316664D01*
X107206061Y-90314659D01*
X107218919Y-90312780D01*
X107231805Y-90311029D01*
X107244717Y-90309409D01*
X107257628Y-90307917D01*
X107270540Y-90306554D01*
X107283478Y-90305322D01*
X107296442Y-90304218D01*
X107309407Y-90303244D01*
X107322371Y-90302398D01*
X107335363Y-90301683D01*
X107348354Y-90301099D01*
X107361345Y-90300644D01*
X107374336Y-90300321D01*
X107387327Y-90300125D01*
X107400344Y-90300059D01*
X116330058Y-90300059D01*
X116331089Y-90300062D01*
X116344081Y-90300136D01*
X116357072Y-90300342D01*
X116370063Y-90300675D01*
X116383055Y-90301141D01*
X116396046Y-90301736D01*
X116409036Y-90302461D01*
X116422001Y-90303316D01*
X116434965Y-90304300D01*
X116447929Y-90305414D01*
X116460868Y-90306658D01*
X116473780Y-90308031D01*
X116486690Y-90309534D01*
X116499603Y-90311164D01*
X116512487Y-90312923D01*
X116525348Y-90314812D01*
X116538179Y-90316831D01*
X116551012Y-90318974D01*
X116563790Y-90321249D01*
X116576570Y-90323649D01*
X116589323Y-90326179D01*
X116602050Y-90328835D01*
X116614750Y-90331619D01*
X116627423Y-90334529D01*
X116640070Y-90337566D01*
X116652664Y-90340731D01*
X116665258Y-90344019D01*
X116677800Y-90347435D01*
X116690314Y-90350975D01*
X116702776Y-90354640D01*
X116715212Y-90358429D01*
X116727621Y-90362342D01*
X116739977Y-90366380D01*
X116752279Y-90370541D01*
X116764557Y-90374825D01*
X116776780Y-90379230D01*
X116788978Y-90383760D01*
X116801122Y-90388408D01*
X116813213Y-90393179D01*
X116825252Y-90398071D01*
X116837237Y-90403085D01*
X116849197Y-90408215D01*
X116861076Y-90413467D01*
X116872929Y-90418836D01*
X116884704Y-90424323D01*
X116896425Y-90429930D01*
X116908093Y-90435653D01*
X116919708Y-90441489D01*
X116931270Y-90447445D01*
X116942779Y-90453515D01*
X116954210Y-90459698D01*
X116965587Y-90465998D01*
X116976885Y-90472409D01*
X116988130Y-90478933D01*
X116999321Y-90485572D01*
X117010433Y-90492318D01*
X117021467Y-90499179D01*
X117032448Y-90506148D01*
X117043348Y-90513226D01*
X117054170Y-90520415D01*
X117064937Y-90527709D01*
X117075627Y-90535112D01*
X117086237Y-90542621D01*
X117096767Y-90550233D01*
X117107219Y-90557954D01*
X117117617Y-90565777D01*
X117127909Y-90573704D01*
X117138148Y-90581734D01*
X117148281Y-90589868D01*
X117158336Y-90598099D01*
X117168311Y-90606433D01*
X117178206Y-90614865D01*
X117188022Y-90623396D01*
X117197759Y-90632024D01*
X117207390Y-90640750D01*
X117216942Y-90649571D01*
X117226386Y-90658487D01*
X117235753Y-90667496D01*
X117245040Y-90676601D01*
X117254221Y-90685797D01*
X117263323Y-90695084D01*
X117272345Y-90704461D01*
X117281235Y-90713931D01*
X117290046Y-90723485D01*
X117298776Y-90733129D01*
X117307403Y-90742860D01*
X117315922Y-90752677D01*
X117324335Y-90762577D01*
X117332670Y-90772563D01*
X117340898Y-90782630D01*
X117349021Y-90792779D01*
X117357038Y-90803008D01*
X117364949Y-90813319D01*
X117372781Y-90823706D01*
X117380480Y-90834171D01*
X117388101Y-90844714D01*
X117395588Y-90855332D01*
X117402969Y-90866024D01*
X117410272Y-90876790D01*
X117417442Y-90887630D01*
X117424507Y-90898533D01*
X117431465Y-90909513D01*
X117438318Y-90920573D01*
X117445064Y-90931686D01*
X117451706Y-90942877D01*
X117458215Y-90954122D01*
X117464618Y-90965420D01*
X117470915Y-90976797D01*
X117477079Y-90988253D01*
X117483139Y-90999736D01*
X117489092Y-91011298D01*
X117494912Y-91022940D01*
X117500627Y-91034608D01*
X117506210Y-91046330D01*
X117511713Y-91058130D01*
X117517058Y-91069983D01*
X117522297Y-91081863D01*
X117527429Y-91093822D01*
X117532430Y-91105808D01*
X117537299Y-91117873D01*
X117542061Y-91129964D01*
X117546718Y-91142108D01*
X117551243Y-91154306D01*
X117555633Y-91166530D01*
X117559894Y-91178806D01*
X117564048Y-91191136D01*
X117568069Y-91203492D01*
X117571986Y-91215874D01*
X117575768Y-91228310D01*
X117579420Y-91240798D01*
X117582940Y-91253313D01*
X117586352Y-91265854D01*
X117589634Y-91278422D01*
X117592781Y-91291043D01*
X117595824Y-91303690D01*
X117598708Y-91316363D01*
X117601487Y-91329063D01*
X117604132Y-91341790D01*
X117606646Y-91354543D01*
X117609054Y-91367322D01*
X117611302Y-91380128D01*
X117613446Y-91392933D01*
X117615456Y-91405792D01*
X117617335Y-91418651D01*
X117619080Y-91431536D01*
X117620696Y-91444421D01*
X117622177Y-91457360D01*
X117623553Y-91470271D01*
X117624797Y-91483209D01*
X117625881Y-91496174D01*
X117626860Y-91509139D01*
X117627706Y-91522103D01*
X117628421Y-91535094D01*
X117629003Y-91548085D01*
X117629453Y-91561076D01*
X117629797Y-91574067D01*
X117629982Y-91587058D01*
X117630035Y-91600050D01*
X117630035Y-101425061D01*
X117630114Y-101438051D01*
X117630299Y-101451068D01*
X117630644Y-101464060D01*
X117631094Y-101477050D01*
X117631675Y-101490041D01*
X117632390Y-101503006D01*
X117633237Y-101515997D01*
X117634215Y-101528935D01*
X117635301Y-101541900D01*
X117636544Y-101554838D01*
X117637894Y-101567776D01*
X117639401Y-101580688D01*
X117641015Y-101593573D01*
X117642761Y-101606459D01*
X117644641Y-101619317D01*
X117646651Y-101632176D01*
X117648794Y-101645008D01*
X117651043Y-101657788D01*
X117653451Y-101670567D01*
X117655964Y-101683319D01*
X117658610Y-101696046D01*
X117661388Y-101708746D01*
X117664272Y-101721420D01*
X117667314Y-101734067D01*
X117670463Y-101746687D01*
X117673744Y-101759256D01*
X117677131Y-101771823D01*
X117680676Y-101784312D01*
X117684327Y-101796799D01*
X117688111Y-101809235D01*
X117692000Y-101821643D01*
X117696049Y-101833999D01*
X117700203Y-101846303D01*
X117704462Y-101858580D01*
X117708855Y-101870830D01*
X117713379Y-101883027D01*
X117718009Y-101895171D01*
X117722772Y-101907263D01*
X117727666Y-101919302D01*
X117732667Y-101931314D01*
X117737800Y-101943246D01*
X117743039Y-101955153D01*
X117748383Y-101966979D01*
X117753860Y-101978780D01*
X117759469Y-101990527D01*
X117765184Y-102002195D01*
X117771006Y-102013811D01*
X117776958Y-102025373D01*
X117783017Y-102036883D01*
X117789183Y-102048312D01*
X117795479Y-102059689D01*
X117801883Y-102071014D01*
X117808390Y-102082259D01*
X117815031Y-102093424D01*
X117821752Y-102104563D01*
X117828605Y-102115595D01*
X117835564Y-102126576D01*
X117842654Y-102137504D01*
X117849824Y-102148325D01*
X117857100Y-102159093D01*
X117864509Y-102169782D01*
X117871997Y-102180392D01*
X117879617Y-102190950D01*
X117887317Y-102201401D01*
X117895146Y-102211799D01*
X117903060Y-102222118D01*
X117911076Y-102232330D01*
X117919198Y-102242490D01*
X117927426Y-102252570D01*
X117935761Y-102262545D01*
X117944175Y-102272440D01*
X117952695Y-102282257D01*
X117961320Y-102291993D01*
X117970025Y-102301625D01*
X117978862Y-102311202D01*
X117987752Y-102320648D01*
X117996774Y-102330040D01*
X118005849Y-102339327D01*
X118015057Y-102348509D01*
X118024318Y-102357610D01*
X118033709Y-102366633D01*
X118043157Y-102375550D01*
X118052707Y-102384360D01*
X118062337Y-102393091D01*
X118072074Y-102401717D01*
X118081864Y-102410262D01*
X118091760Y-102418676D01*
X118101762Y-102427011D01*
X118111815Y-102435266D01*
X118121947Y-102443388D01*
X118132188Y-102451406D01*
X118142480Y-102459342D01*
X118152852Y-102467174D01*
X118163329Y-102474874D01*
X118173859Y-102482493D01*
X118184470Y-102490008D01*
X118195159Y-102497416D01*
X118205928Y-102504719D01*
X118216748Y-102511889D01*
X118227649Y-102518979D01*
X118238629Y-102525937D01*
X118249663Y-102532791D01*
X118260775Y-102539538D01*
X118271968Y-102546178D01*
X118283212Y-102552714D01*
X118294511Y-102559117D01*
X118305886Y-102565414D01*
X118317317Y-102571606D01*
X118328826Y-102577665D01*
X118340362Y-102583618D01*
X118351977Y-102589464D01*
X118363671Y-102595180D01*
X118375392Y-102600788D01*
X118387166Y-102606293D01*
X118399020Y-102611663D01*
X118410901Y-102616903D01*
X118422860Y-102622034D01*
X118434844Y-102627035D01*
X118446883Y-102631930D01*
X118458974Y-102636719D01*
X118471120Y-102641350D01*
X118483317Y-102645901D01*
X118495540Y-102650292D01*
X118507817Y-102654579D01*
X118520120Y-102658733D01*
X118532475Y-102662780D01*
X118544885Y-102666697D01*
X118557320Y-102670480D01*
X118569781Y-102674158D01*
X118582297Y-102677676D01*
X118594838Y-102681090D01*
X118607406Y-102684398D01*
X118620026Y-102687546D01*
X118632674Y-102690588D01*
X118645348Y-102693499D01*
X118658046Y-102696277D01*
X118670773Y-102698949D01*
X118683501Y-102701463D01*
X118696278Y-102703870D01*
X118709084Y-102706147D01*
X118721917Y-102708288D01*
X118734750Y-102710300D01*
X118747609Y-102712205D01*
X118760493Y-102713951D01*
X118773379Y-102715591D01*
X118786317Y-102717100D01*
X118799228Y-102718449D01*
X118812167Y-102719693D01*
X118825131Y-102720830D01*
X118838097Y-102721810D01*
X118851060Y-102722657D01*
X118864053Y-102723370D01*
X118877015Y-102723978D01*
X118890008Y-102724455D01*
X118903026Y-102724773D01*
X118916015Y-102724984D01*
X118929007Y-102725064D01*
X118930037Y-102725064D01*
X131186358Y-102725064D01*
X131199323Y-102724984D01*
X131212552Y-102724799D01*
X131225516Y-102724481D01*
X131238482Y-102724032D01*
X131251445Y-102723423D01*
X131264411Y-102722709D01*
X131277373Y-102721888D01*
X131290339Y-102720909D01*
X131303304Y-102719798D01*
X131316268Y-102718555D01*
X131329234Y-102717205D01*
X131342198Y-102715698D01*
X131354897Y-102714083D01*
X131367862Y-102712337D01*
X131380828Y-102710459D01*
X131393527Y-102708448D01*
X131406493Y-102706331D01*
X131419192Y-102704056D01*
X131431891Y-102701675D01*
X131444856Y-102699134D01*
X131457555Y-102696488D01*
X131470256Y-102693736D01*
X131482955Y-102690827D01*
X131495393Y-102687810D01*
X131508092Y-102684635D01*
X131520793Y-102681355D01*
X131533227Y-102677967D01*
X131545661Y-102674423D01*
X131558099Y-102670771D01*
X131570533Y-102666987D01*
X131582971Y-102663099D01*
X131595404Y-102659076D01*
X131607839Y-102654923D01*
X131620011Y-102650636D01*
X131632182Y-102646244D01*
X131644351Y-102641720D01*
X131656524Y-102637089D01*
X131668694Y-102632327D01*
X131680600Y-102627432D01*
X131692769Y-102622431D01*
X131704678Y-102617325D01*
X131716584Y-102612087D01*
X131728490Y-102606715D01*
X131740130Y-102601239D01*
X131752038Y-102595629D01*
X131763680Y-102589915D01*
X131775321Y-102584094D01*
X131786698Y-102578140D01*
X131798339Y-102572081D01*
X131809716Y-102565916D01*
X131821093Y-102559619D01*
X131832471Y-102553217D01*
X131843583Y-102546708D01*
X131854960Y-102540093D01*
X131866074Y-102533347D01*
X131876922Y-102526494D01*
X131888034Y-102519535D01*
X131898883Y-102512471D01*
X131909728Y-102505274D01*
X131920577Y-102497999D01*
X131931159Y-102490589D01*
X131941743Y-102483102D01*
X131952327Y-102475482D01*
X131962911Y-102467782D01*
X131973229Y-102459977D01*
X131983548Y-102452040D01*
X131993865Y-102444023D01*
X132003920Y-102435901D01*
X132013976Y-102427672D01*
X132024030Y-102419364D01*
X132033818Y-102410923D01*
X132043609Y-102402404D01*
X132053399Y-102393779D01*
X132062922Y-102385074D01*
X132072713Y-102376264D01*
X132081973Y-102367347D01*
X132091498Y-102358351D01*
X132100757Y-102349250D01*
X132110019Y-102340068D01*
X132119014Y-102330781D01*
X132128011Y-102321415D01*
X132137006Y-102311942D01*
X132145738Y-102302391D01*
X132154469Y-102292761D01*
X132163199Y-102283024D01*
X132171668Y-102273235D01*
X132180133Y-102263339D01*
X132188334Y-102253365D01*
X132196538Y-102243284D01*
X132204739Y-102233151D01*
X132212941Y-102222937D01*
X132220614Y-102212619D01*
X132228551Y-102202248D01*
X132236224Y-102191796D01*
X132243897Y-102181238D01*
X132251306Y-102170629D01*
X132258714Y-102159940D01*
X132266122Y-102149199D01*
X132273267Y-102138351D01*
X132280410Y-102127449D01*
X132287290Y-102116469D01*
X132294169Y-102105436D01*
X132301047Y-102094323D01*
X132307664Y-102083158D01*
X132314011Y-102071913D01*
X132320626Y-102060589D01*
X132326712Y-102049212D01*
X132333064Y-102037782D01*
X132339146Y-102026300D01*
X132344970Y-102014736D01*
X132350789Y-102003122D01*
X132356610Y-101991453D01*
X132362168Y-101979706D01*
X132367722Y-101967932D01*
X132373015Y-101956106D01*
X132378306Y-101944198D01*
X132383332Y-101932267D01*
X132388362Y-101920254D01*
X132393388Y-101908216D01*
X132398148Y-101896124D01*
X132402648Y-101883979D01*
X132407411Y-101871809D01*
X132411643Y-101859559D01*
X132415877Y-101847282D01*
X132420110Y-101834978D01*
X132424079Y-101822623D01*
X132428048Y-101810214D01*
X132431752Y-101797778D01*
X132435456Y-101785317D01*
X132439162Y-101772803D01*
X132442599Y-101760261D01*
X132445775Y-101747692D01*
X132448949Y-101735072D01*
X132451859Y-101722425D01*
X132454772Y-101709778D01*
X132457682Y-101697078D01*
X132460326Y-101684352D01*
X132462974Y-101671599D01*
X132465354Y-101658820D01*
X132467471Y-101646014D01*
X132469588Y-101633208D01*
X132471703Y-101620348D01*
X132473555Y-101607490D01*
X132475407Y-101594606D01*
X132476996Y-101581720D01*
X132478583Y-101568809D01*
X132479907Y-101555870D01*
X132481229Y-101542932D01*
X132482287Y-101529968D01*
X132483081Y-101517029D01*
X132484139Y-101504038D01*
X132484670Y-101491074D01*
X132485463Y-101478082D01*
X132485726Y-101465091D01*
X132486255Y-101452100D01*
X132486255Y-101439082D01*
X132486520Y-101426092D01*
X132486520Y-101425061D01*
X132486520Y-91600050D01*
X132486520Y-91599017D01*
X132486520Y-91586027D01*
X132486787Y-91573036D01*
X132487050Y-91560018D01*
X132487580Y-91547027D01*
X132488109Y-91534062D01*
X132488902Y-91521071D01*
X132489695Y-91508106D01*
X132490754Y-91495142D01*
X132491813Y-91482178D01*
X132493134Y-91469239D01*
X132494458Y-91456328D01*
X132496045Y-91443416D01*
X132497632Y-91430504D01*
X132499221Y-91417619D01*
X132501336Y-91404761D01*
X132503190Y-91391928D01*
X132505307Y-91379096D01*
X132507687Y-91366290D01*
X132510070Y-91353537D01*
X132512448Y-91340784D01*
X132515359Y-91328058D01*
X132518006Y-91315358D01*
X132520917Y-91302684D01*
X132524093Y-91290037D01*
X132527001Y-91277443D01*
X132530440Y-91264849D01*
X132533881Y-91252307D01*
X132537320Y-91239793D01*
X132541024Y-91227331D01*
X132544728Y-91214895D01*
X132548697Y-91202486D01*
X132552667Y-91190131D01*
X132556901Y-91177827D01*
X132561133Y-91165551D01*
X132565631Y-91153327D01*
X132570128Y-91141130D01*
X132574891Y-91128985D01*
X132579654Y-91116894D01*
X132584416Y-91104855D01*
X132589442Y-91092870D01*
X132594735Y-91080911D01*
X132599763Y-91069031D01*
X132605319Y-91057177D01*
X132610610Y-91045404D01*
X132616431Y-91033682D01*
X132621987Y-91021988D01*
X132627808Y-91010372D01*
X132633895Y-90998837D01*
X132639979Y-90987327D01*
X132646066Y-90975897D01*
X132652415Y-90964520D01*
X132658765Y-90953223D01*
X132665379Y-90941978D01*
X132671994Y-90930786D01*
X132678609Y-90919673D01*
X132685489Y-90908640D01*
X132692632Y-90897660D01*
X132699510Y-90886762D01*
X132706918Y-90875930D01*
X132714063Y-90865169D01*
X132721471Y-90854483D01*
X132729142Y-90843873D01*
X132736550Y-90833335D01*
X132744225Y-90822876D01*
X132752164Y-90812493D01*
X132760100Y-90802190D01*
X132768037Y-90791967D01*
X132776238Y-90781825D01*
X132784442Y-90771763D01*
X132792909Y-90761786D01*
X132801375Y-90751890D01*
X132809840Y-90742082D01*
X132818309Y-90732359D01*
X132827039Y-90722720D01*
X132836036Y-90713172D01*
X132844767Y-90703713D01*
X132853763Y-90694341D01*
X132863023Y-90685062D01*
X132872283Y-90675873D01*
X132881543Y-90666777D01*
X132890803Y-90657773D01*
X132900329Y-90648864D01*
X132909854Y-90640051D01*
X132919642Y-90631333D01*
X132929170Y-90622713D01*
X132938960Y-90614188D01*
X132949012Y-90605764D01*
X132959067Y-90597440D01*
X132969121Y-90589214D01*
X132979175Y-90581091D01*
X132989493Y-90573069D01*
X132999812Y-90565150D01*
X133010131Y-90557335D01*
X133020450Y-90549624D01*
X133031033Y-90542018D01*
X133041615Y-90534517D01*
X133052464Y-90527124D01*
X133063311Y-90519838D01*
X133073895Y-90512660D01*
X133085008Y-90505590D01*
X133095855Y-90498629D01*
X133106969Y-90491779D01*
X133118081Y-90485040D01*
X133129193Y-90478412D01*
X133140571Y-90471895D01*
X133151948Y-90465492D01*
X133163325Y-90459203D01*
X133174703Y-90453028D01*
X133186080Y-90446966D01*
X133197720Y-90441021D01*
X133209363Y-90435192D01*
X133221003Y-90429480D01*
X133232644Y-90423884D01*
X133244553Y-90418404D01*
X133256459Y-90413044D01*
X133268365Y-90407803D01*
X133280270Y-90402680D01*
X133292178Y-90397677D01*
X133304347Y-90392796D01*
X133316253Y-90388036D01*
X133328425Y-90383395D01*
X133340596Y-90378876D01*
X133353030Y-90374478D01*
X133365203Y-90370205D01*
X133377637Y-90366054D01*
X133389808Y-90362027D01*
X133402244Y-90358122D01*
X133414679Y-90354343D01*
X133427113Y-90350687D01*
X133439814Y-90347157D01*
X133452249Y-90343752D01*
X133464951Y-90340474D01*
X133477385Y-90337320D01*
X133490086Y-90334293D01*
X133502786Y-90331394D01*
X133515485Y-90328621D01*
X133528186Y-90325972D01*
X133540885Y-90323454D01*
X133553586Y-90321064D01*
X133566548Y-90318800D01*
X133579251Y-90316664D01*
X133592214Y-90314659D01*
X133605180Y-90312780D01*
X133617879Y-90311029D01*
X133630843Y-90309409D01*
X133643807Y-90307917D01*
X133656774Y-90306554D01*
X133669736Y-90305322D01*
X133682437Y-90304218D01*
X133695401Y-90303244D01*
X133708630Y-90302398D01*
X133721597Y-90301683D01*
X133734561Y-90301099D01*
X133747525Y-90300644D01*
X133760489Y-90300321D01*
X133773456Y-90300125D01*
X133786418Y-90300059D01*
X165531655Y-90300059D01*
X165532712Y-90300062D01*
X165545674Y-90300136D01*
X165558644Y-90300342D01*
X165571607Y-90300675D01*
X165584569Y-90301141D01*
X165597535Y-90301736D01*
X165610501Y-90302461D01*
X165623464Y-90303316D01*
X165636430Y-90304300D01*
X165649392Y-90305414D01*
X165662358Y-90306658D01*
X165675324Y-90308031D01*
X165688287Y-90309534D01*
X165701253Y-90311164D01*
X165713952Y-90312923D01*
X165726918Y-90314812D01*
X165739617Y-90316831D01*
X165752580Y-90318974D01*
X165765279Y-90321249D01*
X165777982Y-90323649D01*
X165790944Y-90326179D01*
X165803647Y-90328835D01*
X165816346Y-90331619D01*
X165829045Y-90334529D01*
X165841485Y-90337566D01*
X165854180Y-90340731D01*
X165866883Y-90344019D01*
X165879319Y-90347435D01*
X165891747Y-90350975D01*
X165904191Y-90354640D01*
X165916627Y-90358429D01*
X165929055Y-90362342D01*
X165941491Y-90366380D01*
X165953927Y-90370541D01*
X165966103Y-90374825D01*
X165978272Y-90379230D01*
X165990441Y-90383760D01*
X166002610Y-90388408D01*
X166014787Y-90393179D01*
X166026689Y-90398071D01*
X166038857Y-90403085D01*
X166050767Y-90408215D01*
X166062676Y-90413467D01*
X166074578Y-90418836D01*
X166086221Y-90424323D01*
X166097863Y-90429930D01*
X166109765Y-90435653D01*
X166121148Y-90441489D01*
X166132790Y-90447445D01*
X166144425Y-90453515D01*
X166155808Y-90459698D01*
X166167184Y-90465998D01*
X166178300Y-90472409D01*
X166189675Y-90478933D01*
X166200784Y-90485572D01*
X166211900Y-90492318D01*
X166223016Y-90499179D01*
X166233857Y-90506148D01*
X166244973Y-90513226D01*
X166255822Y-90520415D01*
X166266404Y-90527709D01*
X166277245Y-90535112D01*
X166287835Y-90542621D01*
X166298417Y-90550233D01*
X166308732Y-90557954D01*
X166319054Y-90565777D01*
X166329369Y-90573704D01*
X166339692Y-90581734D01*
X166349748Y-90589868D01*
X166359803Y-90598099D01*
X166369851Y-90606433D01*
X166379647Y-90614865D01*
X166389436Y-90623396D01*
X166399224Y-90632024D01*
X166409013Y-90640750D01*
X166418542Y-90649571D01*
X166427796Y-90658487D01*
X166437325Y-90667496D01*
X166446580Y-90676601D01*
X166455842Y-90685797D01*
X166464837Y-90695084D01*
X166473840Y-90704461D01*
X166482835Y-90713931D01*
X166491563Y-90723485D01*
X166500291Y-90733129D01*
X166509026Y-90742860D01*
X166517495Y-90752677D01*
X166525956Y-90762577D01*
X166534158Y-90772563D01*
X166542359Y-90782630D01*
X166550561Y-90792779D01*
X166558503Y-90803008D01*
X166566438Y-90813319D01*
X166574372Y-90823706D01*
X166582047Y-90834171D01*
X166589723Y-90844714D01*
X166597131Y-90855332D01*
X166604539Y-90866024D01*
X166611688Y-90876790D01*
X166619096Y-90887630D01*
X166625970Y-90898533D01*
X166633111Y-90909513D01*
X166639993Y-90920573D01*
X166646607Y-90931686D01*
X166653222Y-90942877D01*
X166659837Y-90954122D01*
X166666184Y-90965420D01*
X166672540Y-90976797D01*
X166678620Y-90988253D01*
X166684709Y-90999736D01*
X166690530Y-91011298D01*
X166696351Y-91022940D01*
X166702172Y-91034608D01*
X166707726Y-91046330D01*
X166713288Y-91058130D01*
X166718575Y-91069983D01*
X166723863Y-91081863D01*
X166728890Y-91093822D01*
X166733926Y-91105808D01*
X166738946Y-91117873D01*
X166743707Y-91129964D01*
X166748208Y-91142108D01*
X166752709Y-91154306D01*
X166757203Y-91166530D01*
X166761437Y-91178806D01*
X166765672Y-91191136D01*
X166769639Y-91203492D01*
X166773606Y-91215874D01*
X166777314Y-91228310D01*
X166781014Y-91240798D01*
X166784455Y-91253313D01*
X166787896Y-91265854D01*
X166791070Y-91278422D01*
X166794244Y-91291043D01*
X166797418Y-91303690D01*
X166800332Y-91316363D01*
X166802979Y-91329063D01*
X166805627Y-91341790D01*
X166808267Y-91354543D01*
X166810647Y-91367322D01*
X166812768Y-91380128D01*
X166814889Y-91392933D01*
X166817002Y-91405792D01*
X166818856Y-91418651D01*
X166820702Y-91431536D01*
X166822297Y-91444421D01*
X166823617Y-91457360D01*
X166825204Y-91470271D01*
X166826264Y-91483209D01*
X166827317Y-91496174D01*
X166828378Y-91509139D01*
X166829171Y-91522103D01*
X166829965Y-91535094D01*
X166830491Y-91548085D01*
X166831025Y-91561076D01*
X166831292Y-91574067D01*
X166831551Y-91587058D01*
X166831551Y-91600050D01*
X166831551Y-91990627D01*
X166831551Y-92003619D01*
X166831818Y-92016636D01*
X166832078Y-92029627D01*
X166832612Y-92042618D01*
X166833138Y-92055609D01*
X166833932Y-92068574D01*
X166834725Y-92081564D01*
X166835786Y-92094503D01*
X166836846Y-92107467D01*
X166838166Y-92120405D01*
X166839486Y-92133344D01*
X166840814Y-92146255D01*
X166842668Y-92159141D01*
X166844254Y-92172026D01*
X166846108Y-92184884D01*
X166848222Y-92197743D01*
X166850335Y-92210575D01*
X166852456Y-92223355D01*
X166855103Y-92236134D01*
X166857484Y-92248887D01*
X166860124Y-92261614D01*
X166863038Y-92274314D01*
X166865685Y-92286987D01*
X166868859Y-92299634D01*
X166872033Y-92312255D01*
X166875207Y-92324823D01*
X166878648Y-92337364D01*
X166882089Y-92349879D01*
X166885789Y-92362367D01*
X166889756Y-92374802D01*
X166893464Y-92387211D01*
X166897698Y-92399567D01*
X166901666Y-92411870D01*
X166905900Y-92424147D01*
X166910401Y-92436397D01*
X166914895Y-92448595D01*
X166919656Y-92460739D01*
X166924416Y-92472830D01*
X166929185Y-92484869D01*
X166934213Y-92496881D01*
X166939233Y-92508814D01*
X166944528Y-92520720D01*
X166949822Y-92532547D01*
X166955377Y-92544347D01*
X166960931Y-92556068D01*
X166966752Y-92567763D01*
X166972573Y-92579378D01*
X166978394Y-92590940D01*
X166984483Y-92602450D01*
X166990830Y-92613880D01*
X166996919Y-92625257D01*
X167003533Y-92636581D01*
X167009881Y-92647826D01*
X167016496Y-92658991D01*
X167023377Y-92670131D01*
X167030251Y-92681163D01*
X167037133Y-92692143D01*
X167044274Y-92703044D01*
X167051423Y-92713892D01*
X167058564Y-92724661D01*
X167065972Y-92735350D01*
X167073647Y-92745960D01*
X167081056Y-92756517D01*
X167088723Y-92766968D01*
X167096665Y-92777366D01*
X167104600Y-92787685D01*
X167112542Y-92797897D01*
X167120744Y-92808058D01*
X167128945Y-92818112D01*
X167137414Y-92828113D01*
X167145615Y-92838008D01*
X167154344Y-92847824D01*
X167162812Y-92857561D01*
X167171540Y-92867192D01*
X167180276Y-92876743D01*
X167189271Y-92886216D01*
X167198266Y-92895608D01*
X167207261Y-92904895D01*
X167216523Y-92914076D01*
X167225785Y-92923178D01*
X167235307Y-92932200D01*
X167244569Y-92941116D01*
X167254357Y-92949927D01*
X167263879Y-92958659D01*
X167273675Y-92967284D01*
X167283463Y-92975830D01*
X167293252Y-92984243D01*
X167303307Y-92992578D01*
X167313355Y-93000807D01*
X167323411Y-93008956D01*
X167333733Y-93016972D01*
X167344048Y-93024910D01*
X167354363Y-93032741D01*
X167364953Y-93040441D01*
X167375276Y-93048061D01*
X167386117Y-93055575D01*
X167396699Y-93062983D01*
X167407548Y-93070259D01*
X167418397Y-93077456D01*
X167429246Y-93084547D01*
X167440095Y-93091506D01*
X167451211Y-93098358D01*
X167462319Y-93105105D01*
X167473435Y-93111746D01*
X167484811Y-93118282D01*
X167495919Y-93124684D01*
X167507295Y-93130982D01*
X167518937Y-93137173D01*
X167530320Y-93143232D01*
X167541955Y-93149185D01*
X167553597Y-93155032D01*
X167565240Y-93160747D01*
X167576882Y-93166356D01*
X167588792Y-93171860D01*
X167600434Y-93177231D01*
X167612336Y-93182469D01*
X167624513Y-93187602D01*
X167636414Y-93192603D01*
X167648324Y-93197498D01*
X167660493Y-93202287D01*
X167672662Y-93206917D01*
X167684831Y-93211468D01*
X167697007Y-93215860D01*
X167709443Y-93220146D01*
X167721612Y-93224300D01*
X167734048Y-93228348D01*
X167746484Y-93232264D01*
X167758920Y-93236047D01*
X167771348Y-93239698D01*
X167783784Y-93243244D01*
X167796487Y-93246657D01*
X167808923Y-93249965D01*
X167821626Y-93253113D01*
X167834321Y-93256156D01*
X167846757Y-93259066D01*
X167859460Y-93261844D01*
X167872422Y-93264517D01*
X167885125Y-93267030D01*
X167897820Y-93269438D01*
X167910523Y-93271713D01*
X167923486Y-93273856D01*
X167936189Y-93275867D01*
X167949151Y-93277772D01*
X167962121Y-93279518D01*
X167974816Y-93281159D01*
X167987786Y-93282667D01*
X168000749Y-93284016D01*
X168013711Y-93285260D01*
X168026673Y-93286397D01*
X168039643Y-93287377D01*
X168052606Y-93288224D01*
X168065568Y-93288937D01*
X168078530Y-93289546D01*
X168091500Y-93290022D01*
X168104463Y-93290340D01*
X168117425Y-93290552D01*
X168130654Y-93290631D01*
X168131448Y-93290631D01*
X175840089Y-93290631D01*
X175853051Y-93290552D01*
X175866013Y-93290366D01*
X175878976Y-93290049D01*
X175891946Y-93289599D01*
X175904908Y-93288990D01*
X175917870Y-93288277D01*
X175930833Y-93287430D01*
X175943803Y-93286477D01*
X175956765Y-93285366D01*
X175969727Y-93284122D01*
X175982697Y-93282773D01*
X175995660Y-93281265D01*
X176008622Y-93279651D01*
X176021325Y-93277905D01*
X176034295Y-93276026D01*
X176047250Y-93274015D01*
X176059953Y-93271899D01*
X176072656Y-93269623D01*
X176085618Y-93267242D01*
X176098321Y-93264702D01*
X176111016Y-93262056D01*
X176123719Y-93259304D01*
X176136414Y-93256394D01*
X176149117Y-93253378D01*
X176161553Y-93250203D01*
X176174256Y-93246922D01*
X176186692Y-93243535D01*
X176199387Y-93239990D01*
X176211823Y-93236338D01*
X176224259Y-93232555D01*
X176236695Y-93228666D01*
X176248872Y-93224644D01*
X176261308Y-93220490D01*
X176273469Y-93216204D01*
X176285905Y-93211811D01*
X176298074Y-93207287D01*
X176310250Y-93202657D01*
X176322152Y-93197894D01*
X176334329Y-93193000D01*
X176346230Y-93188000D01*
X176358140Y-93182893D01*
X176370042Y-93177654D01*
X176381951Y-93172283D01*
X176393853Y-93166806D01*
X176405496Y-93161197D01*
X176417138Y-93155482D01*
X176428788Y-93149661D01*
X176440431Y-93143708D01*
X176451806Y-93137649D01*
X176463181Y-93131484D01*
X176474557Y-93125187D01*
X176485932Y-93118784D01*
X176497315Y-93112275D01*
X176508424Y-93105635D01*
X176519532Y-93098914D01*
X176530640Y-93092061D01*
X176541497Y-93085103D01*
X176552338Y-93078038D01*
X176563195Y-93070842D01*
X176574037Y-93063566D01*
X176584885Y-93056157D01*
X176595475Y-93048670D01*
X176605790Y-93041049D01*
X176616372Y-93033350D01*
X176626687Y-93025545D01*
X176637010Y-93017608D01*
X176647324Y-93009590D01*
X176657380Y-93001468D01*
X176667443Y-92993239D01*
X176677491Y-92984932D01*
X176687280Y-92976491D01*
X176697335Y-92967972D01*
X176706857Y-92959346D01*
X176716645Y-92950641D01*
X176726174Y-92941831D01*
X176735703Y-92932915D01*
X176744965Y-92923919D01*
X176754220Y-92914817D01*
X176763482Y-92905636D01*
X176772469Y-92896349D01*
X176781480Y-92886983D01*
X176790475Y-92877511D01*
X176799462Y-92867959D01*
X176808198Y-92858329D01*
X176816667Y-92848592D01*
X176825128Y-92838802D01*
X176833596Y-92828907D01*
X176842057Y-92818932D01*
X176850259Y-92808851D01*
X176858468Y-92798718D01*
X176866402Y-92788505D01*
X176874337Y-92778186D01*
X176882012Y-92767814D01*
X176889947Y-92757363D01*
X176897363Y-92746806D01*
X176905030Y-92736196D01*
X176912446Y-92725508D01*
X176919579Y-92714765D01*
X176926995Y-92703917D01*
X176933877Y-92693017D01*
X176941018Y-92682037D01*
X176947900Y-92671003D01*
X176954514Y-92659891D01*
X176961121Y-92648699D01*
X176967736Y-92637481D01*
X176974091Y-92626157D01*
X176980439Y-92614780D01*
X176986527Y-92603349D01*
X176992608Y-92591866D01*
X176998696Y-92580304D01*
X177004517Y-92568689D01*
X177010072Y-92557021D01*
X177015893Y-92545273D01*
X177021180Y-92533499D01*
X177026734Y-92521673D01*
X177031770Y-92509766D01*
X177037057Y-92497834D01*
X177042085Y-92485822D01*
X177046853Y-92473783D01*
X177051614Y-92461691D01*
X177056382Y-92449547D01*
X177060876Y-92437376D01*
X177065377Y-92425126D01*
X177069604Y-92412849D01*
X177073838Y-92400546D01*
X177077805Y-92388190D01*
X177081773Y-92375781D01*
X177085481Y-92363346D01*
X177089188Y-92350884D01*
X177092622Y-92338369D01*
X177096063Y-92325828D01*
X177099236Y-92313260D01*
X177102410Y-92300639D01*
X177105584Y-92287992D01*
X177108499Y-92275346D01*
X177111138Y-92262645D01*
X177113786Y-92249919D01*
X177116433Y-92237166D01*
X177118821Y-92224387D01*
X177121201Y-92211581D01*
X177123315Y-92198748D01*
X177125161Y-92185916D01*
X177127282Y-92173058D01*
X177128869Y-92160172D01*
X177130464Y-92147287D01*
X177132043Y-92134375D01*
X177133370Y-92121437D01*
X177134690Y-92108499D01*
X177135751Y-92095535D01*
X177136811Y-92082596D01*
X177137597Y-92069605D01*
X177138398Y-92056641D01*
X177138925Y-92043650D01*
X177139459Y-92030659D01*
X177139718Y-92017668D01*
X177139985Y-92004650D01*
X177139985Y-91991659D01*
X177139985Y-91990627D01*
X177139985Y-91292048D01*
X177139985Y-91291016D01*
X177139985Y-91278025D01*
X177140244Y-91265034D01*
X177140511Y-91252043D01*
X177141038Y-91239052D01*
X177141839Y-91226061D01*
X177142365Y-91213070D01*
X177143151Y-91200105D01*
X177144212Y-91187141D01*
X177145280Y-91174176D01*
X177146592Y-91161238D01*
X177147920Y-91148326D01*
X177149506Y-91135415D01*
X177151093Y-91122503D01*
X177152947Y-91109618D01*
X177154801Y-91096759D01*
X177156915Y-91083927D01*
X177159028Y-91071094D01*
X177161149Y-91058315D01*
X177163537Y-91045536D01*
X177166177Y-91032783D01*
X177168824Y-91020056D01*
X177171472Y-91007356D01*
X177174378Y-90994683D01*
X177177552Y-90982036D01*
X177180726Y-90969442D01*
X177183907Y-90956847D01*
X177187348Y-90944306D01*
X177191041Y-90931791D01*
X177194482Y-90919329D01*
X177198457Y-90906894D01*
X177202424Y-90894485D01*
X177206391Y-90882140D01*
X177210626Y-90869826D01*
X177214867Y-90857552D01*
X177219094Y-90845320D01*
X177223855Y-90833133D01*
X177228356Y-90820994D01*
X177233117Y-90808903D01*
X177238145Y-90796856D01*
X177243173Y-90784863D01*
X177248193Y-90772920D01*
X177253495Y-90761027D01*
X177258782Y-90749187D01*
X177264337Y-90737402D01*
X177269891Y-90725673D01*
X177275712Y-90714000D01*
X177281533Y-90702384D01*
X177287354Y-90690830D01*
X177293443Y-90679334D01*
X177299790Y-90667899D01*
X177305879Y-90656527D01*
X177312493Y-90645218D01*
X177318841Y-90633974D01*
X177325456Y-90622795D01*
X177332337Y-90611685D01*
X177339219Y-90600642D01*
X177346093Y-90589667D01*
X177353234Y-90578763D01*
X177360383Y-90567931D01*
X177367783Y-90557170D01*
X177375199Y-90546484D01*
X177382600Y-90535872D01*
X177390283Y-90525336D01*
X177397950Y-90514877D01*
X177405625Y-90504494D01*
X177413560Y-90494191D01*
X177421761Y-90483968D01*
X177429971Y-90473824D01*
X177438172Y-90463764D01*
X177446374Y-90453785D01*
X177454835Y-90443892D01*
X177463303Y-90434081D01*
X177472031Y-90424357D01*
X177480760Y-90414721D01*
X177489503Y-90405173D01*
X177498498Y-90395711D01*
X177507493Y-90386342D01*
X177516488Y-90377061D01*
X177525742Y-90367872D01*
X177535005Y-90358775D01*
X177544526Y-90349774D01*
X177553788Y-90340866D01*
X177563584Y-90332050D01*
X177573106Y-90323334D01*
X177582894Y-90314712D01*
X177592683Y-90306189D01*
X177602479Y-90297765D01*
X177612527Y-90289441D01*
X177622582Y-90281215D01*
X177632638Y-90273093D01*
X177642953Y-90265070D01*
X177653275Y-90257151D01*
X177663590Y-90249336D01*
X177674180Y-90241623D01*
X177684762Y-90234019D01*
X177695344Y-90226518D01*
X177705926Y-90219123D01*
X177716775Y-90211836D01*
X177727624Y-90204658D01*
X177738465Y-90197588D01*
X177749589Y-90190627D01*
X177760430Y-90183777D01*
X177771539Y-90177038D01*
X177782914Y-90170410D01*
X177794038Y-90163894D01*
X177805413Y-90157491D01*
X177816789Y-90151202D01*
X177828164Y-90145026D01*
X177839806Y-90138967D01*
X177851190Y-90133022D01*
X177862824Y-90127191D01*
X177874467Y-90121478D01*
X177886376Y-90115883D01*
X177898019Y-90110406D01*
X177909921Y-90105045D01*
X177921830Y-90099804D01*
X177933732Y-90094681D01*
X177945908Y-90089678D01*
X177957810Y-90084797D01*
X177969979Y-90080034D01*
X177982156Y-90075393D01*
X177994325Y-90070874D01*
X178006493Y-90066480D01*
X178018670Y-90062204D01*
X178031098Y-90058055D01*
X178043534Y-90054026D01*
X178055970Y-90050123D01*
X178068406Y-90046342D01*
X178080842Y-90042688D01*
X178093278Y-90039159D01*
X178105706Y-90035753D01*
X178118409Y-90032473D01*
X178131112Y-90029322D01*
X178143548Y-90026295D01*
X178156243Y-90023392D01*
X178168946Y-90020619D01*
X178181649Y-90017973D01*
X178194611Y-90015455D01*
X178207307Y-90013063D01*
X178220010Y-90010801D01*
X178232980Y-90008665D01*
X178245683Y-90006657D01*
X178258637Y-90004779D01*
X178271607Y-90003030D01*
X178284310Y-90001408D01*
X178297265Y-89999918D01*
X178310235Y-89998556D01*
X178323205Y-89997320D01*
X178336160Y-89996217D01*
X178349130Y-89995243D01*
X178362100Y-89994399D01*
X178375054Y-89993685D01*
X178388024Y-89993100D01*
X178400987Y-89992645D01*
X178413949Y-89992319D01*
X178426919Y-89992124D01*
X178440141Y-89992060D01*
X187599763Y-89992060D01*
X187600816Y-89992060D01*
X187613778Y-89992137D01*
M02*
