%TF.GenerationSoftware,KiCad,Pcbnew,9.0.7*%
%TF.CreationDate,2026-02-02T08:38:10+11:00*%
%TF.ProjectId,E-ink watch,452d696e-6b20-4776-9174-63682e6b6963,rev?*%
%TF.SameCoordinates,Original*%
%TF.FileFunction,Drillmap*%
%TF.FilePolarity,Positive*%
%FSLAX45Y45*%
G04 Gerber Fmt 4.5, Leading zero omitted, Abs format (unit mm)*
G04 Created by KiCad (PCBNEW 9.0.7) date 2026-02-02 08:38:10*
%MOMM*%
%LPD*%
G01*
G04 APERTURE LIST*
%ADD10C,0.100000*%
%ADD11C,0.114101*%
%ADD12C,0.200000*%
G04 APERTURE END LIST*
D10*
X16105000Y-11570000D02*
X16335000Y-11570000D01*
X16335000Y-12205000D01*
X16105000Y-12205000D01*
X16105000Y-11570000D01*
X16480000Y-9850000D02*
X16710000Y-9850000D01*
X16710000Y-11400000D01*
X16480000Y-11400000D01*
X16480000Y-9850000D01*
D11*
X18761378Y-8999214D02*
X18762674Y-8999234D01*
X18763971Y-8999268D01*
X18765267Y-8999314D01*
X18766564Y-8999374D01*
X18767860Y-8999446D01*
X18769183Y-8999532D01*
X18770479Y-8999630D01*
X18771749Y-8999742D01*
X18773046Y-8999866D01*
X18774342Y-9000003D01*
X18775639Y-9000153D01*
X18776936Y-9000317D01*
X18778205Y-9000492D01*
X18779501Y-9000681D01*
X18780798Y-9000883D01*
X18782069Y-9001098D01*
X18783338Y-9001325D01*
X18784635Y-9001565D01*
X18785905Y-9001818D01*
X18787174Y-9002084D01*
X18788445Y-9002362D01*
X18789715Y-9002653D01*
X18790985Y-9002957D01*
X18792229Y-9003273D01*
X18793498Y-9003602D01*
X18794742Y-9003943D01*
X18796012Y-9004297D01*
X18797256Y-9004664D01*
X18798499Y-9005043D01*
X18799742Y-9005434D01*
X18800959Y-9005838D01*
X18802203Y-9006254D01*
X18803420Y-9006682D01*
X18804637Y-9007123D01*
X18805854Y-9007576D01*
X18807072Y-9008041D01*
X18808289Y-9008518D01*
X18809506Y-9009007D01*
X18810697Y-9009508D01*
X18811887Y-9010022D01*
X18813078Y-9010547D01*
X18814268Y-9011084D01*
X18815432Y-9011632D01*
X18816623Y-9012193D01*
X18817787Y-9012765D01*
X18818951Y-9013349D01*
X18820088Y-9013944D01*
X18821253Y-9014552D01*
X18822391Y-9015170D01*
X18823528Y-9015800D01*
X18824666Y-9016441D01*
X18825778Y-9017093D01*
X18826889Y-9017757D01*
X18828000Y-9018432D01*
X18829111Y-9019118D01*
X18830222Y-9019815D01*
X18831307Y-9020523D01*
X18832392Y-9021241D01*
X18833450Y-9021971D01*
X18834535Y-9022711D01*
X18835593Y-9023462D01*
X18836652Y-9024223D01*
X18837683Y-9024996D01*
X18838742Y-9025778D01*
X18839774Y-9026571D01*
X18840779Y-9027374D01*
X18841785Y-9028187D01*
X18842816Y-9029010D01*
X18843796Y-9029843D01*
X18844801Y-9030686D01*
X18845780Y-9031539D01*
X18846732Y-9032403D01*
X18847711Y-9033275D01*
X18848664Y-9034157D01*
X18849617Y-9035049D01*
X18850542Y-9035950D01*
X18851468Y-9036860D01*
X18852394Y-9037780D01*
X18853294Y-9038708D01*
X18854193Y-9039646D01*
X18855094Y-9040593D01*
X18855966Y-9041549D01*
X18856839Y-9042513D01*
X18857713Y-9043486D01*
X18858560Y-9044468D01*
X18859406Y-9045458D01*
X18860226Y-9046456D01*
X18861046Y-9047463D01*
X18861867Y-9048478D01*
X18862660Y-9049501D01*
X18863454Y-9050532D01*
X18864248Y-9051571D01*
X18865016Y-9052617D01*
X18865782Y-9053671D01*
X18866523Y-9054733D01*
X18867264Y-9055803D01*
X18868005Y-9056879D01*
X18868720Y-9057963D01*
X18869434Y-9059054D01*
X18870122Y-9060152D01*
X18870810Y-9061257D01*
X18871471Y-9062368D01*
X18872132Y-9063487D01*
X18872794Y-9064612D01*
X18873429Y-9065743D01*
X18874064Y-9066881D01*
X18874673Y-9068025D01*
X18875281Y-9069175D01*
X18875890Y-9070331D01*
X18876472Y-9071493D01*
X18877027Y-9072660D01*
X18877583Y-9073834D01*
X18878138Y-9075013D01*
X18878668Y-9076197D01*
X18879197Y-9077387D01*
X18879700Y-9078582D01*
X18880202Y-9079781D01*
X18880705Y-9080986D01*
X18881181Y-9082196D01*
X18881631Y-9083410D01*
X18882081Y-9084629D01*
X18882530Y-9085853D01*
X18882954Y-9087081D01*
X18883377Y-9088312D01*
X18883774Y-9089549D01*
X18884171Y-9090787D01*
X18884541Y-9092034D01*
X18884911Y-9093280D01*
X18885256Y-9094531D01*
X18885600Y-9095785D01*
X18885944Y-9097045D01*
X18886261Y-9098304D01*
X18886553Y-9099569D01*
X18886843Y-9100836D01*
X18887108Y-9102106D01*
X18887372Y-9103379D01*
X18887637Y-9104654D01*
X18887875Y-9105932D01*
X18888114Y-9107213D01*
X18888325Y-9108496D01*
X18888510Y-9109779D01*
X18888696Y-9111065D01*
X18888880Y-9112354D01*
X18889040Y-9113645D01*
X18889198Y-9114936D01*
X18889330Y-9116227D01*
X18889436Y-9117521D01*
X18889568Y-9118817D01*
X18889649Y-9120114D01*
X18889727Y-9121410D01*
X18889807Y-9122709D01*
X18889860Y-9124008D01*
X18889913Y-9125308D01*
X18889939Y-9126607D01*
X18889966Y-9127906D01*
X18889966Y-9129205D01*
X18889966Y-12140007D01*
X18889966Y-12140113D01*
X18889966Y-12141409D01*
X18889939Y-12142706D01*
X18889913Y-12144002D01*
X18889860Y-12145298D01*
X18889807Y-12146595D01*
X18889727Y-12147891D01*
X18889649Y-12149214D01*
X18889542Y-12150511D01*
X18889436Y-12151781D01*
X18889304Y-12153077D01*
X18889172Y-12154374D01*
X18889040Y-12155670D01*
X18888854Y-12156966D01*
X18888696Y-12158236D01*
X18888510Y-12159533D01*
X18888298Y-12160830D01*
X18888087Y-12162100D01*
X18887849Y-12163369D01*
X18887610Y-12164666D01*
X18887372Y-12165936D01*
X18887108Y-12167206D01*
X18886817Y-12168476D01*
X18886526Y-12169746D01*
X18886234Y-12171016D01*
X18885917Y-12172260D01*
X18885573Y-12173530D01*
X18885229Y-12174773D01*
X18884885Y-12176043D01*
X18884516Y-12177287D01*
X18884145Y-12178530D01*
X18883747Y-12179774D01*
X18883351Y-12180991D01*
X18882927Y-12182234D01*
X18882504Y-12183452D01*
X18882054Y-12184668D01*
X18881604Y-12185886D01*
X18881128Y-12187103D01*
X18880652Y-12188320D01*
X18880176Y-12189537D01*
X18879673Y-12190727D01*
X18879170Y-12191918D01*
X18878641Y-12193109D01*
X18878085Y-12194299D01*
X18877557Y-12195464D01*
X18876975Y-12196654D01*
X18876419Y-12197818D01*
X18875837Y-12198982D01*
X18875228Y-12200120D01*
X18874619Y-12201284D01*
X18874011Y-12202422D01*
X18873376Y-12203560D01*
X18872741Y-12204697D01*
X18872080Y-12205809D01*
X18871418Y-12206920D01*
X18870757Y-12208031D01*
X18870068Y-12209142D01*
X18869354Y-12210254D01*
X18868666Y-12211339D01*
X18867952Y-12212423D01*
X18867211Y-12213482D01*
X18866470Y-12214566D01*
X18865730Y-12215625D01*
X18864962Y-12216683D01*
X18864195Y-12217715D01*
X18863401Y-12218773D01*
X18862608Y-12219805D01*
X18861814Y-12220811D01*
X18860993Y-12221843D01*
X18860173Y-12222848D01*
X18859326Y-12223827D01*
X18858507Y-12224832D01*
X18857633Y-12225811D01*
X18856787Y-12226764D01*
X18855913Y-12227742D01*
X18855013Y-12228695D01*
X18854141Y-12229648D01*
X18853241Y-12230574D01*
X18852315Y-12231500D01*
X18851389Y-12232426D01*
X18850463Y-12233325D01*
X18849537Y-12234225D01*
X18848585Y-12235125D01*
X18847632Y-12235997D01*
X18846679Y-12236871D01*
X18845701Y-12237744D01*
X18844721Y-12238591D01*
X18843716Y-12239437D01*
X18842738Y-12240258D01*
X18841705Y-12241078D01*
X18840700Y-12241898D01*
X18839668Y-12242691D01*
X18838636Y-12243485D01*
X18837605Y-12244279D01*
X18836572Y-12245046D01*
X18835514Y-12245813D01*
X18834455Y-12246554D01*
X18833371Y-12247295D01*
X18832312Y-12248036D01*
X18831228Y-12248751D01*
X18830117Y-12249465D01*
X18829032Y-12250153D01*
X18827921Y-12250841D01*
X18826810Y-12251502D01*
X18825698Y-12252164D01*
X18824560Y-12252825D01*
X18823449Y-12253460D01*
X18822312Y-12254095D01*
X18821147Y-12254704D01*
X18820010Y-12255312D01*
X18818845Y-12255921D01*
X18817681Y-12256503D01*
X18816517Y-12257058D01*
X18815353Y-12257614D01*
X18814162Y-12258170D01*
X18812972Y-12258699D01*
X18811781Y-12259228D01*
X18810590Y-12259731D01*
X18809400Y-12260233D01*
X18808183Y-12260736D01*
X18806992Y-12261212D01*
X18805775Y-12261662D01*
X18804558Y-12262112D01*
X18803340Y-12262562D01*
X18802097Y-12262985D01*
X18800881Y-12263409D01*
X18799637Y-12263805D01*
X18798393Y-12264202D01*
X18797150Y-12264573D01*
X18795905Y-12264943D01*
X18794662Y-12265287D01*
X18793393Y-12265631D01*
X18792149Y-12265975D01*
X18790879Y-12266292D01*
X18789609Y-12266583D01*
X18788339Y-12266874D01*
X18787069Y-12267139D01*
X18785799Y-12267404D01*
X18784528Y-12267668D01*
X18783259Y-12267906D01*
X18781963Y-12268145D01*
X18780692Y-12268356D01*
X18779395Y-12268541D01*
X18778126Y-12268726D01*
X18776830Y-12268912D01*
X18775533Y-12269071D01*
X18774236Y-12269230D01*
X18772940Y-12269362D01*
X18771670Y-12269467D01*
X18770374Y-12269600D01*
X18769077Y-12269679D01*
X18767780Y-12269785D01*
X18766484Y-12269838D01*
X18765161Y-12269891D01*
X18763864Y-12269944D01*
X18762569Y-12269970D01*
X18761272Y-12269996D01*
X18759976Y-12269996D01*
X17867008Y-12269996D01*
X17866055Y-12269996D01*
X17864758Y-12269996D01*
X17863461Y-12269970D01*
X17862139Y-12269917D01*
X17860842Y-12269864D01*
X17859546Y-12269785D01*
X17858249Y-12269705D01*
X17856953Y-12269626D01*
X17855657Y-12269521D01*
X17854360Y-12269388D01*
X17853063Y-12269256D01*
X17851793Y-12269124D01*
X17850497Y-12268964D01*
X17849201Y-12268780D01*
X17847930Y-12268594D01*
X17846634Y-12268409D01*
X17845338Y-12268198D01*
X17844068Y-12267959D01*
X17842798Y-12267721D01*
X17841528Y-12267483D01*
X17840231Y-12267218D01*
X17838960Y-12266954D01*
X17837692Y-12266663D01*
X17836448Y-12266372D01*
X17835178Y-12266054D01*
X17833907Y-12265737D01*
X17832664Y-12265393D01*
X17831421Y-12265049D01*
X17830151Y-12264678D01*
X17828907Y-12264308D01*
X17827664Y-12263911D01*
X17826446Y-12263514D01*
X17825202Y-12263091D01*
X17823986Y-12262668D01*
X17822743Y-12262244D01*
X17821525Y-12261794D01*
X17820308Y-12261345D01*
X17819117Y-12260869D01*
X17817900Y-12260366D01*
X17816710Y-12259889D01*
X17815492Y-12259361D01*
X17814302Y-12258858D01*
X17813111Y-12258302D01*
X17811947Y-12257773D01*
X17810757Y-12257217D01*
X17809593Y-12256635D01*
X17808428Y-12256053D01*
X17807290Y-12255471D01*
X17806126Y-12254863D01*
X17804988Y-12254254D01*
X17803851Y-12253619D01*
X17802713Y-12252984D01*
X17801575Y-12252349D01*
X17800464Y-12251687D01*
X17799353Y-12251026D01*
X17798242Y-12250338D01*
X17797130Y-12249650D01*
X17796046Y-12248936D01*
X17794961Y-12248221D01*
X17793876Y-12247507D01*
X17792818Y-12246766D01*
X17791759Y-12245999D01*
X17790701Y-12245258D01*
X17789642Y-12244491D01*
X17788611Y-12243697D01*
X17787579Y-12242903D01*
X17786547Y-12242109D01*
X17785542Y-12241316D01*
X17784510Y-12240496D01*
X17783531Y-12239649D01*
X17782525Y-12238829D01*
X17781547Y-12237956D01*
X17780567Y-12237109D01*
X17779588Y-12236236D01*
X17778636Y-12235363D01*
X17777683Y-12234463D01*
X17776758Y-12233563D01*
X17775832Y-12232664D01*
X17774906Y-12231738D01*
X17773979Y-12230838D01*
X17773080Y-12229886D01*
X17772180Y-12228960D01*
X17771308Y-12228008D01*
X17770434Y-12227028D01*
X17769561Y-12226075D01*
X17768714Y-12225097D01*
X17767867Y-12224091D01*
X17767021Y-12223112D01*
X17766200Y-12222107D01*
X17765381Y-12221075D01*
X17764587Y-12220070D01*
X17763793Y-12219038D01*
X17763000Y-12218006D01*
X17762232Y-12216948D01*
X17761465Y-12215916D01*
X17760697Y-12214857D01*
X17759956Y-12213773D01*
X17759242Y-12212714D01*
X17758502Y-12211630D01*
X17757787Y-12210545D01*
X17757099Y-12209433D01*
X17756411Y-12208349D01*
X17755723Y-12207238D01*
X17755061Y-12206100D01*
X17754400Y-12204989D01*
X17753765Y-12203851D01*
X17753130Y-12202713D01*
X17752522Y-12201575D01*
X17751914Y-12200438D01*
X17751305Y-12199273D01*
X17750723Y-12198110D01*
X17750141Y-12196945D01*
X17749584Y-12195781D01*
X17749029Y-12194617D01*
X17748473Y-12193426D01*
X17747945Y-12192236D01*
X17747442Y-12191045D01*
X17746938Y-12189854D01*
X17746436Y-12188637D01*
X17745960Y-12187447D01*
X17745484Y-12186229D01*
X17745034Y-12185013D01*
X17744584Y-12183769D01*
X17744161Y-12182552D01*
X17743737Y-12181335D01*
X17743340Y-12180091D01*
X17742944Y-12178848D01*
X17742574Y-12177604D01*
X17742203Y-12176361D01*
X17741832Y-12175117D01*
X17741489Y-12173847D01*
X17741145Y-12172603D01*
X17740827Y-12171333D01*
X17740537Y-12170090D01*
X17740245Y-12168820D01*
X17739955Y-12167550D01*
X17739690Y-12166280D01*
X17739424Y-12165010D01*
X17739186Y-12163714D01*
X17738948Y-12162444D01*
X17738737Y-12161173D01*
X17738525Y-12159877D01*
X17738340Y-12158580D01*
X17738155Y-12157311D01*
X17737996Y-12156014D01*
X17737837Y-12154718D01*
X17737705Y-12153421D01*
X17737573Y-12152125D01*
X17737467Y-12150855D01*
X17737361Y-12149558D01*
X17737255Y-12148262D01*
X17737176Y-12146939D01*
X17737122Y-12145643D01*
X17737070Y-12144346D01*
X17737043Y-12143050D01*
X17737016Y-12141753D01*
X17736991Y-12140456D01*
X17737016Y-12139160D01*
X17737016Y-12108495D01*
X17736991Y-12107198D01*
X17736991Y-12105902D01*
X17736938Y-12104606D01*
X17736911Y-12103309D01*
X17736832Y-12102013D01*
X17736778Y-12100716D01*
X17736700Y-12099420D01*
X17736594Y-12098123D01*
X17736488Y-12096827D01*
X17736356Y-12095530D01*
X17736223Y-12094234D01*
X17736065Y-12092938D01*
X17735906Y-12091641D01*
X17735721Y-12090371D01*
X17735535Y-12089074D01*
X17735350Y-12087804D01*
X17735139Y-12086508D01*
X17734901Y-12085238D01*
X17734662Y-12083942D01*
X17734424Y-12082672D01*
X17734159Y-12081402D01*
X17733869Y-12080132D01*
X17733578Y-12078862D01*
X17733286Y-12077592D01*
X17732969Y-12076348D01*
X17732625Y-12075078D01*
X17732308Y-12073835D01*
X17731938Y-12072591D01*
X17731567Y-12071321D01*
X17731196Y-12070077D01*
X17730799Y-12068860D01*
X17730403Y-12067617D01*
X17729979Y-12066373D01*
X17729556Y-12065156D01*
X17729132Y-12063939D01*
X17728682Y-12062722D01*
X17728207Y-12061505D01*
X17727731Y-12060288D01*
X17727254Y-12059071D01*
X17726751Y-12057880D01*
X17726222Y-12056690D01*
X17725719Y-12055499D01*
X17725163Y-12054308D01*
X17724635Y-12053144D01*
X17724053Y-12051954D01*
X17723497Y-12050789D01*
X17722915Y-12049625D01*
X17722306Y-12048488D01*
X17721698Y-12047323D01*
X17721089Y-12046185D01*
X17720455Y-12045048D01*
X17719819Y-12043910D01*
X17719158Y-12042799D01*
X17718496Y-12041661D01*
X17717835Y-12040550D01*
X17717147Y-12039439D01*
X17716459Y-12038354D01*
X17715745Y-12037269D01*
X17715030Y-12036184D01*
X17714290Y-12035099D01*
X17713548Y-12034041D01*
X17712808Y-12032983D01*
X17712040Y-12031925D01*
X17711273Y-12030866D01*
X17710506Y-12029834D01*
X17709712Y-12028803D01*
X17708892Y-12027771D01*
X17708098Y-12026765D01*
X17707278Y-12025760D01*
X17706432Y-12024754D01*
X17705585Y-12023775D01*
X17704737Y-12022797D01*
X17703891Y-12021817D01*
X17703018Y-12020838D01*
X17702118Y-12019886D01*
X17701245Y-12018933D01*
X17700346Y-12018008D01*
X17699420Y-12017081D01*
X17698493Y-12016156D01*
X17697567Y-12015256D01*
X17696642Y-12014356D01*
X17695690Y-12013457D01*
X17694737Y-12012583D01*
X17693784Y-12011710D01*
X17692805Y-12010837D01*
X17691827Y-12009991D01*
X17690820Y-12009144D01*
X17689842Y-12008297D01*
X17688837Y-12007477D01*
X17687805Y-12006683D01*
X17686800Y-12005863D01*
X17685768Y-12005069D01*
X17684735Y-12004302D01*
X17683677Y-12003535D01*
X17682619Y-12002767D01*
X17681561Y-12002000D01*
X17680502Y-12001259D01*
X17679417Y-12000545D01*
X17678333Y-11999831D01*
X17677247Y-11999116D01*
X17676136Y-11998428D01*
X17675052Y-11997740D01*
X17673940Y-11997052D01*
X17672802Y-11996391D01*
X17671691Y-11995730D01*
X17670554Y-11995094D01*
X17669416Y-11994460D01*
X17668279Y-11993851D01*
X17667140Y-11993242D01*
X17665976Y-11992660D01*
X17664812Y-11992052D01*
X17663648Y-11991496D01*
X17662484Y-11990941D01*
X17661293Y-11990385D01*
X17660103Y-11989856D01*
X17658912Y-11989327D01*
X17657722Y-11988797D01*
X17656531Y-11988295D01*
X17655314Y-11987819D01*
X17654123Y-11987342D01*
X17652906Y-11986866D01*
X17651689Y-11986416D01*
X17650445Y-11985993D01*
X17649228Y-11985543D01*
X17647984Y-11985146D01*
X17646768Y-11984723D01*
X17645525Y-11984352D01*
X17644281Y-11983956D01*
X17643037Y-11983585D01*
X17641793Y-11983241D01*
X17640523Y-11982897D01*
X17639280Y-11982580D01*
X17638011Y-11982262D01*
X17636740Y-11981945D01*
X17635470Y-11981654D01*
X17634200Y-11981389D01*
X17632930Y-11981124D01*
X17631660Y-11980860D01*
X17630390Y-11980622D01*
X17629094Y-11980410D01*
X17627824Y-11980172D01*
X17626527Y-11979987D01*
X17625256Y-11979802D01*
X17623961Y-11979616D01*
X17622664Y-11979458D01*
X17621367Y-11979299D01*
X17620098Y-11979167D01*
X17618801Y-11979034D01*
X17617504Y-11978928D01*
X17616209Y-11978823D01*
X17614912Y-11978743D01*
X17613615Y-11978664D01*
X17612319Y-11978611D01*
X17610996Y-11978558D01*
X17609700Y-11978532D01*
X17608403Y-11978505D01*
X17607106Y-11978505D01*
X17607001Y-11978505D01*
X16813145Y-11978505D01*
X16811849Y-11978505D01*
X16810552Y-11978532D01*
X16809255Y-11978558D01*
X16807959Y-11978611D01*
X16806663Y-11978664D01*
X16805367Y-11978743D01*
X16804070Y-11978823D01*
X16802773Y-11978928D01*
X16801477Y-11979034D01*
X16800180Y-11979167D01*
X16798884Y-11979299D01*
X16797588Y-11979431D01*
X16796317Y-11979590D01*
X16795021Y-11979775D01*
X16793724Y-11979960D01*
X16792455Y-11980172D01*
X16791158Y-11980384D01*
X16789888Y-11980595D01*
X16788619Y-11980834D01*
X16787322Y-11981098D01*
X16786052Y-11981363D01*
X16784782Y-11981627D01*
X16783511Y-11981918D01*
X16782268Y-11982236D01*
X16780998Y-11982553D01*
X16779728Y-11982871D01*
X16778484Y-11983215D01*
X16777241Y-11983559D01*
X16775971Y-11983929D01*
X16774728Y-11984300D01*
X16773511Y-11984696D01*
X16772267Y-11985093D01*
X16771023Y-11985517D01*
X16769807Y-11985940D01*
X16768589Y-11986390D01*
X16767372Y-11986840D01*
X16766155Y-11987316D01*
X16764938Y-11987792D01*
X16763721Y-11988268D01*
X16762530Y-11988771D01*
X16761340Y-11989274D01*
X16760149Y-11989803D01*
X16758958Y-11990332D01*
X16757794Y-11990888D01*
X16756603Y-11991443D01*
X16755440Y-11992025D01*
X16754275Y-11992608D01*
X16753137Y-11993190D01*
X16751973Y-11993798D01*
X16750835Y-11994433D01*
X16749698Y-11995042D01*
X16748560Y-11995677D01*
X16747449Y-11996338D01*
X16746311Y-11997000D01*
X16745200Y-11997687D01*
X16744115Y-11998375D01*
X16743004Y-11999063D01*
X16741919Y-11999778D01*
X16740834Y-12000492D01*
X16739750Y-12001206D01*
X16738691Y-12001947D01*
X16737633Y-12002714D01*
X16736575Y-12003455D01*
X16735516Y-12004223D01*
X16734484Y-12005016D01*
X16733453Y-12005810D01*
X16732420Y-12006604D01*
X16731415Y-12007424D01*
X16730410Y-12008244D01*
X16729404Y-12009064D01*
X16728425Y-12009911D01*
X16727447Y-12010758D01*
X16726468Y-12011631D01*
X16725488Y-12012504D01*
X16724536Y-12013377D01*
X16723610Y-12014277D01*
X16722658Y-12015176D01*
X16721732Y-12016076D01*
X16720805Y-12017002D01*
X16719906Y-12017928D01*
X16719006Y-12018881D01*
X16718106Y-12019807D01*
X16717233Y-12020759D01*
X16716361Y-12021738D01*
X16715487Y-12022717D01*
X16714641Y-12023696D01*
X16713794Y-12024675D01*
X16712974Y-12025681D01*
X16712127Y-12026686D01*
X16711333Y-12027691D01*
X16710513Y-12028723D01*
X16709719Y-12029755D01*
X16708952Y-12030787D01*
X16708185Y-12031845D01*
X16707417Y-12032877D01*
X16706650Y-12033935D01*
X16705936Y-12035020D01*
X16705195Y-12036105D01*
X16704481Y-12037163D01*
X16703766Y-12038274D01*
X16703078Y-12039359D01*
X16702390Y-12040471D01*
X16701702Y-12041582D01*
X16701041Y-12042693D01*
X16700406Y-12043831D01*
X16699744Y-12044942D01*
X16699110Y-12046080D01*
X16698501Y-12047244D01*
X16697893Y-12048381D01*
X16697311Y-12049546D01*
X16696729Y-12050710D01*
X16696146Y-12051874D01*
X16695590Y-12053038D01*
X16695035Y-12054229D01*
X16694505Y-12055393D01*
X16693977Y-12056584D01*
X16693448Y-12057774D01*
X16692971Y-12058991D01*
X16692468Y-12060182D01*
X16691992Y-12061399D01*
X16691516Y-12062616D01*
X16691066Y-12063833D01*
X16690643Y-12065051D01*
X16690193Y-12066294D01*
X16689796Y-12067511D01*
X16689400Y-12068755D01*
X16689002Y-12069998D01*
X16688606Y-12071242D01*
X16688261Y-12072485D01*
X16687891Y-12073729D01*
X16687547Y-12074972D01*
X16687230Y-12076242D01*
X16686912Y-12077512D01*
X16686594Y-12078756D01*
X16686304Y-12080026D01*
X16686039Y-12081296D01*
X16685774Y-12082566D01*
X16685510Y-12083862D01*
X16685271Y-12085132D01*
X16685060Y-12086402D01*
X16684822Y-12087698D01*
X16684637Y-12088969D01*
X16684452Y-12090265D01*
X16684267Y-12091562D01*
X16684108Y-12092831D01*
X16683949Y-12094128D01*
X16683817Y-12095424D01*
X16683685Y-12096721D01*
X16683579Y-12098017D01*
X16683472Y-12099314D01*
X16683393Y-12100610D01*
X16683314Y-12101907D01*
X16683261Y-12103203D01*
X16683208Y-12104500D01*
X16683182Y-12105796D01*
X16683155Y-12107093D01*
X16683155Y-12108389D01*
X16683155Y-12108495D01*
X16683155Y-12140007D01*
X16683155Y-12140113D01*
X16683155Y-12141409D01*
X16683129Y-12142706D01*
X16683102Y-12144002D01*
X16683049Y-12145298D01*
X16682996Y-12146595D01*
X16682917Y-12147891D01*
X16682838Y-12149214D01*
X16682732Y-12150511D01*
X16682626Y-12151781D01*
X16682494Y-12153077D01*
X16682362Y-12154374D01*
X16682203Y-12155670D01*
X16682044Y-12156966D01*
X16681859Y-12158236D01*
X16681673Y-12159533D01*
X16681489Y-12160830D01*
X16681277Y-12162100D01*
X16681039Y-12163369D01*
X16680801Y-12164666D01*
X16680536Y-12165936D01*
X16680271Y-12167206D01*
X16680007Y-12168476D01*
X16679716Y-12169746D01*
X16679398Y-12171016D01*
X16679081Y-12172260D01*
X16678763Y-12173530D01*
X16678419Y-12174773D01*
X16678075Y-12176043D01*
X16677705Y-12177287D01*
X16677308Y-12178530D01*
X16676937Y-12179774D01*
X16676514Y-12180991D01*
X16676118Y-12182234D01*
X16675694Y-12183452D01*
X16675244Y-12184668D01*
X16674794Y-12185886D01*
X16674318Y-12187103D01*
X16673842Y-12188320D01*
X16673366Y-12189537D01*
X16672863Y-12190727D01*
X16672334Y-12191918D01*
X16671804Y-12193109D01*
X16671275Y-12194299D01*
X16670720Y-12195464D01*
X16670164Y-12196654D01*
X16669608Y-12197818D01*
X16669026Y-12198982D01*
X16668418Y-12200120D01*
X16667809Y-12201284D01*
X16667201Y-12202422D01*
X16666566Y-12203560D01*
X16665931Y-12204697D01*
X16665270Y-12205809D01*
X16664608Y-12206920D01*
X16663920Y-12208031D01*
X16663258Y-12209142D01*
X16662544Y-12210254D01*
X16661829Y-12211339D01*
X16661115Y-12212423D01*
X16660401Y-12213482D01*
X16659660Y-12214566D01*
X16658893Y-12215625D01*
X16658152Y-12216683D01*
X16657359Y-12217715D01*
X16656591Y-12218773D01*
X16655797Y-12219805D01*
X16655003Y-12220811D01*
X16654183Y-12221843D01*
X16653363Y-12222848D01*
X16652516Y-12223827D01*
X16651669Y-12224832D01*
X16650823Y-12225811D01*
X16649950Y-12226764D01*
X16649077Y-12227742D01*
X16648203Y-12228695D01*
X16647304Y-12229648D01*
X16646404Y-12230574D01*
X16645505Y-12231500D01*
X16644579Y-12232426D01*
X16643653Y-12233325D01*
X16642727Y-12234225D01*
X16641774Y-12235125D01*
X16640822Y-12235997D01*
X16639843Y-12236871D01*
X16638891Y-12237744D01*
X16637885Y-12238591D01*
X16636906Y-12239437D01*
X16635901Y-12240258D01*
X16634895Y-12241078D01*
X16633890Y-12241898D01*
X16632858Y-12242691D01*
X16631826Y-12243485D01*
X16630795Y-12244279D01*
X16629736Y-12245046D01*
X16628704Y-12245813D01*
X16627619Y-12246554D01*
X16626561Y-12247295D01*
X16625476Y-12248036D01*
X16624391Y-12248751D01*
X16623306Y-12249465D01*
X16622221Y-12250153D01*
X16621111Y-12250841D01*
X16619999Y-12251502D01*
X16618887Y-12252164D01*
X16617750Y-12252825D01*
X16616612Y-12253460D01*
X16615475Y-12254095D01*
X16614337Y-12254704D01*
X16613200Y-12255312D01*
X16612035Y-12255921D01*
X16610871Y-12256503D01*
X16609707Y-12257058D01*
X16608543Y-12257614D01*
X16607352Y-12258170D01*
X16606162Y-12258699D01*
X16604971Y-12259228D01*
X16603780Y-12259731D01*
X16602589Y-12260233D01*
X16601373Y-12260736D01*
X16600156Y-12261212D01*
X16598965Y-12261662D01*
X16597748Y-12262112D01*
X16596504Y-12262562D01*
X16595287Y-12262985D01*
X16594044Y-12263409D01*
X16592826Y-12263805D01*
X16591583Y-12264202D01*
X16590340Y-12264573D01*
X16589096Y-12264943D01*
X16587826Y-12265287D01*
X16586582Y-12265631D01*
X16585312Y-12265975D01*
X16584069Y-12266292D01*
X16582799Y-12266583D01*
X16581529Y-12266874D01*
X16580259Y-12267139D01*
X16578989Y-12267404D01*
X16577719Y-12267668D01*
X16576422Y-12267906D01*
X16575152Y-12268145D01*
X16573882Y-12268356D01*
X16572586Y-12268541D01*
X16571289Y-12268726D01*
X16570019Y-12268912D01*
X16568723Y-12269071D01*
X16567426Y-12269230D01*
X16566130Y-12269362D01*
X16564833Y-12269467D01*
X16563537Y-12269600D01*
X16562241Y-12269679D01*
X16560944Y-12269785D01*
X16559647Y-12269838D01*
X16558351Y-12269891D01*
X16557055Y-12269944D01*
X16555758Y-12269970D01*
X16554462Y-12269996D01*
X16553165Y-12269996D01*
X13378642Y-12269996D01*
X13378536Y-12269996D01*
X13377239Y-12269996D01*
X13375943Y-12269970D01*
X13374647Y-12269944D01*
X13373350Y-12269891D01*
X13372054Y-12269838D01*
X13370757Y-12269758D01*
X13369461Y-12269679D01*
X13368164Y-12269573D01*
X13366868Y-12269467D01*
X13365571Y-12269335D01*
X13364275Y-12269203D01*
X13362979Y-12269071D01*
X13361682Y-12268885D01*
X13360412Y-12268726D01*
X13359116Y-12268541D01*
X13357819Y-12268330D01*
X13356549Y-12268118D01*
X13355279Y-12267880D01*
X13353983Y-12267642D01*
X13352713Y-12267404D01*
X13351443Y-12267139D01*
X13350173Y-12266848D01*
X13348903Y-12266557D01*
X13347633Y-12266266D01*
X13346389Y-12265949D01*
X13345119Y-12265604D01*
X13343876Y-12265260D01*
X13342632Y-12264916D01*
X13341362Y-12264546D01*
X13340118Y-12264175D01*
X13338901Y-12263779D01*
X13337658Y-12263382D01*
X13336414Y-12262959D01*
X13335197Y-12262535D01*
X13333980Y-12262085D01*
X13332763Y-12261636D01*
X13331546Y-12261160D01*
X13330329Y-12260684D01*
X13329138Y-12260207D01*
X13327921Y-12259704D01*
X13326731Y-12259202D01*
X13325540Y-12258672D01*
X13324349Y-12258117D01*
X13323185Y-12257588D01*
X13321994Y-12257032D01*
X13320830Y-12256450D01*
X13319666Y-12255868D01*
X13318529Y-12255259D01*
X13317364Y-12254651D01*
X13316227Y-12254042D01*
X13315089Y-12253407D01*
X13313951Y-12252772D01*
X13312840Y-12252111D01*
X13311729Y-12251449D01*
X13310617Y-12250788D01*
X13309506Y-12250100D01*
X13308395Y-12249386D01*
X13307310Y-12248698D01*
X13306225Y-12247983D01*
X13305167Y-12247242D01*
X13304082Y-12246502D01*
X13303024Y-12245761D01*
X13301966Y-12244994D01*
X13300934Y-12244226D01*
X13299902Y-12243432D01*
X13298870Y-12242639D01*
X13297838Y-12241845D01*
X13296833Y-12241024D01*
X13295827Y-12240205D01*
X13294822Y-12239358D01*
X13293816Y-12238538D01*
X13292838Y-12237664D01*
X13291885Y-12236818D01*
X13290906Y-12235944D01*
X13289953Y-12235045D01*
X13289001Y-12234172D01*
X13288075Y-12233272D01*
X13287149Y-12232346D01*
X13286223Y-12231421D01*
X13285323Y-12230494D01*
X13284424Y-12229568D01*
X13283524Y-12228616D01*
X13282651Y-12227663D01*
X13281778Y-12226711D01*
X13280905Y-12225732D01*
X13280058Y-12224753D01*
X13279211Y-12223747D01*
X13278391Y-12222768D01*
X13277571Y-12221737D01*
X13276751Y-12220731D01*
X13275957Y-12219699D01*
X13275163Y-12218667D01*
X13274369Y-12217635D01*
X13273602Y-12216604D01*
X13272835Y-12215545D01*
X13272094Y-12214487D01*
X13271353Y-12213402D01*
X13270612Y-12212344D01*
X13269898Y-12211259D01*
X13269210Y-12210148D01*
X13268496Y-12209063D01*
X13267808Y-12207952D01*
X13267147Y-12206841D01*
X13266485Y-12205729D01*
X13265823Y-12204591D01*
X13265188Y-12203480D01*
X13264553Y-12202343D01*
X13263945Y-12201178D01*
X13263336Y-12200041D01*
X13262754Y-12198877D01*
X13262146Y-12197712D01*
X13261590Y-12196549D01*
X13261034Y-12195384D01*
X13260479Y-12194193D01*
X13259950Y-12193003D01*
X13259421Y-12191812D01*
X13258918Y-12190622D01*
X13258415Y-12189431D01*
X13257912Y-12188214D01*
X13257436Y-12187023D01*
X13256986Y-12185806D01*
X13256537Y-12184589D01*
X13256087Y-12183372D01*
X13255664Y-12182129D01*
X13255240Y-12180911D01*
X13254843Y-12179668D01*
X13254446Y-12178424D01*
X13254076Y-12177181D01*
X13253705Y-12175937D01*
X13253362Y-12174694D01*
X13253018Y-12173424D01*
X13252674Y-12172180D01*
X13252383Y-12170910D01*
X13252065Y-12169640D01*
X13251774Y-12168370D01*
X13251510Y-12167100D01*
X13251245Y-12165830D01*
X13250980Y-12164560D01*
X13250742Y-12163290D01*
X13250531Y-12161994D01*
X13250319Y-12160724D01*
X13250107Y-12159427D01*
X13249922Y-12158157D01*
X13249737Y-12156861D01*
X13249578Y-12155564D01*
X13249419Y-12154268D01*
X13249287Y-12152971D01*
X13249181Y-12151701D01*
X13249049Y-12150405D01*
X13248969Y-12149109D01*
X13248890Y-12147812D01*
X13248811Y-12146515D01*
X13248758Y-12145193D01*
X13248705Y-12143896D01*
X13248679Y-12142600D01*
X13248652Y-12141303D01*
X13248652Y-12140007D01*
X13248652Y-11157506D01*
X13248652Y-11156207D01*
X13248625Y-11154905D01*
X13248599Y-11153606D01*
X13248546Y-11152307D01*
X13248493Y-11151008D01*
X13248414Y-11149711D01*
X13248335Y-11148412D01*
X13248229Y-11147118D01*
X13248123Y-11145822D01*
X13247991Y-11144528D01*
X13247858Y-11143234D01*
X13247700Y-11141943D01*
X13247541Y-11140655D01*
X13247382Y-11139366D01*
X13247197Y-11138080D01*
X13246985Y-11136794D01*
X13246773Y-11135511D01*
X13246535Y-11134233D01*
X13246297Y-11132955D01*
X13246059Y-11131680D01*
X13245795Y-11130407D01*
X13245503Y-11129137D01*
X13245212Y-11127870D01*
X13244921Y-11126605D01*
X13244604Y-11125343D01*
X13244287Y-11124086D01*
X13243942Y-11122830D01*
X13243572Y-11121581D01*
X13243228Y-11120332D01*
X13242831Y-11119089D01*
X13242461Y-11117847D01*
X13242037Y-11116612D01*
X13241641Y-11115381D01*
X13241191Y-11114154D01*
X13240768Y-11112929D01*
X13240318Y-11111709D01*
X13239841Y-11110495D01*
X13239365Y-11109286D01*
X13238889Y-11108082D01*
X13238386Y-11106881D01*
X13237883Y-11105687D01*
X13237354Y-11104497D01*
X13236799Y-11103314D01*
X13236270Y-11102134D01*
X13235714Y-11100959D01*
X13235132Y-11099792D01*
X13234550Y-11098631D01*
X13233968Y-11097475D01*
X13233359Y-11096324D01*
X13232724Y-11095181D01*
X13232089Y-11094043D01*
X13231454Y-11092911D01*
X13230819Y-11091786D01*
X13230158Y-11090669D01*
X13229470Y-11089556D01*
X13228782Y-11088452D01*
X13228094Y-11087354D01*
X13227380Y-11086262D01*
X13226665Y-11085180D01*
X13225951Y-11084102D01*
X13225210Y-11083034D01*
X13224443Y-11081973D01*
X13223702Y-11080917D01*
X13222908Y-11079872D01*
X13222141Y-11078832D01*
X13221347Y-11077800D01*
X13220553Y-11076779D01*
X13219733Y-11075763D01*
X13218913Y-11074755D01*
X13218066Y-11073757D01*
X13217220Y-11072768D01*
X13216373Y-11071786D01*
X13215526Y-11070813D01*
X13214653Y-11069850D01*
X13213753Y-11068892D01*
X13212880Y-11067947D01*
X13211981Y-11067008D01*
X13211055Y-11066079D01*
X13210155Y-11065161D01*
X13209229Y-11064251D01*
X13208277Y-11063349D01*
X13207324Y-11062457D01*
X13206372Y-11061576D01*
X13205419Y-11060703D01*
X13204440Y-11059840D01*
X13203461Y-11058986D01*
X13202482Y-11058144D01*
X13201477Y-11057311D01*
X13200471Y-11056485D01*
X13199466Y-11055673D01*
X13198434Y-11054871D01*
X13197402Y-11054078D01*
X13196370Y-11053295D01*
X13195312Y-11052525D01*
X13194254Y-11051763D01*
X13193195Y-11051011D01*
X13192137Y-11050270D01*
X13191052Y-11049540D01*
X13189968Y-11048823D01*
X13188883Y-11048114D01*
X13187798Y-11047418D01*
X13186687Y-11046733D01*
X13185575Y-11046058D01*
X13184464Y-11045394D01*
X13183326Y-11044740D01*
X13182189Y-11044100D01*
X13181051Y-11043471D01*
X13179913Y-11042851D01*
X13178775Y-11042245D01*
X13177611Y-11041650D01*
X13176447Y-11041065D01*
X13175283Y-11040494D01*
X13174119Y-11039933D01*
X13172928Y-11039383D01*
X13171738Y-11038845D01*
X13170547Y-11038322D01*
X13169356Y-11037808D01*
X13168166Y-11037308D01*
X13166949Y-11036819D01*
X13165758Y-11036340D01*
X13164541Y-11035877D01*
X13163324Y-11035422D01*
X13162107Y-11034983D01*
X13160863Y-11034554D01*
X13159646Y-11034139D01*
X13158403Y-11033734D01*
X13157159Y-11033342D01*
X13155915Y-11032964D01*
X13154672Y-11032596D01*
X13153428Y-11032244D01*
X13152159Y-11031903D01*
X13150915Y-11031572D01*
X13149645Y-11031257D01*
X13148375Y-11030953D01*
X13147105Y-11030662D01*
X13145835Y-11030384D01*
X13144565Y-11030117D01*
X13143295Y-11029866D01*
X13142025Y-11029625D01*
X13140729Y-11029397D01*
X13139459Y-11029183D01*
X13138162Y-11028982D01*
X13136892Y-11028791D01*
X13135596Y-11028617D01*
X13134299Y-11028453D01*
X13133029Y-11028302D01*
X13131733Y-11028167D01*
X13130436Y-11028043D01*
X13129140Y-11027929D01*
X13127843Y-11027831D01*
X13126547Y-11027746D01*
X13125250Y-11027675D01*
X13123954Y-11027614D01*
X13122658Y-11027566D01*
X13121361Y-11027535D01*
X13120038Y-11027513D01*
X13118742Y-11027505D01*
X13118636Y-11027505D01*
X11893004Y-11027505D01*
X11891705Y-11027513D01*
X11890406Y-11027532D01*
X11889104Y-11027564D01*
X11887805Y-11027609D01*
X11886508Y-11027670D01*
X11885209Y-11027741D01*
X11883913Y-11027823D01*
X11882616Y-11027921D01*
X11881320Y-11028032D01*
X11880026Y-11028156D01*
X11878732Y-11028291D01*
X11877441Y-11028442D01*
X11876152Y-11028603D01*
X11874864Y-11028778D01*
X11873578Y-11028966D01*
X11872292Y-11029167D01*
X11871012Y-11029379D01*
X11869731Y-11029606D01*
X11868453Y-11029844D01*
X11867178Y-11030098D01*
X11865905Y-11030363D01*
X11864635Y-11030638D01*
X11863368Y-11030929D01*
X11862103Y-11031231D01*
X11860841Y-11031548D01*
X11859584Y-11031876D01*
X11858330Y-11032215D01*
X11857079Y-11032570D01*
X11855830Y-11032935D01*
X11854586Y-11033313D01*
X11853348Y-11033702D01*
X11852110Y-11034104D01*
X11850880Y-11034520D01*
X11849652Y-11034948D01*
X11848427Y-11035387D01*
X11847210Y-11035840D01*
X11845995Y-11036303D01*
X11844786Y-11036779D01*
X11843580Y-11037269D01*
X11842381Y-11037769D01*
X11841185Y-11038279D01*
X11839994Y-11038803D01*
X11838812Y-11039340D01*
X11837632Y-11039888D01*
X11836460Y-11040449D01*
X11835290Y-11041021D01*
X11834129Y-11041603D01*
X11832973Y-11042198D01*
X11831824Y-11042804D01*
X11830679Y-11043420D01*
X11829541Y-11044050D01*
X11828411Y-11044690D01*
X11827284Y-11045341D01*
X11826168Y-11046002D01*
X11825056Y-11046677D01*
X11823950Y-11047363D01*
X11822852Y-11048058D01*
X11821762Y-11048765D01*
X11820677Y-11049484D01*
X11819601Y-11050212D01*
X11818532Y-11050953D01*
X11817471Y-11051702D01*
X11816415Y-11052464D01*
X11815370Y-11053234D01*
X11814330Y-11054014D01*
X11813298Y-11054808D01*
X11812277Y-11055610D01*
X11811261Y-11056422D01*
X11810255Y-11057245D01*
X11809255Y-11058076D01*
X11808266Y-11058920D01*
X11807284Y-11059771D01*
X11806310Y-11060634D01*
X11805347Y-11061504D01*
X11804392Y-11062386D01*
X11803445Y-11063277D01*
X11802506Y-11064177D01*
X11801577Y-11065087D01*
X11800659Y-11066005D01*
X11799749Y-11066934D01*
X11798847Y-11067870D01*
X11797955Y-11068818D01*
X11797074Y-11069773D01*
X11796201Y-11070736D01*
X11795338Y-11071709D01*
X11794486Y-11072688D01*
X11793642Y-11073678D01*
X11792809Y-11074675D01*
X11791986Y-11075683D01*
X11791171Y-11076697D01*
X11790369Y-11077718D01*
X11789575Y-11078750D01*
X11788795Y-11079787D01*
X11788022Y-11080832D01*
X11787260Y-11081888D01*
X11786509Y-11082949D01*
X11785768Y-11084018D01*
X11785041Y-11085092D01*
X11784321Y-11086177D01*
X11783614Y-11087267D01*
X11782916Y-11088365D01*
X11782231Y-11089468D01*
X11781556Y-11090580D01*
X11780892Y-11091696D01*
X11780238Y-11092821D01*
X11779598Y-11093953D01*
X11778968Y-11095091D01*
X11778349Y-11096234D01*
X11777743Y-11097382D01*
X11777148Y-11098538D01*
X11776563Y-11099700D01*
X11775992Y-11100866D01*
X11775431Y-11102041D01*
X11774883Y-11103219D01*
X11774346Y-11104401D01*
X11773820Y-11105592D01*
X11773306Y-11106785D01*
X11772806Y-11107986D01*
X11772317Y-11109190D01*
X11771841Y-11110400D01*
X11771375Y-11111614D01*
X11770922Y-11112831D01*
X11770481Y-11114056D01*
X11770052Y-11115284D01*
X11769637Y-11116514D01*
X11769232Y-11117750D01*
X11768840Y-11118991D01*
X11768462Y-11120234D01*
X11768097Y-11121480D01*
X11767742Y-11122732D01*
X11767401Y-11123986D01*
X11767073Y-11125243D01*
X11766755Y-11126505D01*
X11766451Y-11127769D01*
X11766160Y-11129034D01*
X11765882Y-11130304D01*
X11765618Y-11131577D01*
X11765364Y-11132852D01*
X11765123Y-11134130D01*
X11764895Y-11135410D01*
X11764681Y-11136691D01*
X11764480Y-11137977D01*
X11764292Y-11139263D01*
X11764115Y-11140551D01*
X11763951Y-11141840D01*
X11763802Y-11143131D01*
X11763665Y-11144425D01*
X11763541Y-11145719D01*
X11763429Y-11147015D01*
X11763329Y-11148309D01*
X11763244Y-11149608D01*
X11763173Y-11150905D01*
X11763112Y-11152204D01*
X11763067Y-11153503D01*
X11763033Y-11154802D01*
X11763011Y-11156104D01*
X11763003Y-11157403D01*
X11763003Y-11157506D01*
X11763003Y-12170804D01*
X11763003Y-12170910D01*
X11762998Y-12172207D01*
X11762977Y-12173503D01*
X11762943Y-12174799D01*
X11762898Y-12176096D01*
X11762837Y-12177419D01*
X11762765Y-12178715D01*
X11762678Y-12180012D01*
X11762580Y-12181308D01*
X11762469Y-12182605D01*
X11762345Y-12183875D01*
X11762207Y-12185171D01*
X11762056Y-12186467D01*
X11761895Y-12187764D01*
X11761718Y-12189061D01*
X11761530Y-12190331D01*
X11761329Y-12191627D01*
X11761112Y-12192897D01*
X11760887Y-12194193D01*
X11760646Y-12195464D01*
X11760392Y-12196734D01*
X11760127Y-12198003D01*
X11759850Y-12199273D01*
X11759559Y-12200543D01*
X11759254Y-12201814D01*
X11758937Y-12203057D01*
X11758609Y-12204327D01*
X11758267Y-12205571D01*
X11757913Y-12206841D01*
X11757548Y-12208084D01*
X11757167Y-12209328D01*
X11756775Y-12210571D01*
X11756373Y-12211788D01*
X11755958Y-12213032D01*
X11755529Y-12214249D01*
X11755087Y-12215492D01*
X11754635Y-12216710D01*
X11754169Y-12217900D01*
X11753693Y-12219117D01*
X11753203Y-12220334D01*
X11752703Y-12221525D01*
X11752190Y-12222715D01*
X11751663Y-12223906D01*
X11751126Y-12225097D01*
X11750579Y-12226261D01*
X11750018Y-12227451D01*
X11749446Y-12228616D01*
X11748861Y-12229780D01*
X11748266Y-12230918D01*
X11747660Y-12232082D01*
X11747041Y-12233220D01*
X11746411Y-12234357D01*
X11745769Y-12235495D01*
X11745118Y-12236606D01*
X11744454Y-12237744D01*
X11743779Y-12238855D01*
X11743094Y-12239940D01*
X11742395Y-12241051D01*
X11741689Y-12242136D01*
X11740969Y-12243221D01*
X11740239Y-12244305D01*
X11739501Y-12245364D01*
X11738749Y-12246422D01*
X11737987Y-12247480D01*
X11737215Y-12248512D01*
X11736434Y-12249571D01*
X11735640Y-12250602D01*
X11734836Y-12251608D01*
X11734024Y-12252640D01*
X11733201Y-12253645D01*
X11732367Y-12254624D01*
X11731523Y-12255630D01*
X11730671Y-12256609D01*
X11729809Y-12257588D01*
X11728936Y-12258540D01*
X11728055Y-12259493D01*
X11727163Y-12260445D01*
X11726261Y-12261371D01*
X11725351Y-12262297D01*
X11724430Y-12263223D01*
X11723501Y-12264123D01*
X11722565Y-12265022D01*
X11721617Y-12265922D01*
X11720662Y-12266795D01*
X11719696Y-12267668D01*
X11718725Y-12268541D01*
X11717744Y-12269388D01*
X11716752Y-12270235D01*
X11715754Y-12271055D01*
X11714749Y-12271902D01*
X11713733Y-12272695D01*
X11712709Y-12273515D01*
X11711680Y-12274310D01*
X11710640Y-12275076D01*
X11709595Y-12275844D01*
X11708539Y-12276611D01*
X11707478Y-12277352D01*
X11706409Y-12278093D01*
X11705332Y-12278833D01*
X11704247Y-12279548D01*
X11703157Y-12280262D01*
X11702059Y-12280950D01*
X11700953Y-12281638D01*
X11699842Y-12282299D01*
X11698723Y-12282961D01*
X11697598Y-12283622D01*
X11696469Y-12284258D01*
X11695331Y-12284893D01*
X11694185Y-12285501D01*
X11693037Y-12286110D01*
X11691881Y-12286718D01*
X11690717Y-12287301D01*
X11689550Y-12287856D01*
X11688378Y-12288411D01*
X11687198Y-12288968D01*
X11686012Y-12289496D01*
X11684824Y-12290025D01*
X11683628Y-12290555D01*
X11682430Y-12291031D01*
X11681223Y-12291534D01*
X11680014Y-12292010D01*
X11678800Y-12292460D01*
X11677580Y-12292936D01*
X11676358Y-12293359D01*
X11675130Y-12293783D01*
X11673897Y-12294206D01*
X11672662Y-12294603D01*
X11671423Y-12295000D01*
X11670177Y-12295370D01*
X11668931Y-12295741D01*
X11667679Y-12296085D01*
X11666425Y-12296429D01*
X11665166Y-12296772D01*
X11663906Y-12297090D01*
X11662642Y-12297381D01*
X11661374Y-12297672D01*
X11660104Y-12297936D01*
X11658832Y-12298228D01*
X11657556Y-12298466D01*
X11656278Y-12298704D01*
X11654998Y-12298942D01*
X11653715Y-12299154D01*
X11652431Y-12299339D01*
X11651146Y-12299524D01*
X11649857Y-12299709D01*
X11648566Y-12299868D01*
X11647275Y-12300027D01*
X11645984Y-12300159D01*
X11644690Y-12300292D01*
X11643393Y-12300397D01*
X11642097Y-12300477D01*
X11640800Y-12300583D01*
X11639501Y-12300635D01*
X11638202Y-12300715D01*
X11636903Y-12300741D01*
X11635604Y-12300768D01*
X11634305Y-12300794D01*
X11633006Y-12300794D01*
X10740034Y-12300794D01*
X10739929Y-12300794D01*
X10738630Y-12300794D01*
X10737330Y-12300768D01*
X10736031Y-12300741D01*
X10734732Y-12300688D01*
X10733433Y-12300635D01*
X10732134Y-12300556D01*
X10730838Y-12300477D01*
X10729541Y-12300371D01*
X10728245Y-12300265D01*
X10726951Y-12300159D01*
X10725660Y-12300000D01*
X10724369Y-12299868D01*
X10723077Y-12299683D01*
X10721789Y-12299524D01*
X10720503Y-12299339D01*
X10719220Y-12299127D01*
X10717936Y-12298916D01*
X10716659Y-12298678D01*
X10715381Y-12298439D01*
X10714105Y-12298201D01*
X10712833Y-12297936D01*
X10711563Y-12297645D01*
X10710295Y-12297354D01*
X10709031Y-12297064D01*
X10707771Y-12296746D01*
X10706512Y-12296402D01*
X10705258Y-12296058D01*
X10704006Y-12295714D01*
X10702760Y-12295344D01*
X10701516Y-12294973D01*
X10700278Y-12294576D01*
X10699040Y-12294180D01*
X10697810Y-12293757D01*
X10696582Y-12293333D01*
X10695360Y-12292883D01*
X10694140Y-12292433D01*
X10692925Y-12291983D01*
X10691716Y-12291481D01*
X10690512Y-12291005D01*
X10689314Y-12290502D01*
X10688118Y-12289999D01*
X10686930Y-12289470D01*
X10685745Y-12288941D01*
X10684567Y-12288385D01*
X10683395Y-12287829D01*
X10682228Y-12287248D01*
X10681067Y-12286665D01*
X10679911Y-12286057D01*
X10678760Y-12285448D01*
X10677617Y-12284840D01*
X10676479Y-12284205D01*
X10675349Y-12283570D01*
X10674225Y-12282908D01*
X10673106Y-12282246D01*
X10671997Y-12281585D01*
X10670891Y-12280898D01*
X10669793Y-12280209D01*
X10668703Y-12279495D01*
X10667621Y-12278781D01*
X10666544Y-12278040D01*
X10665475Y-12277299D01*
X10664414Y-12276558D01*
X10663361Y-12275791D01*
X10662316Y-12275024D01*
X10661276Y-12274230D01*
X10660247Y-12273436D01*
X10659223Y-12272643D01*
X10658209Y-12271822D01*
X10657204Y-12271002D01*
X10656207Y-12270155D01*
X10655217Y-12269335D01*
X10654235Y-12268462D01*
X10653262Y-12267615D01*
X10652299Y-12266742D01*
X10651344Y-12265843D01*
X10650399Y-12264969D01*
X10649462Y-12264070D01*
X10648534Y-12263144D01*
X10647616Y-12262244D01*
X10646705Y-12261292D01*
X10645806Y-12260366D01*
X10644914Y-12259413D01*
X10644033Y-12258461D01*
X10643160Y-12257508D01*
X10642297Y-12256529D01*
X10641445Y-12255550D01*
X10640604Y-12254545D01*
X10639771Y-12253566D01*
X10638948Y-12252560D01*
X10638135Y-12251529D01*
X10637334Y-12250523D01*
X10636543Y-12249492D01*
X10635760Y-12248433D01*
X10634990Y-12247401D01*
X10634230Y-12246343D01*
X10633479Y-12245285D01*
X10632741Y-12244200D01*
X10632010Y-12243141D01*
X10631293Y-12242056D01*
X10630587Y-12240946D01*
X10629891Y-12239861D01*
X10629206Y-12238749D01*
X10628531Y-12237638D01*
X10627867Y-12236527D01*
X10627216Y-12235389D01*
X10626576Y-12234278D01*
X10625946Y-12233140D01*
X10625330Y-12231976D01*
X10624724Y-12230838D01*
X10624128Y-12229674D01*
X10623546Y-12228510D01*
X10622975Y-12227346D01*
X10622417Y-12226182D01*
X10621869Y-12224991D01*
X10621332Y-12223827D01*
X10620808Y-12222636D01*
X10620295Y-12221419D01*
X10619795Y-12220229D01*
X10619308Y-12219038D01*
X10618832Y-12217821D01*
X10618366Y-12216604D01*
X10617913Y-12215387D01*
X10617474Y-12214169D01*
X10617048Y-12212926D01*
X10616633Y-12211709D01*
X10616231Y-12210465D01*
X10615839Y-12209222D01*
X10615461Y-12207979D01*
X10615096Y-12206735D01*
X10614744Y-12205491D01*
X10614402Y-12204221D01*
X10614074Y-12202978D01*
X10613759Y-12201708D01*
X10613458Y-12200438D01*
X10613167Y-12199168D01*
X10612889Y-12197897D01*
X10612624Y-12196628D01*
X10612373Y-12195358D01*
X10612132Y-12194088D01*
X10611907Y-12192791D01*
X10611693Y-12191521D01*
X10611492Y-12190225D01*
X10611304Y-12188955D01*
X10611130Y-12187658D01*
X10610968Y-12186362D01*
X10610820Y-12185065D01*
X10610682Y-12183795D01*
X10610561Y-12182499D01*
X10610449Y-12181202D01*
X10610352Y-12179906D01*
X10610267Y-12178610D01*
X10610195Y-12177313D01*
X10610137Y-12176017D01*
X10610092Y-12174694D01*
X10610058Y-12173397D01*
X10610039Y-12172101D01*
X10610034Y-12170804D01*
X10610034Y-9160005D01*
X10610034Y-9159902D01*
X10610042Y-9158603D01*
X10610061Y-9157304D01*
X10610095Y-9156002D01*
X10610143Y-9154703D01*
X10610201Y-9153406D01*
X10610272Y-9152107D01*
X10610360Y-9150811D01*
X10610457Y-9149514D01*
X10610569Y-9148218D01*
X10610693Y-9146924D01*
X10610830Y-9145633D01*
X10610981Y-9144342D01*
X10611143Y-9143050D01*
X10611320Y-9141762D01*
X10611508Y-9140476D01*
X10611709Y-9139193D01*
X10611926Y-9137910D01*
X10612151Y-9136629D01*
X10612392Y-9135354D01*
X10612646Y-9134078D01*
X10612910Y-9132806D01*
X10613188Y-9131536D01*
X10613479Y-9130268D01*
X10613783Y-9129004D01*
X10614101Y-9127744D01*
X10614429Y-9126485D01*
X10614770Y-9125231D01*
X10615125Y-9123979D01*
X10615490Y-9122733D01*
X10615871Y-9121490D01*
X10616262Y-9120249D01*
X10616665Y-9119013D01*
X10617080Y-9117783D01*
X10617509Y-9116555D01*
X10617950Y-9115333D01*
X10618403Y-9114113D01*
X10618869Y-9112899D01*
X10619345Y-9111689D01*
X10619834Y-9110486D01*
X10620334Y-9109287D01*
X10620848Y-9108091D01*
X10621374Y-9106903D01*
X10621911Y-9105718D01*
X10622459Y-9104540D01*
X10623020Y-9103368D01*
X10623591Y-9102199D01*
X10624176Y-9101037D01*
X10624771Y-9099884D01*
X10625380Y-9098733D01*
X10625996Y-9097590D01*
X10626626Y-9096452D01*
X10627269Y-9095322D01*
X10627920Y-9094198D01*
X10628584Y-9093079D01*
X10629259Y-9091967D01*
X10629944Y-9090864D01*
X10630643Y-9089766D01*
X10631349Y-9088676D01*
X10632069Y-9087593D01*
X10632799Y-9086517D01*
X10633537Y-9085448D01*
X10634288Y-9084387D01*
X10635050Y-9083334D01*
X10635823Y-9082288D01*
X10636606Y-9081249D01*
X10637397Y-9080219D01*
X10638202Y-9079197D01*
X10639014Y-9078183D01*
X10639837Y-9077176D01*
X10640670Y-9076179D01*
X10641514Y-9075189D01*
X10642366Y-9074208D01*
X10643229Y-9073236D01*
X10644102Y-9072272D01*
X10644983Y-9071317D01*
X10645875Y-9070371D01*
X10646777Y-9069434D01*
X10647687Y-9068506D01*
X10648608Y-9067587D01*
X10649536Y-9066678D01*
X10650473Y-9065777D01*
X10651420Y-9064886D01*
X10652375Y-9064005D01*
X10653341Y-9063133D01*
X10654312Y-9062271D01*
X10655294Y-9061419D01*
X10656286Y-9060576D01*
X10657283Y-9059744D01*
X10658289Y-9058921D01*
X10659305Y-9058109D01*
X10660329Y-9057307D01*
X10661358Y-9056515D01*
X10662398Y-9055734D01*
X10663446Y-9054962D01*
X10664499Y-9054202D01*
X10665560Y-9053452D01*
X10666628Y-9052712D01*
X10667705Y-9051984D01*
X10668790Y-9051266D01*
X10669880Y-9050559D01*
X10670978Y-9049863D01*
X10672084Y-9049178D01*
X10673195Y-9048504D01*
X10674315Y-9047841D01*
X10675439Y-9047190D01*
X10676569Y-9046549D01*
X10677707Y-9045920D01*
X10678852Y-9045303D01*
X10680003Y-9044697D01*
X10681157Y-9044102D01*
X10682321Y-9043519D01*
X10683488Y-9042948D01*
X10684660Y-9042388D01*
X10685840Y-9041840D01*
X10687025Y-9041304D01*
X10688213Y-9040780D01*
X10689409Y-9040268D01*
X10690608Y-9039768D01*
X10691814Y-9039280D01*
X10693023Y-9038804D01*
X10694238Y-9038340D01*
X10695457Y-9037888D01*
X10696680Y-9037448D01*
X10697907Y-9037021D01*
X10699140Y-9036605D01*
X10700376Y-9036203D01*
X10701614Y-9035812D01*
X10702861Y-9035434D01*
X10704107Y-9035069D01*
X10705358Y-9034716D01*
X10706612Y-9034375D01*
X10707872Y-9034047D01*
X10709131Y-9033732D01*
X10710396Y-9033429D01*
X10711663Y-9033139D01*
X10712933Y-9032862D01*
X10714206Y-9032597D01*
X10715481Y-9032345D01*
X10716759Y-9032106D01*
X10718040Y-9031880D01*
X10719323Y-9031666D01*
X10720606Y-9031466D01*
X10721892Y-9031278D01*
X10723181Y-9031103D01*
X10724472Y-9030941D01*
X10725763Y-9030792D01*
X10727054Y-9030655D01*
X10728348Y-9030532D01*
X10729644Y-9030422D01*
X10730941Y-9030324D01*
X10732237Y-9030240D01*
X10733536Y-9030168D01*
X10734835Y-9030110D01*
X10736135Y-9030064D01*
X10737434Y-9030032D01*
X10738733Y-9030013D01*
X10740034Y-9030006D01*
X11633006Y-9030006D01*
X11633109Y-9030006D01*
X11634408Y-9030014D01*
X11635707Y-9030034D01*
X11637006Y-9030068D01*
X11638305Y-9030114D01*
X11639605Y-9030174D01*
X11640904Y-9030246D01*
X11642200Y-9030332D01*
X11643496Y-9030430D01*
X11644793Y-9030541D01*
X11646087Y-9030666D01*
X11647378Y-9030803D01*
X11648669Y-9030953D01*
X11649960Y-9031116D01*
X11651249Y-9031292D01*
X11652535Y-9031481D01*
X11653818Y-9031683D01*
X11655101Y-9031897D01*
X11656379Y-9032125D01*
X11657657Y-9032365D01*
X11658932Y-9032618D01*
X11660205Y-9032884D01*
X11661475Y-9033162D01*
X11662742Y-9033453D01*
X11664007Y-9033757D01*
X11665266Y-9034073D01*
X11666526Y-9034402D01*
X11667780Y-9034744D01*
X11669031Y-9035098D01*
X11670278Y-9035464D01*
X11671521Y-9035843D01*
X11672762Y-9036234D01*
X11673998Y-9036638D01*
X11675228Y-9037054D01*
X11676456Y-9037483D01*
X11677678Y-9037923D01*
X11678898Y-9038376D01*
X11680112Y-9038841D01*
X11681321Y-9039318D01*
X11682525Y-9039807D01*
X11683724Y-9040309D01*
X11684920Y-9040822D01*
X11686108Y-9041347D01*
X11687293Y-9041884D01*
X11688470Y-9042432D01*
X11689642Y-9042993D01*
X11690809Y-9043565D01*
X11691971Y-9044149D01*
X11693127Y-9044745D01*
X11694278Y-9045352D01*
X11695421Y-9045970D01*
X11696559Y-9046600D01*
X11697688Y-9047241D01*
X11698813Y-9047893D01*
X11699932Y-9048557D01*
X11701043Y-9049232D01*
X11702147Y-9049918D01*
X11703245Y-9050615D01*
X11704335Y-9051323D01*
X11705417Y-9052042D01*
X11706494Y-9052771D01*
X11707563Y-9053511D01*
X11708624Y-9054262D01*
X11709677Y-9055023D01*
X11710722Y-9055795D01*
X11711762Y-9056578D01*
X11712791Y-9057370D01*
X11713815Y-9058173D01*
X11714828Y-9058987D01*
X11715834Y-9059810D01*
X11716831Y-9060643D01*
X11717821Y-9061487D01*
X11718802Y-9062340D01*
X11719776Y-9063202D01*
X11720739Y-9064075D01*
X11721694Y-9064957D01*
X11722639Y-9065849D01*
X11723575Y-9066750D01*
X11724504Y-9067660D01*
X11725422Y-9068580D01*
X11726332Y-9069508D01*
X11727234Y-9070446D01*
X11728123Y-9071393D01*
X11729005Y-9072349D01*
X11729878Y-9073313D01*
X11730740Y-9074286D01*
X11731592Y-9075268D01*
X11732433Y-9076258D01*
X11733267Y-9077256D01*
X11734090Y-9078263D01*
X11734902Y-9079278D01*
X11735704Y-9080301D01*
X11736495Y-9081332D01*
X11737278Y-9082371D01*
X11738048Y-9083417D01*
X11738810Y-9084471D01*
X11739559Y-9085533D01*
X11740297Y-9086602D01*
X11741027Y-9087679D01*
X11741744Y-9088763D01*
X11742451Y-9089853D01*
X11743146Y-9090951D01*
X11743832Y-9092057D01*
X11744506Y-9093169D01*
X11745171Y-9094288D01*
X11745821Y-9095412D01*
X11746462Y-9096542D01*
X11747091Y-9097680D01*
X11747708Y-9098825D01*
X11748314Y-9099974D01*
X11748909Y-9101130D01*
X11749491Y-9102294D01*
X11750063Y-9103461D01*
X11750621Y-9104633D01*
X11751171Y-9105813D01*
X11751706Y-9106998D01*
X11752230Y-9108186D01*
X11752743Y-9109382D01*
X11753243Y-9110581D01*
X11753730Y-9111787D01*
X11754206Y-9112996D01*
X11754672Y-9114211D01*
X11755124Y-9115431D01*
X11755563Y-9116653D01*
X11755989Y-9117881D01*
X11756405Y-9119114D01*
X11756807Y-9120349D01*
X11757199Y-9121587D01*
X11757577Y-9122831D01*
X11757942Y-9124080D01*
X11758294Y-9125331D01*
X11758635Y-9126585D01*
X11758963Y-9127842D01*
X11759278Y-9129104D01*
X11759582Y-9130369D01*
X11759871Y-9131636D01*
X11760149Y-9132906D01*
X11760413Y-9134179D01*
X11760665Y-9135454D01*
X11760905Y-9136732D01*
X11761130Y-9138013D01*
X11761345Y-9139293D01*
X11761546Y-9140579D01*
X11761733Y-9141865D01*
X11761908Y-9143154D01*
X11762070Y-9144442D01*
X11762218Y-9145736D01*
X11762355Y-9147027D01*
X11762480Y-9148321D01*
X11762588Y-9149617D01*
X11762686Y-9150914D01*
X11762771Y-9152210D01*
X11762842Y-9153509D01*
X11762900Y-9154809D01*
X11762945Y-9156108D01*
X11762980Y-9157407D01*
X11762998Y-9158706D01*
X11763003Y-9160005D01*
X11763003Y-10142506D01*
X11763011Y-10143805D01*
X11763030Y-10145107D01*
X11763064Y-10146406D01*
X11763109Y-10147705D01*
X11763167Y-10149004D01*
X11763239Y-10150301D01*
X11763324Y-10151600D01*
X11763421Y-10152894D01*
X11763530Y-10154190D01*
X11763654Y-10155484D01*
X11763789Y-10156778D01*
X11763940Y-10158069D01*
X11764101Y-10159357D01*
X11764276Y-10160646D01*
X11764464Y-10161932D01*
X11764665Y-10163218D01*
X11764879Y-10164501D01*
X11765104Y-10165779D01*
X11765345Y-10167057D01*
X11765596Y-10168332D01*
X11765861Y-10169605D01*
X11766139Y-10170875D01*
X11766427Y-10172142D01*
X11766731Y-10173407D01*
X11767046Y-10174669D01*
X11767374Y-10175926D01*
X11767713Y-10177182D01*
X11768068Y-10178431D01*
X11768433Y-10179680D01*
X11768811Y-10180924D01*
X11769200Y-10182164D01*
X11769605Y-10183400D01*
X11770020Y-10184630D01*
X11770446Y-10185858D01*
X11770885Y-10187083D01*
X11771338Y-10188303D01*
X11771801Y-10189517D01*
X11772277Y-10190726D01*
X11772767Y-10191930D01*
X11773267Y-10193131D01*
X11773780Y-10194325D01*
X11774304Y-10195515D01*
X11774838Y-10196698D01*
X11775386Y-10197878D01*
X11775947Y-10199053D01*
X11776518Y-10200220D01*
X11777101Y-10201381D01*
X11777696Y-10202537D01*
X11778302Y-10203688D01*
X11778918Y-10204831D01*
X11779548Y-10205969D01*
X11780188Y-10207101D01*
X11780839Y-10208226D01*
X11781503Y-10209342D01*
X11782175Y-10210456D01*
X11782860Y-10211560D01*
X11783556Y-10212658D01*
X11784265Y-10213750D01*
X11784982Y-10214833D01*
X11785710Y-10215909D01*
X11786451Y-10216978D01*
X11787200Y-10218039D01*
X11787962Y-10219095D01*
X11788732Y-10220140D01*
X11789515Y-10221180D01*
X11790306Y-10222212D01*
X11791108Y-10223233D01*
X11791920Y-10224249D01*
X11792743Y-10225257D01*
X11793576Y-10226255D01*
X11794417Y-10227244D01*
X11795269Y-10228226D01*
X11796132Y-10229199D01*
X11797002Y-10230163D01*
X11797886Y-10231120D01*
X11798775Y-10232065D01*
X11799677Y-10233004D01*
X11800585Y-10233933D01*
X11801506Y-10234851D01*
X11802432Y-10235761D01*
X11803371Y-10236663D01*
X11804316Y-10237555D01*
X11805271Y-10238436D01*
X11806234Y-10239309D01*
X11807207Y-10240172D01*
X11808186Y-10241026D01*
X11809176Y-10241868D01*
X11810176Y-10242701D01*
X11811181Y-10243527D01*
X11812195Y-10244339D01*
X11813219Y-10245141D01*
X11814248Y-10245934D01*
X11815285Y-10246717D01*
X11816333Y-10247487D01*
X11817386Y-10248249D01*
X11818447Y-10249001D01*
X11819516Y-10249742D01*
X11820593Y-10250472D01*
X11821675Y-10251189D01*
X11822765Y-10251898D01*
X11823863Y-10252594D01*
X11824966Y-10253279D01*
X11826077Y-10253954D01*
X11827197Y-10254618D01*
X11828321Y-10255271D01*
X11829451Y-10255912D01*
X11830589Y-10256541D01*
X11831732Y-10257161D01*
X11832883Y-10257767D01*
X11834036Y-10258362D01*
X11835198Y-10258946D01*
X11836367Y-10259518D01*
X11837539Y-10260079D01*
X11838717Y-10260629D01*
X11839902Y-10261166D01*
X11841090Y-10261690D01*
X11842286Y-10262203D01*
X11843484Y-10262704D01*
X11844688Y-10263193D01*
X11845897Y-10263672D01*
X11847112Y-10264135D01*
X11848332Y-10264590D01*
X11849554Y-10265029D01*
X11850782Y-10265458D01*
X11852012Y-10265873D01*
X11853247Y-10266278D01*
X11854488Y-10266670D01*
X11855732Y-10267048D01*
X11856978Y-10267416D01*
X11858230Y-10267768D01*
X11859484Y-10268109D01*
X11860741Y-10268440D01*
X11862003Y-10268755D01*
X11863267Y-10269059D01*
X11864535Y-10269350D01*
X11865805Y-10269628D01*
X11867077Y-10269895D01*
X11868350Y-10270146D01*
X11869628Y-10270387D01*
X11870908Y-10270615D01*
X11872192Y-10270829D01*
X11873475Y-10271030D01*
X11874761Y-10271221D01*
X11876049Y-10271395D01*
X11877338Y-10271559D01*
X11878632Y-10271710D01*
X11879923Y-10271845D01*
X11881217Y-10271969D01*
X11882513Y-10272083D01*
X11883810Y-10272181D01*
X11885106Y-10272266D01*
X11886405Y-10272337D01*
X11887701Y-10272398D01*
X11889001Y-10272446D01*
X11890303Y-10272477D01*
X11891601Y-10272498D01*
X11892901Y-10272506D01*
X11893004Y-10272506D01*
X13118636Y-10272506D01*
X13119932Y-10272498D01*
X13121255Y-10272480D01*
X13122552Y-10272448D01*
X13123848Y-10272403D01*
X13125144Y-10272342D01*
X13126441Y-10272271D01*
X13127737Y-10272189D01*
X13129034Y-10272091D01*
X13130330Y-10271980D01*
X13131627Y-10271856D01*
X13132923Y-10271721D01*
X13134220Y-10271570D01*
X13135490Y-10271408D01*
X13136786Y-10271234D01*
X13138083Y-10271046D01*
X13139353Y-10270845D01*
X13140649Y-10270633D01*
X13141919Y-10270406D01*
X13143189Y-10270168D01*
X13144486Y-10269913D01*
X13145755Y-10269649D01*
X13147026Y-10269374D01*
X13148295Y-10269083D01*
X13149539Y-10268781D01*
X13150809Y-10268464D01*
X13152079Y-10268136D01*
X13153323Y-10267797D01*
X13154566Y-10267442D01*
X13155810Y-10267077D01*
X13157053Y-10266699D01*
X13158297Y-10266310D01*
X13159540Y-10265908D01*
X13160784Y-10265492D01*
X13162001Y-10265064D01*
X13163218Y-10264624D01*
X13164435Y-10264172D01*
X13165652Y-10263709D01*
X13166869Y-10263233D01*
X13168060Y-10262743D01*
X13169277Y-10262243D01*
X13170468Y-10261733D01*
X13171658Y-10261209D01*
X13172849Y-10260672D01*
X13174013Y-10260124D01*
X13175204Y-10259563D01*
X13176368Y-10258992D01*
X13177532Y-10258409D01*
X13178670Y-10257814D01*
X13179834Y-10257208D01*
X13180972Y-10256592D01*
X13182109Y-10255962D01*
X13183247Y-10255322D01*
X13184358Y-10254671D01*
X13185496Y-10254009D01*
X13186607Y-10253335D01*
X13187692Y-10252649D01*
X13188803Y-10251954D01*
X13189888Y-10251247D01*
X13190973Y-10250527D01*
X13192058Y-10249800D01*
X13193116Y-10249059D01*
X13194174Y-10248310D01*
X13195233Y-10247548D01*
X13196291Y-10246778D01*
X13197323Y-10245998D01*
X13198355Y-10245204D01*
X13199386Y-10244402D01*
X13200392Y-10243590D01*
X13201398Y-10242767D01*
X13202403Y-10241936D01*
X13203382Y-10241092D01*
X13204361Y-10240240D01*
X13205340Y-10239378D01*
X13206292Y-10238507D01*
X13207271Y-10237626D01*
X13208197Y-10236735D01*
X13209150Y-10235835D01*
X13210076Y-10234925D01*
X13211002Y-10234007D01*
X13211901Y-10233078D01*
X13212801Y-10232142D01*
X13213701Y-10231194D01*
X13214574Y-10230239D01*
X13215447Y-10229276D01*
X13216320Y-10228302D01*
X13217167Y-10227324D01*
X13218013Y-10226334D01*
X13218833Y-10225337D01*
X13219654Y-10224328D01*
X13220474Y-10223315D01*
X13221294Y-10222294D01*
X13222061Y-10221262D01*
X13222855Y-10220225D01*
X13223622Y-10219180D01*
X13224390Y-10218124D01*
X13225131Y-10217063D01*
X13225871Y-10215994D01*
X13226612Y-10214920D01*
X13227327Y-10213835D01*
X13228041Y-10212745D01*
X13228729Y-10211647D01*
X13229417Y-10210544D01*
X13230105Y-10209432D01*
X13230766Y-10208316D01*
X13231401Y-10207191D01*
X13232063Y-10206059D01*
X13232671Y-10204921D01*
X13233306Y-10203778D01*
X13233915Y-10202630D01*
X13234497Y-10201474D01*
X13235079Y-10200312D01*
X13235661Y-10199145D01*
X13236217Y-10197971D01*
X13236772Y-10196793D01*
X13237301Y-10195611D01*
X13237831Y-10194420D01*
X13238333Y-10193227D01*
X13238836Y-10192025D01*
X13239339Y-10190822D01*
X13239815Y-10189612D01*
X13240265Y-10188398D01*
X13240741Y-10187181D01*
X13241164Y-10185956D01*
X13241588Y-10184728D01*
X13242011Y-10183498D01*
X13242408Y-10182262D01*
X13242805Y-10181021D01*
X13243175Y-10179778D01*
X13243546Y-10178532D01*
X13243916Y-10177280D01*
X13244260Y-10176026D01*
X13244577Y-10174769D01*
X13244895Y-10173507D01*
X13245186Y-10172243D01*
X13245477Y-10170978D01*
X13245768Y-10169708D01*
X13246033Y-10168435D01*
X13246297Y-10167160D01*
X13246535Y-10165882D01*
X13246747Y-10164601D01*
X13246959Y-10163321D01*
X13247170Y-10162035D01*
X13247355Y-10160749D01*
X13247541Y-10159461D01*
X13247700Y-10158172D01*
X13247858Y-10156881D01*
X13247991Y-10155587D01*
X13248123Y-10154293D01*
X13248229Y-10152997D01*
X13248308Y-10151703D01*
X13248414Y-10150404D01*
X13248467Y-10149107D01*
X13248546Y-10147808D01*
X13248573Y-10146509D01*
X13248625Y-10145210D01*
X13248625Y-10143908D01*
X13248652Y-10142609D01*
X13248652Y-10142506D01*
X13248652Y-9160005D01*
X13248652Y-9159902D01*
X13248652Y-9158603D01*
X13248679Y-9157304D01*
X13248705Y-9156002D01*
X13248758Y-9154703D01*
X13248811Y-9153406D01*
X13248890Y-9152107D01*
X13248969Y-9150811D01*
X13249075Y-9149514D01*
X13249181Y-9148218D01*
X13249313Y-9146924D01*
X13249446Y-9145633D01*
X13249604Y-9144342D01*
X13249763Y-9143050D01*
X13249922Y-9141762D01*
X13250134Y-9140476D01*
X13250319Y-9139193D01*
X13250531Y-9137910D01*
X13250769Y-9136629D01*
X13251007Y-9135354D01*
X13251245Y-9134078D01*
X13251536Y-9132806D01*
X13251801Y-9131536D01*
X13252092Y-9130268D01*
X13252409Y-9129004D01*
X13252700Y-9127744D01*
X13253044Y-9126485D01*
X13253388Y-9125231D01*
X13253732Y-9123979D01*
X13254102Y-9122733D01*
X13254473Y-9121490D01*
X13254870Y-9120249D01*
X13255267Y-9119013D01*
X13255690Y-9117783D01*
X13256113Y-9116555D01*
X13256563Y-9115333D01*
X13257013Y-9114113D01*
X13257489Y-9112899D01*
X13257965Y-9111689D01*
X13258442Y-9110486D01*
X13258944Y-9109287D01*
X13259473Y-9108091D01*
X13259976Y-9106903D01*
X13260532Y-9105718D01*
X13261061Y-9104540D01*
X13261643Y-9103368D01*
X13262199Y-9102199D01*
X13262781Y-9101037D01*
X13263389Y-9099884D01*
X13263998Y-9098733D01*
X13264607Y-9097590D01*
X13265241Y-9096452D01*
X13265876Y-9095322D01*
X13266538Y-9094198D01*
X13267199Y-9093079D01*
X13267861Y-9091967D01*
X13268549Y-9090864D01*
X13269263Y-9089766D01*
X13269951Y-9088676D01*
X13270692Y-9087593D01*
X13271406Y-9086517D01*
X13272147Y-9085448D01*
X13272914Y-9084387D01*
X13273655Y-9083334D01*
X13274422Y-9082288D01*
X13275216Y-9081249D01*
X13276010Y-9080219D01*
X13276804Y-9079197D01*
X13277624Y-9078183D01*
X13278444Y-9077176D01*
X13279291Y-9076179D01*
X13280137Y-9075189D01*
X13280984Y-9074208D01*
X13281831Y-9073236D01*
X13282704Y-9072272D01*
X13283604Y-9071317D01*
X13284477Y-9070371D01*
X13285376Y-9069434D01*
X13286302Y-9068506D01*
X13287228Y-9067587D01*
X13288154Y-9066678D01*
X13289080Y-9065777D01*
X13290033Y-9064886D01*
X13290985Y-9064005D01*
X13291964Y-9063133D01*
X13292917Y-9062271D01*
X13293896Y-9061419D01*
X13294901Y-9060576D01*
X13295907Y-9059744D01*
X13296912Y-9058921D01*
X13297917Y-9058109D01*
X13298949Y-9057307D01*
X13299981Y-9056515D01*
X13301013Y-9055734D01*
X13302045Y-9054962D01*
X13303103Y-9054202D01*
X13304161Y-9053452D01*
X13305246Y-9052712D01*
X13306331Y-9051984D01*
X13307389Y-9051266D01*
X13308501Y-9050559D01*
X13309585Y-9049863D01*
X13310697Y-9049178D01*
X13311808Y-9048504D01*
X13312919Y-9047841D01*
X13314057Y-9047190D01*
X13315195Y-9046549D01*
X13316332Y-9045920D01*
X13317470Y-9045303D01*
X13318608Y-9044697D01*
X13319772Y-9044102D01*
X13320936Y-9043519D01*
X13322100Y-9042948D01*
X13323264Y-9042388D01*
X13324455Y-9041840D01*
X13325646Y-9041304D01*
X13326836Y-9040780D01*
X13328027Y-9040268D01*
X13329218Y-9039768D01*
X13330435Y-9039280D01*
X13331625Y-9038804D01*
X13332842Y-9038340D01*
X13334060Y-9037888D01*
X13335303Y-9037448D01*
X13336520Y-9037021D01*
X13337764Y-9036605D01*
X13338981Y-9036203D01*
X13340224Y-9035812D01*
X13341468Y-9035434D01*
X13342711Y-9035069D01*
X13343981Y-9034716D01*
X13345225Y-9034375D01*
X13346495Y-9034047D01*
X13347738Y-9033732D01*
X13349009Y-9033429D01*
X13350279Y-9033139D01*
X13351548Y-9032862D01*
X13352819Y-9032597D01*
X13354088Y-9032345D01*
X13355359Y-9032106D01*
X13356655Y-9031880D01*
X13357925Y-9031666D01*
X13359221Y-9031466D01*
X13360518Y-9031278D01*
X13361788Y-9031103D01*
X13363084Y-9030941D01*
X13364381Y-9030792D01*
X13365677Y-9030655D01*
X13366974Y-9030532D01*
X13368244Y-9030422D01*
X13369540Y-9030324D01*
X13370863Y-9030240D01*
X13372160Y-9030168D01*
X13373456Y-9030110D01*
X13374752Y-9030064D01*
X13376049Y-9030032D01*
X13377346Y-9030013D01*
X13378642Y-9030006D01*
X16553165Y-9030006D01*
X16553271Y-9030006D01*
X16554567Y-9030014D01*
X16555864Y-9030034D01*
X16557161Y-9030068D01*
X16558457Y-9030114D01*
X16559753Y-9030174D01*
X16561050Y-9030246D01*
X16562346Y-9030332D01*
X16563643Y-9030430D01*
X16564939Y-9030541D01*
X16566236Y-9030666D01*
X16567532Y-9030803D01*
X16568829Y-9030953D01*
X16570125Y-9031116D01*
X16571395Y-9031292D01*
X16572692Y-9031481D01*
X16573962Y-9031683D01*
X16575258Y-9031897D01*
X16576528Y-9032125D01*
X16577798Y-9032365D01*
X16579094Y-9032618D01*
X16580365Y-9032884D01*
X16581635Y-9033162D01*
X16582904Y-9033453D01*
X16584148Y-9033757D01*
X16585418Y-9034073D01*
X16586688Y-9034402D01*
X16587932Y-9034744D01*
X16589175Y-9035098D01*
X16590419Y-9035464D01*
X16591663Y-9035843D01*
X16592905Y-9036234D01*
X16594149Y-9036638D01*
X16595393Y-9037054D01*
X16596610Y-9037483D01*
X16597827Y-9037923D01*
X16599044Y-9038376D01*
X16600261Y-9038841D01*
X16601479Y-9039318D01*
X16602669Y-9039807D01*
X16603886Y-9040309D01*
X16605077Y-9040822D01*
X16606268Y-9041347D01*
X16607458Y-9041884D01*
X16608622Y-9042432D01*
X16609786Y-9042993D01*
X16610976Y-9043565D01*
X16612115Y-9044149D01*
X16613279Y-9044745D01*
X16614442Y-9045352D01*
X16615581Y-9045970D01*
X16616718Y-9046600D01*
X16617830Y-9047241D01*
X16618967Y-9047893D01*
X16620078Y-9048557D01*
X16621190Y-9049232D01*
X16622302Y-9049918D01*
X16623386Y-9050615D01*
X16624497Y-9051323D01*
X16625582Y-9052042D01*
X16626640Y-9052771D01*
X16627724Y-9053511D01*
X16628783Y-9054262D01*
X16629842Y-9055023D01*
X16630873Y-9055795D01*
X16631905Y-9056578D01*
X16632937Y-9057370D01*
X16633969Y-9058173D01*
X16634975Y-9058987D01*
X16635980Y-9059810D01*
X16636985Y-9060643D01*
X16637965Y-9061487D01*
X16638944Y-9062340D01*
X16639922Y-9063202D01*
X16640901Y-9064075D01*
X16641854Y-9064957D01*
X16642780Y-9065849D01*
X16643732Y-9066750D01*
X16644658Y-9067660D01*
X16645584Y-9068580D01*
X16646484Y-9069508D01*
X16647384Y-9070446D01*
X16648283Y-9071393D01*
X16649156Y-9072349D01*
X16650029Y-9073313D01*
X16650903Y-9074286D01*
X16651749Y-9075268D01*
X16652596Y-9076258D01*
X16653416Y-9077256D01*
X16654236Y-9078263D01*
X16655056Y-9079278D01*
X16655850Y-9080301D01*
X16656644Y-9081332D01*
X16657437Y-9082371D01*
X16658205Y-9083417D01*
X16658972Y-9084471D01*
X16659713Y-9085533D01*
X16660454Y-9086602D01*
X16661169Y-9087679D01*
X16661910Y-9088763D01*
X16662597Y-9089853D01*
X16663311Y-9090951D01*
X16663999Y-9092057D01*
X16664661Y-9093169D01*
X16665322Y-9094288D01*
X16665984Y-9095412D01*
X16666618Y-9096542D01*
X16667254Y-9097680D01*
X16667862Y-9098825D01*
X16668471Y-9099974D01*
X16669053Y-9101130D01*
X16669635Y-9102294D01*
X16670217Y-9103461D01*
X16670773Y-9104633D01*
X16671329Y-9105813D01*
X16671857Y-9106998D01*
X16672386Y-9108186D01*
X16672889Y-9109382D01*
X16673393Y-9110581D01*
X16673895Y-9111787D01*
X16674371Y-9112996D01*
X16674821Y-9114211D01*
X16675271Y-9115431D01*
X16675720Y-9116653D01*
X16676144Y-9117881D01*
X16676567Y-9119114D01*
X16676964Y-9120349D01*
X16677361Y-9121587D01*
X16677731Y-9122831D01*
X16678101Y-9124080D01*
X16678445Y-9125331D01*
X16678790Y-9126585D01*
X16679107Y-9127842D01*
X16679424Y-9129104D01*
X16679742Y-9130369D01*
X16680033Y-9131636D01*
X16680298Y-9132906D01*
X16680563Y-9134179D01*
X16680827Y-9135454D01*
X16681065Y-9136732D01*
X16681277Y-9138013D01*
X16681489Y-9139293D01*
X16681700Y-9140579D01*
X16681886Y-9141865D01*
X16682070Y-9143154D01*
X16682230Y-9144442D01*
X16682362Y-9145736D01*
X16682520Y-9147027D01*
X16682626Y-9148321D01*
X16682732Y-9149617D01*
X16682838Y-9150914D01*
X16682917Y-9152210D01*
X16682996Y-9153509D01*
X16683049Y-9154809D01*
X16683102Y-9156108D01*
X16683129Y-9157407D01*
X16683155Y-9158706D01*
X16683155Y-9160005D01*
X16683155Y-9199063D01*
X16683155Y-9200362D01*
X16683182Y-9201664D01*
X16683208Y-9202963D01*
X16683261Y-9204262D01*
X16683314Y-9205561D01*
X16683393Y-9206857D01*
X16683472Y-9208156D01*
X16683579Y-9209450D01*
X16683685Y-9210747D01*
X16683817Y-9212041D01*
X16683949Y-9213334D01*
X16684081Y-9214626D01*
X16684267Y-9215914D01*
X16684425Y-9217203D01*
X16684611Y-9218488D01*
X16684822Y-9219774D01*
X16685033Y-9221058D01*
X16685246Y-9222336D01*
X16685510Y-9223613D01*
X16685748Y-9224889D01*
X16686012Y-9226161D01*
X16686304Y-9227431D01*
X16686568Y-9228699D01*
X16686886Y-9229963D01*
X16687203Y-9231226D01*
X16687521Y-9232482D01*
X16687865Y-9233736D01*
X16688209Y-9234988D01*
X16688579Y-9236237D01*
X16688976Y-9237480D01*
X16689346Y-9238721D01*
X16689770Y-9239957D01*
X16690167Y-9241187D01*
X16690590Y-9242415D01*
X16691040Y-9243640D01*
X16691489Y-9244860D01*
X16691966Y-9246074D01*
X16692442Y-9247283D01*
X16692918Y-9248487D01*
X16693421Y-9249688D01*
X16693923Y-9250881D01*
X16694453Y-9252072D01*
X16694982Y-9253255D01*
X16695538Y-9254435D01*
X16696093Y-9255607D01*
X16696675Y-9256776D01*
X16697257Y-9257938D01*
X16697839Y-9259094D01*
X16698448Y-9260245D01*
X16699083Y-9261388D01*
X16699692Y-9262526D01*
X16700353Y-9263658D01*
X16700988Y-9264783D01*
X16701650Y-9265899D01*
X16702338Y-9267013D01*
X16703025Y-9268116D01*
X16703713Y-9269214D01*
X16704427Y-9270304D01*
X16705142Y-9271389D01*
X16705856Y-9272466D01*
X16706597Y-9273535D01*
X16707365Y-9274596D01*
X16708106Y-9275652D01*
X16708872Y-9276697D01*
X16709666Y-9277737D01*
X16710460Y-9278769D01*
X16711254Y-9279790D01*
X16712074Y-9280806D01*
X16712894Y-9281811D01*
X16713741Y-9282811D01*
X16714561Y-9283801D01*
X16715434Y-9284782D01*
X16716281Y-9285756D01*
X16717154Y-9286719D01*
X16718028Y-9287674D01*
X16718927Y-9288622D01*
X16719827Y-9289561D01*
X16720726Y-9290490D01*
X16721652Y-9291408D01*
X16722578Y-9292318D01*
X16723531Y-9293220D01*
X16724457Y-9294112D01*
X16725436Y-9294993D01*
X16726388Y-9295866D01*
X16727367Y-9296728D01*
X16728346Y-9297583D01*
X16729325Y-9298424D01*
X16730331Y-9299258D01*
X16731335Y-9300081D01*
X16732341Y-9300896D01*
X16733373Y-9301697D01*
X16734405Y-9302491D01*
X16735436Y-9303274D01*
X16736495Y-9304044D01*
X16737528Y-9304806D01*
X16738612Y-9305558D01*
X16739670Y-9306298D01*
X16740755Y-9307026D01*
X16741840Y-9307746D01*
X16742925Y-9308455D01*
X16744009Y-9309151D01*
X16745121Y-9309836D01*
X16746232Y-9310511D01*
X16747343Y-9311175D01*
X16748481Y-9311828D01*
X16749592Y-9312468D01*
X16750729Y-9313098D01*
X16751894Y-9313717D01*
X16753032Y-9314323D01*
X16754195Y-9314919D01*
X16755360Y-9315503D01*
X16756524Y-9316075D01*
X16757688Y-9316636D01*
X16758879Y-9317186D01*
X16760043Y-9317723D01*
X16761234Y-9318247D01*
X16762451Y-9318760D01*
X16763641Y-9319260D01*
X16764832Y-9319750D01*
X16766049Y-9320229D01*
X16767266Y-9320692D01*
X16768483Y-9321147D01*
X16769701Y-9321586D01*
X16770944Y-9322015D01*
X16772161Y-9322430D01*
X16773405Y-9322835D01*
X16774648Y-9323226D01*
X16775892Y-9323605D01*
X16777135Y-9323970D01*
X16778378Y-9324324D01*
X16779649Y-9324666D01*
X16780892Y-9324997D01*
X16782163Y-9325311D01*
X16783432Y-9325616D01*
X16784676Y-9325907D01*
X16785946Y-9326184D01*
X16787242Y-9326452D01*
X16788513Y-9326703D01*
X16789782Y-9326944D01*
X16791052Y-9327171D01*
X16792349Y-9327386D01*
X16793619Y-9327587D01*
X16794915Y-9327777D01*
X16796212Y-9327952D01*
X16797482Y-9328116D01*
X16798779Y-9328267D01*
X16800075Y-9328402D01*
X16801371Y-9328526D01*
X16802667Y-9328640D01*
X16803964Y-9328738D01*
X16805261Y-9328822D01*
X16806557Y-9328894D01*
X16807853Y-9328955D01*
X16809150Y-9329002D01*
X16810446Y-9329034D01*
X16811743Y-9329055D01*
X16813065Y-9329063D01*
X16813145Y-9329063D01*
X17584009Y-9329063D01*
X17585305Y-9329055D01*
X17586601Y-9329037D01*
X17587898Y-9329005D01*
X17589195Y-9328960D01*
X17590491Y-9328899D01*
X17591787Y-9328828D01*
X17593083Y-9328743D01*
X17594380Y-9328648D01*
X17595677Y-9328537D01*
X17596973Y-9328412D01*
X17598270Y-9328277D01*
X17599566Y-9328127D01*
X17600862Y-9327965D01*
X17602133Y-9327791D01*
X17603430Y-9327603D01*
X17604725Y-9327402D01*
X17605995Y-9327190D01*
X17607266Y-9326962D01*
X17608562Y-9326724D01*
X17609832Y-9326470D01*
X17611102Y-9326206D01*
X17612372Y-9325930D01*
X17613641Y-9325639D01*
X17614912Y-9325338D01*
X17616155Y-9325020D01*
X17617426Y-9324692D01*
X17618669Y-9324354D01*
X17619939Y-9323999D01*
X17621182Y-9323634D01*
X17622426Y-9323256D01*
X17623670Y-9322867D01*
X17624887Y-9322464D01*
X17626131Y-9322049D01*
X17627347Y-9321620D01*
X17628591Y-9321181D01*
X17629807Y-9320729D01*
X17631025Y-9320266D01*
X17632215Y-9319789D01*
X17633433Y-9319300D01*
X17634623Y-9318800D01*
X17635814Y-9318289D01*
X17637004Y-9317765D01*
X17638195Y-9317228D01*
X17639385Y-9316681D01*
X17640550Y-9316120D01*
X17641714Y-9315548D01*
X17642879Y-9314966D01*
X17644043Y-9314371D01*
X17645181Y-9313765D01*
X17646318Y-9313148D01*
X17647456Y-9312519D01*
X17648593Y-9311878D01*
X17649732Y-9311228D01*
X17650842Y-9310564D01*
X17651953Y-9309891D01*
X17653064Y-9309206D01*
X17654150Y-9308510D01*
X17655234Y-9307804D01*
X17656320Y-9307084D01*
X17657404Y-9306357D01*
X17658489Y-9305616D01*
X17659548Y-9304867D01*
X17660579Y-9304105D01*
X17661637Y-9303335D01*
X17662669Y-9302555D01*
X17663701Y-9301761D01*
X17664732Y-9300959D01*
X17665738Y-9300147D01*
X17666744Y-9299324D01*
X17667749Y-9298493D01*
X17668728Y-9297649D01*
X17669734Y-9296797D01*
X17670686Y-9295935D01*
X17671665Y-9295064D01*
X17672617Y-9294183D01*
X17673570Y-9293292D01*
X17674497Y-9292392D01*
X17675422Y-9291482D01*
X17676348Y-9290564D01*
X17677247Y-9289635D01*
X17678148Y-9288698D01*
X17679048Y-9287751D01*
X17679946Y-9286796D01*
X17680820Y-9285833D01*
X17681667Y-9284859D01*
X17682513Y-9283880D01*
X17683360Y-9282891D01*
X17684206Y-9281893D01*
X17685026Y-9280885D01*
X17685847Y-9279872D01*
X17686640Y-9278851D01*
X17687434Y-9277819D01*
X17688201Y-9276781D01*
X17688995Y-9275736D01*
X17689736Y-9274681D01*
X17690503Y-9273620D01*
X17691245Y-9272551D01*
X17691958Y-9271477D01*
X17692700Y-9270392D01*
X17693388Y-9269302D01*
X17694102Y-9268204D01*
X17694790Y-9267100D01*
X17695451Y-9265989D01*
X17696112Y-9264870D01*
X17696774Y-9263748D01*
X17697409Y-9262616D01*
X17698044Y-9261478D01*
X17698653Y-9260335D01*
X17699261Y-9259187D01*
X17699870Y-9258030D01*
X17700452Y-9256869D01*
X17701007Y-9255702D01*
X17701589Y-9254527D01*
X17702118Y-9253350D01*
X17702673Y-9252167D01*
X17703177Y-9250977D01*
X17703706Y-9249783D01*
X17704209Y-9248582D01*
X17704685Y-9247378D01*
X17705161Y-9246169D01*
X17705638Y-9244955D01*
X17706088Y-9243738D01*
X17706538Y-9242513D01*
X17706960Y-9241285D01*
X17707384Y-9240055D01*
X17707781Y-9238819D01*
X17708177Y-9237578D01*
X17708548Y-9236335D01*
X17708919Y-9235088D01*
X17709262Y-9233837D01*
X17709606Y-9232583D01*
X17709924Y-9231326D01*
X17710241Y-9230064D01*
X17710558Y-9228799D01*
X17710850Y-9227535D01*
X17711114Y-9226265D01*
X17711379Y-9224992D01*
X17711643Y-9223717D01*
X17711882Y-9222439D01*
X17712120Y-9221158D01*
X17712332Y-9219875D01*
X17712516Y-9218592D01*
X17712728Y-9217306D01*
X17712887Y-9216017D01*
X17713046Y-9214729D01*
X17713204Y-9213438D01*
X17713337Y-9212144D01*
X17713469Y-9210850D01*
X17713575Y-9209554D01*
X17713681Y-9208260D01*
X17713760Y-9206961D01*
X17713840Y-9205664D01*
X17713893Y-9204365D01*
X17713946Y-9203066D01*
X17713972Y-9201767D01*
X17713999Y-9200465D01*
X17713999Y-9199166D01*
X17713999Y-9199063D01*
X17713999Y-9129205D01*
X17713999Y-9129102D01*
X17713999Y-9127803D01*
X17714024Y-9126503D01*
X17714051Y-9125204D01*
X17714104Y-9123905D01*
X17714184Y-9122606D01*
X17714237Y-9121307D01*
X17714315Y-9120011D01*
X17714421Y-9118714D01*
X17714528Y-9117418D01*
X17714659Y-9116124D01*
X17714792Y-9114833D01*
X17714951Y-9113542D01*
X17715109Y-9112250D01*
X17715295Y-9110962D01*
X17715480Y-9109676D01*
X17715692Y-9108393D01*
X17715903Y-9107109D01*
X17716115Y-9105832D01*
X17716354Y-9104554D01*
X17716618Y-9103278D01*
X17716882Y-9102006D01*
X17717147Y-9100736D01*
X17717438Y-9099468D01*
X17717755Y-9098204D01*
X17718073Y-9096944D01*
X17718391Y-9095685D01*
X17718735Y-9094431D01*
X17719104Y-9093179D01*
X17719448Y-9091933D01*
X17719846Y-9090689D01*
X17720242Y-9089449D01*
X17720639Y-9088214D01*
X17721063Y-9086983D01*
X17721487Y-9085755D01*
X17721909Y-9084532D01*
X17722386Y-9083313D01*
X17722836Y-9082099D01*
X17723312Y-9080890D01*
X17723815Y-9079686D01*
X17724317Y-9078486D01*
X17724819Y-9077292D01*
X17725350Y-9076103D01*
X17725878Y-9074919D01*
X17726434Y-9073740D01*
X17726989Y-9072567D01*
X17727571Y-9071400D01*
X17728153Y-9070238D01*
X17728735Y-9069083D01*
X17729344Y-9067933D01*
X17729979Y-9066790D01*
X17730588Y-9065653D01*
X17731249Y-9064522D01*
X17731884Y-9063397D01*
X17732546Y-9062280D01*
X17733234Y-9061169D01*
X17733922Y-9060064D01*
X17734609Y-9058967D01*
X17735323Y-9057876D01*
X17736038Y-9056793D01*
X17736778Y-9055717D01*
X17737520Y-9054648D01*
X17738260Y-9053587D01*
X17739028Y-9052534D01*
X17739795Y-9051488D01*
X17740563Y-9050449D01*
X17741356Y-9049419D01*
X17742176Y-9048397D01*
X17742997Y-9047382D01*
X17743817Y-9046376D01*
X17744637Y-9045379D01*
X17745484Y-9044389D01*
X17746330Y-9043408D01*
X17747203Y-9042436D01*
X17748076Y-9041472D01*
X17748950Y-9040517D01*
X17749850Y-9039571D01*
X17750749Y-9038634D01*
X17751649Y-9037706D01*
X17752574Y-9036787D01*
X17753501Y-9035878D01*
X17754453Y-9034977D01*
X17755379Y-9034087D01*
X17756358Y-9033205D01*
X17757311Y-9032333D01*
X17758289Y-9031471D01*
X17759268Y-9030619D01*
X17760248Y-9029777D01*
X17761253Y-9028944D01*
X17762258Y-9028122D01*
X17763264Y-9027309D01*
X17764295Y-9026507D01*
X17765328Y-9025715D01*
X17766359Y-9024934D01*
X17767418Y-9024162D01*
X17768476Y-9023402D01*
X17769534Y-9022652D01*
X17770593Y-9021912D01*
X17771678Y-9021184D01*
X17772762Y-9020466D01*
X17773847Y-9019759D01*
X17774959Y-9019063D01*
X17776043Y-9018378D01*
X17777154Y-9017704D01*
X17778291Y-9017041D01*
X17779404Y-9016389D01*
X17780541Y-9015749D01*
X17781679Y-9015120D01*
X17782816Y-9014503D01*
X17783981Y-9013897D01*
X17785119Y-9013302D01*
X17786282Y-9012719D01*
X17787447Y-9012148D01*
X17788638Y-9011588D01*
X17789802Y-9011041D01*
X17790992Y-9010505D01*
X17792183Y-9009980D01*
X17793373Y-9009468D01*
X17794591Y-9008968D01*
X17795781Y-9008480D01*
X17796998Y-9008003D01*
X17798216Y-9007539D01*
X17799433Y-9007087D01*
X17800649Y-9006648D01*
X17801867Y-9006220D01*
X17803110Y-9005806D01*
X17804353Y-9005403D01*
X17805597Y-9005012D01*
X17806841Y-9004634D01*
X17808084Y-9004269D01*
X17809328Y-9003916D01*
X17810571Y-9003575D01*
X17811841Y-9003247D01*
X17813111Y-9002932D01*
X17814355Y-9002630D01*
X17815624Y-9002339D01*
X17816895Y-9002062D01*
X17818165Y-9001797D01*
X17819461Y-9001546D01*
X17820731Y-9001306D01*
X17822001Y-9001080D01*
X17823298Y-9000867D01*
X17824568Y-9000666D01*
X17825864Y-9000478D01*
X17827161Y-9000303D01*
X17828431Y-9000141D01*
X17829727Y-8999992D01*
X17831024Y-8999856D01*
X17832321Y-8999732D01*
X17833616Y-8999622D01*
X17834913Y-8999524D01*
X17836210Y-8999440D01*
X17837505Y-8999369D01*
X17838802Y-8999310D01*
X17840099Y-8999265D01*
X17841395Y-8999232D01*
X17842692Y-8999212D01*
X17844014Y-8999206D01*
X18759976Y-8999206D01*
X18760082Y-8999206D01*
X18761378Y-8999214D01*
D12*
D10*
X14169086Y-9455134D02*
X14189086Y-9475134D01*
X14189086Y-9455134D02*
X14169086Y-9475134D01*
X14240000Y-10250000D02*
X14260000Y-10270000D01*
X14260000Y-10250000D02*
X14240000Y-10270000D01*
X14248255Y-10947814D02*
X14268255Y-10967814D01*
X14268255Y-10947814D02*
X14248255Y-10967814D01*
X14315000Y-10685000D02*
X14335000Y-10705000D01*
X14335000Y-10685000D02*
X14315000Y-10705000D01*
X14320000Y-10220000D02*
X14340000Y-10240000D01*
X14340000Y-10220000D02*
X14320000Y-10240000D01*
X14320000Y-10930000D02*
X14340000Y-10950000D01*
X14340000Y-10930000D02*
X14320000Y-10950000D01*
X14380000Y-11570000D02*
X14400000Y-11590000D01*
X14400000Y-11570000D02*
X14380000Y-11590000D01*
X14380000Y-11920000D02*
X14400000Y-11940000D01*
X14400000Y-11920000D02*
X14380000Y-11940000D01*
X14390000Y-9170000D02*
X14410000Y-9190000D01*
X14410000Y-9170000D02*
X14390000Y-9190000D01*
X14430000Y-10810000D02*
X14450000Y-10830000D01*
X14450000Y-10810000D02*
X14430000Y-10830000D01*
X14446771Y-9515389D02*
X14466771Y-9535389D01*
X14466771Y-9515389D02*
X14446771Y-9535389D01*
X14555000Y-10005000D02*
X14575000Y-10025000D01*
X14575000Y-10005000D02*
X14555000Y-10025000D01*
X14650000Y-10030000D02*
X14670000Y-10050000D01*
X14670000Y-10030000D02*
X14650000Y-10050000D01*
X14750000Y-9200000D02*
X14770000Y-9220000D01*
X14770000Y-9200000D02*
X14750000Y-9220000D01*
X14812887Y-9425875D02*
X14832887Y-9445875D01*
X14832887Y-9425875D02*
X14812887Y-9445875D01*
X10720000Y-11520000D02*
G75*
G02*
X10680000Y-11520000I-20000J0D01*
G01*
X10680000Y-11520000D02*
G75*
G02*
X10720000Y-11520000I20000J0D01*
G01*
X10720000Y-11610000D02*
G75*
G02*
X10680000Y-11610000I-20000J0D01*
G01*
X10680000Y-11610000D02*
G75*
G02*
X10720000Y-11610000I20000J0D01*
G01*
X10850000Y-11350000D02*
G75*
G02*
X10810000Y-11350000I-20000J0D01*
G01*
X10810000Y-11350000D02*
G75*
G02*
X10850000Y-11350000I20000J0D01*
G01*
X10880000Y-11910000D02*
G75*
G02*
X10840000Y-11910000I-20000J0D01*
G01*
X10840000Y-11910000D02*
G75*
G02*
X10880000Y-11910000I20000J0D01*
G01*
X10880000Y-12000000D02*
G75*
G02*
X10840000Y-12000000I-20000J0D01*
G01*
X10840000Y-12000000D02*
G75*
G02*
X10880000Y-12000000I20000J0D01*
G01*
X10880000Y-12090000D02*
G75*
G02*
X10840000Y-12090000I-20000J0D01*
G01*
X10840000Y-12090000D02*
G75*
G02*
X10880000Y-12090000I20000J0D01*
G01*
X10970000Y-10640000D02*
G75*
G02*
X10930000Y-10640000I-20000J0D01*
G01*
X10930000Y-10640000D02*
G75*
G02*
X10970000Y-10640000I20000J0D01*
G01*
X10970000Y-11350000D02*
G75*
G02*
X10930000Y-11350000I-20000J0D01*
G01*
X10930000Y-11350000D02*
G75*
G02*
X10970000Y-11350000I20000J0D01*
G01*
X10978543Y-11837086D02*
G75*
G02*
X10938543Y-11837086I-20000J0D01*
G01*
X10938543Y-11837086D02*
G75*
G02*
X10978543Y-11837086I20000J0D01*
G01*
X10980000Y-9883500D02*
G75*
G02*
X10940000Y-9883500I-20000J0D01*
G01*
X10940000Y-9883500D02*
G75*
G02*
X10980000Y-9883500I20000J0D01*
G01*
X11020000Y-11920000D02*
G75*
G02*
X10980000Y-11920000I-20000J0D01*
G01*
X10980000Y-11920000D02*
G75*
G02*
X11020000Y-11920000I20000J0D01*
G01*
X11030000Y-10700000D02*
G75*
G02*
X10990000Y-10700000I-20000J0D01*
G01*
X10990000Y-10700000D02*
G75*
G02*
X11030000Y-10700000I20000J0D01*
G01*
X11100000Y-10879400D02*
G75*
G02*
X11060000Y-10879400I-20000J0D01*
G01*
X11060000Y-10879400D02*
G75*
G02*
X11100000Y-10879400I20000J0D01*
G01*
X11150000Y-9470000D02*
G75*
G02*
X11110000Y-9470000I-20000J0D01*
G01*
X11110000Y-9470000D02*
G75*
G02*
X11150000Y-9470000I20000J0D01*
G01*
X11160000Y-11860000D02*
G75*
G02*
X11120000Y-11860000I-20000J0D01*
G01*
X11120000Y-11860000D02*
G75*
G02*
X11160000Y-11860000I20000J0D01*
G01*
X11170250Y-9590000D02*
G75*
G02*
X11130250Y-9590000I-20000J0D01*
G01*
X11130250Y-9590000D02*
G75*
G02*
X11170250Y-9590000I20000J0D01*
G01*
X11200000Y-10950000D02*
G75*
G02*
X11160000Y-10950000I-20000J0D01*
G01*
X11160000Y-10950000D02*
G75*
G02*
X11200000Y-10950000I20000J0D01*
G01*
X11250000Y-11330000D02*
G75*
G02*
X11210000Y-11330000I-20000J0D01*
G01*
X11210000Y-11330000D02*
G75*
G02*
X11250000Y-11330000I20000J0D01*
G01*
X11290000Y-9380000D02*
G75*
G02*
X11250000Y-9380000I-20000J0D01*
G01*
X11250000Y-9380000D02*
G75*
G02*
X11290000Y-9380000I20000J0D01*
G01*
X11340000Y-9820000D02*
G75*
G02*
X11300000Y-9820000I-20000J0D01*
G01*
X11300000Y-9820000D02*
G75*
G02*
X11340000Y-9820000I20000J0D01*
G01*
X11348000Y-11850000D02*
G75*
G02*
X11308000Y-11850000I-20000J0D01*
G01*
X11308000Y-11850000D02*
G75*
G02*
X11348000Y-11850000I20000J0D01*
G01*
X11450000Y-11350000D02*
G75*
G02*
X11410000Y-11350000I-20000J0D01*
G01*
X11410000Y-11350000D02*
G75*
G02*
X11450000Y-11350000I20000J0D01*
G01*
X11530000Y-11860000D02*
G75*
G02*
X11490000Y-11860000I-20000J0D01*
G01*
X11490000Y-11860000D02*
G75*
G02*
X11530000Y-11860000I20000J0D01*
G01*
X11600000Y-10650000D02*
G75*
G02*
X11560000Y-10650000I-20000J0D01*
G01*
X11560000Y-10650000D02*
G75*
G02*
X11600000Y-10650000I20000J0D01*
G01*
X11600000Y-10770000D02*
G75*
G02*
X11560000Y-10770000I-20000J0D01*
G01*
X11560000Y-10770000D02*
G75*
G02*
X11600000Y-10770000I20000J0D01*
G01*
X11640000Y-9420000D02*
G75*
G02*
X11600000Y-9420000I-20000J0D01*
G01*
X11600000Y-9420000D02*
G75*
G02*
X11640000Y-9420000I20000J0D01*
G01*
X11650000Y-9730000D02*
G75*
G02*
X11610000Y-9730000I-20000J0D01*
G01*
X11610000Y-9730000D02*
G75*
G02*
X11650000Y-9730000I20000J0D01*
G01*
X13390000Y-12140000D02*
G75*
G02*
X13350000Y-12140000I-20000J0D01*
G01*
X13350000Y-12140000D02*
G75*
G02*
X13390000Y-12140000I20000J0D01*
G01*
X13410000Y-9810000D02*
G75*
G02*
X13370000Y-9810000I-20000J0D01*
G01*
X13370000Y-9810000D02*
G75*
G02*
X13410000Y-9810000I20000J0D01*
G01*
X13410000Y-10130000D02*
G75*
G02*
X13370000Y-10130000I-20000J0D01*
G01*
X13370000Y-10130000D02*
G75*
G02*
X13410000Y-10130000I20000J0D01*
G01*
X13430000Y-9530000D02*
G75*
G02*
X13390000Y-9530000I-20000J0D01*
G01*
X13390000Y-9530000D02*
G75*
G02*
X13430000Y-9530000I20000J0D01*
G01*
X13430932Y-9445425D02*
G75*
G02*
X13390932Y-9445425I-20000J0D01*
G01*
X13390932Y-9445425D02*
G75*
G02*
X13430932Y-9445425I20000J0D01*
G01*
X13460000Y-11510000D02*
G75*
G02*
X13420000Y-11510000I-20000J0D01*
G01*
X13420000Y-11510000D02*
G75*
G02*
X13460000Y-11510000I20000J0D01*
G01*
X13470000Y-9110000D02*
G75*
G02*
X13430000Y-9110000I-20000J0D01*
G01*
X13430000Y-9110000D02*
G75*
G02*
X13470000Y-9110000I20000J0D01*
G01*
X13520000Y-10160000D02*
G75*
G02*
X13480000Y-10160000I-20000J0D01*
G01*
X13480000Y-10160000D02*
G75*
G02*
X13520000Y-10160000I20000J0D01*
G01*
X13530000Y-11910000D02*
G75*
G02*
X13490000Y-11910000I-20000J0D01*
G01*
X13490000Y-11910000D02*
G75*
G02*
X13530000Y-11910000I20000J0D01*
G01*
X13550000Y-9830000D02*
G75*
G02*
X13510000Y-9830000I-20000J0D01*
G01*
X13510000Y-9830000D02*
G75*
G02*
X13550000Y-9830000I20000J0D01*
G01*
X13551386Y-11001386D02*
G75*
G02*
X13511386Y-11001386I-20000J0D01*
G01*
X13511386Y-11001386D02*
G75*
G02*
X13551386Y-11001386I20000J0D01*
G01*
X13560000Y-9110000D02*
G75*
G02*
X13520000Y-9110000I-20000J0D01*
G01*
X13520000Y-9110000D02*
G75*
G02*
X13560000Y-9110000I20000J0D01*
G01*
X13560000Y-11510000D02*
G75*
G02*
X13520000Y-11510000I-20000J0D01*
G01*
X13520000Y-11510000D02*
G75*
G02*
X13560000Y-11510000I20000J0D01*
G01*
X13570000Y-11330000D02*
G75*
G02*
X13530000Y-11330000I-20000J0D01*
G01*
X13530000Y-11330000D02*
G75*
G02*
X13570000Y-11330000I20000J0D01*
G01*
X13610000Y-11770000D02*
G75*
G02*
X13570000Y-11770000I-20000J0D01*
G01*
X13570000Y-11770000D02*
G75*
G02*
X13610000Y-11770000I20000J0D01*
G01*
X13612197Y-11086895D02*
G75*
G02*
X13572197Y-11086895I-20000J0D01*
G01*
X13572197Y-11086895D02*
G75*
G02*
X13612197Y-11086895I20000J0D01*
G01*
X13630000Y-9870000D02*
G75*
G02*
X13590000Y-9870000I-20000J0D01*
G01*
X13590000Y-9870000D02*
G75*
G02*
X13630000Y-9870000I20000J0D01*
G01*
X13650000Y-9110000D02*
G75*
G02*
X13610000Y-9110000I-20000J0D01*
G01*
X13610000Y-9110000D02*
G75*
G02*
X13650000Y-9110000I20000J0D01*
G01*
X13660000Y-10460000D02*
G75*
G02*
X13620000Y-10460000I-20000J0D01*
G01*
X13620000Y-10460000D02*
G75*
G02*
X13660000Y-10460000I20000J0D01*
G01*
X13660000Y-11250000D02*
G75*
G02*
X13620000Y-11250000I-20000J0D01*
G01*
X13620000Y-11250000D02*
G75*
G02*
X13660000Y-11250000I20000J0D01*
G01*
X13680000Y-10690000D02*
G75*
G02*
X13640000Y-10690000I-20000J0D01*
G01*
X13640000Y-10690000D02*
G75*
G02*
X13680000Y-10690000I20000J0D01*
G01*
X13680000Y-10780000D02*
G75*
G02*
X13640000Y-10780000I-20000J0D01*
G01*
X13640000Y-10780000D02*
G75*
G02*
X13680000Y-10780000I20000J0D01*
G01*
X13740000Y-9110000D02*
G75*
G02*
X13700000Y-9110000I-20000J0D01*
G01*
X13700000Y-9110000D02*
G75*
G02*
X13740000Y-9110000I20000J0D01*
G01*
X13762375Y-9803812D02*
G75*
G02*
X13722375Y-9803812I-20000J0D01*
G01*
X13722375Y-9803812D02*
G75*
G02*
X13762375Y-9803812I20000J0D01*
G01*
X13800000Y-12190000D02*
G75*
G02*
X13760000Y-12190000I-20000J0D01*
G01*
X13760000Y-12190000D02*
G75*
G02*
X13800000Y-12190000I20000J0D01*
G01*
X13830000Y-9110000D02*
G75*
G02*
X13790000Y-9110000I-20000J0D01*
G01*
X13790000Y-9110000D02*
G75*
G02*
X13830000Y-9110000I20000J0D01*
G01*
X13860000Y-11170000D02*
G75*
G02*
X13820000Y-11170000I-20000J0D01*
G01*
X13820000Y-11170000D02*
G75*
G02*
X13860000Y-11170000I20000J0D01*
G01*
X13890000Y-9770000D02*
G75*
G02*
X13850000Y-9770000I-20000J0D01*
G01*
X13850000Y-9770000D02*
G75*
G02*
X13890000Y-9770000I20000J0D01*
G01*
X13910000Y-11770000D02*
G75*
G02*
X13870000Y-11770000I-20000J0D01*
G01*
X13870000Y-11770000D02*
G75*
G02*
X13910000Y-11770000I20000J0D01*
G01*
X13930000Y-9110000D02*
G75*
G02*
X13890000Y-9110000I-20000J0D01*
G01*
X13890000Y-9110000D02*
G75*
G02*
X13930000Y-9110000I20000J0D01*
G01*
X13960000Y-9410000D02*
G75*
G02*
X13920000Y-9410000I-20000J0D01*
G01*
X13920000Y-9410000D02*
G75*
G02*
X13960000Y-9410000I20000J0D01*
G01*
X14010000Y-10960000D02*
G75*
G02*
X13970000Y-10960000I-20000J0D01*
G01*
X13970000Y-10960000D02*
G75*
G02*
X14010000Y-10960000I20000J0D01*
G01*
X14029000Y-10480000D02*
G75*
G02*
X13989000Y-10480000I-20000J0D01*
G01*
X13989000Y-10480000D02*
G75*
G02*
X14029000Y-10480000I20000J0D01*
G01*
X14030000Y-9110000D02*
G75*
G02*
X13990000Y-9110000I-20000J0D01*
G01*
X13990000Y-9110000D02*
G75*
G02*
X14030000Y-9110000I20000J0D01*
G01*
X14030000Y-10370000D02*
G75*
G02*
X13990000Y-10370000I-20000J0D01*
G01*
X13990000Y-10370000D02*
G75*
G02*
X14030000Y-10370000I20000J0D01*
G01*
X14030000Y-11700000D02*
G75*
G02*
X13990000Y-11700000I-20000J0D01*
G01*
X13990000Y-11700000D02*
G75*
G02*
X14030000Y-11700000I20000J0D01*
G01*
X14048834Y-9949859D02*
G75*
G02*
X14008834Y-9949859I-20000J0D01*
G01*
X14008834Y-9949859D02*
G75*
G02*
X14048834Y-9949859I20000J0D01*
G01*
X14050000Y-9850000D02*
G75*
G02*
X14010000Y-9850000I-20000J0D01*
G01*
X14010000Y-9850000D02*
G75*
G02*
X14050000Y-9850000I20000J0D01*
G01*
X14079345Y-10960000D02*
G75*
G02*
X14039345Y-10960000I-20000J0D01*
G01*
X14039345Y-10960000D02*
G75*
G02*
X14079345Y-10960000I20000J0D01*
G01*
X14100000Y-10540000D02*
G75*
G02*
X14060000Y-10540000I-20000J0D01*
G01*
X14060000Y-10540000D02*
G75*
G02*
X14100000Y-10540000I20000J0D01*
G01*
X14130000Y-9340000D02*
G75*
G02*
X14090000Y-9340000I-20000J0D01*
G01*
X14090000Y-9340000D02*
G75*
G02*
X14130000Y-9340000I20000J0D01*
G01*
X14130000Y-9420000D02*
G75*
G02*
X14090000Y-9420000I-20000J0D01*
G01*
X14090000Y-9420000D02*
G75*
G02*
X14130000Y-9420000I20000J0D01*
G01*
X14152854Y-11027146D02*
G75*
G02*
X14112854Y-11027146I-20000J0D01*
G01*
X14112854Y-11027146D02*
G75*
G02*
X14152854Y-11027146I20000J0D01*
G01*
X14180000Y-10120000D02*
G75*
G02*
X14140000Y-10120000I-20000J0D01*
G01*
X14140000Y-10120000D02*
G75*
G02*
X14180000Y-10120000I20000J0D01*
G01*
X14180000Y-11410000D02*
G75*
G02*
X14140000Y-11410000I-20000J0D01*
G01*
X14140000Y-11410000D02*
G75*
G02*
X14180000Y-11410000I20000J0D01*
G01*
X14180000Y-11730000D02*
G75*
G02*
X14140000Y-11730000I-20000J0D01*
G01*
X14140000Y-11730000D02*
G75*
G02*
X14180000Y-11730000I20000J0D01*
G01*
X14200000Y-10900000D02*
G75*
G02*
X14160000Y-10900000I-20000J0D01*
G01*
X14160000Y-10900000D02*
G75*
G02*
X14200000Y-10900000I20000J0D01*
G01*
X14220000Y-11080000D02*
G75*
G02*
X14180000Y-11080000I-20000J0D01*
G01*
X14180000Y-11080000D02*
G75*
G02*
X14220000Y-11080000I20000J0D01*
G01*
X14253456Y-9663482D02*
G75*
G02*
X14213456Y-9663482I-20000J0D01*
G01*
X14213456Y-9663482D02*
G75*
G02*
X14253456Y-9663482I20000J0D01*
G01*
X14255726Y-10032602D02*
G75*
G02*
X14215726Y-10032602I-20000J0D01*
G01*
X14215726Y-10032602D02*
G75*
G02*
X14255726Y-10032602I20000J0D01*
G01*
X14256760Y-9933907D02*
G75*
G02*
X14216760Y-9933907I-20000J0D01*
G01*
X14216760Y-9933907D02*
G75*
G02*
X14256760Y-9933907I20000J0D01*
G01*
X14259975Y-9097606D02*
G75*
G02*
X14219975Y-9097606I-20000J0D01*
G01*
X14219975Y-9097606D02*
G75*
G02*
X14259975Y-9097606I20000J0D01*
G01*
X14260000Y-9340000D02*
G75*
G02*
X14220000Y-9340000I-20000J0D01*
G01*
X14220000Y-9340000D02*
G75*
G02*
X14260000Y-9340000I20000J0D01*
G01*
X14340000Y-10310000D02*
G75*
G02*
X14300000Y-10310000I-20000J0D01*
G01*
X14300000Y-10310000D02*
G75*
G02*
X14340000Y-10310000I20000J0D01*
G01*
X14360000Y-9910000D02*
G75*
G02*
X14320000Y-9910000I-20000J0D01*
G01*
X14320000Y-9910000D02*
G75*
G02*
X14360000Y-9910000I20000J0D01*
G01*
X14360000Y-10030000D02*
G75*
G02*
X14320000Y-10030000I-20000J0D01*
G01*
X14320000Y-10030000D02*
G75*
G02*
X14360000Y-10030000I20000J0D01*
G01*
X14420000Y-9850000D02*
G75*
G02*
X14380000Y-9850000I-20000J0D01*
G01*
X14380000Y-9850000D02*
G75*
G02*
X14420000Y-9850000I20000J0D01*
G01*
X14474382Y-9784239D02*
G75*
G02*
X14434382Y-9784239I-20000J0D01*
G01*
X14434382Y-9784239D02*
G75*
G02*
X14474382Y-9784239I20000J0D01*
G01*
X14488146Y-10036832D02*
G75*
G02*
X14448146Y-10036832I-20000J0D01*
G01*
X14448146Y-10036832D02*
G75*
G02*
X14488146Y-10036832I20000J0D01*
G01*
X14510000Y-10960000D02*
G75*
G02*
X14470000Y-10960000I-20000J0D01*
G01*
X14470000Y-10960000D02*
G75*
G02*
X14510000Y-10960000I20000J0D01*
G01*
X14538600Y-10300000D02*
G75*
G02*
X14498600Y-10300000I-20000J0D01*
G01*
X14498600Y-10300000D02*
G75*
G02*
X14538600Y-10300000I20000J0D01*
G01*
X14760000Y-9530000D02*
G75*
G02*
X14720000Y-9530000I-20000J0D01*
G01*
X14720000Y-9530000D02*
G75*
G02*
X14760000Y-9530000I20000J0D01*
G01*
X14764381Y-9630000D02*
G75*
G02*
X14724381Y-9630000I-20000J0D01*
G01*
X14724381Y-9630000D02*
G75*
G02*
X14764381Y-9630000I20000J0D01*
G01*
X14764381Y-9722700D02*
G75*
G02*
X14724381Y-9722700I-20000J0D01*
G01*
X14724381Y-9722700D02*
G75*
G02*
X14764381Y-9722700I20000J0D01*
G01*
X14780000Y-10880000D02*
G75*
G02*
X14740000Y-10880000I-20000J0D01*
G01*
X14740000Y-10880000D02*
G75*
G02*
X14780000Y-10880000I20000J0D01*
G01*
X14790000Y-11120000D02*
G75*
G02*
X14750000Y-11120000I-20000J0D01*
G01*
X14750000Y-11120000D02*
G75*
G02*
X14790000Y-11120000I20000J0D01*
G01*
X14790000Y-11220000D02*
G75*
G02*
X14750000Y-11220000I-20000J0D01*
G01*
X14750000Y-11220000D02*
G75*
G02*
X14790000Y-11220000I20000J0D01*
G01*
X14790000Y-11310000D02*
G75*
G02*
X14750000Y-11310000I-20000J0D01*
G01*
X14750000Y-11310000D02*
G75*
G02*
X14790000Y-11310000I20000J0D01*
G01*
X14840000Y-10950000D02*
G75*
G02*
X14800000Y-10950000I-20000J0D01*
G01*
X14800000Y-10950000D02*
G75*
G02*
X14840000Y-10950000I20000J0D01*
G01*
X14860000Y-11820000D02*
G75*
G02*
X14820000Y-11820000I-20000J0D01*
G01*
X14820000Y-11820000D02*
G75*
G02*
X14860000Y-11820000I20000J0D01*
G01*
X14870000Y-9310000D02*
G75*
G02*
X14830000Y-9310000I-20000J0D01*
G01*
X14830000Y-9310000D02*
G75*
G02*
X14870000Y-9310000I20000J0D01*
G01*
X14909750Y-10520000D02*
G75*
G02*
X14869750Y-10520000I-20000J0D01*
G01*
X14869750Y-10520000D02*
G75*
G02*
X14909750Y-10520000I20000J0D01*
G01*
X14910000Y-10750000D02*
G75*
G02*
X14870000Y-10750000I-20000J0D01*
G01*
X14870000Y-10750000D02*
G75*
G02*
X14910000Y-10750000I20000J0D01*
G01*
X14942598Y-9612598D02*
G75*
G02*
X14902598Y-9612598I-20000J0D01*
G01*
X14902598Y-9612598D02*
G75*
G02*
X14942598Y-9612598I20000J0D01*
G01*
X14942980Y-9517900D02*
G75*
G02*
X14902980Y-9517900I-20000J0D01*
G01*
X14902980Y-9517900D02*
G75*
G02*
X14942980Y-9517900I20000J0D01*
G01*
X14958431Y-9162639D02*
G75*
G02*
X14918431Y-9162639I-20000J0D01*
G01*
X14918431Y-9162639D02*
G75*
G02*
X14958431Y-9162639I20000J0D01*
G01*
X14960000Y-9080000D02*
G75*
G02*
X14920000Y-9080000I-20000J0D01*
G01*
X14920000Y-9080000D02*
G75*
G02*
X14960000Y-9080000I20000J0D01*
G01*
X14960000Y-11420000D02*
G75*
G02*
X14920000Y-11420000I-20000J0D01*
G01*
X14920000Y-11420000D02*
G75*
G02*
X14960000Y-11420000I20000J0D01*
G01*
X14981989Y-11510055D02*
G75*
G02*
X14941989Y-11510055I-20000J0D01*
G01*
X14941989Y-11510055D02*
G75*
G02*
X14981989Y-11510055I20000J0D01*
G01*
X15039488Y-11582767D02*
G75*
G02*
X14999488Y-11582767I-20000J0D01*
G01*
X14999488Y-11582767D02*
G75*
G02*
X15039488Y-11582767I20000J0D01*
G01*
X15058829Y-11416509D02*
G75*
G02*
X15018829Y-11416509I-20000J0D01*
G01*
X15018829Y-11416509D02*
G75*
G02*
X15058829Y-11416509I20000J0D01*
G01*
X15070000Y-9080000D02*
G75*
G02*
X15030000Y-9080000I-20000J0D01*
G01*
X15030000Y-9080000D02*
G75*
G02*
X15070000Y-9080000I20000J0D01*
G01*
X15070000Y-9151400D02*
G75*
G02*
X15030000Y-9151400I-20000J0D01*
G01*
X15030000Y-9151400D02*
G75*
G02*
X15070000Y-9151400I20000J0D01*
G01*
X15110000Y-10740000D02*
G75*
G02*
X15070000Y-10740000I-20000J0D01*
G01*
X15070000Y-10740000D02*
G75*
G02*
X15110000Y-10740000I20000J0D01*
G01*
X15110365Y-11339454D02*
G75*
G02*
X15070365Y-11339454I-20000J0D01*
G01*
X15070365Y-11339454D02*
G75*
G02*
X15110365Y-11339454I20000J0D01*
G01*
X15120000Y-10190000D02*
G75*
G02*
X15080000Y-10190000I-20000J0D01*
G01*
X15080000Y-10190000D02*
G75*
G02*
X15120000Y-10190000I20000J0D01*
G01*
X15120000Y-10430000D02*
G75*
G02*
X15080000Y-10430000I-20000J0D01*
G01*
X15080000Y-10430000D02*
G75*
G02*
X15120000Y-10430000I20000J0D01*
G01*
X15130000Y-10550000D02*
G75*
G02*
X15090000Y-10550000I-20000J0D01*
G01*
X15090000Y-10550000D02*
G75*
G02*
X15130000Y-10550000I20000J0D01*
G01*
X15130000Y-10640000D02*
G75*
G02*
X15090000Y-10640000I-20000J0D01*
G01*
X15090000Y-10640000D02*
G75*
G02*
X15130000Y-10640000I20000J0D01*
G01*
X15132145Y-11579934D02*
G75*
G02*
X15092145Y-11579934I-20000J0D01*
G01*
X15092145Y-11579934D02*
G75*
G02*
X15132145Y-11579934I20000J0D01*
G01*
X15240000Y-11150000D02*
G75*
G02*
X15200000Y-11150000I-20000J0D01*
G01*
X15200000Y-11150000D02*
G75*
G02*
X15240000Y-11150000I20000J0D01*
G01*
X15260000Y-10060000D02*
G75*
G02*
X15220000Y-10060000I-20000J0D01*
G01*
X15220000Y-10060000D02*
G75*
G02*
X15260000Y-10060000I20000J0D01*
G01*
X15290000Y-11910000D02*
G75*
G02*
X15250000Y-11910000I-20000J0D01*
G01*
X15250000Y-11910000D02*
G75*
G02*
X15290000Y-11910000I20000J0D01*
G01*
X15310000Y-9150000D02*
G75*
G02*
X15270000Y-9150000I-20000J0D01*
G01*
X15270000Y-9150000D02*
G75*
G02*
X15310000Y-9150000I20000J0D01*
G01*
X15310000Y-9220000D02*
G75*
G02*
X15270000Y-9220000I-20000J0D01*
G01*
X15270000Y-9220000D02*
G75*
G02*
X15310000Y-9220000I20000J0D01*
G01*
X15360000Y-10060000D02*
G75*
G02*
X15320000Y-10060000I-20000J0D01*
G01*
X15320000Y-10060000D02*
G75*
G02*
X15360000Y-10060000I20000J0D01*
G01*
X15376500Y-10260000D02*
G75*
G02*
X15336500Y-10260000I-20000J0D01*
G01*
X15336500Y-10260000D02*
G75*
G02*
X15376500Y-10260000I20000J0D01*
G01*
X15400000Y-9150000D02*
G75*
G02*
X15360000Y-9150000I-20000J0D01*
G01*
X15360000Y-9150000D02*
G75*
G02*
X15400000Y-9150000I20000J0D01*
G01*
X15400000Y-9225000D02*
G75*
G02*
X15360000Y-9225000I-20000J0D01*
G01*
X15360000Y-9225000D02*
G75*
G02*
X15400000Y-9225000I20000J0D01*
G01*
X15410000Y-10160000D02*
G75*
G02*
X15370000Y-10160000I-20000J0D01*
G01*
X15370000Y-10160000D02*
G75*
G02*
X15410000Y-10160000I20000J0D01*
G01*
X15450000Y-11350000D02*
G75*
G02*
X15410000Y-11350000I-20000J0D01*
G01*
X15410000Y-11350000D02*
G75*
G02*
X15450000Y-11350000I20000J0D01*
G01*
X15450000Y-11560000D02*
G75*
G02*
X15410000Y-11560000I-20000J0D01*
G01*
X15410000Y-11560000D02*
G75*
G02*
X15450000Y-11560000I20000J0D01*
G01*
X15460000Y-9550000D02*
G75*
G02*
X15420000Y-9550000I-20000J0D01*
G01*
X15420000Y-9550000D02*
G75*
G02*
X15460000Y-9550000I20000J0D01*
G01*
X15510000Y-10170000D02*
G75*
G02*
X15470000Y-10170000I-20000J0D01*
G01*
X15470000Y-10170000D02*
G75*
G02*
X15510000Y-10170000I20000J0D01*
G01*
X15510000Y-11730000D02*
G75*
G02*
X15470000Y-11730000I-20000J0D01*
G01*
X15470000Y-11730000D02*
G75*
G02*
X15510000Y-11730000I20000J0D01*
G01*
X15540000Y-10590000D02*
G75*
G02*
X15500000Y-10590000I-20000J0D01*
G01*
X15500000Y-10590000D02*
G75*
G02*
X15540000Y-10590000I20000J0D01*
G01*
X15550000Y-10330000D02*
G75*
G02*
X15510000Y-10330000I-20000J0D01*
G01*
X15510000Y-10330000D02*
G75*
G02*
X15550000Y-10330000I20000J0D01*
G01*
X15564303Y-10680000D02*
G75*
G02*
X15524303Y-10680000I-20000J0D01*
G01*
X15524303Y-10680000D02*
G75*
G02*
X15564303Y-10680000I20000J0D01*
G01*
X15570000Y-9550000D02*
G75*
G02*
X15530000Y-9550000I-20000J0D01*
G01*
X15530000Y-9550000D02*
G75*
G02*
X15570000Y-9550000I20000J0D01*
G01*
X15612864Y-11418062D02*
G75*
G02*
X15572864Y-11418062I-20000J0D01*
G01*
X15572864Y-11418062D02*
G75*
G02*
X15612864Y-11418062I20000J0D01*
G01*
X15620000Y-12020000D02*
G75*
G02*
X15580000Y-12020000I-20000J0D01*
G01*
X15580000Y-12020000D02*
G75*
G02*
X15620000Y-12020000I20000J0D01*
G01*
X15660000Y-11600000D02*
G75*
G02*
X15620000Y-11600000I-20000J0D01*
G01*
X15620000Y-11600000D02*
G75*
G02*
X15660000Y-11600000I20000J0D01*
G01*
X15670000Y-11820000D02*
G75*
G02*
X15630000Y-11820000I-20000J0D01*
G01*
X15630000Y-11820000D02*
G75*
G02*
X15670000Y-11820000I20000J0D01*
G01*
X15730000Y-12060000D02*
G75*
G02*
X15690000Y-12060000I-20000J0D01*
G01*
X15690000Y-12060000D02*
G75*
G02*
X15730000Y-12060000I20000J0D01*
G01*
X15747405Y-10414843D02*
G75*
G02*
X15707405Y-10414843I-20000J0D01*
G01*
X15707405Y-10414843D02*
G75*
G02*
X15747405Y-10414843I20000J0D01*
G01*
X15750000Y-11100000D02*
G75*
G02*
X15710000Y-11100000I-20000J0D01*
G01*
X15710000Y-11100000D02*
G75*
G02*
X15750000Y-11100000I20000J0D01*
G01*
X15750000Y-11190000D02*
G75*
G02*
X15710000Y-11190000I-20000J0D01*
G01*
X15710000Y-11190000D02*
G75*
G02*
X15750000Y-11190000I20000J0D01*
G01*
X15770000Y-11820000D02*
G75*
G02*
X15730000Y-11820000I-20000J0D01*
G01*
X15730000Y-11820000D02*
G75*
G02*
X15770000Y-11820000I20000J0D01*
G01*
X15790000Y-10880000D02*
G75*
G02*
X15750000Y-10880000I-20000J0D01*
G01*
X15750000Y-10880000D02*
G75*
G02*
X15790000Y-10880000I20000J0D01*
G01*
X15830000Y-11140000D02*
G75*
G02*
X15790000Y-11140000I-20000J0D01*
G01*
X15790000Y-11140000D02*
G75*
G02*
X15830000Y-11140000I20000J0D01*
G01*
X15864169Y-11329536D02*
G75*
G02*
X15824169Y-11329536I-20000J0D01*
G01*
X15824169Y-11329536D02*
G75*
G02*
X15864169Y-11329536I20000J0D01*
G01*
X15910000Y-10110000D02*
G75*
G02*
X15870000Y-10110000I-20000J0D01*
G01*
X15870000Y-10110000D02*
G75*
G02*
X15910000Y-10110000I20000J0D01*
G01*
X15920000Y-9740000D02*
G75*
G02*
X15880000Y-9740000I-20000J0D01*
G01*
X15880000Y-9740000D02*
G75*
G02*
X15920000Y-9740000I20000J0D01*
G01*
X15984867Y-11390000D02*
G75*
G02*
X15944867Y-11390000I-20000J0D01*
G01*
X15944867Y-11390000D02*
G75*
G02*
X15984867Y-11390000I20000J0D01*
G01*
X16020000Y-9990000D02*
G75*
G02*
X15980000Y-9990000I-20000J0D01*
G01*
X15980000Y-9990000D02*
G75*
G02*
X16020000Y-9990000I20000J0D01*
G01*
X16150000Y-10960000D02*
G75*
G02*
X16110000Y-10960000I-20000J0D01*
G01*
X16110000Y-10960000D02*
G75*
G02*
X16150000Y-10960000I20000J0D01*
G01*
X16160000Y-10810000D02*
G75*
G02*
X16120000Y-10810000I-20000J0D01*
G01*
X16120000Y-10810000D02*
G75*
G02*
X16160000Y-10810000I20000J0D01*
G01*
X16170000Y-10200000D02*
G75*
G02*
X16130000Y-10200000I-20000J0D01*
G01*
X16130000Y-10200000D02*
G75*
G02*
X16170000Y-10200000I20000J0D01*
G01*
X16190000Y-9970000D02*
G75*
G02*
X16150000Y-9970000I-20000J0D01*
G01*
X16150000Y-9970000D02*
G75*
G02*
X16190000Y-9970000I20000J0D01*
G01*
X16190000Y-10640000D02*
G75*
G02*
X16150000Y-10640000I-20000J0D01*
G01*
X16150000Y-10640000D02*
G75*
G02*
X16190000Y-10640000I20000J0D01*
G01*
X16220000Y-10500000D02*
G75*
G02*
X16180000Y-10500000I-20000J0D01*
G01*
X16180000Y-10500000D02*
G75*
G02*
X16220000Y-10500000I20000J0D01*
G01*
X16250000Y-10930000D02*
G75*
G02*
X16210000Y-10930000I-20000J0D01*
G01*
X16210000Y-10930000D02*
G75*
G02*
X16250000Y-10930000I20000J0D01*
G01*
X16260000Y-10410000D02*
G75*
G02*
X16220000Y-10410000I-20000J0D01*
G01*
X16220000Y-10410000D02*
G75*
G02*
X16260000Y-10410000I20000J0D01*
G01*
X16263758Y-10781609D02*
G75*
G02*
X16223758Y-10781609I-20000J0D01*
G01*
X16223758Y-10781609D02*
G75*
G02*
X16263758Y-10781609I20000J0D01*
G01*
X16270000Y-10260000D02*
G75*
G02*
X16230000Y-10260000I-20000J0D01*
G01*
X16230000Y-10260000D02*
G75*
G02*
X16270000Y-10260000I20000J0D01*
G01*
X16270000Y-11230000D02*
G75*
G02*
X16230000Y-11230000I-20000J0D01*
G01*
X16230000Y-11230000D02*
G75*
G02*
X16270000Y-11230000I20000J0D01*
G01*
X16290000Y-10600000D02*
G75*
G02*
X16250000Y-10600000I-20000J0D01*
G01*
X16250000Y-10600000D02*
G75*
G02*
X16290000Y-10600000I20000J0D01*
G01*
X16290000Y-10692700D02*
G75*
G02*
X16250000Y-10692700I-20000J0D01*
G01*
X16250000Y-10692700D02*
G75*
G02*
X16290000Y-10692700I20000J0D01*
G01*
X16300000Y-10500000D02*
G75*
G02*
X16260000Y-10500000I-20000J0D01*
G01*
X16260000Y-10500000D02*
G75*
G02*
X16300000Y-10500000I20000J0D01*
G01*
X16370000Y-10300000D02*
G75*
G02*
X16330000Y-10300000I-20000J0D01*
G01*
X16330000Y-10300000D02*
G75*
G02*
X16370000Y-10300000I20000J0D01*
G01*
X16500000Y-9210000D02*
G75*
G02*
X16460000Y-9210000I-20000J0D01*
G01*
X16460000Y-9210000D02*
G75*
G02*
X16500000Y-9210000I20000J0D01*
G01*
X16540000Y-9780000D02*
G75*
G02*
X16500000Y-9780000I-20000J0D01*
G01*
X16500000Y-9780000D02*
G75*
G02*
X16540000Y-9780000I20000J0D01*
G01*
X16590000Y-9530000D02*
G75*
G02*
X16550000Y-9530000I-20000J0D01*
G01*
X16550000Y-9530000D02*
G75*
G02*
X16590000Y-9530000I20000J0D01*
G01*
X16650000Y-9590000D02*
G75*
G02*
X16610000Y-9590000I-20000J0D01*
G01*
X16610000Y-9590000D02*
G75*
G02*
X16650000Y-9590000I20000J0D01*
G01*
X16650000Y-9680000D02*
G75*
G02*
X16610000Y-9680000I-20000J0D01*
G01*
X16610000Y-9680000D02*
G75*
G02*
X16650000Y-9680000I20000J0D01*
G01*
X17750000Y-9990000D02*
G75*
G02*
X17710000Y-9990000I-20000J0D01*
G01*
X17710000Y-9990000D02*
G75*
G02*
X17750000Y-9990000I20000J0D01*
G01*
X17860000Y-10450000D02*
G75*
G02*
X17820000Y-10450000I-20000J0D01*
G01*
X17820000Y-10450000D02*
G75*
G02*
X17860000Y-10450000I20000J0D01*
G01*
X17900000Y-10140000D02*
G75*
G02*
X17860000Y-10140000I-20000J0D01*
G01*
X17860000Y-10140000D02*
G75*
G02*
X17900000Y-10140000I20000J0D01*
G01*
X18050000Y-10770000D02*
G75*
G02*
X18010000Y-10770000I-20000J0D01*
G01*
X18010000Y-10770000D02*
G75*
G02*
X18050000Y-10770000I20000J0D01*
G01*
X18090000Y-9480000D02*
G75*
G02*
X18050000Y-9480000I-20000J0D01*
G01*
X18050000Y-9480000D02*
G75*
G02*
X18090000Y-9480000I20000J0D01*
G01*
X18120000Y-10840000D02*
G75*
G02*
X18080000Y-10840000I-20000J0D01*
G01*
X18080000Y-10840000D02*
G75*
G02*
X18120000Y-10840000I20000J0D01*
G01*
X18170000Y-10050000D02*
G75*
G02*
X18130000Y-10050000I-20000J0D01*
G01*
X18130000Y-10050000D02*
G75*
G02*
X18170000Y-10050000I20000J0D01*
G01*
X18220000Y-9380000D02*
G75*
G02*
X18180000Y-9380000I-20000J0D01*
G01*
X18180000Y-9380000D02*
G75*
G02*
X18220000Y-9380000I20000J0D01*
G01*
X18220000Y-9480000D02*
G75*
G02*
X18180000Y-9480000I-20000J0D01*
G01*
X18180000Y-9480000D02*
G75*
G02*
X18220000Y-9480000I20000J0D01*
G01*
X18220000Y-9940000D02*
G75*
G02*
X18180000Y-9940000I-20000J0D01*
G01*
X18180000Y-9940000D02*
G75*
G02*
X18220000Y-9940000I20000J0D01*
G01*
X18240000Y-10250000D02*
G75*
G02*
X18200000Y-10250000I-20000J0D01*
G01*
X18200000Y-10250000D02*
G75*
G02*
X18240000Y-10250000I20000J0D01*
G01*
X18250000Y-10790000D02*
G75*
G02*
X18210000Y-10790000I-20000J0D01*
G01*
X18210000Y-10790000D02*
G75*
G02*
X18250000Y-10790000I20000J0D01*
G01*
X18270000Y-10090000D02*
G75*
G02*
X18230000Y-10090000I-20000J0D01*
G01*
X18230000Y-10090000D02*
G75*
G02*
X18270000Y-10090000I20000J0D01*
G01*
X18320000Y-9480000D02*
G75*
G02*
X18280000Y-9480000I-20000J0D01*
G01*
X18280000Y-9480000D02*
G75*
G02*
X18320000Y-9480000I20000J0D01*
G01*
X18370000Y-9370000D02*
G75*
G02*
X18330000Y-9370000I-20000J0D01*
G01*
X18330000Y-9370000D02*
G75*
G02*
X18370000Y-9370000I20000J0D01*
G01*
X18400000Y-10410000D02*
G75*
G02*
X18360000Y-10410000I-20000J0D01*
G01*
X18360000Y-10410000D02*
G75*
G02*
X18400000Y-10410000I20000J0D01*
G01*
X18490000Y-9380000D02*
G75*
G02*
X18450000Y-9380000I-20000J0D01*
G01*
X18450000Y-9380000D02*
G75*
G02*
X18490000Y-9380000I20000J0D01*
G01*
X18550000Y-11020000D02*
G75*
G02*
X18510000Y-11020000I-20000J0D01*
G01*
X18510000Y-11020000D02*
G75*
G02*
X18550000Y-11020000I20000J0D01*
G01*
X18550000Y-11120000D02*
G75*
G02*
X18510000Y-11120000I-20000J0D01*
G01*
X18510000Y-11120000D02*
G75*
G02*
X18550000Y-11120000I20000J0D01*
G01*
X18550000Y-11220000D02*
G75*
G02*
X18510000Y-11220000I-20000J0D01*
G01*
X18510000Y-11220000D02*
G75*
G02*
X18550000Y-11220000I20000J0D01*
G01*
X18640000Y-9220000D02*
G75*
G02*
X18600000Y-9220000I-20000J0D01*
G01*
X18600000Y-9220000D02*
G75*
G02*
X18640000Y-9220000I20000J0D01*
G01*
X18640000Y-9310000D02*
G75*
G02*
X18600000Y-9310000I-20000J0D01*
G01*
X18600000Y-9310000D02*
G75*
G02*
X18640000Y-9310000I20000J0D01*
G01*
X18640000Y-9400000D02*
G75*
G02*
X18600000Y-9400000I-20000J0D01*
G01*
X18600000Y-9400000D02*
G75*
G02*
X18640000Y-9400000I20000J0D01*
G01*
X18640000Y-9950000D02*
G75*
G02*
X18600000Y-9950000I-20000J0D01*
G01*
X18600000Y-9950000D02*
G75*
G02*
X18640000Y-9950000I20000J0D01*
G01*
X18640000Y-11880000D02*
G75*
G02*
X18600000Y-11880000I-20000J0D01*
G01*
X18600000Y-11880000D02*
G75*
G02*
X18640000Y-11880000I20000J0D01*
G01*
X18640000Y-11970000D02*
G75*
G02*
X18600000Y-11970000I-20000J0D01*
G01*
X18600000Y-11970000D02*
G75*
G02*
X18640000Y-11970000I20000J0D01*
G01*
X18640000Y-12060000D02*
G75*
G02*
X18600000Y-12060000I-20000J0D01*
G01*
X18600000Y-12060000D02*
G75*
G02*
X18640000Y-12060000I20000J0D01*
G01*
X18750000Y-9950000D02*
G75*
G02*
X18710000Y-9950000I-20000J0D01*
G01*
X18710000Y-9950000D02*
G75*
G02*
X18750000Y-9950000I20000J0D01*
G01*
X18810000Y-9560000D02*
G75*
G02*
X18770000Y-9560000I-20000J0D01*
G01*
X18770000Y-9560000D02*
G75*
G02*
X18810000Y-9560000I20000J0D01*
G01*
X18810000Y-11710000D02*
G75*
G02*
X18770000Y-11710000I-20000J0D01*
G01*
X18770000Y-11710000D02*
G75*
G02*
X18810000Y-11710000I20000J0D01*
G01*
X18850000Y-9950000D02*
G75*
G02*
X18810000Y-9950000I-20000J0D01*
G01*
X18810000Y-9950000D02*
G75*
G02*
X18850000Y-9950000I20000J0D01*
G01*
X10760000Y-10208000D02*
X10760000Y-10288000D01*
X10720000Y-10248000D02*
X10800000Y-10248000D01*
X10760000Y-10970000D02*
X10760000Y-11050000D01*
X10720000Y-11010000D02*
X10800000Y-11010000D01*
X18740000Y-10198000D02*
X18740000Y-10278000D01*
X18700000Y-10238000D02*
X18780000Y-10238000D01*
X18740000Y-10960000D02*
X18740000Y-11040000D01*
X18700000Y-11000000D02*
X18780000Y-11000000D01*
D12*
X10865106Y-12617983D02*
X10865106Y-12417983D01*
X10865106Y-12417983D02*
X10912725Y-12417983D01*
X10912725Y-12417983D02*
X10941296Y-12427507D01*
X10941296Y-12427507D02*
X10960344Y-12446554D01*
X10960344Y-12446554D02*
X10969868Y-12465602D01*
X10969868Y-12465602D02*
X10979392Y-12503697D01*
X10979392Y-12503697D02*
X10979392Y-12532268D01*
X10979392Y-12532268D02*
X10969868Y-12570364D01*
X10969868Y-12570364D02*
X10960344Y-12589411D01*
X10960344Y-12589411D02*
X10941296Y-12608459D01*
X10941296Y-12608459D02*
X10912725Y-12617983D01*
X10912725Y-12617983D02*
X10865106Y-12617983D01*
X11065106Y-12617983D02*
X11065106Y-12484649D01*
X11065106Y-12522745D02*
X11074630Y-12503697D01*
X11074630Y-12503697D02*
X11084154Y-12494173D01*
X11084154Y-12494173D02*
X11103201Y-12484649D01*
X11103201Y-12484649D02*
X11122249Y-12484649D01*
X11188915Y-12617983D02*
X11188915Y-12484649D01*
X11188915Y-12417983D02*
X11179392Y-12427507D01*
X11179392Y-12427507D02*
X11188915Y-12437030D01*
X11188915Y-12437030D02*
X11198439Y-12427507D01*
X11198439Y-12427507D02*
X11188915Y-12417983D01*
X11188915Y-12417983D02*
X11188915Y-12437030D01*
X11312725Y-12617983D02*
X11293677Y-12608459D01*
X11293677Y-12608459D02*
X11284153Y-12589411D01*
X11284153Y-12589411D02*
X11284153Y-12417983D01*
X11417487Y-12617983D02*
X11398439Y-12608459D01*
X11398439Y-12608459D02*
X11388915Y-12589411D01*
X11388915Y-12589411D02*
X11388915Y-12417983D01*
X11646058Y-12617983D02*
X11646058Y-12417983D01*
X11646058Y-12417983D02*
X11712725Y-12560840D01*
X11712725Y-12560840D02*
X11779392Y-12417983D01*
X11779392Y-12417983D02*
X11779392Y-12617983D01*
X11960344Y-12617983D02*
X11960344Y-12513221D01*
X11960344Y-12513221D02*
X11950820Y-12494173D01*
X11950820Y-12494173D02*
X11931773Y-12484649D01*
X11931773Y-12484649D02*
X11893677Y-12484649D01*
X11893677Y-12484649D02*
X11874630Y-12494173D01*
X11960344Y-12608459D02*
X11941296Y-12617983D01*
X11941296Y-12617983D02*
X11893677Y-12617983D01*
X11893677Y-12617983D02*
X11874630Y-12608459D01*
X11874630Y-12608459D02*
X11865106Y-12589411D01*
X11865106Y-12589411D02*
X11865106Y-12570364D01*
X11865106Y-12570364D02*
X11874630Y-12551316D01*
X11874630Y-12551316D02*
X11893677Y-12541792D01*
X11893677Y-12541792D02*
X11941296Y-12541792D01*
X11941296Y-12541792D02*
X11960344Y-12532268D01*
X12055582Y-12484649D02*
X12055582Y-12684649D01*
X12055582Y-12494173D02*
X12074630Y-12484649D01*
X12074630Y-12484649D02*
X12112725Y-12484649D01*
X12112725Y-12484649D02*
X12131773Y-12494173D01*
X12131773Y-12494173D02*
X12141296Y-12503697D01*
X12141296Y-12503697D02*
X12150820Y-12522745D01*
X12150820Y-12522745D02*
X12150820Y-12579887D01*
X12150820Y-12579887D02*
X12141296Y-12598935D01*
X12141296Y-12598935D02*
X12131773Y-12608459D01*
X12131773Y-12608459D02*
X12112725Y-12617983D01*
X12112725Y-12617983D02*
X12074630Y-12617983D01*
X12074630Y-12617983D02*
X12055582Y-12608459D01*
X12236534Y-12598935D02*
X12246058Y-12608459D01*
X12246058Y-12608459D02*
X12236534Y-12617983D01*
X12236534Y-12617983D02*
X12227011Y-12608459D01*
X12227011Y-12608459D02*
X12236534Y-12598935D01*
X12236534Y-12598935D02*
X12236534Y-12617983D01*
X12236534Y-12494173D02*
X12246058Y-12503697D01*
X12246058Y-12503697D02*
X12236534Y-12513221D01*
X12236534Y-12513221D02*
X12227011Y-12503697D01*
X12227011Y-12503697D02*
X12236534Y-12494173D01*
X12236534Y-12494173D02*
X12236534Y-12513221D01*
D10*
X10584329Y-12936499D02*
X10604329Y-12956499D01*
X10604329Y-12936499D02*
X10584329Y-12956499D01*
D12*
X10903201Y-12837983D02*
X10922249Y-12837983D01*
X10922249Y-12837983D02*
X10941296Y-12847507D01*
X10941296Y-12847507D02*
X10950820Y-12857030D01*
X10950820Y-12857030D02*
X10960344Y-12876078D01*
X10960344Y-12876078D02*
X10969868Y-12914173D01*
X10969868Y-12914173D02*
X10969868Y-12961792D01*
X10969868Y-12961792D02*
X10960344Y-12999887D01*
X10960344Y-12999887D02*
X10950820Y-13018935D01*
X10950820Y-13018935D02*
X10941296Y-13028459D01*
X10941296Y-13028459D02*
X10922249Y-13037983D01*
X10922249Y-13037983D02*
X10903201Y-13037983D01*
X10903201Y-13037983D02*
X10884154Y-13028459D01*
X10884154Y-13028459D02*
X10874630Y-13018935D01*
X10874630Y-13018935D02*
X10865106Y-12999887D01*
X10865106Y-12999887D02*
X10855582Y-12961792D01*
X10855582Y-12961792D02*
X10855582Y-12914173D01*
X10855582Y-12914173D02*
X10865106Y-12876078D01*
X10865106Y-12876078D02*
X10874630Y-12857030D01*
X10874630Y-12857030D02*
X10884154Y-12847507D01*
X10884154Y-12847507D02*
X10903201Y-12837983D01*
X11055582Y-13018935D02*
X11065106Y-13028459D01*
X11065106Y-13028459D02*
X11055582Y-13037983D01*
X11055582Y-13037983D02*
X11046058Y-13028459D01*
X11046058Y-13028459D02*
X11055582Y-13018935D01*
X11055582Y-13018935D02*
X11055582Y-13037983D01*
X11141296Y-12857030D02*
X11150820Y-12847507D01*
X11150820Y-12847507D02*
X11169868Y-12837983D01*
X11169868Y-12837983D02*
X11217487Y-12837983D01*
X11217487Y-12837983D02*
X11236534Y-12847507D01*
X11236534Y-12847507D02*
X11246058Y-12857030D01*
X11246058Y-12857030D02*
X11255582Y-12876078D01*
X11255582Y-12876078D02*
X11255582Y-12895126D01*
X11255582Y-12895126D02*
X11246058Y-12923697D01*
X11246058Y-12923697D02*
X11131773Y-13037983D01*
X11131773Y-13037983D02*
X11255582Y-13037983D01*
X11379392Y-12837983D02*
X11398439Y-12837983D01*
X11398439Y-12837983D02*
X11417487Y-12847507D01*
X11417487Y-12847507D02*
X11427011Y-12857030D01*
X11427011Y-12857030D02*
X11436534Y-12876078D01*
X11436534Y-12876078D02*
X11446058Y-12914173D01*
X11446058Y-12914173D02*
X11446058Y-12961792D01*
X11446058Y-12961792D02*
X11436534Y-12999887D01*
X11436534Y-12999887D02*
X11427011Y-13018935D01*
X11427011Y-13018935D02*
X11417487Y-13028459D01*
X11417487Y-13028459D02*
X11398439Y-13037983D01*
X11398439Y-13037983D02*
X11379392Y-13037983D01*
X11379392Y-13037983D02*
X11360344Y-13028459D01*
X11360344Y-13028459D02*
X11350820Y-13018935D01*
X11350820Y-13018935D02*
X11341296Y-12999887D01*
X11341296Y-12999887D02*
X11331773Y-12961792D01*
X11331773Y-12961792D02*
X11331773Y-12914173D01*
X11331773Y-12914173D02*
X11341296Y-12876078D01*
X11341296Y-12876078D02*
X11350820Y-12857030D01*
X11350820Y-12857030D02*
X11360344Y-12847507D01*
X11360344Y-12847507D02*
X11379392Y-12837983D01*
X11569868Y-12837983D02*
X11588915Y-12837983D01*
X11588915Y-12837983D02*
X11607963Y-12847507D01*
X11607963Y-12847507D02*
X11617487Y-12857030D01*
X11617487Y-12857030D02*
X11627011Y-12876078D01*
X11627011Y-12876078D02*
X11636534Y-12914173D01*
X11636534Y-12914173D02*
X11636534Y-12961792D01*
X11636534Y-12961792D02*
X11627011Y-12999887D01*
X11627011Y-12999887D02*
X11617487Y-13018935D01*
X11617487Y-13018935D02*
X11607963Y-13028459D01*
X11607963Y-13028459D02*
X11588915Y-13037983D01*
X11588915Y-13037983D02*
X11569868Y-13037983D01*
X11569868Y-13037983D02*
X11550820Y-13028459D01*
X11550820Y-13028459D02*
X11541296Y-13018935D01*
X11541296Y-13018935D02*
X11531773Y-12999887D01*
X11531773Y-12999887D02*
X11522249Y-12961792D01*
X11522249Y-12961792D02*
X11522249Y-12914173D01*
X11522249Y-12914173D02*
X11531773Y-12876078D01*
X11531773Y-12876078D02*
X11541296Y-12857030D01*
X11541296Y-12857030D02*
X11550820Y-12847507D01*
X11550820Y-12847507D02*
X11569868Y-12837983D01*
X11722249Y-13037983D02*
X11722249Y-12904649D01*
X11722249Y-12923697D02*
X11731773Y-12914173D01*
X11731773Y-12914173D02*
X11750820Y-12904649D01*
X11750820Y-12904649D02*
X11779392Y-12904649D01*
X11779392Y-12904649D02*
X11798439Y-12914173D01*
X11798439Y-12914173D02*
X11807963Y-12933221D01*
X11807963Y-12933221D02*
X11807963Y-13037983D01*
X11807963Y-12933221D02*
X11817487Y-12914173D01*
X11817487Y-12914173D02*
X11836534Y-12904649D01*
X11836534Y-12904649D02*
X11865106Y-12904649D01*
X11865106Y-12904649D02*
X11884154Y-12914173D01*
X11884154Y-12914173D02*
X11893677Y-12933221D01*
X11893677Y-12933221D02*
X11893677Y-13037983D01*
X11988915Y-13037983D02*
X11988915Y-12904649D01*
X11988915Y-12923697D02*
X11998439Y-12914173D01*
X11998439Y-12914173D02*
X12017487Y-12904649D01*
X12017487Y-12904649D02*
X12046058Y-12904649D01*
X12046058Y-12904649D02*
X12065106Y-12914173D01*
X12065106Y-12914173D02*
X12074630Y-12933221D01*
X12074630Y-12933221D02*
X12074630Y-13037983D01*
X12074630Y-12933221D02*
X12084154Y-12914173D01*
X12084154Y-12914173D02*
X12103201Y-12904649D01*
X12103201Y-12904649D02*
X12131773Y-12904649D01*
X12131773Y-12904649D02*
X12150820Y-12914173D01*
X12150820Y-12914173D02*
X12160344Y-12933221D01*
X12160344Y-12933221D02*
X12160344Y-13037983D01*
X12550820Y-12828459D02*
X12379392Y-13085602D01*
X12807963Y-12837983D02*
X12827011Y-12837983D01*
X12827011Y-12837983D02*
X12846058Y-12847507D01*
X12846058Y-12847507D02*
X12855582Y-12857030D01*
X12855582Y-12857030D02*
X12865106Y-12876078D01*
X12865106Y-12876078D02*
X12874630Y-12914173D01*
X12874630Y-12914173D02*
X12874630Y-12961792D01*
X12874630Y-12961792D02*
X12865106Y-12999887D01*
X12865106Y-12999887D02*
X12855582Y-13018935D01*
X12855582Y-13018935D02*
X12846058Y-13028459D01*
X12846058Y-13028459D02*
X12827011Y-13037983D01*
X12827011Y-13037983D02*
X12807963Y-13037983D01*
X12807963Y-13037983D02*
X12788916Y-13028459D01*
X12788916Y-13028459D02*
X12779392Y-13018935D01*
X12779392Y-13018935D02*
X12769868Y-12999887D01*
X12769868Y-12999887D02*
X12760344Y-12961792D01*
X12760344Y-12961792D02*
X12760344Y-12914173D01*
X12760344Y-12914173D02*
X12769868Y-12876078D01*
X12769868Y-12876078D02*
X12779392Y-12857030D01*
X12779392Y-12857030D02*
X12788916Y-12847507D01*
X12788916Y-12847507D02*
X12807963Y-12837983D01*
X12960344Y-13018935D02*
X12969868Y-13028459D01*
X12969868Y-13028459D02*
X12960344Y-13037983D01*
X12960344Y-13037983D02*
X12950820Y-13028459D01*
X12950820Y-13028459D02*
X12960344Y-13018935D01*
X12960344Y-13018935D02*
X12960344Y-13037983D01*
X13093677Y-12837983D02*
X13112725Y-12837983D01*
X13112725Y-12837983D02*
X13131773Y-12847507D01*
X13131773Y-12847507D02*
X13141297Y-12857030D01*
X13141297Y-12857030D02*
X13150820Y-12876078D01*
X13150820Y-12876078D02*
X13160344Y-12914173D01*
X13160344Y-12914173D02*
X13160344Y-12961792D01*
X13160344Y-12961792D02*
X13150820Y-12999887D01*
X13150820Y-12999887D02*
X13141297Y-13018935D01*
X13141297Y-13018935D02*
X13131773Y-13028459D01*
X13131773Y-13028459D02*
X13112725Y-13037983D01*
X13112725Y-13037983D02*
X13093677Y-13037983D01*
X13093677Y-13037983D02*
X13074630Y-13028459D01*
X13074630Y-13028459D02*
X13065106Y-13018935D01*
X13065106Y-13018935D02*
X13055582Y-12999887D01*
X13055582Y-12999887D02*
X13046058Y-12961792D01*
X13046058Y-12961792D02*
X13046058Y-12914173D01*
X13046058Y-12914173D02*
X13055582Y-12876078D01*
X13055582Y-12876078D02*
X13065106Y-12857030D01*
X13065106Y-12857030D02*
X13074630Y-12847507D01*
X13074630Y-12847507D02*
X13093677Y-12837983D01*
X13284154Y-12837983D02*
X13303201Y-12837983D01*
X13303201Y-12837983D02*
X13322249Y-12847507D01*
X13322249Y-12847507D02*
X13331773Y-12857030D01*
X13331773Y-12857030D02*
X13341297Y-12876078D01*
X13341297Y-12876078D02*
X13350820Y-12914173D01*
X13350820Y-12914173D02*
X13350820Y-12961792D01*
X13350820Y-12961792D02*
X13341297Y-12999887D01*
X13341297Y-12999887D02*
X13331773Y-13018935D01*
X13331773Y-13018935D02*
X13322249Y-13028459D01*
X13322249Y-13028459D02*
X13303201Y-13037983D01*
X13303201Y-13037983D02*
X13284154Y-13037983D01*
X13284154Y-13037983D02*
X13265106Y-13028459D01*
X13265106Y-13028459D02*
X13255582Y-13018935D01*
X13255582Y-13018935D02*
X13246058Y-12999887D01*
X13246058Y-12999887D02*
X13236535Y-12961792D01*
X13236535Y-12961792D02*
X13236535Y-12914173D01*
X13236535Y-12914173D02*
X13246058Y-12876078D01*
X13246058Y-12876078D02*
X13255582Y-12857030D01*
X13255582Y-12857030D02*
X13265106Y-12847507D01*
X13265106Y-12847507D02*
X13284154Y-12837983D01*
X13417487Y-12837983D02*
X13550820Y-12837983D01*
X13550820Y-12837983D02*
X13465106Y-13037983D01*
X13636535Y-13037983D02*
X13674630Y-13037983D01*
X13674630Y-13037983D02*
X13693678Y-13028459D01*
X13693678Y-13028459D02*
X13703201Y-13018935D01*
X13703201Y-13018935D02*
X13722249Y-12990364D01*
X13722249Y-12990364D02*
X13731773Y-12952268D01*
X13731773Y-12952268D02*
X13731773Y-12876078D01*
X13731773Y-12876078D02*
X13722249Y-12857030D01*
X13722249Y-12857030D02*
X13712725Y-12847507D01*
X13712725Y-12847507D02*
X13693678Y-12837983D01*
X13693678Y-12837983D02*
X13655582Y-12837983D01*
X13655582Y-12837983D02*
X13636535Y-12847507D01*
X13636535Y-12847507D02*
X13627011Y-12857030D01*
X13627011Y-12857030D02*
X13617487Y-12876078D01*
X13617487Y-12876078D02*
X13617487Y-12923697D01*
X13617487Y-12923697D02*
X13627011Y-12942745D01*
X13627011Y-12942745D02*
X13636535Y-12952268D01*
X13636535Y-12952268D02*
X13655582Y-12961792D01*
X13655582Y-12961792D02*
X13693678Y-12961792D01*
X13693678Y-12961792D02*
X13712725Y-12952268D01*
X13712725Y-12952268D02*
X13722249Y-12942745D01*
X13722249Y-12942745D02*
X13731773Y-12923697D01*
X13807963Y-12837983D02*
X13807963Y-12876078D01*
X13884154Y-12837983D02*
X13884154Y-12876078D01*
X14179392Y-13114173D02*
X14169868Y-13104649D01*
X14169868Y-13104649D02*
X14150820Y-13076078D01*
X14150820Y-13076078D02*
X14141297Y-13057030D01*
X14141297Y-13057030D02*
X14131773Y-13028459D01*
X14131773Y-13028459D02*
X14122249Y-12980840D01*
X14122249Y-12980840D02*
X14122249Y-12942745D01*
X14122249Y-12942745D02*
X14131773Y-12895126D01*
X14131773Y-12895126D02*
X14141297Y-12866554D01*
X14141297Y-12866554D02*
X14150820Y-12847507D01*
X14150820Y-12847507D02*
X14169868Y-12818935D01*
X14169868Y-12818935D02*
X14179392Y-12809411D01*
X14360344Y-13037983D02*
X14246059Y-13037983D01*
X14303201Y-13037983D02*
X14303201Y-12837983D01*
X14303201Y-12837983D02*
X14284154Y-12866554D01*
X14284154Y-12866554D02*
X14265106Y-12885602D01*
X14265106Y-12885602D02*
X14246059Y-12895126D01*
X14541297Y-12837983D02*
X14446059Y-12837983D01*
X14446059Y-12837983D02*
X14436535Y-12933221D01*
X14436535Y-12933221D02*
X14446059Y-12923697D01*
X14446059Y-12923697D02*
X14465106Y-12914173D01*
X14465106Y-12914173D02*
X14512725Y-12914173D01*
X14512725Y-12914173D02*
X14531773Y-12923697D01*
X14531773Y-12923697D02*
X14541297Y-12933221D01*
X14541297Y-12933221D02*
X14550820Y-12952268D01*
X14550820Y-12952268D02*
X14550820Y-12999887D01*
X14550820Y-12999887D02*
X14541297Y-13018935D01*
X14541297Y-13018935D02*
X14531773Y-13028459D01*
X14531773Y-13028459D02*
X14512725Y-13037983D01*
X14512725Y-13037983D02*
X14465106Y-13037983D01*
X14465106Y-13037983D02*
X14446059Y-13028459D01*
X14446059Y-13028459D02*
X14436535Y-13018935D01*
X14788916Y-13037983D02*
X14788916Y-12837983D01*
X14874630Y-13037983D02*
X14874630Y-12933221D01*
X14874630Y-12933221D02*
X14865106Y-12914173D01*
X14865106Y-12914173D02*
X14846059Y-12904649D01*
X14846059Y-12904649D02*
X14817487Y-12904649D01*
X14817487Y-12904649D02*
X14798440Y-12914173D01*
X14798440Y-12914173D02*
X14788916Y-12923697D01*
X14998440Y-13037983D02*
X14979392Y-13028459D01*
X14979392Y-13028459D02*
X14969868Y-13018935D01*
X14969868Y-13018935D02*
X14960344Y-12999887D01*
X14960344Y-12999887D02*
X14960344Y-12942745D01*
X14960344Y-12942745D02*
X14969868Y-12923697D01*
X14969868Y-12923697D02*
X14979392Y-12914173D01*
X14979392Y-12914173D02*
X14998440Y-12904649D01*
X14998440Y-12904649D02*
X15027011Y-12904649D01*
X15027011Y-12904649D02*
X15046059Y-12914173D01*
X15046059Y-12914173D02*
X15055582Y-12923697D01*
X15055582Y-12923697D02*
X15065106Y-12942745D01*
X15065106Y-12942745D02*
X15065106Y-12999887D01*
X15065106Y-12999887D02*
X15055582Y-13018935D01*
X15055582Y-13018935D02*
X15046059Y-13028459D01*
X15046059Y-13028459D02*
X15027011Y-13037983D01*
X15027011Y-13037983D02*
X14998440Y-13037983D01*
X15179392Y-13037983D02*
X15160344Y-13028459D01*
X15160344Y-13028459D02*
X15150821Y-13009411D01*
X15150821Y-13009411D02*
X15150821Y-12837983D01*
X15331773Y-13028459D02*
X15312725Y-13037983D01*
X15312725Y-13037983D02*
X15274630Y-13037983D01*
X15274630Y-13037983D02*
X15255582Y-13028459D01*
X15255582Y-13028459D02*
X15246059Y-13009411D01*
X15246059Y-13009411D02*
X15246059Y-12933221D01*
X15246059Y-12933221D02*
X15255582Y-12914173D01*
X15255582Y-12914173D02*
X15274630Y-12904649D01*
X15274630Y-12904649D02*
X15312725Y-12904649D01*
X15312725Y-12904649D02*
X15331773Y-12914173D01*
X15331773Y-12914173D02*
X15341297Y-12933221D01*
X15341297Y-12933221D02*
X15341297Y-12952268D01*
X15341297Y-12952268D02*
X15246059Y-12971316D01*
X15417487Y-13028459D02*
X15436535Y-13037983D01*
X15436535Y-13037983D02*
X15474630Y-13037983D01*
X15474630Y-13037983D02*
X15493678Y-13028459D01*
X15493678Y-13028459D02*
X15503202Y-13009411D01*
X15503202Y-13009411D02*
X15503202Y-12999887D01*
X15503202Y-12999887D02*
X15493678Y-12980840D01*
X15493678Y-12980840D02*
X15474630Y-12971316D01*
X15474630Y-12971316D02*
X15446059Y-12971316D01*
X15446059Y-12971316D02*
X15427011Y-12961792D01*
X15427011Y-12961792D02*
X15417487Y-12942745D01*
X15417487Y-12942745D02*
X15417487Y-12933221D01*
X15417487Y-12933221D02*
X15427011Y-12914173D01*
X15427011Y-12914173D02*
X15446059Y-12904649D01*
X15446059Y-12904649D02*
X15474630Y-12904649D01*
X15474630Y-12904649D02*
X15493678Y-12914173D01*
X15569868Y-13114173D02*
X15579392Y-13104649D01*
X15579392Y-13104649D02*
X15598440Y-13076078D01*
X15598440Y-13076078D02*
X15607963Y-13057030D01*
X15607963Y-13057030D02*
X15617487Y-13028459D01*
X15617487Y-13028459D02*
X15627011Y-12980840D01*
X15627011Y-12980840D02*
X15627011Y-12942745D01*
X15627011Y-12942745D02*
X15617487Y-12895126D01*
X15617487Y-12895126D02*
X15607963Y-12866554D01*
X15607963Y-12866554D02*
X15598440Y-12847507D01*
X15598440Y-12847507D02*
X15579392Y-12818935D01*
X15579392Y-12818935D02*
X15569868Y-12809411D01*
D10*
X10604329Y-13210499D02*
G75*
G02*
X10564329Y-13210499I-20000J0D01*
G01*
X10564329Y-13210499D02*
G75*
G02*
X10604329Y-13210499I20000J0D01*
G01*
D12*
X10903201Y-13101983D02*
X10922249Y-13101983D01*
X10922249Y-13101983D02*
X10941296Y-13111507D01*
X10941296Y-13111507D02*
X10950820Y-13121030D01*
X10950820Y-13121030D02*
X10960344Y-13140078D01*
X10960344Y-13140078D02*
X10969868Y-13178173D01*
X10969868Y-13178173D02*
X10969868Y-13225792D01*
X10969868Y-13225792D02*
X10960344Y-13263887D01*
X10960344Y-13263887D02*
X10950820Y-13282935D01*
X10950820Y-13282935D02*
X10941296Y-13292459D01*
X10941296Y-13292459D02*
X10922249Y-13301983D01*
X10922249Y-13301983D02*
X10903201Y-13301983D01*
X10903201Y-13301983D02*
X10884154Y-13292459D01*
X10884154Y-13292459D02*
X10874630Y-13282935D01*
X10874630Y-13282935D02*
X10865106Y-13263887D01*
X10865106Y-13263887D02*
X10855582Y-13225792D01*
X10855582Y-13225792D02*
X10855582Y-13178173D01*
X10855582Y-13178173D02*
X10865106Y-13140078D01*
X10865106Y-13140078D02*
X10874630Y-13121030D01*
X10874630Y-13121030D02*
X10884154Y-13111507D01*
X10884154Y-13111507D02*
X10903201Y-13101983D01*
X11055582Y-13282935D02*
X11065106Y-13292459D01*
X11065106Y-13292459D02*
X11055582Y-13301983D01*
X11055582Y-13301983D02*
X11046058Y-13292459D01*
X11046058Y-13292459D02*
X11055582Y-13282935D01*
X11055582Y-13282935D02*
X11055582Y-13301983D01*
X11236534Y-13168649D02*
X11236534Y-13301983D01*
X11188915Y-13092459D02*
X11141296Y-13235316D01*
X11141296Y-13235316D02*
X11265106Y-13235316D01*
X11379392Y-13101983D02*
X11398439Y-13101983D01*
X11398439Y-13101983D02*
X11417487Y-13111507D01*
X11417487Y-13111507D02*
X11427011Y-13121030D01*
X11427011Y-13121030D02*
X11436534Y-13140078D01*
X11436534Y-13140078D02*
X11446058Y-13178173D01*
X11446058Y-13178173D02*
X11446058Y-13225792D01*
X11446058Y-13225792D02*
X11436534Y-13263887D01*
X11436534Y-13263887D02*
X11427011Y-13282935D01*
X11427011Y-13282935D02*
X11417487Y-13292459D01*
X11417487Y-13292459D02*
X11398439Y-13301983D01*
X11398439Y-13301983D02*
X11379392Y-13301983D01*
X11379392Y-13301983D02*
X11360344Y-13292459D01*
X11360344Y-13292459D02*
X11350820Y-13282935D01*
X11350820Y-13282935D02*
X11341296Y-13263887D01*
X11341296Y-13263887D02*
X11331773Y-13225792D01*
X11331773Y-13225792D02*
X11331773Y-13178173D01*
X11331773Y-13178173D02*
X11341296Y-13140078D01*
X11341296Y-13140078D02*
X11350820Y-13121030D01*
X11350820Y-13121030D02*
X11360344Y-13111507D01*
X11360344Y-13111507D02*
X11379392Y-13101983D01*
X11569868Y-13101983D02*
X11588915Y-13101983D01*
X11588915Y-13101983D02*
X11607963Y-13111507D01*
X11607963Y-13111507D02*
X11617487Y-13121030D01*
X11617487Y-13121030D02*
X11627011Y-13140078D01*
X11627011Y-13140078D02*
X11636534Y-13178173D01*
X11636534Y-13178173D02*
X11636534Y-13225792D01*
X11636534Y-13225792D02*
X11627011Y-13263887D01*
X11627011Y-13263887D02*
X11617487Y-13282935D01*
X11617487Y-13282935D02*
X11607963Y-13292459D01*
X11607963Y-13292459D02*
X11588915Y-13301983D01*
X11588915Y-13301983D02*
X11569868Y-13301983D01*
X11569868Y-13301983D02*
X11550820Y-13292459D01*
X11550820Y-13292459D02*
X11541296Y-13282935D01*
X11541296Y-13282935D02*
X11531773Y-13263887D01*
X11531773Y-13263887D02*
X11522249Y-13225792D01*
X11522249Y-13225792D02*
X11522249Y-13178173D01*
X11522249Y-13178173D02*
X11531773Y-13140078D01*
X11531773Y-13140078D02*
X11541296Y-13121030D01*
X11541296Y-13121030D02*
X11550820Y-13111507D01*
X11550820Y-13111507D02*
X11569868Y-13101983D01*
X11722249Y-13301983D02*
X11722249Y-13168649D01*
X11722249Y-13187697D02*
X11731773Y-13178173D01*
X11731773Y-13178173D02*
X11750820Y-13168649D01*
X11750820Y-13168649D02*
X11779392Y-13168649D01*
X11779392Y-13168649D02*
X11798439Y-13178173D01*
X11798439Y-13178173D02*
X11807963Y-13197221D01*
X11807963Y-13197221D02*
X11807963Y-13301983D01*
X11807963Y-13197221D02*
X11817487Y-13178173D01*
X11817487Y-13178173D02*
X11836534Y-13168649D01*
X11836534Y-13168649D02*
X11865106Y-13168649D01*
X11865106Y-13168649D02*
X11884154Y-13178173D01*
X11884154Y-13178173D02*
X11893677Y-13197221D01*
X11893677Y-13197221D02*
X11893677Y-13301983D01*
X11988915Y-13301983D02*
X11988915Y-13168649D01*
X11988915Y-13187697D02*
X11998439Y-13178173D01*
X11998439Y-13178173D02*
X12017487Y-13168649D01*
X12017487Y-13168649D02*
X12046058Y-13168649D01*
X12046058Y-13168649D02*
X12065106Y-13178173D01*
X12065106Y-13178173D02*
X12074630Y-13197221D01*
X12074630Y-13197221D02*
X12074630Y-13301983D01*
X12074630Y-13197221D02*
X12084154Y-13178173D01*
X12084154Y-13178173D02*
X12103201Y-13168649D01*
X12103201Y-13168649D02*
X12131773Y-13168649D01*
X12131773Y-13168649D02*
X12150820Y-13178173D01*
X12150820Y-13178173D02*
X12160344Y-13197221D01*
X12160344Y-13197221D02*
X12160344Y-13301983D01*
X12550820Y-13092459D02*
X12379392Y-13349602D01*
X12807963Y-13101983D02*
X12827011Y-13101983D01*
X12827011Y-13101983D02*
X12846058Y-13111507D01*
X12846058Y-13111507D02*
X12855582Y-13121030D01*
X12855582Y-13121030D02*
X12865106Y-13140078D01*
X12865106Y-13140078D02*
X12874630Y-13178173D01*
X12874630Y-13178173D02*
X12874630Y-13225792D01*
X12874630Y-13225792D02*
X12865106Y-13263887D01*
X12865106Y-13263887D02*
X12855582Y-13282935D01*
X12855582Y-13282935D02*
X12846058Y-13292459D01*
X12846058Y-13292459D02*
X12827011Y-13301983D01*
X12827011Y-13301983D02*
X12807963Y-13301983D01*
X12807963Y-13301983D02*
X12788916Y-13292459D01*
X12788916Y-13292459D02*
X12779392Y-13282935D01*
X12779392Y-13282935D02*
X12769868Y-13263887D01*
X12769868Y-13263887D02*
X12760344Y-13225792D01*
X12760344Y-13225792D02*
X12760344Y-13178173D01*
X12760344Y-13178173D02*
X12769868Y-13140078D01*
X12769868Y-13140078D02*
X12779392Y-13121030D01*
X12779392Y-13121030D02*
X12788916Y-13111507D01*
X12788916Y-13111507D02*
X12807963Y-13101983D01*
X12960344Y-13282935D02*
X12969868Y-13292459D01*
X12969868Y-13292459D02*
X12960344Y-13301983D01*
X12960344Y-13301983D02*
X12950820Y-13292459D01*
X12950820Y-13292459D02*
X12960344Y-13282935D01*
X12960344Y-13282935D02*
X12960344Y-13301983D01*
X13093677Y-13101983D02*
X13112725Y-13101983D01*
X13112725Y-13101983D02*
X13131773Y-13111507D01*
X13131773Y-13111507D02*
X13141297Y-13121030D01*
X13141297Y-13121030D02*
X13150820Y-13140078D01*
X13150820Y-13140078D02*
X13160344Y-13178173D01*
X13160344Y-13178173D02*
X13160344Y-13225792D01*
X13160344Y-13225792D02*
X13150820Y-13263887D01*
X13150820Y-13263887D02*
X13141297Y-13282935D01*
X13141297Y-13282935D02*
X13131773Y-13292459D01*
X13131773Y-13292459D02*
X13112725Y-13301983D01*
X13112725Y-13301983D02*
X13093677Y-13301983D01*
X13093677Y-13301983D02*
X13074630Y-13292459D01*
X13074630Y-13292459D02*
X13065106Y-13282935D01*
X13065106Y-13282935D02*
X13055582Y-13263887D01*
X13055582Y-13263887D02*
X13046058Y-13225792D01*
X13046058Y-13225792D02*
X13046058Y-13178173D01*
X13046058Y-13178173D02*
X13055582Y-13140078D01*
X13055582Y-13140078D02*
X13065106Y-13121030D01*
X13065106Y-13121030D02*
X13074630Y-13111507D01*
X13074630Y-13111507D02*
X13093677Y-13101983D01*
X13350820Y-13301983D02*
X13236535Y-13301983D01*
X13293677Y-13301983D02*
X13293677Y-13101983D01*
X13293677Y-13101983D02*
X13274630Y-13130554D01*
X13274630Y-13130554D02*
X13255582Y-13149602D01*
X13255582Y-13149602D02*
X13236535Y-13159126D01*
X13531773Y-13101983D02*
X13436535Y-13101983D01*
X13436535Y-13101983D02*
X13427011Y-13197221D01*
X13427011Y-13197221D02*
X13436535Y-13187697D01*
X13436535Y-13187697D02*
X13455582Y-13178173D01*
X13455582Y-13178173D02*
X13503201Y-13178173D01*
X13503201Y-13178173D02*
X13522249Y-13187697D01*
X13522249Y-13187697D02*
X13531773Y-13197221D01*
X13531773Y-13197221D02*
X13541297Y-13216268D01*
X13541297Y-13216268D02*
X13541297Y-13263887D01*
X13541297Y-13263887D02*
X13531773Y-13282935D01*
X13531773Y-13282935D02*
X13522249Y-13292459D01*
X13522249Y-13292459D02*
X13503201Y-13301983D01*
X13503201Y-13301983D02*
X13455582Y-13301983D01*
X13455582Y-13301983D02*
X13436535Y-13292459D01*
X13436535Y-13292459D02*
X13427011Y-13282935D01*
X13607963Y-13101983D02*
X13741297Y-13101983D01*
X13741297Y-13101983D02*
X13655582Y-13301983D01*
X13807963Y-13101983D02*
X13807963Y-13140078D01*
X13884154Y-13101983D02*
X13884154Y-13140078D01*
X14179392Y-13378173D02*
X14169868Y-13368649D01*
X14169868Y-13368649D02*
X14150820Y-13340078D01*
X14150820Y-13340078D02*
X14141297Y-13321030D01*
X14141297Y-13321030D02*
X14131773Y-13292459D01*
X14131773Y-13292459D02*
X14122249Y-13244840D01*
X14122249Y-13244840D02*
X14122249Y-13206745D01*
X14122249Y-13206745D02*
X14131773Y-13159126D01*
X14131773Y-13159126D02*
X14141297Y-13130554D01*
X14141297Y-13130554D02*
X14150820Y-13111507D01*
X14150820Y-13111507D02*
X14169868Y-13082935D01*
X14169868Y-13082935D02*
X14179392Y-13073411D01*
X14246059Y-13121030D02*
X14255582Y-13111507D01*
X14255582Y-13111507D02*
X14274630Y-13101983D01*
X14274630Y-13101983D02*
X14322249Y-13101983D01*
X14322249Y-13101983D02*
X14341297Y-13111507D01*
X14341297Y-13111507D02*
X14350820Y-13121030D01*
X14350820Y-13121030D02*
X14360344Y-13140078D01*
X14360344Y-13140078D02*
X14360344Y-13159126D01*
X14360344Y-13159126D02*
X14350820Y-13187697D01*
X14350820Y-13187697D02*
X14236535Y-13301983D01*
X14236535Y-13301983D02*
X14360344Y-13301983D01*
X14484154Y-13101983D02*
X14503201Y-13101983D01*
X14503201Y-13101983D02*
X14522249Y-13111507D01*
X14522249Y-13111507D02*
X14531773Y-13121030D01*
X14531773Y-13121030D02*
X14541297Y-13140078D01*
X14541297Y-13140078D02*
X14550820Y-13178173D01*
X14550820Y-13178173D02*
X14550820Y-13225792D01*
X14550820Y-13225792D02*
X14541297Y-13263887D01*
X14541297Y-13263887D02*
X14531773Y-13282935D01*
X14531773Y-13282935D02*
X14522249Y-13292459D01*
X14522249Y-13292459D02*
X14503201Y-13301983D01*
X14503201Y-13301983D02*
X14484154Y-13301983D01*
X14484154Y-13301983D02*
X14465106Y-13292459D01*
X14465106Y-13292459D02*
X14455582Y-13282935D01*
X14455582Y-13282935D02*
X14446059Y-13263887D01*
X14446059Y-13263887D02*
X14436535Y-13225792D01*
X14436535Y-13225792D02*
X14436535Y-13178173D01*
X14436535Y-13178173D02*
X14446059Y-13140078D01*
X14446059Y-13140078D02*
X14455582Y-13121030D01*
X14455582Y-13121030D02*
X14465106Y-13111507D01*
X14465106Y-13111507D02*
X14484154Y-13101983D01*
X14617487Y-13101983D02*
X14741297Y-13101983D01*
X14741297Y-13101983D02*
X14674630Y-13178173D01*
X14674630Y-13178173D02*
X14703201Y-13178173D01*
X14703201Y-13178173D02*
X14722249Y-13187697D01*
X14722249Y-13187697D02*
X14731773Y-13197221D01*
X14731773Y-13197221D02*
X14741297Y-13216268D01*
X14741297Y-13216268D02*
X14741297Y-13263887D01*
X14741297Y-13263887D02*
X14731773Y-13282935D01*
X14731773Y-13282935D02*
X14722249Y-13292459D01*
X14722249Y-13292459D02*
X14703201Y-13301983D01*
X14703201Y-13301983D02*
X14646059Y-13301983D01*
X14646059Y-13301983D02*
X14627011Y-13292459D01*
X14627011Y-13292459D02*
X14617487Y-13282935D01*
X14979392Y-13301983D02*
X14979392Y-13101983D01*
X15065106Y-13301983D02*
X15065106Y-13197221D01*
X15065106Y-13197221D02*
X15055582Y-13178173D01*
X15055582Y-13178173D02*
X15036535Y-13168649D01*
X15036535Y-13168649D02*
X15007963Y-13168649D01*
X15007963Y-13168649D02*
X14988916Y-13178173D01*
X14988916Y-13178173D02*
X14979392Y-13187697D01*
X15188916Y-13301983D02*
X15169868Y-13292459D01*
X15169868Y-13292459D02*
X15160344Y-13282935D01*
X15160344Y-13282935D02*
X15150821Y-13263887D01*
X15150821Y-13263887D02*
X15150821Y-13206745D01*
X15150821Y-13206745D02*
X15160344Y-13187697D01*
X15160344Y-13187697D02*
X15169868Y-13178173D01*
X15169868Y-13178173D02*
X15188916Y-13168649D01*
X15188916Y-13168649D02*
X15217487Y-13168649D01*
X15217487Y-13168649D02*
X15236535Y-13178173D01*
X15236535Y-13178173D02*
X15246059Y-13187697D01*
X15246059Y-13187697D02*
X15255582Y-13206745D01*
X15255582Y-13206745D02*
X15255582Y-13263887D01*
X15255582Y-13263887D02*
X15246059Y-13282935D01*
X15246059Y-13282935D02*
X15236535Y-13292459D01*
X15236535Y-13292459D02*
X15217487Y-13301983D01*
X15217487Y-13301983D02*
X15188916Y-13301983D01*
X15369868Y-13301983D02*
X15350821Y-13292459D01*
X15350821Y-13292459D02*
X15341297Y-13273411D01*
X15341297Y-13273411D02*
X15341297Y-13101983D01*
X15522249Y-13292459D02*
X15503202Y-13301983D01*
X15503202Y-13301983D02*
X15465106Y-13301983D01*
X15465106Y-13301983D02*
X15446059Y-13292459D01*
X15446059Y-13292459D02*
X15436535Y-13273411D01*
X15436535Y-13273411D02*
X15436535Y-13197221D01*
X15436535Y-13197221D02*
X15446059Y-13178173D01*
X15446059Y-13178173D02*
X15465106Y-13168649D01*
X15465106Y-13168649D02*
X15503202Y-13168649D01*
X15503202Y-13168649D02*
X15522249Y-13178173D01*
X15522249Y-13178173D02*
X15531773Y-13197221D01*
X15531773Y-13197221D02*
X15531773Y-13216268D01*
X15531773Y-13216268D02*
X15436535Y-13235316D01*
X15607963Y-13292459D02*
X15627011Y-13301983D01*
X15627011Y-13301983D02*
X15665106Y-13301983D01*
X15665106Y-13301983D02*
X15684154Y-13292459D01*
X15684154Y-13292459D02*
X15693678Y-13273411D01*
X15693678Y-13273411D02*
X15693678Y-13263887D01*
X15693678Y-13263887D02*
X15684154Y-13244840D01*
X15684154Y-13244840D02*
X15665106Y-13235316D01*
X15665106Y-13235316D02*
X15636535Y-13235316D01*
X15636535Y-13235316D02*
X15617487Y-13225792D01*
X15617487Y-13225792D02*
X15607963Y-13206745D01*
X15607963Y-13206745D02*
X15607963Y-13197221D01*
X15607963Y-13197221D02*
X15617487Y-13178173D01*
X15617487Y-13178173D02*
X15636535Y-13168649D01*
X15636535Y-13168649D02*
X15665106Y-13168649D01*
X15665106Y-13168649D02*
X15684154Y-13178173D01*
X15760344Y-13378173D02*
X15769868Y-13368649D01*
X15769868Y-13368649D02*
X15788916Y-13340078D01*
X15788916Y-13340078D02*
X15798440Y-13321030D01*
X15798440Y-13321030D02*
X15807963Y-13292459D01*
X15807963Y-13292459D02*
X15817487Y-13244840D01*
X15817487Y-13244840D02*
X15817487Y-13206745D01*
X15817487Y-13206745D02*
X15807963Y-13159126D01*
X15807963Y-13159126D02*
X15798440Y-13130554D01*
X15798440Y-13130554D02*
X15788916Y-13111507D01*
X15788916Y-13111507D02*
X15769868Y-13082935D01*
X15769868Y-13082935D02*
X15760344Y-13073411D01*
D10*
X10564329Y-13434499D02*
X10564329Y-13514499D01*
X10524329Y-13474499D02*
X10604329Y-13474499D01*
D12*
X10903201Y-13365983D02*
X10922249Y-13365983D01*
X10922249Y-13365983D02*
X10941296Y-13375507D01*
X10941296Y-13375507D02*
X10950820Y-13385030D01*
X10950820Y-13385030D02*
X10960344Y-13404078D01*
X10960344Y-13404078D02*
X10969868Y-13442173D01*
X10969868Y-13442173D02*
X10969868Y-13489792D01*
X10969868Y-13489792D02*
X10960344Y-13527887D01*
X10960344Y-13527887D02*
X10950820Y-13546935D01*
X10950820Y-13546935D02*
X10941296Y-13556459D01*
X10941296Y-13556459D02*
X10922249Y-13565983D01*
X10922249Y-13565983D02*
X10903201Y-13565983D01*
X10903201Y-13565983D02*
X10884154Y-13556459D01*
X10884154Y-13556459D02*
X10874630Y-13546935D01*
X10874630Y-13546935D02*
X10865106Y-13527887D01*
X10865106Y-13527887D02*
X10855582Y-13489792D01*
X10855582Y-13489792D02*
X10855582Y-13442173D01*
X10855582Y-13442173D02*
X10865106Y-13404078D01*
X10865106Y-13404078D02*
X10874630Y-13385030D01*
X10874630Y-13385030D02*
X10884154Y-13375507D01*
X10884154Y-13375507D02*
X10903201Y-13365983D01*
X11055582Y-13546935D02*
X11065106Y-13556459D01*
X11065106Y-13556459D02*
X11055582Y-13565983D01*
X11055582Y-13565983D02*
X11046058Y-13556459D01*
X11046058Y-13556459D02*
X11055582Y-13546935D01*
X11055582Y-13546935D02*
X11055582Y-13565983D01*
X11179392Y-13451697D02*
X11160344Y-13442173D01*
X11160344Y-13442173D02*
X11150820Y-13432649D01*
X11150820Y-13432649D02*
X11141296Y-13413602D01*
X11141296Y-13413602D02*
X11141296Y-13404078D01*
X11141296Y-13404078D02*
X11150820Y-13385030D01*
X11150820Y-13385030D02*
X11160344Y-13375507D01*
X11160344Y-13375507D02*
X11179392Y-13365983D01*
X11179392Y-13365983D02*
X11217487Y-13365983D01*
X11217487Y-13365983D02*
X11236534Y-13375507D01*
X11236534Y-13375507D02*
X11246058Y-13385030D01*
X11246058Y-13385030D02*
X11255582Y-13404078D01*
X11255582Y-13404078D02*
X11255582Y-13413602D01*
X11255582Y-13413602D02*
X11246058Y-13432649D01*
X11246058Y-13432649D02*
X11236534Y-13442173D01*
X11236534Y-13442173D02*
X11217487Y-13451697D01*
X11217487Y-13451697D02*
X11179392Y-13451697D01*
X11179392Y-13451697D02*
X11160344Y-13461221D01*
X11160344Y-13461221D02*
X11150820Y-13470745D01*
X11150820Y-13470745D02*
X11141296Y-13489792D01*
X11141296Y-13489792D02*
X11141296Y-13527887D01*
X11141296Y-13527887D02*
X11150820Y-13546935D01*
X11150820Y-13546935D02*
X11160344Y-13556459D01*
X11160344Y-13556459D02*
X11179392Y-13565983D01*
X11179392Y-13565983D02*
X11217487Y-13565983D01*
X11217487Y-13565983D02*
X11236534Y-13556459D01*
X11236534Y-13556459D02*
X11246058Y-13546935D01*
X11246058Y-13546935D02*
X11255582Y-13527887D01*
X11255582Y-13527887D02*
X11255582Y-13489792D01*
X11255582Y-13489792D02*
X11246058Y-13470745D01*
X11246058Y-13470745D02*
X11236534Y-13461221D01*
X11236534Y-13461221D02*
X11217487Y-13451697D01*
X11379392Y-13365983D02*
X11398439Y-13365983D01*
X11398439Y-13365983D02*
X11417487Y-13375507D01*
X11417487Y-13375507D02*
X11427011Y-13385030D01*
X11427011Y-13385030D02*
X11436534Y-13404078D01*
X11436534Y-13404078D02*
X11446058Y-13442173D01*
X11446058Y-13442173D02*
X11446058Y-13489792D01*
X11446058Y-13489792D02*
X11436534Y-13527887D01*
X11436534Y-13527887D02*
X11427011Y-13546935D01*
X11427011Y-13546935D02*
X11417487Y-13556459D01*
X11417487Y-13556459D02*
X11398439Y-13565983D01*
X11398439Y-13565983D02*
X11379392Y-13565983D01*
X11379392Y-13565983D02*
X11360344Y-13556459D01*
X11360344Y-13556459D02*
X11350820Y-13546935D01*
X11350820Y-13546935D02*
X11341296Y-13527887D01*
X11341296Y-13527887D02*
X11331773Y-13489792D01*
X11331773Y-13489792D02*
X11331773Y-13442173D01*
X11331773Y-13442173D02*
X11341296Y-13404078D01*
X11341296Y-13404078D02*
X11350820Y-13385030D01*
X11350820Y-13385030D02*
X11360344Y-13375507D01*
X11360344Y-13375507D02*
X11379392Y-13365983D01*
X11569868Y-13365983D02*
X11588915Y-13365983D01*
X11588915Y-13365983D02*
X11607963Y-13375507D01*
X11607963Y-13375507D02*
X11617487Y-13385030D01*
X11617487Y-13385030D02*
X11627011Y-13404078D01*
X11627011Y-13404078D02*
X11636534Y-13442173D01*
X11636534Y-13442173D02*
X11636534Y-13489792D01*
X11636534Y-13489792D02*
X11627011Y-13527887D01*
X11627011Y-13527887D02*
X11617487Y-13546935D01*
X11617487Y-13546935D02*
X11607963Y-13556459D01*
X11607963Y-13556459D02*
X11588915Y-13565983D01*
X11588915Y-13565983D02*
X11569868Y-13565983D01*
X11569868Y-13565983D02*
X11550820Y-13556459D01*
X11550820Y-13556459D02*
X11541296Y-13546935D01*
X11541296Y-13546935D02*
X11531773Y-13527887D01*
X11531773Y-13527887D02*
X11522249Y-13489792D01*
X11522249Y-13489792D02*
X11522249Y-13442173D01*
X11522249Y-13442173D02*
X11531773Y-13404078D01*
X11531773Y-13404078D02*
X11541296Y-13385030D01*
X11541296Y-13385030D02*
X11550820Y-13375507D01*
X11550820Y-13375507D02*
X11569868Y-13365983D01*
X11722249Y-13565983D02*
X11722249Y-13432649D01*
X11722249Y-13451697D02*
X11731773Y-13442173D01*
X11731773Y-13442173D02*
X11750820Y-13432649D01*
X11750820Y-13432649D02*
X11779392Y-13432649D01*
X11779392Y-13432649D02*
X11798439Y-13442173D01*
X11798439Y-13442173D02*
X11807963Y-13461221D01*
X11807963Y-13461221D02*
X11807963Y-13565983D01*
X11807963Y-13461221D02*
X11817487Y-13442173D01*
X11817487Y-13442173D02*
X11836534Y-13432649D01*
X11836534Y-13432649D02*
X11865106Y-13432649D01*
X11865106Y-13432649D02*
X11884154Y-13442173D01*
X11884154Y-13442173D02*
X11893677Y-13461221D01*
X11893677Y-13461221D02*
X11893677Y-13565983D01*
X11988915Y-13565983D02*
X11988915Y-13432649D01*
X11988915Y-13451697D02*
X11998439Y-13442173D01*
X11998439Y-13442173D02*
X12017487Y-13432649D01*
X12017487Y-13432649D02*
X12046058Y-13432649D01*
X12046058Y-13432649D02*
X12065106Y-13442173D01*
X12065106Y-13442173D02*
X12074630Y-13461221D01*
X12074630Y-13461221D02*
X12074630Y-13565983D01*
X12074630Y-13461221D02*
X12084154Y-13442173D01*
X12084154Y-13442173D02*
X12103201Y-13432649D01*
X12103201Y-13432649D02*
X12131773Y-13432649D01*
X12131773Y-13432649D02*
X12150820Y-13442173D01*
X12150820Y-13442173D02*
X12160344Y-13461221D01*
X12160344Y-13461221D02*
X12160344Y-13565983D01*
X12550820Y-13356459D02*
X12379392Y-13613602D01*
X12807963Y-13365983D02*
X12827011Y-13365983D01*
X12827011Y-13365983D02*
X12846058Y-13375507D01*
X12846058Y-13375507D02*
X12855582Y-13385030D01*
X12855582Y-13385030D02*
X12865106Y-13404078D01*
X12865106Y-13404078D02*
X12874630Y-13442173D01*
X12874630Y-13442173D02*
X12874630Y-13489792D01*
X12874630Y-13489792D02*
X12865106Y-13527887D01*
X12865106Y-13527887D02*
X12855582Y-13546935D01*
X12855582Y-13546935D02*
X12846058Y-13556459D01*
X12846058Y-13556459D02*
X12827011Y-13565983D01*
X12827011Y-13565983D02*
X12807963Y-13565983D01*
X12807963Y-13565983D02*
X12788916Y-13556459D01*
X12788916Y-13556459D02*
X12779392Y-13546935D01*
X12779392Y-13546935D02*
X12769868Y-13527887D01*
X12769868Y-13527887D02*
X12760344Y-13489792D01*
X12760344Y-13489792D02*
X12760344Y-13442173D01*
X12760344Y-13442173D02*
X12769868Y-13404078D01*
X12769868Y-13404078D02*
X12779392Y-13385030D01*
X12779392Y-13385030D02*
X12788916Y-13375507D01*
X12788916Y-13375507D02*
X12807963Y-13365983D01*
X12960344Y-13546935D02*
X12969868Y-13556459D01*
X12969868Y-13556459D02*
X12960344Y-13565983D01*
X12960344Y-13565983D02*
X12950820Y-13556459D01*
X12950820Y-13556459D02*
X12960344Y-13546935D01*
X12960344Y-13546935D02*
X12960344Y-13565983D01*
X13093677Y-13365983D02*
X13112725Y-13365983D01*
X13112725Y-13365983D02*
X13131773Y-13375507D01*
X13131773Y-13375507D02*
X13141297Y-13385030D01*
X13141297Y-13385030D02*
X13150820Y-13404078D01*
X13150820Y-13404078D02*
X13160344Y-13442173D01*
X13160344Y-13442173D02*
X13160344Y-13489792D01*
X13160344Y-13489792D02*
X13150820Y-13527887D01*
X13150820Y-13527887D02*
X13141297Y-13546935D01*
X13141297Y-13546935D02*
X13131773Y-13556459D01*
X13131773Y-13556459D02*
X13112725Y-13565983D01*
X13112725Y-13565983D02*
X13093677Y-13565983D01*
X13093677Y-13565983D02*
X13074630Y-13556459D01*
X13074630Y-13556459D02*
X13065106Y-13546935D01*
X13065106Y-13546935D02*
X13055582Y-13527887D01*
X13055582Y-13527887D02*
X13046058Y-13489792D01*
X13046058Y-13489792D02*
X13046058Y-13442173D01*
X13046058Y-13442173D02*
X13055582Y-13404078D01*
X13055582Y-13404078D02*
X13065106Y-13385030D01*
X13065106Y-13385030D02*
X13074630Y-13375507D01*
X13074630Y-13375507D02*
X13093677Y-13365983D01*
X13227011Y-13365983D02*
X13350820Y-13365983D01*
X13350820Y-13365983D02*
X13284154Y-13442173D01*
X13284154Y-13442173D02*
X13312725Y-13442173D01*
X13312725Y-13442173D02*
X13331773Y-13451697D01*
X13331773Y-13451697D02*
X13341297Y-13461221D01*
X13341297Y-13461221D02*
X13350820Y-13480268D01*
X13350820Y-13480268D02*
X13350820Y-13527887D01*
X13350820Y-13527887D02*
X13341297Y-13546935D01*
X13341297Y-13546935D02*
X13331773Y-13556459D01*
X13331773Y-13556459D02*
X13312725Y-13565983D01*
X13312725Y-13565983D02*
X13255582Y-13565983D01*
X13255582Y-13565983D02*
X13236535Y-13556459D01*
X13236535Y-13556459D02*
X13227011Y-13546935D01*
X13541297Y-13565983D02*
X13427011Y-13565983D01*
X13484154Y-13565983D02*
X13484154Y-13365983D01*
X13484154Y-13365983D02*
X13465106Y-13394554D01*
X13465106Y-13394554D02*
X13446058Y-13413602D01*
X13446058Y-13413602D02*
X13427011Y-13423126D01*
X13722249Y-13365983D02*
X13627011Y-13365983D01*
X13627011Y-13365983D02*
X13617487Y-13461221D01*
X13617487Y-13461221D02*
X13627011Y-13451697D01*
X13627011Y-13451697D02*
X13646058Y-13442173D01*
X13646058Y-13442173D02*
X13693678Y-13442173D01*
X13693678Y-13442173D02*
X13712725Y-13451697D01*
X13712725Y-13451697D02*
X13722249Y-13461221D01*
X13722249Y-13461221D02*
X13731773Y-13480268D01*
X13731773Y-13480268D02*
X13731773Y-13527887D01*
X13731773Y-13527887D02*
X13722249Y-13546935D01*
X13722249Y-13546935D02*
X13712725Y-13556459D01*
X13712725Y-13556459D02*
X13693678Y-13565983D01*
X13693678Y-13565983D02*
X13646058Y-13565983D01*
X13646058Y-13565983D02*
X13627011Y-13556459D01*
X13627011Y-13556459D02*
X13617487Y-13546935D01*
X13807963Y-13365983D02*
X13807963Y-13404078D01*
X13884154Y-13365983D02*
X13884154Y-13404078D01*
X14179392Y-13642173D02*
X14169868Y-13632649D01*
X14169868Y-13632649D02*
X14150820Y-13604078D01*
X14150820Y-13604078D02*
X14141297Y-13585030D01*
X14141297Y-13585030D02*
X14131773Y-13556459D01*
X14131773Y-13556459D02*
X14122249Y-13508840D01*
X14122249Y-13508840D02*
X14122249Y-13470745D01*
X14122249Y-13470745D02*
X14131773Y-13423126D01*
X14131773Y-13423126D02*
X14141297Y-13394554D01*
X14141297Y-13394554D02*
X14150820Y-13375507D01*
X14150820Y-13375507D02*
X14169868Y-13346935D01*
X14169868Y-13346935D02*
X14179392Y-13337411D01*
X14341297Y-13432649D02*
X14341297Y-13565983D01*
X14293678Y-13356459D02*
X14246059Y-13499316D01*
X14246059Y-13499316D02*
X14369868Y-13499316D01*
X14598440Y-13565983D02*
X14598440Y-13365983D01*
X14684154Y-13565983D02*
X14684154Y-13461221D01*
X14684154Y-13461221D02*
X14674630Y-13442173D01*
X14674630Y-13442173D02*
X14655582Y-13432649D01*
X14655582Y-13432649D02*
X14627011Y-13432649D01*
X14627011Y-13432649D02*
X14607963Y-13442173D01*
X14607963Y-13442173D02*
X14598440Y-13451697D01*
X14807963Y-13565983D02*
X14788916Y-13556459D01*
X14788916Y-13556459D02*
X14779392Y-13546935D01*
X14779392Y-13546935D02*
X14769868Y-13527887D01*
X14769868Y-13527887D02*
X14769868Y-13470745D01*
X14769868Y-13470745D02*
X14779392Y-13451697D01*
X14779392Y-13451697D02*
X14788916Y-13442173D01*
X14788916Y-13442173D02*
X14807963Y-13432649D01*
X14807963Y-13432649D02*
X14836535Y-13432649D01*
X14836535Y-13432649D02*
X14855582Y-13442173D01*
X14855582Y-13442173D02*
X14865106Y-13451697D01*
X14865106Y-13451697D02*
X14874630Y-13470745D01*
X14874630Y-13470745D02*
X14874630Y-13527887D01*
X14874630Y-13527887D02*
X14865106Y-13546935D01*
X14865106Y-13546935D02*
X14855582Y-13556459D01*
X14855582Y-13556459D02*
X14836535Y-13565983D01*
X14836535Y-13565983D02*
X14807963Y-13565983D01*
X14988916Y-13565983D02*
X14969868Y-13556459D01*
X14969868Y-13556459D02*
X14960344Y-13537411D01*
X14960344Y-13537411D02*
X14960344Y-13365983D01*
X15141297Y-13556459D02*
X15122249Y-13565983D01*
X15122249Y-13565983D02*
X15084154Y-13565983D01*
X15084154Y-13565983D02*
X15065106Y-13556459D01*
X15065106Y-13556459D02*
X15055582Y-13537411D01*
X15055582Y-13537411D02*
X15055582Y-13461221D01*
X15055582Y-13461221D02*
X15065106Y-13442173D01*
X15065106Y-13442173D02*
X15084154Y-13432649D01*
X15084154Y-13432649D02*
X15122249Y-13432649D01*
X15122249Y-13432649D02*
X15141297Y-13442173D01*
X15141297Y-13442173D02*
X15150821Y-13461221D01*
X15150821Y-13461221D02*
X15150821Y-13480268D01*
X15150821Y-13480268D02*
X15055582Y-13499316D01*
X15227011Y-13556459D02*
X15246059Y-13565983D01*
X15246059Y-13565983D02*
X15284154Y-13565983D01*
X15284154Y-13565983D02*
X15303202Y-13556459D01*
X15303202Y-13556459D02*
X15312725Y-13537411D01*
X15312725Y-13537411D02*
X15312725Y-13527887D01*
X15312725Y-13527887D02*
X15303202Y-13508840D01*
X15303202Y-13508840D02*
X15284154Y-13499316D01*
X15284154Y-13499316D02*
X15255582Y-13499316D01*
X15255582Y-13499316D02*
X15236535Y-13489792D01*
X15236535Y-13489792D02*
X15227011Y-13470745D01*
X15227011Y-13470745D02*
X15227011Y-13461221D01*
X15227011Y-13461221D02*
X15236535Y-13442173D01*
X15236535Y-13442173D02*
X15255582Y-13432649D01*
X15255582Y-13432649D02*
X15284154Y-13432649D01*
X15284154Y-13432649D02*
X15303202Y-13442173D01*
X15379392Y-13642173D02*
X15388916Y-13632649D01*
X15388916Y-13632649D02*
X15407963Y-13604078D01*
X15407963Y-13604078D02*
X15417487Y-13585030D01*
X15417487Y-13585030D02*
X15427011Y-13556459D01*
X15427011Y-13556459D02*
X15436535Y-13508840D01*
X15436535Y-13508840D02*
X15436535Y-13470745D01*
X15436535Y-13470745D02*
X15427011Y-13423126D01*
X15427011Y-13423126D02*
X15417487Y-13394554D01*
X15417487Y-13394554D02*
X15407963Y-13375507D01*
X15407963Y-13375507D02*
X15388916Y-13346935D01*
X15388916Y-13346935D02*
X15379392Y-13337411D01*
M02*
