M48
; DRILL file {KiCad 9.0.7} date 2026-02-02T08:38:10+1100
; FORMAT={-:-/ absolute / metric / decimal}
; #@! TF.CreationDate,2026-02-02T08:38:10+11:00
; #@! TF.GenerationSoftware,Kicad,Pcbnew,9.0.7
; #@! TF.FileFunction,Plated,1,4,PTH
FMAT,2
METRIC
; #@! TA.AperFunction,Plated,PTH,ViaDrill
T1C0.200
; #@! TA.AperFunction,Plated,PTH,ViaDrill
T2C0.400
; #@! TA.AperFunction,Plated,PTH,ComponentDrill
T3C0.800
%
G90
G05
T1
X141.791Y-94.651
X142.5Y-102.6
X142.583Y-109.578
X143.25Y-106.95
X143.3Y-102.3
X143.3Y-109.4
X143.9Y-115.8
X143.9Y-119.3
X144.0Y-91.8
X144.4Y-108.2
X144.568Y-95.254
X145.65Y-100.15
X146.6Y-100.4
X147.6Y-92.1
X148.229Y-94.359
T2
X107.0Y-115.2
X107.0Y-116.1
X108.3Y-113.5
X108.6Y-119.1
X108.6Y-120.0
X108.6Y-120.9
X109.5Y-106.4
X109.5Y-113.5
X109.585Y-118.371
X109.6Y-98.835
X110.0Y-119.2
X110.1Y-107.0
X110.8Y-108.794
X111.3Y-94.7
X111.4Y-118.6
X111.502Y-95.9
X111.8Y-109.5
X112.3Y-113.3
X112.7Y-93.8
X113.2Y-98.2
X113.28Y-118.5
X114.3Y-113.5
X115.1Y-118.6
X115.8Y-106.5
X115.8Y-107.7
X116.2Y-94.2
X116.3Y-97.3
X133.7Y-121.4
X133.9Y-98.1
X133.9Y-101.3
X134.1Y-95.3
X134.109Y-94.454
X134.4Y-115.1
X134.5Y-91.1
X135.0Y-101.6
X135.1Y-119.1
X135.3Y-98.3
X135.314Y-110.014
X135.4Y-91.1
X135.4Y-115.1
X135.5Y-113.3
X135.9Y-117.7
X135.922Y-110.869
X136.1Y-98.7
X136.3Y-91.1
X136.4Y-104.6
X136.4Y-112.5
X136.6Y-106.9
X136.6Y-107.8
X137.2Y-91.1
X137.424Y-98.038
X137.8Y-121.9
X138.1Y-91.1
X138.4Y-111.7
X138.7Y-97.7
X138.9Y-117.7
X139.1Y-91.1
X139.4Y-94.1
X139.9Y-109.6
X140.09Y-104.8
X140.1Y-91.1
X140.1Y-103.7
X140.1Y-117.0
X140.288Y-99.499
X140.3Y-98.5
X140.593Y-109.6
X140.8Y-105.4
X141.1Y-93.4
X141.1Y-94.2
X141.329Y-110.271
X141.6Y-101.2
X141.6Y-114.1
X141.6Y-117.3
X141.8Y-109.0
X142.0Y-110.8
X142.335Y-96.635
X142.357Y-100.326
X142.368Y-99.339
X142.4Y-90.976
X142.4Y-93.4
X143.2Y-103.1
X143.4Y-99.1
X143.4Y-100.3
X144.0Y-98.5
X144.544Y-97.842
X144.681Y-100.368
X144.9Y-109.6
X145.186Y-103.0
X147.4Y-95.3
X147.444Y-96.3
X147.444Y-97.227
X147.6Y-108.8
X147.7Y-111.2
X147.7Y-112.2
X147.7Y-113.1
X148.2Y-109.5
X148.4Y-118.2
X148.5Y-93.1
X148.897Y-105.2
X148.9Y-107.5
X149.226Y-96.126
X149.23Y-95.179
X149.384Y-91.626
X149.4Y-90.8
X149.4Y-114.2
X149.62Y-115.101
X150.195Y-115.828
X150.388Y-114.165
X150.5Y-90.8
X150.5Y-91.514
X150.9Y-107.4
X150.904Y-113.395
X151.0Y-101.9
X151.0Y-104.3
X151.1Y-105.5
X151.1Y-106.4
X151.121Y-115.799
X152.2Y-111.5
X152.4Y-100.6
X152.7Y-119.1
X152.9Y-91.5
X152.9Y-92.2
X153.4Y-100.6
X153.565Y-102.6
X153.8Y-91.5
X153.8Y-92.25
X153.9Y-101.6
X154.3Y-113.5
X154.3Y-115.6
X154.4Y-95.5
X154.9Y-101.7
X154.9Y-117.3
X155.2Y-105.9
X155.3Y-103.3
X155.443Y-106.8
X155.5Y-95.5
X155.929Y-114.181
X156.0Y-120.2
X156.4Y-116.0
X156.5Y-118.2
X157.1Y-120.6
X157.274Y-104.148
X157.3Y-111.0
X157.3Y-111.9
X157.5Y-118.2
X157.7Y-108.8
X158.1Y-111.4
X158.442Y-113.295
X158.9Y-101.1
X159.0Y-97.4
X159.649Y-113.9
X160.0Y-99.9
X161.3Y-109.6
X161.4Y-108.1
X161.5Y-102.0
X161.7Y-99.7
X161.7Y-106.4
X162.0Y-105.0
X162.3Y-109.3
X162.4Y-104.1
X162.438Y-107.816
X162.5Y-102.6
X162.5Y-112.3
X162.7Y-106.0
X162.7Y-106.927
X162.8Y-105.0
X163.5Y-103.0
X164.8Y-92.1
X165.2Y-97.8
X165.7Y-95.3
X166.3Y-95.9
X166.3Y-96.8
X177.3Y-99.9
X178.4Y-104.5
X178.8Y-101.4
X180.3Y-107.7
X180.7Y-94.8
X181.0Y-108.4
X181.5Y-100.5
X182.0Y-93.8
X182.0Y-94.8
X182.0Y-99.4
X182.2Y-102.5
X182.3Y-107.9
X182.5Y-100.9
X183.0Y-94.8
X183.5Y-93.7
X183.8Y-104.1
X184.7Y-93.8
X185.3Y-110.2
X185.3Y-111.2
X185.3Y-112.2
X186.2Y-92.2
X186.2Y-93.1
X186.2Y-94.0
X186.2Y-99.5
X186.2Y-118.8
X186.2Y-119.7
X186.2Y-120.6
X187.3Y-99.5
X187.9Y-95.6
X187.9Y-117.1
X188.3Y-99.5
T3
X107.6Y-102.48
X107.6Y-110.1
X187.4Y-102.38
X187.4Y-110.0
M30
