ISO-10303-21;
HEADER;

/* File generated by Shapr3D Version 26.10.10376.0 */

FILE_DESCRIPTION(('HOOPS Exchange Step'),'2;1');

FILE_NAME('C:\\Users\\sanya\\AppData\\Local\\Packages\\Shapr3D.Shapr3D_dvv5p1vgwv6mp\\TempState\\export\\temp_export',
'2026-02-15T11:52:47+11:00',
('sanya'),
('Shapr3D Limited'),
'HOOPS Exchange 2025.9',
'Shapr3D',
'Authorized');

FILE_SCHEMA( ('AP242_MANAGED_MODEL_BASED_3D_ENGINEERING_MIM_LF {1 0 10303 442 1 1 4}') );

ENDSEC;

DATA;
#3=(NAMED_UNIT(*)PLANE_ANGLE_UNIT()SI_UNIT($,.RADIAN.));
#4=PLANE_ANGLE_MEASURE_WITH_UNIT(PLANE_ANGLE_MEASURE(0.0174532925),#3);
#5=(CONVERSION_BASED_UNIT('DEGREE',#4)NAMED_UNIT(#6)PLANE_ANGLE_UNIT());
#6=DIMENSIONAL_EXPONENTS(0.,0.,0.,0.,0.,0.,0.);
#7=(NAMED_UNIT(*)SI_UNIT($,.STERADIAN.)SOLID_ANGLE_UNIT());
#8=(LENGTH_UNIT()NAMED_UNIT(*)SI_UNIT(.MILLI.,.METRE.));
#9=UNCERTAINTY_MEASURE_WITH_UNIT(LENGTH_MEASURE(1.000000E-05),#8,'DISTANCE_ACCURACY_VALUE','Maximum Tolerance applied to model');
#10=(GEOMETRIC_REPRESENTATION_CONTEXT(3)GLOBAL_UNCERTAINTY_ASSIGNED_CONTEXT((#9))GLOBAL_UNIT_ASSIGNED_CONTEXT((#8,#5,#7))REPRESENTATION_CONTEXT('','top plate (end battery)'));
#12=CARTESIAN_POINT('',(0.,0.,0.));
#13=DIRECTION('',(0.,0.,1.));
#14=DIRECTION('',(1.,0.,0.));
#15=AXIS2_PLACEMENT_3D('',#12,#13,#14);
#27=CARTESIAN_POINT('',(-55.305354823,0.,-45.848065933));
#28=DIRECTION('',(-0.866025404,-0.,0.5));
#29=DIRECTION('',(0.5,-0.,0.866025404));
#30=AXIS2_PLACEMENT_3D('',#27,#28,#29);
#31=PLANE('',#30);
#32=CARTESIAN_POINT('',(-53.825778055,-16.55,-43.285363824));
#33=VERTEX_POINT('',#32);
#34=CARTESIAN_POINT('',(-47.616506506,-16.55,-32.530590022));
#35=VERTEX_POINT('',#34);
#36=CARTESIAN_POINT('',(-53.825778066,-16.55,-43.285363818));
#37=DIRECTION('',(0.5,0.,0.866025404));
#38=VECTOR('',#37,12.418543099);
#39=LINE('',#36,#38);
#40=EDGE_CURVE('',#33,#35,#39,.T.);
#41=ORIENTED_EDGE('',*,*,#40,.F.);
#42=CARTESIAN_POINT('',(-52.953567292,-17.301146922,-41.774650441));
#43=VERTEX_POINT('',#42);
#44=CARTESIAN_POINT('',(-52.95356728,-14.9,-41.774650447));
#45=DIRECTION('',(-0.866025404,0.,0.5));
#46=DIRECTION('',(0.5,0.,0.866025404));
#47=AXIS2_PLACEMENT_3D('',#44,#45,#46);
#48=CIRCLE('',#47,2.401146922);
#49=EDGE_CURVE('',#33,#43,#48,.T.);
#50=ORIENTED_EDGE('',*,*,#49,.T.);
#51=CARTESIAN_POINT('',(-48.488717291,-17.301146923,-34.041303393));
#52=VERTEX_POINT('',#51);
#53=CARTESIAN_POINT('',(-48.488717281,-17.301146923,-34.041303399));
#54=DIRECTION('',(-0.5,0.,-0.866025404));
#55=VECTOR('',#54,8.9297);
#56=LINE('',#53,#55);
#57=EDGE_CURVE('',#52,#43,#56,.T.);
#58=ORIENTED_EDGE('',*,*,#57,.F.);
#59=CARTESIAN_POINT('',(-48.488717281,-14.9,-34.041303399));
#60=DIRECTION('',(-0.866025404,0.,0.5));
#61=DIRECTION('',(0.5,0.,0.866025404));
#62=AXIS2_PLACEMENT_3D('',#59,#60,#61);
#63=CIRCLE('',#62,2.401146923);
#64=EDGE_CURVE('',#52,#35,#63,.T.);
#65=ORIENTED_EDGE('',*,*,#64,.T.);
#66=EDGE_LOOP('',(#41,#50,#58,#65));
#67=FACE_BOUND('',#66,.T.);
#68=CARTESIAN_POINT('',(-52.953567292,17.301146922,-41.774650441));
#69=VERTEX_POINT('',#68);
#70=CARTESIAN_POINT('',(-53.825778055,16.55,-43.285363824));
#71=VERTEX_POINT('',#70);
#72=CARTESIAN_POINT('',(-52.95356728,14.9,-41.774650447));
#73=DIRECTION('',(-0.866025404,0.,0.5));
#74=DIRECTION('',(0.5,0.,0.866025404));
#75=AXIS2_PLACEMENT_3D('',#72,#73,#74);
#76=CIRCLE('',#75,2.401146922);
#77=EDGE_CURVE('',#69,#71,#76,.T.);
#78=ORIENTED_EDGE('',*,*,#77,.T.);
#79=CARTESIAN_POINT('',(-47.616506506,16.55,-32.530590022));
#80=VERTEX_POINT('',#79);
#81=CARTESIAN_POINT('',(-47.616506515,16.55,-32.530590016));
#82=DIRECTION('',(-0.5,0.,-0.866025404));
#83=VECTOR('',#82,12.418543099);
#84=LINE('',#81,#83);
#85=EDGE_CURVE('',#80,#71,#84,.T.);
#86=ORIENTED_EDGE('',*,*,#85,.F.);
#87=CARTESIAN_POINT('',(-48.488717281,17.301146923,-34.041303399));
#88=VERTEX_POINT('',#87);
#89=CARTESIAN_POINT('',(-48.488717281,14.9,-34.041303399));
#90=DIRECTION('',(-0.866025404,0.,0.5));
#91=DIRECTION('',(0.5,0.,0.866025404));
#92=AXIS2_PLACEMENT_3D('',#89,#90,#91);
#93=CIRCLE('',#92,2.401146923);
#94=EDGE_CURVE('',#80,#88,#93,.T.);
#95=ORIENTED_EDGE('',*,*,#94,.T.);
#96=CARTESIAN_POINT('',(-52.95356728,17.301146922,-41.774650447));
#97=DIRECTION('',(0.5,0.,0.866025404));
#98=VECTOR('',#97,8.9297);
#99=LINE('',#96,#98);
#100=EDGE_CURVE('',#69,#88,#99,.T.);
#101=ORIENTED_EDGE('',*,*,#100,.F.);
#102=EDGE_LOOP('',(#78,#86,#95,#101));
#103=FACE_BOUND('',#102,.T.);
#104=CARTESIAN_POINT('',(-47.57114229,-15.5,-32.452016873));
#105=VERTEX_POINT('',#104);
#106=CARTESIAN_POINT('',(-47.57114229,15.5,-32.452016873));
#107=VERTEX_POINT('',#106);
#108=CARTESIAN_POINT('',(-47.57114229,-15.5,-32.452016873));
#109=DIRECTION('',(-0.,1.,0.));
#110=VECTOR('',#109,31.);
#111=LINE('',#108,#110);
#112=EDGE_CURVE('',#105,#107,#111,.T.);
#113=ORIENTED_EDGE('',*,*,#112,.T.);
#114=CARTESIAN_POINT('',(-54.071142291,15.5,-43.710347121));
#115=VERTEX_POINT('',#114);
#116=CARTESIAN_POINT('',(-54.071142291,15.5,-43.710347121));
#117=DIRECTION('',(0.5,0.,0.866025404));
#118=VECTOR('',#117,13.);
#119=LINE('',#116,#118);
#120=EDGE_CURVE('',#115,#107,#119,.T.);
#121=ORIENTED_EDGE('',*,*,#120,.F.);
#122=CARTESIAN_POINT('',(-54.071142291,-15.5,-43.710347121));
#123=VERTEX_POINT('',#122);
#124=CARTESIAN_POINT('',(-54.071142291,15.5,-43.710347121));
#125=DIRECTION('',(0.,-1.,-0.));
#126=VECTOR('',#125,31.);
#127=LINE('',#124,#126);
#128=EDGE_CURVE('',#115,#123,#127,.T.);
#129=ORIENTED_EDGE('',*,*,#128,.T.);
#130=CARTESIAN_POINT('',(-47.57114229,-15.5,-32.452016873));
#131=DIRECTION('',(-0.5,0.,-0.866025404));
#132=VECTOR('',#131,13.);
#133=LINE('',#130,#132);
#134=EDGE_CURVE('',#105,#123,#133,.T.);
#135=ORIENTED_EDGE('',*,*,#134,.F.);
#136=EDGE_LOOP('',(#113,#121,#129,#135));
#137=FACE_BOUND('',#136,.T.);
#138=CARTESIAN_POINT('',(-48.488717291,-18.351146923,-34.041303393));
#139=VERTEX_POINT('',#138);
#140=CARTESIAN_POINT('',(-46.763143829,-14.9,-31.052522486));
#141=VERTEX_POINT('',#140);
#142=CARTESIAN_POINT('',(-48.488717291,-14.9,-34.041303393));
#143=DIRECTION('',(-0.866025404,-0.,0.5));
#144=DIRECTION('',(-0.5,0.,-0.866025404));
#145=AXIS2_PLACEMENT_3D('',#142,#143,#144);
#146=CIRCLE('',#145,3.451146923);
#147=EDGE_CURVE('',#139,#141,#146,.T.);
#148=ORIENTED_EDGE('',*,*,#147,.F.);
#149=CARTESIAN_POINT('',(-52.953567291,-18.351146922,-41.774650441));
#150=VERTEX_POINT('',#149);
#151=CARTESIAN_POINT('',(-52.953567291,-18.351146922,-41.774650441));
#152=CARTESIAN_POINT('',(-51.465283958,-18.351146922,-39.196868092));
#153=CARTESIAN_POINT('',(-49.977000624,-18.351146922,-36.619085742));
#154=CARTESIAN_POINT('',(-48.488717291,-18.351146923,-34.041303393));
#155=B_SPLINE_CURVE_WITH_KNOTS('',3,(#151,#152,#153,#154),.UNSPECIFIED.,.F.,.F.,(4,4),(0.008985718,0.017915418),.UNSPECIFIED.);
#156=EDGE_CURVE('',#150,#139,#155,.T.);
#157=ORIENTED_EDGE('',*,*,#156,.F.);
#158=CARTESIAN_POINT('',(-54.679140753,-14.9,-44.763431347));
#159=VERTEX_POINT('',#158);
#160=CARTESIAN_POINT('',(-52.953567291,-14.9,-41.774650441));
#161=DIRECTION('',(-0.866025404,-0.,0.5));
#162=DIRECTION('',(-0.5,0.,-0.866025404));
#163=AXIS2_PLACEMENT_3D('',#160,#161,#162);
#164=CIRCLE('',#163,3.451146922);
#165=EDGE_CURVE('',#159,#150,#164,.T.);
#166=ORIENTED_EDGE('',*,*,#165,.F.);
#167=CARTESIAN_POINT('',(-54.679140753,14.9,-44.763431347));
#168=VERTEX_POINT('',#167);
#169=CARTESIAN_POINT('',(-54.679140753,14.9,-44.763431347));
#170=DIRECTION('',(-0.,-1.,-0.));
#171=VECTOR('',#170,29.8);
#172=LINE('',#169,#171);
#173=EDGE_CURVE('',#168,#159,#172,.T.);
#174=ORIENTED_EDGE('',*,*,#173,.F.);
#175=CARTESIAN_POINT('',(-52.953567291,18.351146922,-41.774650441));
#176=VERTEX_POINT('',#175);
#177=CARTESIAN_POINT('',(-52.953567291,14.9,-41.774650441));
#178=DIRECTION('',(-0.866025404,-0.,0.5));
#179=DIRECTION('',(-0.5,0.,-0.866025404));
#180=AXIS2_PLACEMENT_3D('',#177,#178,#179);
#181=CIRCLE('',#180,3.451146922);
#182=EDGE_CURVE('',#176,#168,#181,.T.);
#183=ORIENTED_EDGE('',*,*,#182,.F.);
#184=CARTESIAN_POINT('',(-48.488717291,18.351146923,-34.041303393));
#185=VERTEX_POINT('',#184);
#186=CARTESIAN_POINT('',(-48.488717291,18.351146923,-34.041303393));
#187=CARTESIAN_POINT('',(-49.977000624,18.351146922,-36.619085742));
#188=CARTESIAN_POINT('',(-51.465283958,18.351146922,-39.196868092));
#189=CARTESIAN_POINT('',(-52.953567291,18.351146922,-41.774650441));
#190=B_SPLINE_CURVE_WITH_KNOTS('',3,(#186,#187,#188,#189),.UNSPECIFIED.,.F.,.F.,(4,4),(0.008985718,0.017915418),.UNSPECIFIED.);
#191=EDGE_CURVE('',#185,#176,#190,.T.);
#192=ORIENTED_EDGE('',*,*,#191,.F.);
#193=CARTESIAN_POINT('',(-46.763143829,14.9,-31.052522486));
#194=VERTEX_POINT('',#193);
#195=CARTESIAN_POINT('',(-48.488717291,14.9,-34.041303393));
#196=DIRECTION('',(-0.866025404,-0.,0.5));
#197=DIRECTION('',(-0.5,0.,-0.866025404));
#198=AXIS2_PLACEMENT_3D('',#195,#196,#197);
#199=CIRCLE('',#198,3.451146923);
#200=EDGE_CURVE('',#194,#185,#199,.T.);
#201=ORIENTED_EDGE('',*,*,#200,.F.);
#202=CARTESIAN_POINT('',(-46.763143829,-14.9,-31.052522486));
#203=DIRECTION('',(0.,1.,0.));
#204=VECTOR('',#203,29.8);
#205=LINE('',#202,#204);
#206=EDGE_CURVE('',#141,#194,#205,.T.);
#207=ORIENTED_EDGE('',*,*,#206,.F.);
#208=EDGE_LOOP('',(#148,#157,#166,#174,#183,#192,#201,#207));
#209=FACE_BOUND('',#208,.T.);
#210=ADVANCED_FACE('',(#67,#103,#137,#209),#31,.F.);
#211=CARTESIAN_POINT('',(-25.720218032,-0.,6.777416906));
#212=DIRECTION('',(-0.866025404,0.,0.5));
#213=DIRECTION('',(-0.5,0.,-0.866025404));
#214=AXIS2_PLACEMENT_3D('',#211,#212,#213);
#215=PLANE('',#214);
#216=CARTESIAN_POINT('',(-54.802217211,-14.9,-43.594083258));
#217=VERTEX_POINT('',#216);
#218=CARTESIAN_POINT('',(-54.802217211,14.9,-43.594083258));
#219=VERTEX_POINT('',#218);
#220=CARTESIAN_POINT('',(-54.802217211,-14.9,-43.594083258));
#221=DIRECTION('',(0.,1.,0.));
#222=VECTOR('',#221,29.8);
#223=LINE('',#220,#222);
#224=EDGE_CURVE('',#217,#219,#223,.T.);
#225=ORIENTED_EDGE('',*,*,#224,.F.);
#226=CARTESIAN_POINT('',(-53.552217211,-17.4,-41.429019748));
#227=VERTEX_POINT('',#226);
#228=CARTESIAN_POINT('',(-53.552217211,-14.9,-41.429019748));
#229=DIRECTION('',(0.866025404,0.,-0.5));
#230=DIRECTION('',(-0.5,0.,-0.866025404));
#231=AXIS2_PLACEMENT_3D('',#228,#229,#230);
#232=CIRCLE('',#231,2.5);
#233=EDGE_CURVE('',#227,#217,#232,.T.);
#234=ORIENTED_EDGE('',*,*,#233,.F.);
#235=CARTESIAN_POINT('',(-49.087367211,-17.4,-33.6956727));
#236=VERTEX_POINT('',#235);
#237=CARTESIAN_POINT('',(-49.087367211,-17.4,-33.6956727));
#238=DIRECTION('',(-0.5,-0.,-0.866025404));
#239=VECTOR('',#238,8.9297);
#240=LINE('',#237,#239);
#241=EDGE_CURVE('',#236,#227,#240,.T.);
#242=ORIENTED_EDGE('',*,*,#241,.F.);
#243=CARTESIAN_POINT('',(-47.837367211,-14.9,-31.530609191));
#244=VERTEX_POINT('',#243);
#245=CARTESIAN_POINT('',(-49.087367211,-14.9,-33.6956727));
#246=DIRECTION('',(0.866025404,0.,-0.5));
#247=DIRECTION('',(-0.5,0.,-0.866025404));
#248=AXIS2_PLACEMENT_3D('',#245,#246,#247);
#249=CIRCLE('',#248,2.5);
#250=EDGE_CURVE('',#244,#236,#249,.T.);
#251=ORIENTED_EDGE('',*,*,#250,.F.);
#252=CARTESIAN_POINT('',(-47.837367211,14.9,-31.530609191));
#253=VERTEX_POINT('',#252);
#254=CARTESIAN_POINT('',(-47.837367211,14.9,-31.530609191));
#255=DIRECTION('',(-0.,-1.,-0.));
#256=VECTOR('',#255,29.8);
#257=LINE('',#254,#256);
#258=EDGE_CURVE('',#253,#244,#257,.T.);
#259=ORIENTED_EDGE('',*,*,#258,.F.);
#260=CARTESIAN_POINT('',(-49.087367211,17.4,-33.6956727));
#261=VERTEX_POINT('',#260);
#262=CARTESIAN_POINT('',(-49.087367211,14.9,-33.6956727));
#263=DIRECTION('',(0.866025404,0.,-0.5));
#264=DIRECTION('',(-0.5,0.,-0.866025404));
#265=AXIS2_PLACEMENT_3D('',#262,#263,#264);
#266=CIRCLE('',#265,2.5);
#267=EDGE_CURVE('',#261,#253,#266,.T.);
#268=ORIENTED_EDGE('',*,*,#267,.F.);
#269=CARTESIAN_POINT('',(-53.552217211,17.4,-41.429019748));
#270=VERTEX_POINT('',#269);
#271=CARTESIAN_POINT('',(-53.552217211,17.4,-41.429019748));
#272=DIRECTION('',(0.5,-0.,0.866025404));
#273=VECTOR('',#272,8.9297);
#274=LINE('',#271,#273);
#275=EDGE_CURVE('',#270,#261,#274,.T.);
#276=ORIENTED_EDGE('',*,*,#275,.F.);
#277=CARTESIAN_POINT('',(-53.552217211,14.9,-41.429019748));
#278=DIRECTION('',(0.866025404,0.,-0.5));
#279=DIRECTION('',(-0.5,0.,-0.866025404));
#280=AXIS2_PLACEMENT_3D('',#277,#278,#279);
#281=CIRCLE('',#280,2.5);
#282=EDGE_CURVE('',#219,#270,#281,.T.);
#283=ORIENTED_EDGE('',*,*,#282,.F.);
#284=EDGE_LOOP('',(#225,#234,#242,#251,#259,#268,#276,#283));
#285=FACE_BOUND('',#284,.T.);
#286=ADVANCED_FACE('',(#285),#215,.T.);
#287=CARTESIAN_POINT('',(-52.686191808,14.9,-41.929019748));
#288=DIRECTION('',(-0.866025404,0.,0.5));
#289=DIRECTION('',(-0.5,0.,-0.866025404));
#290=AXIS2_PLACEMENT_3D('',#287,#288,#289);
#291=TOROIDAL_SURFACE('',#290,2.5,1.);
#292=ORIENTED_EDGE('',*,*,#182,.T.);
#293=CARTESIAN_POINT('',(-53.936191808,14.9,-44.094083258));
#294=DIRECTION('',(0.,-1.,0.));
#295=DIRECTION('',(-0.866025404,0.,0.5));
#296=AXIS2_PLACEMENT_3D('',#293,#294,#295);
#297=CIRCLE('',#296,1.);
#298=EDGE_CURVE('',#219,#168,#297,.T.);
#299=ORIENTED_EDGE('',*,*,#298,.F.);
#300=ORIENTED_EDGE('',*,*,#282,.T.);
#301=CARTESIAN_POINT('',(-52.686191808,17.4,-41.929019748));
#302=DIRECTION('',(0.5,0.,0.866025404));
#303=DIRECTION('',(0.866025404,0.,-0.5));
#304=AXIS2_PLACEMENT_3D('',#301,#302,#303);
#305=CIRCLE('',#304,1.);
#306=EDGE_CURVE('',#176,#270,#305,.T.);
#307=ORIENTED_EDGE('',*,*,#306,.F.);
#308=EDGE_LOOP('',(#292,#299,#300,#307));
#309=FACE_BOUND('',#308,.T.);
#310=ADVANCED_FACE('',(#309),#291,.T.);
#311=CARTESIAN_POINT('',(-53.936191808,0.,-44.094083258));
#312=DIRECTION('',(-0.,-1.,-0.));
#313=DIRECTION('',(-0.5,0.,-0.866025404));
#314=AXIS2_PLACEMENT_3D('',#311,#312,#313);
#315=CYLINDRICAL_SURFACE('',#314,1.);
#316=ORIENTED_EDGE('',*,*,#173,.T.);
#317=CARTESIAN_POINT('',(-53.936191808,-14.9,-44.094083258));
#318=DIRECTION('',(-0.,-1.,-0.));
#319=DIRECTION('',(0.5,-0.,0.866025404));
#320=AXIS2_PLACEMENT_3D('',#317,#318,#319);
#321=CIRCLE('',#320,1.);
#322=EDGE_CURVE('',#217,#159,#321,.T.);
#323=ORIENTED_EDGE('',*,*,#322,.F.);
#324=ORIENTED_EDGE('',*,*,#224,.T.);
#325=ORIENTED_EDGE('',*,*,#298,.T.);
#326=EDGE_LOOP('',(#316,#323,#324,#325));
#327=FACE_BOUND('',#326,.T.);
#328=ADVANCED_FACE('',(#327),#315,.T.);
#329=CARTESIAN_POINT('',(-50.453766808,17.4,-38.062346224));
#330=DIRECTION('',(-0.5,0.,-0.866025404));
#331=DIRECTION('',(0.,1.,0.));
#332=AXIS2_PLACEMENT_3D('',#329,#330,#331);
#333=CYLINDRICAL_SURFACE('',#332,1.);
#334=ORIENTED_EDGE('',*,*,#191,.T.);
#335=ORIENTED_EDGE('',*,*,#306,.T.);
#336=ORIENTED_EDGE('',*,*,#275,.T.);
#337=CARTESIAN_POINT('',(-48.221341808,17.4,-34.1956727));
#338=DIRECTION('',(0.5,0.,0.866025404));
#339=DIRECTION('',(0.866025404,0.,-0.5));
#340=AXIS2_PLACEMENT_3D('',#337,#338,#339);
#341=CIRCLE('',#340,1.);
#342=EDGE_CURVE('',#185,#261,#341,.T.);
#343=ORIENTED_EDGE('',*,*,#342,.F.);
#344=EDGE_LOOP('',(#334,#335,#336,#343));
#345=FACE_BOUND('',#344,.T.);
#346=ADVANCED_FACE('',(#345),#333,.T.);
#347=CARTESIAN_POINT('',(-52.686191808,-14.9,-41.929019748));
#348=DIRECTION('',(-0.866025404,0.,0.5));
#349=DIRECTION('',(-0.5,0.,-0.866025404));
#350=AXIS2_PLACEMENT_3D('',#347,#348,#349);
#351=TOROIDAL_SURFACE('',#350,2.5,1.);
#352=ORIENTED_EDGE('',*,*,#165,.T.);
#353=CARTESIAN_POINT('',(-52.686191808,-17.4,-41.929019748));
#354=DIRECTION('',(0.5,0.,0.866025404));
#355=DIRECTION('',(0.866025404,0.,-0.5));
#356=AXIS2_PLACEMENT_3D('',#353,#354,#355);
#357=CIRCLE('',#356,1.);
#358=EDGE_CURVE('',#227,#150,#357,.T.);
#359=ORIENTED_EDGE('',*,*,#358,.F.);
#360=ORIENTED_EDGE('',*,*,#233,.T.);
#361=ORIENTED_EDGE('',*,*,#322,.T.);
#362=EDGE_LOOP('',(#352,#359,#360,#361));
#363=FACE_BOUND('',#362,.T.);
#364=ADVANCED_FACE('',(#363),#351,.T.);
#365=CARTESIAN_POINT('',(-48.221341808,14.9,-34.1956727));
#366=DIRECTION('',(-0.866025404,0.,0.5));
#367=DIRECTION('',(-0.5,0.,-0.866025404));
#368=AXIS2_PLACEMENT_3D('',#365,#366,#367);
#369=TOROIDAL_SURFACE('',#368,2.5,1.);
#370=ORIENTED_EDGE('',*,*,#200,.T.);
#371=ORIENTED_EDGE('',*,*,#342,.T.);
#372=ORIENTED_EDGE('',*,*,#267,.T.);
#373=CARTESIAN_POINT('',(-46.971341808,14.9,-32.030609191));
#374=DIRECTION('',(-0.,-1.,0.));
#375=DIRECTION('',(-0.866025404,0.,0.5));
#376=AXIS2_PLACEMENT_3D('',#373,#374,#375);
#377=CIRCLE('',#376,1.);
#378=EDGE_CURVE('',#194,#253,#377,.T.);
#379=ORIENTED_EDGE('',*,*,#378,.F.);
#380=EDGE_LOOP('',(#370,#371,#372,#379));
#381=FACE_BOUND('',#380,.T.);
#382=ADVANCED_FACE('',(#381),#369,.T.);
#383=CARTESIAN_POINT('',(-50.453766808,-17.4,-38.062346224));
#384=DIRECTION('',(0.5,0.,0.866025404));
#385=DIRECTION('',(-0.866025404,0.,0.5));
#386=AXIS2_PLACEMENT_3D('',#383,#384,#385);
#387=CYLINDRICAL_SURFACE('',#386,1.);
#388=ORIENTED_EDGE('',*,*,#156,.T.);
#389=CARTESIAN_POINT('',(-48.221341808,-17.4,-34.1956727));
#390=DIRECTION('',(0.5,0.,0.866025404));
#391=DIRECTION('',(0.866025404,0.,-0.5));
#392=AXIS2_PLACEMENT_3D('',#389,#390,#391);
#393=CIRCLE('',#392,1.);
#394=EDGE_CURVE('',#236,#139,#393,.T.);
#395=ORIENTED_EDGE('',*,*,#394,.F.);
#396=ORIENTED_EDGE('',*,*,#241,.T.);
#397=ORIENTED_EDGE('',*,*,#358,.T.);
#398=EDGE_LOOP('',(#388,#395,#396,#397));
#399=FACE_BOUND('',#398,.T.);
#400=ADVANCED_FACE('',(#399),#387,.T.);
#401=CARTESIAN_POINT('',(-46.971341808,-0.,-32.030609191));
#402=DIRECTION('',(0.,1.,0.));
#403=DIRECTION('',(0.5,-0.,0.866025404));
#404=AXIS2_PLACEMENT_3D('',#401,#402,#403);
#405=CYLINDRICAL_SURFACE('',#404,1.);
#406=ORIENTED_EDGE('',*,*,#206,.T.);
#407=ORIENTED_EDGE('',*,*,#378,.T.);
#408=ORIENTED_EDGE('',*,*,#258,.T.);
#409=CARTESIAN_POINT('',(-46.971341808,-14.9,-32.030609191));
#410=DIRECTION('',(0.,-1.,0.));
#411=DIRECTION('',(-0.866025404,0.,0.5));
#412=AXIS2_PLACEMENT_3D('',#409,#410,#411);
#413=CIRCLE('',#412,1.);
#414=EDGE_CURVE('',#141,#244,#413,.T.);
#415=ORIENTED_EDGE('',*,*,#414,.F.);
#416=EDGE_LOOP('',(#406,#407,#408,#415));
#417=FACE_BOUND('',#416,.T.);
#418=ADVANCED_FACE('',(#417),#405,.T.);
#419=CARTESIAN_POINT('',(-48.221341808,-14.9,-34.1956727));
#420=DIRECTION('',(-0.866025404,0.,0.5));
#421=DIRECTION('',(-0.5,0.,-0.866025404));
#422=AXIS2_PLACEMENT_3D('',#419,#420,#421);
#423=TOROIDAL_SURFACE('',#422,2.5,1.);
#424=ORIENTED_EDGE('',*,*,#147,.T.);
#425=ORIENTED_EDGE('',*,*,#414,.T.);
#426=ORIENTED_EDGE('',*,*,#250,.T.);
#427=ORIENTED_EDGE('',*,*,#394,.T.);
#428=EDGE_LOOP('',(#424,#425,#426,#427));
#429=FACE_BOUND('',#428,.T.);
#430=ADVANCED_FACE('',(#429),#423,.T.);
#431=CARTESIAN_POINT('',(-52.368324168,-12.5,-44.693469624));
#432=DIRECTION('',(0.5,0.,0.866025404));
#433=DIRECTION('',(0.866025404,0.,-0.5));
#434=AXIS2_PLACEMENT_3D('',#431,#432,#433);
#435=PLANE('',#434);
#436=ORIENTED_EDGE('',*,*,#128,.F.);
#437=CARTESIAN_POINT('',(-54.533387678,15.5,-43.443469623));
#438=VERTEX_POINT('',#437);
#439=CARTESIAN_POINT('',(-54.533387678,15.5,-43.443469623));
#440=DIRECTION('',(0.866025404,0.,-0.5));
#441=VECTOR('',#440,0.533754997);
#442=LINE('',#439,#441);
#443=EDGE_CURVE('',#438,#115,#442,.T.);
#444=ORIENTED_EDGE('',*,*,#443,.F.);
#445=CARTESIAN_POINT('',(-54.533387678,-15.5,-43.443469623));
#446=VERTEX_POINT('',#445);
#447=CARTESIAN_POINT('',(-54.533387678,-15.5,-43.443469623));
#448=DIRECTION('',(0.,1.,0.));
#449=VECTOR('',#448,31.);
#450=LINE('',#447,#449);
#451=EDGE_CURVE('',#446,#438,#450,.T.);
#452=ORIENTED_EDGE('',*,*,#451,.F.);
#453=CARTESIAN_POINT('',(-54.533387678,-15.5,-43.443469623));
#454=DIRECTION('',(0.866025404,0.,-0.5));
#455=VECTOR('',#454,0.533754997);
#456=LINE('',#453,#455);
#457=EDGE_CURVE('',#446,#123,#456,.T.);
#458=ORIENTED_EDGE('',*,*,#457,.T.);
#459=EDGE_LOOP('',(#436,#444,#452,#458));
#460=FACE_BOUND('',#459,.T.);
#461=ADVANCED_FACE('',(#460),#435,.T.);
#462=CARTESIAN_POINT('',(-45.868324168,-12.5,-33.435139375));
#463=DIRECTION('',(-0.5,0.,-0.866025404));
#464=DIRECTION('',(-0.866025404,0.,0.5));
#465=AXIS2_PLACEMENT_3D('',#462,#463,#464);
#466=PLANE('',#465);
#467=ORIENTED_EDGE('',*,*,#112,.F.);
#468=CARTESIAN_POINT('',(-48.033387677,-15.5,-32.185139375));
#469=VERTEX_POINT('',#468);
#470=CARTESIAN_POINT('',(-47.57114229,-15.5,-32.452016873));
#471=DIRECTION('',(-0.866025404,0.,0.5));
#472=VECTOR('',#471,0.533754997);
#473=LINE('',#470,#472);
#474=EDGE_CURVE('',#105,#469,#473,.T.);
#475=ORIENTED_EDGE('',*,*,#474,.T.);
#476=CARTESIAN_POINT('',(-48.033387677,15.5,-32.185139375));
#477=VERTEX_POINT('',#476);
#478=CARTESIAN_POINT('',(-48.033387677,-15.5,-32.185139375));
#479=DIRECTION('',(0.,1.,0.));
#480=VECTOR('',#479,31.);
#481=LINE('',#478,#480);
#482=EDGE_CURVE('',#469,#477,#481,.T.);
#483=ORIENTED_EDGE('',*,*,#482,.T.);
#484=CARTESIAN_POINT('',(-47.57114229,15.5,-32.452016873));
#485=DIRECTION('',(-0.866025404,0.,0.5));
#486=VECTOR('',#485,0.533754997);
#487=LINE('',#484,#486);
#488=EDGE_CURVE('',#107,#477,#487,.T.);
#489=ORIENTED_EDGE('',*,*,#488,.F.);
#490=EDGE_LOOP('',(#467,#475,#483,#489));
#491=FACE_BOUND('',#490,.T.);
#492=ADVANCED_FACE('',(#491),#466,.T.);
#493=CARTESIAN_POINT('',(-4.851283219,-15.5,-33.961013026));
#494=DIRECTION('',(0.,-1.,0.));
#495=DIRECTION('',(0.866025404,0.,-0.5));
#496=AXIS2_PLACEMENT_3D('',#493,#494,#495);
#497=PLANE('',#496);
#498=ORIENTED_EDGE('',*,*,#474,.F.);
#499=ORIENTED_EDGE('',*,*,#134,.T.);
#500=ORIENTED_EDGE('',*,*,#457,.F.);
#501=CARTESIAN_POINT('',(-48.033387677,-15.5,-32.185139375));
#502=DIRECTION('',(-0.5,0.,-0.866025404));
#503=VECTOR('',#502,13.);
#504=LINE('',#501,#503);
#505=EDGE_CURVE('',#469,#446,#504,.T.);
#506=ORIENTED_EDGE('',*,*,#505,.F.);
#507=EDGE_LOOP('',(#498,#499,#500,#506));
#508=FACE_BOUND('',#507,.T.);
#509=ADVANCED_FACE('',(#508),#497,.F.);
#510=CARTESIAN_POINT('',(-4.851283219,15.5,-33.961013026));
#511=DIRECTION('',(0.,1.,0.));
#512=DIRECTION('',(0.866025404,0.,-0.5));
#513=AXIS2_PLACEMENT_3D('',#510,#511,#512);
#514=PLANE('',#513);
#515=ORIENTED_EDGE('',*,*,#443,.T.);
#516=ORIENTED_EDGE('',*,*,#120,.T.);
#517=ORIENTED_EDGE('',*,*,#488,.T.);
#518=CARTESIAN_POINT('',(-48.033387677,15.5,-32.185139375));
#519=DIRECTION('',(-0.5,0.,-0.866025404));
#520=VECTOR('',#519,13.);
#521=LINE('',#518,#520);
#522=EDGE_CURVE('',#477,#438,#521,.T.);
#523=ORIENTED_EDGE('',*,*,#522,.T.);
#524=EDGE_LOOP('',(#515,#516,#517,#523));
#525=FACE_BOUND('',#524,.T.);
#526=ADVANCED_FACE('',(#525),#514,.F.);
#527=CARTESIAN_POINT('',(-52.933387678,-12.5,-40.672188331));
#528=DIRECTION('',(0.866025404,0.,-0.5));
#529=DIRECTION('',(-0.5,0.,-0.866025404));
#530=AXIS2_PLACEMENT_3D('',#527,#528,#529);
#531=PLANE('',#530);
#532=ORIENTED_EDGE('',*,*,#482,.F.);
#533=ORIENTED_EDGE('',*,*,#505,.T.);
#534=ORIENTED_EDGE('',*,*,#451,.T.);
#535=ORIENTED_EDGE('',*,*,#522,.F.);
#536=EDGE_LOOP('',(#532,#533,#534,#535));
#537=FACE_BOUND('',#536,.T.);
#538=ADVANCED_FACE('',(#537),#531,.T.);
#539=CARTESIAN_POINT('',(-50.305450087,17.301146922,-38.147976923));
#540=DIRECTION('',(-0.,1.,-0.));
#541=DIRECTION('',(0.5,0.,0.866025404));
#542=AXIS2_PLACEMENT_3D('',#539,#540,#541);
#543=PLANE('',#542);
#544=ORIENTED_EDGE('',*,*,#100,.T.);
#545=CARTESIAN_POINT('',(-48.073025087,17.301146923,-34.281303399));
#546=VERTEX_POINT('',#545);
#547=CARTESIAN_POINT('',(-48.073025087,17.301146923,-34.281303399));
#548=DIRECTION('',(-0.866025404,0.,0.5));
#549=VECTOR('',#548,0.48);
#550=LINE('',#547,#549);
#551=EDGE_CURVE('',#546,#88,#550,.T.);
#552=ORIENTED_EDGE('',*,*,#551,.F.);
#553=CARTESIAN_POINT('',(-52.537875087,17.301146922,-42.014650447));
#554=VERTEX_POINT('',#553);
#555=CARTESIAN_POINT('',(-52.537875087,17.301146922,-42.014650447));
#556=DIRECTION('',(0.5,0.,0.866025404));
#557=VECTOR('',#556,8.9297);
#558=LINE('',#555,#557);
#559=EDGE_CURVE('',#554,#546,#558,.T.);
#560=ORIENTED_EDGE('',*,*,#559,.F.);
#561=CARTESIAN_POINT('',(-52.537875087,17.301146922,-42.014650447));
#562=DIRECTION('',(-0.866025404,0.,0.5));
#563=VECTOR('',#562,0.480000013);
#564=LINE('',#561,#563);
#565=EDGE_CURVE('',#554,#69,#564,.T.);
#566=ORIENTED_EDGE('',*,*,#565,.T.);
#567=EDGE_LOOP('',(#544,#552,#560,#566));
#568=FACE_BOUND('',#567,.T.);
#569=ADVANCED_FACE('',(#568),#543,.T.);
#570=CARTESIAN_POINT('',(-52.537875086,14.9,-42.014650447));
#571=DIRECTION('',(-0.866025404,0.,0.5));
#572=DIRECTION('',(-0.5,0.,-0.866025404));
#573=AXIS2_PLACEMENT_3D('',#570,#571,#572);
#574=CYLINDRICAL_SURFACE('',#573,2.401146922);
#575=CARTESIAN_POINT('',(-53.410085861,16.55,-43.525363824));
#576=VERTEX_POINT('',#575);
#577=CARTESIAN_POINT('',(-53.825778055,16.55,-43.285363824));
#578=DIRECTION('',(0.866025404,-0.,-0.5));
#579=VECTOR('',#578,0.48);
#580=LINE('',#577,#579);
#581=EDGE_CURVE('',#71,#576,#580,.T.);
#582=ORIENTED_EDGE('',*,*,#581,.F.);
#583=ORIENTED_EDGE('',*,*,#77,.F.);
#584=ORIENTED_EDGE('',*,*,#565,.F.);
#585=CARTESIAN_POINT('',(-52.537875086,14.9,-42.014650447));
#586=DIRECTION('',(-0.866025404,0.,0.5));
#587=DIRECTION('',(0.5,0.,0.866025404));
#588=AXIS2_PLACEMENT_3D('',#585,#586,#587);
#589=CIRCLE('',#588,2.401146922);
#590=EDGE_CURVE('',#554,#576,#589,.T.);
#591=ORIENTED_EDGE('',*,*,#590,.T.);
#592=EDGE_LOOP('',(#582,#583,#584,#591));
#593=FACE_BOUND('',#592,.T.);
#594=ADVANCED_FACE('',(#593),#574,.T.);
#595=CARTESIAN_POINT('',(-50.305450087,16.55,-38.147976923));
#596=DIRECTION('',(0.,-1.,0.));
#597=DIRECTION('',(0.866025404,0.,-0.5));
#598=AXIS2_PLACEMENT_3D('',#595,#596,#597);
#599=PLANE('',#598);
#600=ORIENTED_EDGE('',*,*,#85,.T.);
#601=ORIENTED_EDGE('',*,*,#581,.T.);
#602=CARTESIAN_POINT('',(-47.200814313,16.55,-32.770590021));
#603=VERTEX_POINT('',#602);
#604=CARTESIAN_POINT('',(-47.200814313,16.55,-32.770590021));
#605=DIRECTION('',(-0.5,0.,-0.866025404));
#606=VECTOR('',#605,12.418543099);
#607=LINE('',#604,#606);
#608=EDGE_CURVE('',#603,#576,#607,.T.);
#609=ORIENTED_EDGE('',*,*,#608,.F.);
#610=CARTESIAN_POINT('',(-47.616506506,16.55,-32.530590022));
#611=DIRECTION('',(0.866025404,-0.,-0.5));
#612=VECTOR('',#611,0.48);
#613=LINE('',#610,#612);
#614=EDGE_CURVE('',#80,#603,#613,.T.);
#615=ORIENTED_EDGE('',*,*,#614,.F.);
#616=EDGE_LOOP('',(#600,#601,#609,#615));
#617=FACE_BOUND('',#616,.T.);
#618=ADVANCED_FACE('',(#617),#599,.T.);
#619=CARTESIAN_POINT('',(-48.073025087,14.9,-34.281303399));
#620=DIRECTION('',(-0.866025404,0.,0.5));
#621=DIRECTION('',(-0.5,0.,-0.866025404));
#622=AXIS2_PLACEMENT_3D('',#619,#620,#621);
#623=CYLINDRICAL_SURFACE('',#622,2.401146923);
#624=ORIENTED_EDGE('',*,*,#94,.F.);
#625=ORIENTED_EDGE('',*,*,#614,.T.);
#626=CARTESIAN_POINT('',(-48.073025087,14.9,-34.281303399));
#627=DIRECTION('',(-0.866025404,0.,0.5));
#628=DIRECTION('',(0.5,0.,0.866025404));
#629=AXIS2_PLACEMENT_3D('',#626,#627,#628);
#630=CIRCLE('',#629,2.401146923);
#631=EDGE_CURVE('',#603,#546,#630,.T.);
#632=ORIENTED_EDGE('',*,*,#631,.T.);
#633=ORIENTED_EDGE('',*,*,#551,.T.);
#634=EDGE_LOOP('',(#624,#625,#632,#633));
#635=FACE_BOUND('',#634,.T.);
#636=ADVANCED_FACE('',(#635),#623,.T.);
#637=CARTESIAN_POINT('',(2.75233737,0.,53.750806716));
#638=DIRECTION('',(0.866025404,0.,-0.5));
#639=DIRECTION('',(0.,1.,0.));
#640=AXIS2_PLACEMENT_3D('',#637,#638,#639);
#641=PLANE('',#640);
#642=ORIENTED_EDGE('',*,*,#559,.T.);
#643=ORIENTED_EDGE('',*,*,#631,.F.);
#644=ORIENTED_EDGE('',*,*,#608,.T.);
#645=ORIENTED_EDGE('',*,*,#590,.F.);
#646=EDGE_LOOP('',(#642,#643,#644,#645));
#647=FACE_BOUND('',#646,.T.);
#648=ADVANCED_FACE('',(#647),#641,.T.);
#649=CARTESIAN_POINT('',(-50.305450087,-16.55,-38.147976923));
#650=DIRECTION('',(0.,1.,0.));
#651=DIRECTION('',(-0.866025404,0.,0.5));
#652=AXIS2_PLACEMENT_3D('',#649,#650,#651);
#653=PLANE('',#652);
#654=CARTESIAN_POINT('',(-53.410085861,-16.55,-43.525363824));
#655=VERTEX_POINT('',#654);
#656=CARTESIAN_POINT('',(-53.825778055,-16.55,-43.285363824));
#657=DIRECTION('',(0.866025404,-0.,-0.5));
#658=VECTOR('',#657,0.48);
#659=LINE('',#656,#658);
#660=EDGE_CURVE('',#33,#655,#659,.T.);
#661=ORIENTED_EDGE('',*,*,#660,.F.);
#662=ORIENTED_EDGE('',*,*,#40,.T.);
#663=CARTESIAN_POINT('',(-47.200814313,-16.55,-32.770590021));
#664=VERTEX_POINT('',#663);
#665=CARTESIAN_POINT('',(-47.616506506,-16.55,-32.530590022));
#666=DIRECTION('',(0.866025404,-0.,-0.5));
#667=VECTOR('',#666,0.48);
#668=LINE('',#665,#667);
#669=EDGE_CURVE('',#35,#664,#668,.T.);
#670=ORIENTED_EDGE('',*,*,#669,.T.);
#671=CARTESIAN_POINT('',(-53.410085861,-16.55,-43.525363824));
#672=DIRECTION('',(0.5,0.,0.866025404));
#673=VECTOR('',#672,12.418543099);
#674=LINE('',#671,#673);
#675=EDGE_CURVE('',#655,#664,#674,.T.);
#676=ORIENTED_EDGE('',*,*,#675,.F.);
#677=EDGE_LOOP('',(#661,#662,#670,#676));
#678=FACE_BOUND('',#677,.T.);
#679=ADVANCED_FACE('',(#678),#653,.T.);
#680=CARTESIAN_POINT('',(-52.537875086,-14.9,-42.014650447));
#681=DIRECTION('',(-0.866025404,0.,0.5));
#682=DIRECTION('',(-0.5,0.,-0.866025404));
#683=AXIS2_PLACEMENT_3D('',#680,#681,#682);
#684=CYLINDRICAL_SURFACE('',#683,2.401146922);
#685=ORIENTED_EDGE('',*,*,#49,.F.);
#686=ORIENTED_EDGE('',*,*,#660,.T.);
#687=CARTESIAN_POINT('',(-52.537875087,-17.301146922,-42.014650447));
#688=VERTEX_POINT('',#687);
#689=CARTESIAN_POINT('',(-52.537875086,-14.9,-42.014650447));
#690=DIRECTION('',(-0.866025404,0.,0.5));
#691=DIRECTION('',(0.5,0.,0.866025404));
#692=AXIS2_PLACEMENT_3D('',#689,#690,#691);
#693=CIRCLE('',#692,2.401146922);
#694=EDGE_CURVE('',#655,#688,#693,.T.);
#695=ORIENTED_EDGE('',*,*,#694,.T.);
#696=CARTESIAN_POINT('',(-52.537875087,-17.301146922,-42.014650447));
#697=DIRECTION('',(-0.866025404,0.,0.5));
#698=VECTOR('',#697,0.480000013);
#699=LINE('',#696,#698);
#700=EDGE_CURVE('',#688,#43,#699,.T.);
#701=ORIENTED_EDGE('',*,*,#700,.T.);
#702=EDGE_LOOP('',(#685,#686,#695,#701));
#703=FACE_BOUND('',#702,.T.);
#704=ADVANCED_FACE('',(#703),#684,.T.);
#705=CARTESIAN_POINT('',(-50.305450087,-17.301146922,-38.147976923));
#706=DIRECTION('',(-0.,-1.,-0.));
#707=DIRECTION('',(-0.5,0.,-0.866025404));
#708=AXIS2_PLACEMENT_3D('',#705,#706,#707);
#709=PLANE('',#708);
#710=ORIENTED_EDGE('',*,*,#57,.T.);
#711=ORIENTED_EDGE('',*,*,#700,.F.);
#712=CARTESIAN_POINT('',(-48.073025087,-17.301146923,-34.281303399));
#713=VERTEX_POINT('',#712);
#714=CARTESIAN_POINT('',(-48.073025087,-17.301146923,-34.281303399));
#715=DIRECTION('',(-0.5,0.,-0.866025404));
#716=VECTOR('',#715,8.9297);
#717=LINE('',#714,#716);
#718=EDGE_CURVE('',#713,#688,#717,.T.);
#719=ORIENTED_EDGE('',*,*,#718,.F.);
#720=CARTESIAN_POINT('',(-48.073025087,-17.301146923,-34.281303399));
#721=DIRECTION('',(-0.866025404,0.,0.5));
#722=VECTOR('',#721,0.480000011);
#723=LINE('',#720,#722);
#724=EDGE_CURVE('',#713,#52,#723,.T.);
#725=ORIENTED_EDGE('',*,*,#724,.T.);
#726=EDGE_LOOP('',(#710,#711,#719,#725));
#727=FACE_BOUND('',#726,.T.);
#728=ADVANCED_FACE('',(#727),#709,.T.);
#729=CARTESIAN_POINT('',(-48.073025087,-14.9,-34.281303399));
#730=DIRECTION('',(-0.866025404,0.,0.5));
#731=DIRECTION('',(-0.5,0.,-0.866025404));
#732=AXIS2_PLACEMENT_3D('',#729,#730,#731);
#733=CYLINDRICAL_SURFACE('',#732,2.401146923);
#734=ORIENTED_EDGE('',*,*,#669,.F.);
#735=ORIENTED_EDGE('',*,*,#64,.F.);
#736=ORIENTED_EDGE('',*,*,#724,.F.);
#737=CARTESIAN_POINT('',(-48.073025087,-14.9,-34.281303399));
#738=DIRECTION('',(-0.866025404,0.,0.5));
#739=DIRECTION('',(0.5,0.,0.866025404));
#740=AXIS2_PLACEMENT_3D('',#737,#738,#739);
#741=CIRCLE('',#740,2.401146923);
#742=EDGE_CURVE('',#713,#664,#741,.T.);
#743=ORIENTED_EDGE('',*,*,#742,.T.);
#744=EDGE_LOOP('',(#734,#735,#736,#743));
#745=FACE_BOUND('',#744,.T.);
#746=ADVANCED_FACE('',(#745),#733,.T.);
#747=CARTESIAN_POINT('',(2.75233737,0.,53.750806716));
#748=DIRECTION('',(0.866025404,0.,-0.5));
#749=DIRECTION('',(0.,1.,0.));
#750=AXIS2_PLACEMENT_3D('',#747,#748,#749);
#751=PLANE('',#750);
#752=ORIENTED_EDGE('',*,*,#694,.F.);
#753=ORIENTED_EDGE('',*,*,#675,.T.);
#754=ORIENTED_EDGE('',*,*,#742,.F.);
#755=ORIENTED_EDGE('',*,*,#718,.T.);
#756=EDGE_LOOP('',(#752,#753,#754,#755));
#757=FACE_BOUND('',#756,.T.);
#758=ADVANCED_FACE('',(#757),#751,.T.);
#759=CLOSED_SHELL('',(#210,#286,#310,#328,#346,#364,#382,#400,#418,#430,#461,#492,#509,#526,#538,#569,#594,#618,#636,#648,#679,#704,#728,#746,#758));
#760=MANIFOLD_SOLID_BREP('top plate (end battery)',#759);
#761=DRAUGHTING_PRE_DEFINED_COLOUR('white');
#762=FILL_AREA_STYLE_COLOUR('',#761);
#763=FILL_AREA_STYLE('',(#762));
#764=SURFACE_STYLE_FILL_AREA(#763);
#765=SURFACE_SIDE_STYLE('',(#764));
#766=SURFACE_STYLE_USAGE(.BOTH.,#765);
#767=PRESENTATION_STYLE_ASSIGNMENT((#766));
#26=STYLED_ITEM('',(#767),#760);
#16=SHAPE_REPRESENTATION('top plate (end battery)',(#15),#10);
#17=ADVANCED_BREP_SHAPE_REPRESENTATION('top plate (end battery)',(#760),#10);
#775=SHAPE_REPRESENTATION_RELATIONSHIP('','',#16,#17);
#776=CARTESIAN_POINT('',(0.,0.,0.));
#777=DIRECTION('',(0.,0.,1.));
#778=DIRECTION('',(1.,0.,0.));
#779=AXIS2_PLACEMENT_3D('',#776,#777,#778);
#781=MAPPED_ITEM('',#780,#779);
#780=REPRESENTATION_MAP(#779,#16);
#782=APPLICATION_CONTEXT('Managed model based 3d engineering');
#783=APPLICATION_PROTOCOL_DEFINITION('international standard','ap242_managed_model_based_3d_engineering',2014,#782);
#784=PRODUCT_CONTEXT('',#782,'mechanical');
#785=PRODUCT_DEFINITION_CONTEXT('part definition',#782,'design');
#24=PRODUCT('top plate (end battery)','top plate (end battery)','',(#784));
#786=PRODUCT_RELATED_PRODUCT_CATEGORY('part','',(#24));
#787=PRODUCT_DEFINITION_FORMATION_WITH_SPECIFIED_SOURCE('','',#24,.NOT_KNOWN.);
#25=PRODUCT_DEFINITION('design','',#787,#785);
#23=PRODUCT_DEFINITION_SHAPE('','',#25);
#788=SHAPE_DEFINITION_REPRESENTATION(#23,#16);
#11=DRAUGHTING_MODEL('',(#781),#10);
#789=DESCRIPTIVE_REPRESENTATION_ITEM('KEY','C:\\Users\\sanya\\AppData\\Local\\Packages\\Shapr3D.Shapr3D_dvv5p1vgwv6mp\\TempState\\15f240fe-dda6-49a2-abf2-a8d9ae2f6a08.tmp');
#790=PROPERTY_DEFINITION('KEY','',#25);
#791=REPRESENTATION('',(#789),#10);
#792=PROPERTY_DEFINITION_REPRESENTATION(#790,#791);
#793=GENERAL_PROPERTY('','KEY','');
#794=GENERAL_PROPERTY_ASSOCIATION('','',#793,#790);
#1=MECHANICAL_DESIGN_GEOMETRIC_PRESENTATION_REPRESENTATION('',(#26),#10);
ENDSEC;
END-ISO-10303-21;
