G04 #@! TF.GenerationSoftware,KiCad,Pcbnew,9.0.6*
G04 #@! TF.CreationDate,2026-01-17T12:49:20+11:00*
G04 #@! TF.ProjectId,E-ink watch,452d696e-6b20-4776-9174-63682e6b6963,rev?*
G04 #@! TF.SameCoordinates,Original*
G04 #@! TF.FileFunction,Paste,Top*
G04 #@! TF.FilePolarity,Positive*
%FSLAX46Y46*%
G04 Gerber Fmt 4.6, Leading zero omitted, Abs format (unit mm)*
G04 Created by KiCad (PCBNEW 9.0.6) date 2026-01-17 12:49:20*
%MOMM*%
%LPD*%
G01*
G04 APERTURE LIST*
G04 Aperture macros list*
%AMRoundRect*
0 Rectangle with rounded corners*
0 $1 Rounding radius*
0 $2 $3 $4 $5 $6 $7 $8 $9 X,Y pos of 4 corners*
0 Add a 4 corners polygon primitive as box body*
4,1,4,$2,$3,$4,$5,$6,$7,$8,$9,$2,$3,0*
0 Add four circle primitives for the rounded corners*
1,1,$1+$1,$2,$3*
1,1,$1+$1,$4,$5*
1,1,$1+$1,$6,$7*
1,1,$1+$1,$8,$9*
0 Add four rect primitives between the rounded corners*
20,1,$1+$1,$2,$3,$4,$5,0*
20,1,$1+$1,$4,$5,$6,$7,0*
20,1,$1+$1,$6,$7,$8,$9,0*
20,1,$1+$1,$8,$9,$2,$3,0*%
G04 Aperture macros list end*
%ADD10C,0.000000*%
%ADD11C,0.010000*%
%ADD12R,0.609600X0.838200*%
%ADD13R,0.838200X0.609600*%
%ADD14R,1.066800X1.066800*%
%ADD15R,0.812800X0.406400*%
%ADD16R,1.752600X2.489200*%
%ADD17RoundRect,0.160000X-0.160000X0.197500X-0.160000X-0.197500X0.160000X-0.197500X0.160000X0.197500X0*%
%ADD18R,1.350000X1.800000*%
%ADD19R,0.754800X0.199200*%
%ADD20R,0.199200X0.754800*%
%ADD21R,4.038600X4.038600*%
%ADD22R,0.812800X0.304800*%
%ADD23RoundRect,0.155000X0.155000X-0.212500X0.155000X0.212500X-0.155000X0.212500X-0.155000X-0.212500X0*%
%ADD24RoundRect,0.155000X-0.212500X-0.155000X0.212500X-0.155000X0.212500X0.155000X-0.212500X0.155000X0*%
%ADD25RoundRect,0.160000X0.197500X0.160000X-0.197500X0.160000X-0.197500X-0.160000X0.197500X-0.160000X0*%
%ADD26RoundRect,0.150000X-0.587500X-0.150000X0.587500X-0.150000X0.587500X0.150000X-0.587500X0.150000X0*%
%ADD27RoundRect,0.155000X0.212500X0.155000X-0.212500X0.155000X-0.212500X-0.155000X0.212500X-0.155000X0*%
%ADD28RoundRect,0.160000X-0.197500X-0.160000X0.197500X-0.160000X0.197500X0.160000X-0.197500X0.160000X0*%
%ADD29RoundRect,0.250000X-0.650000X1.000000X-0.650000X-1.000000X0.650000X-1.000000X0.650000X1.000000X0*%
%ADD30RoundRect,0.048000X-0.112000X0.402000X-0.112000X-0.402000X0.112000X-0.402000X0.112000X0.402000X0*%
%ADD31RoundRect,0.155000X-0.155000X0.212500X-0.155000X-0.212500X0.155000X-0.212500X0.155000X0.212500X0*%
%ADD32RoundRect,0.250000X0.450000X-0.325000X0.450000X0.325000X-0.450000X0.325000X-0.450000X-0.325000X0*%
%ADD33RoundRect,0.087500X-0.287500X-0.087500X0.287500X-0.087500X0.287500X0.087500X-0.287500X0.087500X0*%
%ADD34RoundRect,0.160000X0.160000X-0.197500X0.160000X0.197500X-0.160000X0.197500X-0.160000X-0.197500X0*%
%ADD35RoundRect,0.048000X0.112000X-0.402000X0.112000X0.402000X-0.112000X0.402000X-0.112000X-0.402000X0*%
%ADD36R,1.422400X0.558800*%
%ADD37RoundRect,0.075000X0.650000X0.075000X-0.650000X0.075000X-0.650000X-0.075000X0.650000X-0.075000X0*%
%ADD38R,1.050000X0.500000*%
%ADD39RoundRect,0.165000X-0.385000X-1.685000X0.385000X-1.685000X0.385000X1.685000X-0.385000X1.685000X0*%
%ADD40RoundRect,0.160000X-0.222500X-0.160000X0.222500X-0.160000X0.222500X0.160000X-0.222500X0.160000X0*%
%ADD41RoundRect,0.250000X0.250000X-0.275000X0.250000X0.275000X-0.250000X0.275000X-0.250000X-0.275000X0*%
%ADD42RoundRect,0.250000X0.275000X-0.850000X0.275000X0.850000X-0.275000X0.850000X-0.275000X-0.850000X0*%
%ADD43RoundRect,0.075000X-0.485000X-0.225000X0.485000X-0.225000X0.485000X0.225000X-0.485000X0.225000X0*%
%ADD44RoundRect,0.250000X-0.325000X-0.450000X0.325000X-0.450000X0.325000X0.450000X-0.325000X0.450000X0*%
%ADD45R,0.800000X0.300000*%
%ADD46R,0.800000X0.400000*%
%ADD47R,0.350000X0.200000*%
%ADD48R,0.200000X0.350000*%
%ADD49RoundRect,0.075000X0.485000X0.225000X-0.485000X0.225000X-0.485000X-0.225000X0.485000X-0.225000X0*%
%ADD50RoundRect,0.180000X0.520000X0.420000X-0.520000X0.420000X-0.520000X-0.420000X0.520000X-0.420000X0*%
G04 APERTURE END LIST*
D10*
G04 #@! TO.C,U1*
G36*
X144126900Y-97026899D02*
G01*
X142980700Y-97026899D01*
X142980700Y-95880699D01*
X144126900Y-95880699D01*
X144126900Y-97026899D01*
G37*
G36*
X144126900Y-98373099D02*
G01*
X142980700Y-98373099D01*
X142980700Y-97226899D01*
X144126900Y-97226899D01*
X144126900Y-98373099D01*
G37*
G36*
X144126900Y-99719299D02*
G01*
X142980700Y-99719299D01*
X142980700Y-98573099D01*
X144126900Y-98573099D01*
X144126900Y-99719299D01*
G37*
G36*
X145473100Y-97026899D02*
G01*
X144326900Y-97026899D01*
X144326900Y-95880699D01*
X145473100Y-95880699D01*
X145473100Y-97026899D01*
G37*
G36*
X145473100Y-98373099D02*
G01*
X144326900Y-98373099D01*
X144326900Y-97226899D01*
X145473100Y-97226899D01*
X145473100Y-98373099D01*
G37*
G36*
X145473100Y-99719299D02*
G01*
X144326900Y-99719299D01*
X144326900Y-98573099D01*
X145473100Y-98573099D01*
X145473100Y-99719299D01*
G37*
G36*
X146819300Y-97026899D02*
G01*
X145673100Y-97026899D01*
X145673100Y-95880699D01*
X146819300Y-95880699D01*
X146819300Y-97026899D01*
G37*
G36*
X146819300Y-98373099D02*
G01*
X145673100Y-98373099D01*
X145673100Y-97226899D01*
X146819300Y-97226899D01*
X146819300Y-98373099D01*
G37*
G36*
X146819300Y-99719299D02*
G01*
X145673100Y-99719299D01*
X145673100Y-98573099D01*
X146819300Y-98573099D01*
X146819300Y-99719299D01*
G37*
D11*
G04 #@! TO.C,U8*
X142905000Y-106050000D02*
X142905000Y-106200000D01*
X142555000Y-106200000D01*
X142555000Y-106000000D01*
X142855000Y-106000000D01*
X142905000Y-106050000D01*
G36*
X142905000Y-106050000D02*
G01*
X142905000Y-106200000D01*
X142555000Y-106200000D01*
X142555000Y-106000000D01*
X142855000Y-106000000D01*
X142905000Y-106050000D01*
G37*
X142905000Y-107750000D02*
X142855000Y-107800000D01*
X142555000Y-107800000D01*
X142555000Y-107600000D01*
X142905000Y-107600000D01*
X142905000Y-107750000D01*
G36*
X142905000Y-107750000D02*
G01*
X142855000Y-107800000D01*
X142555000Y-107800000D01*
X142555000Y-107600000D01*
X142905000Y-107600000D01*
X142905000Y-107750000D01*
G37*
X143215000Y-105890000D02*
X143065000Y-105890000D01*
X143015000Y-105840000D01*
X143015000Y-105540000D01*
X143215000Y-105540000D01*
X143215000Y-105890000D01*
G36*
X143215000Y-105890000D02*
G01*
X143065000Y-105890000D01*
X143015000Y-105840000D01*
X143015000Y-105540000D01*
X143215000Y-105540000D01*
X143215000Y-105890000D01*
G37*
X143215000Y-108260000D02*
X143015000Y-108260000D01*
X143015000Y-107960000D01*
X143065000Y-107910000D01*
X143215000Y-107910000D01*
X143215000Y-108260000D01*
G36*
X143215000Y-108260000D02*
G01*
X143015000Y-108260000D01*
X143015000Y-107960000D01*
X143065000Y-107910000D01*
X143215000Y-107910000D01*
X143215000Y-108260000D01*
G37*
X144015000Y-105840000D02*
X143965000Y-105890000D01*
X143815000Y-105890000D01*
X143815000Y-105540000D01*
X144015000Y-105540000D01*
X144015000Y-105840000D01*
G36*
X144015000Y-105840000D02*
G01*
X143965000Y-105890000D01*
X143815000Y-105890000D01*
X143815000Y-105540000D01*
X144015000Y-105540000D01*
X144015000Y-105840000D01*
G37*
X144015000Y-107960000D02*
X144015000Y-108260000D01*
X143815000Y-108260000D01*
X143815000Y-107910000D01*
X143965000Y-107910000D01*
X144015000Y-107960000D01*
G36*
X144015000Y-107960000D02*
G01*
X144015000Y-108260000D01*
X143815000Y-108260000D01*
X143815000Y-107910000D01*
X143965000Y-107910000D01*
X144015000Y-107960000D01*
G37*
X144475000Y-106200000D02*
X144125000Y-106200000D01*
X144125000Y-106050000D01*
X144175000Y-106000000D01*
X144475000Y-106000000D01*
X144475000Y-106200000D01*
G36*
X144475000Y-106200000D02*
G01*
X144125000Y-106200000D01*
X144125000Y-106050000D01*
X144175000Y-106000000D01*
X144475000Y-106000000D01*
X144475000Y-106200000D01*
G37*
X144475000Y-107800000D02*
X144175000Y-107800000D01*
X144125000Y-107750000D01*
X144125000Y-107600000D01*
X144475000Y-107600000D01*
X144475000Y-107800000D01*
G36*
X144475000Y-107800000D02*
G01*
X144175000Y-107800000D01*
X144125000Y-107750000D01*
X144125000Y-107600000D01*
X144475000Y-107600000D01*
X144475000Y-107800000D01*
G37*
G04 #@! TD*
D12*
G04 #@! TO.C,U9*
X138719200Y-116200000D03*
X138719200Y-115100000D03*
X138719200Y-114000000D03*
D13*
X137500000Y-113880800D03*
D12*
X136280800Y-114000000D03*
X136280800Y-115100000D03*
X136280800Y-116200000D03*
D13*
X137500000Y-116319200D03*
D14*
X137500000Y-115100000D03*
G04 #@! TD*
D15*
G04 #@! TO.C,U2*
X151904400Y-91300000D03*
X151904400Y-92250001D03*
X151904400Y-93200002D03*
X154800000Y-93200002D03*
X154800000Y-92250001D03*
X154800000Y-91300000D03*
D16*
X153352200Y-92250001D03*
G04 #@! TD*
D17*
G04 #@! TO.C,R22*
X142100000Y-118200000D03*
X142100000Y-119395000D03*
G04 #@! TD*
D18*
G04 #@! TO.C,S1*
X138100000Y-99600000D03*
X133950000Y-99600000D03*
G04 #@! TD*
D19*
G04 #@! TO.C,U1*
X141447599Y-95199999D03*
X141447599Y-95599998D03*
X141447599Y-96000000D03*
X141447599Y-96399999D03*
X141447599Y-96799998D03*
X141447599Y-97200000D03*
X141447599Y-97599999D03*
X141447599Y-97999999D03*
X141447599Y-98399998D03*
X141447599Y-98800000D03*
X141447599Y-99199999D03*
X141447599Y-99599998D03*
X141447599Y-100000000D03*
X141447599Y-100399999D03*
D20*
X142300000Y-101252400D03*
X142699999Y-101252400D03*
X143100001Y-101252400D03*
X143500000Y-101252400D03*
X143899999Y-101252400D03*
X144300001Y-101252400D03*
X144700000Y-101252400D03*
X145100000Y-101252400D03*
X145499999Y-101252400D03*
X145900001Y-101252400D03*
X146300000Y-101252400D03*
X146699999Y-101252400D03*
X147100001Y-101252400D03*
X147500000Y-101252400D03*
D19*
X148352401Y-100399999D03*
X148352401Y-100000000D03*
X148352401Y-99599998D03*
X148352401Y-99199999D03*
X148352401Y-98800000D03*
X148352401Y-98399998D03*
X148352401Y-97999999D03*
X148352401Y-97599999D03*
X148352401Y-97200000D03*
X148352401Y-96799998D03*
X148352401Y-96399999D03*
X148352401Y-96000000D03*
X148352401Y-95599998D03*
X148352401Y-95199999D03*
D20*
X147500000Y-94347598D03*
X147100001Y-94347598D03*
X146699999Y-94347598D03*
X146300000Y-94347598D03*
X145900001Y-94347598D03*
X145499999Y-94347598D03*
X145100000Y-94347598D03*
X144700000Y-94347598D03*
X144300001Y-94347598D03*
X143899999Y-94347598D03*
X143500000Y-94347598D03*
X143100001Y-94347598D03*
X142699999Y-94347598D03*
X142300000Y-94347598D03*
D21*
X144900000Y-97799999D03*
G04 #@! TD*
D22*
G04 #@! TO.C,J3*
X153800000Y-120400001D03*
X153800000Y-119900002D03*
X153800000Y-119400001D03*
X153800000Y-118900001D03*
X153800000Y-118400000D03*
X153800000Y-117900001D03*
D15*
X156300000Y-121400002D03*
X156300000Y-116900000D03*
G04 #@! TD*
D17*
G04 #@! TO.C,R20*
X141000000Y-114900000D03*
X141000000Y-116095000D03*
G04 #@! TD*
D23*
G04 #@! TO.C,C48*
X136400000Y-110035000D03*
X136400000Y-108900000D03*
G04 #@! TD*
D24*
G04 #@! TO.C,C5*
X149400000Y-92400000D03*
X150535000Y-92400000D03*
G04 #@! TD*
D25*
G04 #@! TO.C,R11*
X181297500Y-102500000D03*
X180102500Y-102500000D03*
G04 #@! TD*
D26*
G04 #@! TO.C,Q3*
X143725000Y-118050000D03*
X143725000Y-119950000D03*
X145600000Y-119000000D03*
G04 #@! TD*
D17*
G04 #@! TO.C,R25*
X141077500Y-118202500D03*
X141077500Y-119397500D03*
G04 #@! TD*
D23*
G04 #@! TO.C,C15*
X114300000Y-115600000D03*
X114300000Y-114465000D03*
G04 #@! TD*
D17*
G04 #@! TO.C,R8*
X110800000Y-114400000D03*
X110800000Y-115595000D03*
G04 #@! TD*
D27*
G04 #@! TO.C,C12*
X140135000Y-94900000D03*
X139000000Y-94900000D03*
G04 #@! TD*
D28*
G04 #@! TO.C,R7*
X113505000Y-110300000D03*
X114700000Y-110300000D03*
G04 #@! TD*
D29*
G04 #@! TO.C,D7*
X161500000Y-91700000D03*
X161500000Y-95700000D03*
G04 #@! TD*
D30*
G04 #@! TO.C,U4*
X178260000Y-95900000D03*
X178880000Y-95900000D03*
X179500000Y-95900000D03*
X180120000Y-95900000D03*
X180740000Y-95900000D03*
X181360000Y-95900000D03*
X181980000Y-95900000D03*
X182600000Y-95900000D03*
X183220000Y-95900000D03*
X183840000Y-95900000D03*
X184460000Y-95900000D03*
X185080000Y-95900000D03*
X185700000Y-95900000D03*
X186320000Y-95900000D03*
G04 #@! TD*
D31*
G04 #@! TO.C,C11*
X144300000Y-102700000D03*
X144300000Y-103835000D03*
G04 #@! TD*
D24*
G04 #@! TO.C,C49*
X142065000Y-103900000D03*
X143200000Y-103900000D03*
G04 #@! TD*
D23*
G04 #@! TO.C,C51*
X140800000Y-104400000D03*
X140800000Y-103265000D03*
G04 #@! TD*
D32*
G04 #@! TO.C,D5*
X155000000Y-98950000D03*
X155000000Y-96900000D03*
G04 #@! TD*
D23*
G04 #@! TO.C,C56*
X109600000Y-97935000D03*
X109600000Y-96800000D03*
G04 #@! TD*
G04 #@! TO.C,C38*
X158500000Y-107935000D03*
X158500000Y-106800000D03*
G04 #@! TD*
G04 #@! TO.C,C52*
X140800000Y-107400000D03*
X140800000Y-106265000D03*
G04 #@! TD*
D17*
G04 #@! TO.C,R5*
X112300000Y-114405000D03*
X112300000Y-115600000D03*
G04 #@! TD*
D28*
G04 #@! TO.C,R16*
X150305000Y-120300000D03*
X151500000Y-120300000D03*
G04 #@! TD*
D26*
G04 #@! TO.C,Q2*
X143725000Y-114550000D03*
X143725000Y-116450000D03*
X145600000Y-115500000D03*
G04 #@! TD*
D33*
G04 #@! TO.C,U6*
X149800000Y-104200000D03*
X149800000Y-105000000D03*
X149800000Y-105800000D03*
X149800000Y-106600000D03*
X149800000Y-107400000D03*
X149800000Y-108200000D03*
X149800000Y-109000000D03*
X152200000Y-109000000D03*
X152200000Y-108200000D03*
X152200000Y-107400000D03*
X152200000Y-106600000D03*
X152200000Y-105800000D03*
X152200000Y-105000000D03*
X152200000Y-104200000D03*
G04 #@! TD*
D24*
G04 #@! TO.C,C40*
X151065000Y-110400000D03*
X152200000Y-110400000D03*
G04 #@! TD*
D23*
G04 #@! TO.C,C20*
X107800000Y-115635000D03*
X107800000Y-114500000D03*
G04 #@! TD*
D27*
G04 #@! TO.C,C17*
X109600000Y-112400000D03*
X108465000Y-112400000D03*
G04 #@! TD*
D31*
G04 #@! TO.C,C34*
X164000000Y-95400000D03*
X164000000Y-96535000D03*
G04 #@! TD*
D28*
G04 #@! TO.C,R4*
X137305000Y-105500000D03*
X138500000Y-105500000D03*
G04 #@! TD*
D31*
G04 #@! TO.C,C7*
X148400000Y-90900000D03*
X148400000Y-92035000D03*
G04 #@! TD*
D34*
G04 #@! TO.C,R18*
X147600000Y-106595000D03*
X147600000Y-105400000D03*
G04 #@! TD*
D27*
G04 #@! TO.C,C1*
X137402500Y-97200000D03*
X136267500Y-97200000D03*
G04 #@! TD*
D31*
G04 #@! TO.C,C39*
X156400000Y-104700000D03*
X156400000Y-105835000D03*
G04 #@! TD*
D28*
G04 #@! TO.C,R3*
X138805000Y-96800000D03*
X140000000Y-96800000D03*
G04 #@! TD*
D27*
G04 #@! TO.C,C35*
X153200000Y-113700000D03*
X152065000Y-113700000D03*
G04 #@! TD*
D25*
G04 #@! TO.C,R10*
X181300000Y-101400000D03*
X180105000Y-101400000D03*
G04 #@! TD*
D23*
G04 #@! TO.C,C16*
X113300000Y-115600000D03*
X113300000Y-114465000D03*
G04 #@! TD*
D25*
G04 #@! TO.C,R14*
X156500000Y-115000000D03*
X155305000Y-115000000D03*
G04 #@! TD*
D24*
G04 #@! TO.C,C55*
X114265000Y-97300000D03*
X115400000Y-97300000D03*
G04 #@! TD*
D28*
G04 #@! TO.C,R21*
X146200000Y-114400000D03*
X147395000Y-114400000D03*
G04 #@! TD*
D31*
G04 #@! TO.C,C28*
X187300000Y-97500000D03*
X187300000Y-98635000D03*
G04 #@! TD*
D24*
G04 #@! TO.C,C45*
X153565000Y-103900000D03*
X154700000Y-103900000D03*
G04 #@! TD*
D35*
G04 #@! TO.C,U5*
X116800000Y-117400000D03*
X116180000Y-117400000D03*
X115560000Y-117400000D03*
X114940000Y-117400000D03*
X114320000Y-117400000D03*
X113700000Y-117400000D03*
X113080000Y-117400000D03*
X112460000Y-117400000D03*
X111840000Y-117400000D03*
X111220000Y-117400000D03*
X110600000Y-117400000D03*
X109980000Y-117400000D03*
X109360000Y-117400000D03*
X108740000Y-117400000D03*
G04 #@! TD*
D28*
G04 #@! TO.C,R6*
X113500000Y-111500000D03*
X114695000Y-111500000D03*
G04 #@! TD*
D36*
G04 #@! TO.C,U7*
X156288800Y-109200002D03*
X156288800Y-108250001D03*
X156288800Y-107300000D03*
X154000000Y-107300000D03*
X154000000Y-109200002D03*
G04 #@! TD*
D27*
G04 #@! TO.C,C32*
X153235000Y-115700000D03*
X152100000Y-115700000D03*
G04 #@! TD*
D37*
G04 #@! TO.C,U10*
X114100000Y-95700000D03*
X114100000Y-95200000D03*
X114100000Y-94700000D03*
X114100000Y-94200000D03*
X114100000Y-93700000D03*
X109700000Y-93700000D03*
X109700000Y-94200000D03*
X109700000Y-94700000D03*
X109700000Y-95200000D03*
X109700000Y-95700000D03*
G04 #@! TD*
D38*
G04 #@! TO.C,Q1*
X158200000Y-114200000D03*
X158200000Y-115500000D03*
X160300000Y-114850000D03*
G04 #@! TD*
D39*
G04 #@! TO.C,L3*
X146600000Y-111800000D03*
X149600000Y-111800000D03*
G04 #@! TD*
D23*
G04 #@! TO.C,C36*
X156600000Y-98935000D03*
X156600000Y-97800000D03*
G04 #@! TD*
D40*
G04 #@! TO.C,L2*
X138900000Y-92500000D03*
X140045000Y-92500000D03*
G04 #@! TD*
D27*
G04 #@! TO.C,C53*
X138435000Y-112500000D03*
X137300000Y-112500000D03*
G04 #@! TD*
D31*
G04 #@! TO.C,C44*
X156300000Y-100900000D03*
X156300000Y-102035000D03*
G04 #@! TD*
D34*
G04 #@! TO.C,R12*
X185200000Y-98695000D03*
X185200000Y-97500000D03*
G04 #@! TD*
D40*
G04 #@! TO.C,L1*
X136235000Y-96200000D03*
X137380000Y-96200000D03*
G04 #@! TD*
D25*
G04 #@! TO.C,R13*
X156500000Y-113500000D03*
X155305000Y-113500000D03*
G04 #@! TD*
D31*
G04 #@! TO.C,C30*
X158500000Y-104500000D03*
X158500000Y-105635000D03*
G04 #@! TD*
G04 #@! TO.C,C21*
X182200000Y-97400000D03*
X182200000Y-98535000D03*
G04 #@! TD*
D24*
G04 #@! TO.C,C47*
X139865000Y-111000000D03*
X141000000Y-111000000D03*
G04 #@! TD*
D27*
G04 #@! TO.C,C37*
X158500000Y-100300000D03*
X157365000Y-100300000D03*
G04 #@! TD*
D41*
G04 #@! TO.C,J1*
X135725000Y-94425000D03*
D42*
X134250000Y-92900000D03*
X137200000Y-92900000D03*
G04 #@! TD*
D23*
G04 #@! TO.C,C19*
X108800000Y-115600000D03*
X108800000Y-114465000D03*
G04 #@! TD*
D17*
G04 #@! TO.C,R24*
X142100000Y-114900000D03*
X142100000Y-116095000D03*
G04 #@! TD*
D28*
G04 #@! TO.C,R27*
X110900000Y-98200000D03*
X112095000Y-98200000D03*
G04 #@! TD*
D24*
G04 #@! TO.C,C54*
X136800000Y-117700000D03*
X137935000Y-117700000D03*
G04 #@! TD*
D25*
G04 #@! TO.C,R29*
X134300000Y-113200000D03*
X133105000Y-113200000D03*
G04 #@! TD*
D24*
G04 #@! TO.C,C42*
X151065000Y-112500000D03*
X152200000Y-112500000D03*
G04 #@! TD*
G04 #@! TO.C,C41*
X151065000Y-111500000D03*
X152200000Y-111500000D03*
G04 #@! TD*
D28*
G04 #@! TO.C,R19*
X156505000Y-103400000D03*
X157700000Y-103400000D03*
G04 #@! TD*
D43*
G04 #@! TO.C,VR2*
X137800000Y-107750000D03*
X137800000Y-109650000D03*
X140400000Y-108700000D03*
G04 #@! TD*
D27*
G04 #@! TO.C,C2*
X135035000Y-97200000D03*
X133900000Y-97200000D03*
G04 #@! TD*
D44*
G04 #@! TO.C,D3*
X161750000Y-98200000D03*
X163800000Y-98200000D03*
G04 #@! TD*
D31*
G04 #@! TO.C,C23*
X183300000Y-99700000D03*
X183300000Y-100835000D03*
G04 #@! TD*
D29*
G04 #@! TO.C,D6*
X157900000Y-91700000D03*
X157900000Y-95700000D03*
G04 #@! TD*
D27*
G04 #@! TO.C,C43*
X151800000Y-102800000D03*
X150665000Y-102800000D03*
G04 #@! TD*
D23*
G04 #@! TO.C,C13*
X116900000Y-115600000D03*
X116900000Y-114465000D03*
G04 #@! TD*
G04 #@! TO.C,C18*
X109800000Y-115600000D03*
X109800000Y-114465000D03*
G04 #@! TD*
D27*
G04 #@! TO.C,C3*
X135035000Y-96200000D03*
X133900000Y-96200000D03*
G04 #@! TD*
D28*
G04 #@! TO.C,R23*
X146205000Y-117800000D03*
X147400000Y-117800000D03*
G04 #@! TD*
D23*
G04 #@! TO.C,C14*
X115600000Y-115600000D03*
X115600000Y-114465000D03*
G04 #@! TD*
G04 #@! TO.C,C24*
X180200000Y-98535000D03*
X180200000Y-97400000D03*
G04 #@! TD*
D28*
G04 #@! TO.C,R15*
X150305000Y-119200000D03*
X151500000Y-119200000D03*
G04 #@! TD*
D18*
G04 #@! TO.C,S2*
X138100000Y-103200000D03*
X133950000Y-103200000D03*
G04 #@! TD*
D24*
G04 #@! TO.C,C50*
X143065000Y-110300000D03*
X144200000Y-110300000D03*
G04 #@! TD*
D23*
G04 #@! TO.C,C31*
X152000000Y-118035000D03*
X152000000Y-116900000D03*
G04 #@! TD*
D24*
G04 #@! TO.C,C46*
X153565000Y-105000000D03*
X154700000Y-105000000D03*
G04 #@! TD*
D27*
G04 #@! TO.C,C9*
X142300000Y-91600000D03*
X141165000Y-91600000D03*
G04 #@! TD*
D34*
G04 #@! TO.C,R17*
X146500000Y-106595000D03*
X146500000Y-105400000D03*
G04 #@! TD*
D27*
G04 #@! TO.C,C10*
X142335000Y-92600000D03*
X141200000Y-92600000D03*
G04 #@! TD*
D31*
G04 #@! TO.C,C27*
X188300000Y-97500000D03*
X188300000Y-98635000D03*
G04 #@! TD*
D24*
G04 #@! TO.C,C8*
X149400000Y-93400000D03*
X150535000Y-93400000D03*
G04 #@! TD*
D31*
G04 #@! TO.C,C26*
X186200000Y-97500000D03*
X186200000Y-98635000D03*
G04 #@! TD*
D34*
G04 #@! TO.C,R1*
X146100000Y-103795000D03*
X146100000Y-102600000D03*
G04 #@! TD*
D31*
G04 #@! TO.C,C22*
X181200000Y-97400000D03*
X181200000Y-98535000D03*
G04 #@! TD*
D45*
G04 #@! TO.C,J2*
X159950000Y-112250000D03*
X159950000Y-111750000D03*
X159950000Y-111250000D03*
X159950000Y-110750000D03*
X159950000Y-110250000D03*
X159950000Y-109750000D03*
X159950000Y-109250000D03*
X159950000Y-108750000D03*
X159950000Y-108250000D03*
X159950000Y-107750000D03*
X159950000Y-107250000D03*
X159950000Y-106750000D03*
X159950000Y-106250000D03*
X159950000Y-105750000D03*
X159950000Y-105250000D03*
X159950000Y-104750000D03*
X159950000Y-104250000D03*
X159950000Y-103750000D03*
X159950000Y-103250000D03*
X159950000Y-102750000D03*
X159950000Y-102250000D03*
X159950000Y-101750000D03*
X159950000Y-101250000D03*
X159950000Y-100750000D03*
D46*
X162450000Y-113200000D03*
X162450000Y-99800000D03*
G04 #@! TD*
D23*
G04 #@! TO.C,C29*
X158522489Y-110358132D03*
X158522489Y-109223132D03*
G04 #@! TD*
D17*
G04 #@! TO.C,R9*
X183300000Y-97400000D03*
X183300000Y-98595000D03*
G04 #@! TD*
D31*
G04 #@! TO.C,C25*
X178300000Y-97400000D03*
X178300000Y-98535000D03*
G04 #@! TD*
G04 #@! TO.C,C4*
X163800000Y-90965000D03*
X163800000Y-92100000D03*
G04 #@! TD*
D28*
G04 #@! TO.C,R32*
X138805000Y-121800000D03*
X140000000Y-121800000D03*
G04 #@! TD*
D23*
G04 #@! TO.C,C6*
X143500000Y-92935000D03*
X143500000Y-91800000D03*
G04 #@! TD*
D47*
G04 #@! TO.C,U8*
X141930000Y-105500000D03*
X141930000Y-105900000D03*
X141930000Y-106300000D03*
X141930000Y-106700000D03*
X141930000Y-107100000D03*
X141930000Y-107500000D03*
X141930000Y-107900000D03*
X141930000Y-108300000D03*
D48*
X142515000Y-108735000D03*
X142915000Y-108735000D03*
X143315000Y-108735000D03*
X143715000Y-108735000D03*
X144115000Y-108735000D03*
X144515000Y-108735000D03*
D47*
X145100000Y-108300000D03*
X145100000Y-107900000D03*
X145100000Y-107500000D03*
X145100000Y-107100000D03*
X145100000Y-106700000D03*
X145100000Y-106300000D03*
X145100000Y-105900000D03*
X145100000Y-105500000D03*
D48*
X144515000Y-105065000D03*
X144115000Y-105065000D03*
X143715000Y-105065000D03*
X143315000Y-105065000D03*
X142915000Y-105065000D03*
X142515000Y-105065000D03*
D47*
X142730000Y-106500000D03*
X142730000Y-106900000D03*
X142730000Y-107300000D03*
D48*
X143515000Y-108085000D03*
D47*
X144300000Y-107300000D03*
X144300000Y-106900000D03*
X144300000Y-106500000D03*
D48*
X143515000Y-105715000D03*
G04 #@! TD*
D27*
G04 #@! TO.C,C33*
X153235000Y-114700000D03*
X152100000Y-114700000D03*
G04 #@! TD*
D49*
G04 #@! TO.C,VR1*
X154900000Y-102500000D03*
X154900000Y-100600000D03*
X152300000Y-101550000D03*
G04 #@! TD*
D28*
G04 #@! TO.C,R26*
X110905000Y-97100000D03*
X112100000Y-97100000D03*
G04 #@! TD*
D34*
G04 #@! TO.C,R2*
X147100000Y-103795000D03*
X147100000Y-102600000D03*
G04 #@! TD*
D44*
G04 #@! TO.C,D4*
X157950000Y-98200000D03*
X160000000Y-98200000D03*
G04 #@! TD*
D26*
G04 #@! TO.C,Q4*
X136225000Y-119650000D03*
X136225000Y-121550000D03*
X138100000Y-120600000D03*
G04 #@! TD*
D25*
G04 #@! TO.C,R28*
X134295000Y-114200000D03*
X133100000Y-114200000D03*
G04 #@! TD*
D17*
G04 #@! TO.C,R31*
X134700000Y-120300000D03*
X134700000Y-121495000D03*
G04 #@! TD*
D50*
G04 #@! TO.C,U3*
X147000000Y-91000000D03*
X144800000Y-91000000D03*
X144800000Y-92700000D03*
X147000000Y-92700000D03*
G04 #@! TD*
M02*
