G04 #@! TF.GenerationSoftware,KiCad,Pcbnew,9.0.6*
G04 #@! TF.CreationDate,2026-01-17T12:49:20+11:00*
G04 #@! TF.ProjectId,E-ink watch,452d696e-6b20-4776-9174-63682e6b6963,rev?*
G04 #@! TF.SameCoordinates,Original*
G04 #@! TF.FileFunction,Legend,Bot*
G04 #@! TF.FilePolarity,Positive*
%FSLAX46Y46*%
G04 Gerber Fmt 4.6, Leading zero omitted, Abs format (unit mm)*
G04 Created by KiCad (PCBNEW 9.0.6) date 2026-01-17 12:49:20*
%MOMM*%
%LPD*%
G01*
G04 APERTURE LIST*
G04 Aperture macros list*
%AMRoundRect*
0 Rectangle with rounded corners*
0 $1 Rounding radius*
0 $2 $3 $4 $5 $6 $7 $8 $9 X,Y pos of 4 corners*
0 Add a 4 corners polygon primitive as box body*
4,1,4,$2,$3,$4,$5,$6,$7,$8,$9,$2,$3,0*
0 Add four circle primitives for the rounded corners*
1,1,$1+$1,$2,$3*
1,1,$1+$1,$4,$5*
1,1,$1+$1,$6,$7*
1,1,$1+$1,$8,$9*
0 Add four rect primitives between the rounded corners*
20,1,$1+$1,$2,$3,$4,$5,0*
20,1,$1+$1,$4,$5,$6,$7,0*
20,1,$1+$1,$6,$7,$8,$9,0*
20,1,$1+$1,$8,$9,$2,$3,0*%
G04 Aperture macros list end*
%ADD10C,0.075000*%
%ADD11C,0.508000*%
%ADD12C,0.120000*%
%ADD13RoundRect,0.250000X-0.550000X0.550000X-0.550000X-0.550000X0.550000X-0.550000X0.550000X0.550000X0*%
%ADD14C,1.600000*%
%ADD15RoundRect,0.250000X0.550000X-0.550000X0.550000X0.550000X-0.550000X0.550000X-0.550000X-0.550000X0*%
%ADD16C,1.000000*%
G04 APERTURE END LIST*
D10*
X151104761Y-95781147D02*
X150876190Y-95781147D01*
X150990476Y-96181147D02*
X150990476Y-95781147D01*
X150742856Y-96181147D02*
X150742856Y-95781147D01*
X150742856Y-95781147D02*
X150590475Y-95781147D01*
X150590475Y-95781147D02*
X150552380Y-95800195D01*
X150552380Y-95800195D02*
X150533333Y-95819242D01*
X150533333Y-95819242D02*
X150514285Y-95857338D01*
X150514285Y-95857338D02*
X150514285Y-95914480D01*
X150514285Y-95914480D02*
X150533333Y-95952576D01*
X150533333Y-95952576D02*
X150552380Y-95971623D01*
X150552380Y-95971623D02*
X150590475Y-95990671D01*
X150590475Y-95990671D02*
X150742856Y-95990671D01*
X150133333Y-96181147D02*
X150361904Y-96181147D01*
X150247618Y-96181147D02*
X150247618Y-95781147D01*
X150247618Y-95781147D02*
X150285714Y-95838290D01*
X150285714Y-95838290D02*
X150323809Y-95876385D01*
X150323809Y-95876385D02*
X150361904Y-95895433D01*
X153204761Y-94981147D02*
X152976190Y-94981147D01*
X153090476Y-95381147D02*
X153090476Y-94981147D01*
X152842856Y-95381147D02*
X152842856Y-94981147D01*
X152842856Y-94981147D02*
X152690475Y-94981147D01*
X152690475Y-94981147D02*
X152652380Y-95000195D01*
X152652380Y-95000195D02*
X152633333Y-95019242D01*
X152633333Y-95019242D02*
X152614285Y-95057338D01*
X152614285Y-95057338D02*
X152614285Y-95114480D01*
X152614285Y-95114480D02*
X152633333Y-95152576D01*
X152633333Y-95152576D02*
X152652380Y-95171623D01*
X152652380Y-95171623D02*
X152690475Y-95190671D01*
X152690475Y-95190671D02*
X152842856Y-95190671D01*
X152461904Y-95019242D02*
X152442856Y-95000195D01*
X152442856Y-95000195D02*
X152404761Y-94981147D01*
X152404761Y-94981147D02*
X152309523Y-94981147D01*
X152309523Y-94981147D02*
X152271428Y-95000195D01*
X152271428Y-95000195D02*
X152252380Y-95019242D01*
X152252380Y-95019242D02*
X152233333Y-95057338D01*
X152233333Y-95057338D02*
X152233333Y-95095433D01*
X152233333Y-95095433D02*
X152252380Y-95152576D01*
X152252380Y-95152576D02*
X152480952Y-95381147D01*
X152480952Y-95381147D02*
X152233333Y-95381147D01*
X150904761Y-97781147D02*
X150676190Y-97781147D01*
X150790476Y-98181147D02*
X150790476Y-97781147D01*
X150542856Y-98181147D02*
X150542856Y-97781147D01*
X150542856Y-97781147D02*
X150390475Y-97781147D01*
X150390475Y-97781147D02*
X150352380Y-97800195D01*
X150352380Y-97800195D02*
X150333333Y-97819242D01*
X150333333Y-97819242D02*
X150314285Y-97857338D01*
X150314285Y-97857338D02*
X150314285Y-97914480D01*
X150314285Y-97914480D02*
X150333333Y-97952576D01*
X150333333Y-97952576D02*
X150352380Y-97971623D01*
X150352380Y-97971623D02*
X150390475Y-97990671D01*
X150390475Y-97990671D02*
X150542856Y-97990671D01*
X149971428Y-97914480D02*
X149971428Y-98181147D01*
X150066666Y-97762100D02*
X150161904Y-98047814D01*
X150161904Y-98047814D02*
X149914285Y-98047814D01*
X153204761Y-97481147D02*
X152976190Y-97481147D01*
X153090476Y-97881147D02*
X153090476Y-97481147D01*
X152842856Y-97881147D02*
X152842856Y-97481147D01*
X152842856Y-97481147D02*
X152690475Y-97481147D01*
X152690475Y-97481147D02*
X152652380Y-97500195D01*
X152652380Y-97500195D02*
X152633333Y-97519242D01*
X152633333Y-97519242D02*
X152614285Y-97557338D01*
X152614285Y-97557338D02*
X152614285Y-97614480D01*
X152614285Y-97614480D02*
X152633333Y-97652576D01*
X152633333Y-97652576D02*
X152652380Y-97671623D01*
X152652380Y-97671623D02*
X152690475Y-97690671D01*
X152690475Y-97690671D02*
X152842856Y-97690671D01*
X152252380Y-97481147D02*
X152442856Y-97481147D01*
X152442856Y-97481147D02*
X152461904Y-97671623D01*
X152461904Y-97671623D02*
X152442856Y-97652576D01*
X152442856Y-97652576D02*
X152404761Y-97633528D01*
X152404761Y-97633528D02*
X152309523Y-97633528D01*
X152309523Y-97633528D02*
X152271428Y-97652576D01*
X152271428Y-97652576D02*
X152252380Y-97671623D01*
X152252380Y-97671623D02*
X152233333Y-97709719D01*
X152233333Y-97709719D02*
X152233333Y-97804957D01*
X152233333Y-97804957D02*
X152252380Y-97843052D01*
X152252380Y-97843052D02*
X152271428Y-97862100D01*
X152271428Y-97862100D02*
X152309523Y-97881147D01*
X152309523Y-97881147D02*
X152404761Y-97881147D01*
X152404761Y-97881147D02*
X152442856Y-97862100D01*
X152442856Y-97862100D02*
X152461904Y-97843052D01*
X158495237Y-102181147D02*
X158266666Y-102181147D01*
X158380952Y-102581147D02*
X158380952Y-102181147D01*
X158133332Y-102581147D02*
X158133332Y-102181147D01*
X158133332Y-102181147D02*
X157980951Y-102181147D01*
X157980951Y-102181147D02*
X157942856Y-102200195D01*
X157942856Y-102200195D02*
X157923809Y-102219242D01*
X157923809Y-102219242D02*
X157904761Y-102257338D01*
X157904761Y-102257338D02*
X157904761Y-102314480D01*
X157904761Y-102314480D02*
X157923809Y-102352576D01*
X157923809Y-102352576D02*
X157942856Y-102371623D01*
X157942856Y-102371623D02*
X157980951Y-102390671D01*
X157980951Y-102390671D02*
X158133332Y-102390671D01*
X157752380Y-102219242D02*
X157733332Y-102200195D01*
X157733332Y-102200195D02*
X157695237Y-102181147D01*
X157695237Y-102181147D02*
X157599999Y-102181147D01*
X157599999Y-102181147D02*
X157561904Y-102200195D01*
X157561904Y-102200195D02*
X157542856Y-102219242D01*
X157542856Y-102219242D02*
X157523809Y-102257338D01*
X157523809Y-102257338D02*
X157523809Y-102295433D01*
X157523809Y-102295433D02*
X157542856Y-102352576D01*
X157542856Y-102352576D02*
X157771428Y-102581147D01*
X157771428Y-102581147D02*
X157523809Y-102581147D01*
X157142857Y-102581147D02*
X157371428Y-102581147D01*
X157257142Y-102581147D02*
X157257142Y-102181147D01*
X157257142Y-102181147D02*
X157295238Y-102238290D01*
X157295238Y-102238290D02*
X157333333Y-102276385D01*
X157333333Y-102276385D02*
X157371428Y-102295433D01*
X140795237Y-115333147D02*
X140566666Y-115333147D01*
X140680952Y-115733147D02*
X140680952Y-115333147D01*
X140433332Y-115733147D02*
X140433332Y-115333147D01*
X140433332Y-115333147D02*
X140280951Y-115333147D01*
X140280951Y-115333147D02*
X140242856Y-115352195D01*
X140242856Y-115352195D02*
X140223809Y-115371242D01*
X140223809Y-115371242D02*
X140204761Y-115409338D01*
X140204761Y-115409338D02*
X140204761Y-115466480D01*
X140204761Y-115466480D02*
X140223809Y-115504576D01*
X140223809Y-115504576D02*
X140242856Y-115523623D01*
X140242856Y-115523623D02*
X140280951Y-115542671D01*
X140280951Y-115542671D02*
X140433332Y-115542671D01*
X139823809Y-115733147D02*
X140052380Y-115733147D01*
X139938094Y-115733147D02*
X139938094Y-115333147D01*
X139938094Y-115333147D02*
X139976190Y-115390290D01*
X139976190Y-115390290D02*
X140014285Y-115428385D01*
X140014285Y-115428385D02*
X140052380Y-115447433D01*
X139576190Y-115333147D02*
X139538095Y-115333147D01*
X139538095Y-115333147D02*
X139499999Y-115352195D01*
X139499999Y-115352195D02*
X139480952Y-115371242D01*
X139480952Y-115371242D02*
X139461904Y-115409338D01*
X139461904Y-115409338D02*
X139442857Y-115485528D01*
X139442857Y-115485528D02*
X139442857Y-115580766D01*
X139442857Y-115580766D02*
X139461904Y-115656957D01*
X139461904Y-115656957D02*
X139480952Y-115695052D01*
X139480952Y-115695052D02*
X139499999Y-115714100D01*
X139499999Y-115714100D02*
X139538095Y-115733147D01*
X139538095Y-115733147D02*
X139576190Y-115733147D01*
X139576190Y-115733147D02*
X139614285Y-115714100D01*
X139614285Y-115714100D02*
X139633333Y-115695052D01*
X139633333Y-115695052D02*
X139652380Y-115656957D01*
X139652380Y-115656957D02*
X139671428Y-115580766D01*
X139671428Y-115580766D02*
X139671428Y-115485528D01*
X139671428Y-115485528D02*
X139652380Y-115409338D01*
X139652380Y-115409338D02*
X139633333Y-115371242D01*
X139633333Y-115371242D02*
X139614285Y-115352195D01*
X139614285Y-115352195D02*
X139576190Y-115333147D01*
X137395237Y-108733147D02*
X137166666Y-108733147D01*
X137280952Y-109133147D02*
X137280952Y-108733147D01*
X137033332Y-109133147D02*
X137033332Y-108733147D01*
X137033332Y-108733147D02*
X136880951Y-108733147D01*
X136880951Y-108733147D02*
X136842856Y-108752195D01*
X136842856Y-108752195D02*
X136823809Y-108771242D01*
X136823809Y-108771242D02*
X136804761Y-108809338D01*
X136804761Y-108809338D02*
X136804761Y-108866480D01*
X136804761Y-108866480D02*
X136823809Y-108904576D01*
X136823809Y-108904576D02*
X136842856Y-108923623D01*
X136842856Y-108923623D02*
X136880951Y-108942671D01*
X136880951Y-108942671D02*
X137033332Y-108942671D01*
X136423809Y-109133147D02*
X136652380Y-109133147D01*
X136538094Y-109133147D02*
X136538094Y-108733147D01*
X136538094Y-108733147D02*
X136576190Y-108790290D01*
X136576190Y-108790290D02*
X136614285Y-108828385D01*
X136614285Y-108828385D02*
X136652380Y-108847433D01*
X136042857Y-109133147D02*
X136271428Y-109133147D01*
X136157142Y-109133147D02*
X136157142Y-108733147D01*
X136157142Y-108733147D02*
X136195238Y-108790290D01*
X136195238Y-108790290D02*
X136233333Y-108828385D01*
X136233333Y-108828385D02*
X136271428Y-108847433D01*
X139095237Y-99633147D02*
X138866666Y-99633147D01*
X138980952Y-100033147D02*
X138980952Y-99633147D01*
X138733332Y-100033147D02*
X138733332Y-99633147D01*
X138733332Y-99633147D02*
X138580951Y-99633147D01*
X138580951Y-99633147D02*
X138542856Y-99652195D01*
X138542856Y-99652195D02*
X138523809Y-99671242D01*
X138523809Y-99671242D02*
X138504761Y-99709338D01*
X138504761Y-99709338D02*
X138504761Y-99766480D01*
X138504761Y-99766480D02*
X138523809Y-99804576D01*
X138523809Y-99804576D02*
X138542856Y-99823623D01*
X138542856Y-99823623D02*
X138580951Y-99842671D01*
X138580951Y-99842671D02*
X138733332Y-99842671D01*
X138123809Y-100033147D02*
X138352380Y-100033147D01*
X138238094Y-100033147D02*
X138238094Y-99633147D01*
X138238094Y-99633147D02*
X138276190Y-99690290D01*
X138276190Y-99690290D02*
X138314285Y-99728385D01*
X138314285Y-99728385D02*
X138352380Y-99747433D01*
X137780952Y-99633147D02*
X137857142Y-99633147D01*
X137857142Y-99633147D02*
X137895238Y-99652195D01*
X137895238Y-99652195D02*
X137914285Y-99671242D01*
X137914285Y-99671242D02*
X137952380Y-99728385D01*
X137952380Y-99728385D02*
X137971428Y-99804576D01*
X137971428Y-99804576D02*
X137971428Y-99956957D01*
X137971428Y-99956957D02*
X137952380Y-99995052D01*
X137952380Y-99995052D02*
X137933333Y-100014100D01*
X137933333Y-100014100D02*
X137895238Y-100033147D01*
X137895238Y-100033147D02*
X137819047Y-100033147D01*
X137819047Y-100033147D02*
X137780952Y-100014100D01*
X137780952Y-100014100D02*
X137761904Y-99995052D01*
X137761904Y-99995052D02*
X137742857Y-99956957D01*
X137742857Y-99956957D02*
X137742857Y-99861719D01*
X137742857Y-99861719D02*
X137761904Y-99823623D01*
X137761904Y-99823623D02*
X137780952Y-99804576D01*
X137780952Y-99804576D02*
X137819047Y-99785528D01*
X137819047Y-99785528D02*
X137895238Y-99785528D01*
X137895238Y-99785528D02*
X137933333Y-99804576D01*
X137933333Y-99804576D02*
X137952380Y-99823623D01*
X137952380Y-99823623D02*
X137971428Y-99861719D01*
X139195237Y-97533147D02*
X138966666Y-97533147D01*
X139080952Y-97933147D02*
X139080952Y-97533147D01*
X138833332Y-97933147D02*
X138833332Y-97533147D01*
X138833332Y-97533147D02*
X138680951Y-97533147D01*
X138680951Y-97533147D02*
X138642856Y-97552195D01*
X138642856Y-97552195D02*
X138623809Y-97571242D01*
X138623809Y-97571242D02*
X138604761Y-97609338D01*
X138604761Y-97609338D02*
X138604761Y-97666480D01*
X138604761Y-97666480D02*
X138623809Y-97704576D01*
X138623809Y-97704576D02*
X138642856Y-97723623D01*
X138642856Y-97723623D02*
X138680951Y-97742671D01*
X138680951Y-97742671D02*
X138833332Y-97742671D01*
X138223809Y-97933147D02*
X138452380Y-97933147D01*
X138338094Y-97933147D02*
X138338094Y-97533147D01*
X138338094Y-97533147D02*
X138376190Y-97590290D01*
X138376190Y-97590290D02*
X138414285Y-97628385D01*
X138414285Y-97628385D02*
X138452380Y-97647433D01*
X137880952Y-97666480D02*
X137880952Y-97933147D01*
X137976190Y-97514100D02*
X138071428Y-97799814D01*
X138071428Y-97799814D02*
X137823809Y-97799814D01*
X143295237Y-96633147D02*
X143066666Y-96633147D01*
X143180952Y-97033147D02*
X143180952Y-96633147D01*
X142933332Y-97033147D02*
X142933332Y-96633147D01*
X142933332Y-96633147D02*
X142780951Y-96633147D01*
X142780951Y-96633147D02*
X142742856Y-96652195D01*
X142742856Y-96652195D02*
X142723809Y-96671242D01*
X142723809Y-96671242D02*
X142704761Y-96709338D01*
X142704761Y-96709338D02*
X142704761Y-96766480D01*
X142704761Y-96766480D02*
X142723809Y-96804576D01*
X142723809Y-96804576D02*
X142742856Y-96823623D01*
X142742856Y-96823623D02*
X142780951Y-96842671D01*
X142780951Y-96842671D02*
X142933332Y-96842671D01*
X142323809Y-97033147D02*
X142552380Y-97033147D01*
X142438094Y-97033147D02*
X142438094Y-96633147D01*
X142438094Y-96633147D02*
X142476190Y-96690290D01*
X142476190Y-96690290D02*
X142514285Y-96728385D01*
X142514285Y-96728385D02*
X142552380Y-96747433D01*
X142190476Y-96633147D02*
X141923809Y-96633147D01*
X141923809Y-96633147D02*
X142095238Y-97033147D01*
X143695237Y-106433147D02*
X143466666Y-106433147D01*
X143580952Y-106833147D02*
X143580952Y-106433147D01*
X143333332Y-106833147D02*
X143333332Y-106433147D01*
X143333332Y-106433147D02*
X143180951Y-106433147D01*
X143180951Y-106433147D02*
X143142856Y-106452195D01*
X143142856Y-106452195D02*
X143123809Y-106471242D01*
X143123809Y-106471242D02*
X143104761Y-106509338D01*
X143104761Y-106509338D02*
X143104761Y-106566480D01*
X143104761Y-106566480D02*
X143123809Y-106604576D01*
X143123809Y-106604576D02*
X143142856Y-106623623D01*
X143142856Y-106623623D02*
X143180951Y-106642671D01*
X143180951Y-106642671D02*
X143333332Y-106642671D01*
X142952380Y-106471242D02*
X142933332Y-106452195D01*
X142933332Y-106452195D02*
X142895237Y-106433147D01*
X142895237Y-106433147D02*
X142799999Y-106433147D01*
X142799999Y-106433147D02*
X142761904Y-106452195D01*
X142761904Y-106452195D02*
X142742856Y-106471242D01*
X142742856Y-106471242D02*
X142723809Y-106509338D01*
X142723809Y-106509338D02*
X142723809Y-106547433D01*
X142723809Y-106547433D02*
X142742856Y-106604576D01*
X142742856Y-106604576D02*
X142971428Y-106833147D01*
X142971428Y-106833147D02*
X142723809Y-106833147D01*
X142571428Y-106471242D02*
X142552380Y-106452195D01*
X142552380Y-106452195D02*
X142514285Y-106433147D01*
X142514285Y-106433147D02*
X142419047Y-106433147D01*
X142419047Y-106433147D02*
X142380952Y-106452195D01*
X142380952Y-106452195D02*
X142361904Y-106471242D01*
X142361904Y-106471242D02*
X142342857Y-106509338D01*
X142342857Y-106509338D02*
X142342857Y-106547433D01*
X142342857Y-106547433D02*
X142361904Y-106604576D01*
X142361904Y-106604576D02*
X142590476Y-106833147D01*
X142590476Y-106833147D02*
X142342857Y-106833147D01*
X136195237Y-110333147D02*
X135966666Y-110333147D01*
X136080952Y-110733147D02*
X136080952Y-110333147D01*
X135833332Y-110733147D02*
X135833332Y-110333147D01*
X135833332Y-110333147D02*
X135680951Y-110333147D01*
X135680951Y-110333147D02*
X135642856Y-110352195D01*
X135642856Y-110352195D02*
X135623809Y-110371242D01*
X135623809Y-110371242D02*
X135604761Y-110409338D01*
X135604761Y-110409338D02*
X135604761Y-110466480D01*
X135604761Y-110466480D02*
X135623809Y-110504576D01*
X135623809Y-110504576D02*
X135642856Y-110523623D01*
X135642856Y-110523623D02*
X135680951Y-110542671D01*
X135680951Y-110542671D02*
X135833332Y-110542671D01*
X135452380Y-110371242D02*
X135433332Y-110352195D01*
X135433332Y-110352195D02*
X135395237Y-110333147D01*
X135395237Y-110333147D02*
X135299999Y-110333147D01*
X135299999Y-110333147D02*
X135261904Y-110352195D01*
X135261904Y-110352195D02*
X135242856Y-110371242D01*
X135242856Y-110371242D02*
X135223809Y-110409338D01*
X135223809Y-110409338D02*
X135223809Y-110447433D01*
X135223809Y-110447433D02*
X135242856Y-110504576D01*
X135242856Y-110504576D02*
X135471428Y-110733147D01*
X135471428Y-110733147D02*
X135223809Y-110733147D01*
X134976190Y-110333147D02*
X134938095Y-110333147D01*
X134938095Y-110333147D02*
X134899999Y-110352195D01*
X134899999Y-110352195D02*
X134880952Y-110371242D01*
X134880952Y-110371242D02*
X134861904Y-110409338D01*
X134861904Y-110409338D02*
X134842857Y-110485528D01*
X134842857Y-110485528D02*
X134842857Y-110580766D01*
X134842857Y-110580766D02*
X134861904Y-110656957D01*
X134861904Y-110656957D02*
X134880952Y-110695052D01*
X134880952Y-110695052D02*
X134899999Y-110714100D01*
X134899999Y-110714100D02*
X134938095Y-110733147D01*
X134938095Y-110733147D02*
X134976190Y-110733147D01*
X134976190Y-110733147D02*
X135014285Y-110714100D01*
X135014285Y-110714100D02*
X135033333Y-110695052D01*
X135033333Y-110695052D02*
X135052380Y-110656957D01*
X135052380Y-110656957D02*
X135071428Y-110580766D01*
X135071428Y-110580766D02*
X135071428Y-110485528D01*
X135071428Y-110485528D02*
X135052380Y-110409338D01*
X135052380Y-110409338D02*
X135033333Y-110371242D01*
X135033333Y-110371242D02*
X135014285Y-110352195D01*
X135014285Y-110352195D02*
X134976190Y-110333147D01*
X151495237Y-92933147D02*
X151266666Y-92933147D01*
X151380952Y-93333147D02*
X151380952Y-92933147D01*
X151133332Y-93333147D02*
X151133332Y-92933147D01*
X151133332Y-92933147D02*
X150980951Y-92933147D01*
X150980951Y-92933147D02*
X150942856Y-92952195D01*
X150942856Y-92952195D02*
X150923809Y-92971242D01*
X150923809Y-92971242D02*
X150904761Y-93009338D01*
X150904761Y-93009338D02*
X150904761Y-93066480D01*
X150904761Y-93066480D02*
X150923809Y-93104576D01*
X150923809Y-93104576D02*
X150942856Y-93123623D01*
X150942856Y-93123623D02*
X150980951Y-93142671D01*
X150980951Y-93142671D02*
X151133332Y-93142671D01*
X150523809Y-93333147D02*
X150752380Y-93333147D01*
X150638094Y-93333147D02*
X150638094Y-92933147D01*
X150638094Y-92933147D02*
X150676190Y-92990290D01*
X150676190Y-92990290D02*
X150714285Y-93028385D01*
X150714285Y-93028385D02*
X150752380Y-93047433D01*
X150295238Y-93104576D02*
X150333333Y-93085528D01*
X150333333Y-93085528D02*
X150352380Y-93066480D01*
X150352380Y-93066480D02*
X150371428Y-93028385D01*
X150371428Y-93028385D02*
X150371428Y-93009338D01*
X150371428Y-93009338D02*
X150352380Y-92971242D01*
X150352380Y-92971242D02*
X150333333Y-92952195D01*
X150333333Y-92952195D02*
X150295238Y-92933147D01*
X150295238Y-92933147D02*
X150219047Y-92933147D01*
X150219047Y-92933147D02*
X150180952Y-92952195D01*
X150180952Y-92952195D02*
X150161904Y-92971242D01*
X150161904Y-92971242D02*
X150142857Y-93009338D01*
X150142857Y-93009338D02*
X150142857Y-93028385D01*
X150142857Y-93028385D02*
X150161904Y-93066480D01*
X150161904Y-93066480D02*
X150180952Y-93085528D01*
X150180952Y-93085528D02*
X150219047Y-93104576D01*
X150219047Y-93104576D02*
X150295238Y-93104576D01*
X150295238Y-93104576D02*
X150333333Y-93123623D01*
X150333333Y-93123623D02*
X150352380Y-93142671D01*
X150352380Y-93142671D02*
X150371428Y-93180766D01*
X150371428Y-93180766D02*
X150371428Y-93256957D01*
X150371428Y-93256957D02*
X150352380Y-93295052D01*
X150352380Y-93295052D02*
X150333333Y-93314100D01*
X150333333Y-93314100D02*
X150295238Y-93333147D01*
X150295238Y-93333147D02*
X150219047Y-93333147D01*
X150219047Y-93333147D02*
X150180952Y-93314100D01*
X150180952Y-93314100D02*
X150161904Y-93295052D01*
X150161904Y-93295052D02*
X150142857Y-93256957D01*
X150142857Y-93256957D02*
X150142857Y-93180766D01*
X150142857Y-93180766D02*
X150161904Y-93142671D01*
X150161904Y-93142671D02*
X150180952Y-93123623D01*
X150180952Y-93123623D02*
X150219047Y-93104576D01*
X152395237Y-117233147D02*
X152166666Y-117233147D01*
X152280952Y-117633147D02*
X152280952Y-117233147D01*
X152033332Y-117633147D02*
X152033332Y-117233147D01*
X152033332Y-117233147D02*
X151880951Y-117233147D01*
X151880951Y-117233147D02*
X151842856Y-117252195D01*
X151842856Y-117252195D02*
X151823809Y-117271242D01*
X151823809Y-117271242D02*
X151804761Y-117309338D01*
X151804761Y-117309338D02*
X151804761Y-117366480D01*
X151804761Y-117366480D02*
X151823809Y-117404576D01*
X151823809Y-117404576D02*
X151842856Y-117423623D01*
X151842856Y-117423623D02*
X151880951Y-117442671D01*
X151880951Y-117442671D02*
X152033332Y-117442671D01*
X151423809Y-117633147D02*
X151652380Y-117633147D01*
X151538094Y-117633147D02*
X151538094Y-117233147D01*
X151538094Y-117233147D02*
X151576190Y-117290290D01*
X151576190Y-117290290D02*
X151614285Y-117328385D01*
X151614285Y-117328385D02*
X151652380Y-117347433D01*
X151290476Y-117233147D02*
X151042857Y-117233147D01*
X151042857Y-117233147D02*
X151176190Y-117385528D01*
X151176190Y-117385528D02*
X151119047Y-117385528D01*
X151119047Y-117385528D02*
X151080952Y-117404576D01*
X151080952Y-117404576D02*
X151061904Y-117423623D01*
X151061904Y-117423623D02*
X151042857Y-117461719D01*
X151042857Y-117461719D02*
X151042857Y-117556957D01*
X151042857Y-117556957D02*
X151061904Y-117595052D01*
X151061904Y-117595052D02*
X151080952Y-117614100D01*
X151080952Y-117614100D02*
X151119047Y-117633147D01*
X151119047Y-117633147D02*
X151233333Y-117633147D01*
X151233333Y-117633147D02*
X151271428Y-117614100D01*
X151271428Y-117614100D02*
X151290476Y-117595052D01*
X144595237Y-91433147D02*
X144366666Y-91433147D01*
X144480952Y-91833147D02*
X144480952Y-91433147D01*
X144233332Y-91833147D02*
X144233332Y-91433147D01*
X144233332Y-91433147D02*
X144080951Y-91433147D01*
X144080951Y-91433147D02*
X144042856Y-91452195D01*
X144042856Y-91452195D02*
X144023809Y-91471242D01*
X144023809Y-91471242D02*
X144004761Y-91509338D01*
X144004761Y-91509338D02*
X144004761Y-91566480D01*
X144004761Y-91566480D02*
X144023809Y-91604576D01*
X144023809Y-91604576D02*
X144042856Y-91623623D01*
X144042856Y-91623623D02*
X144080951Y-91642671D01*
X144080951Y-91642671D02*
X144233332Y-91642671D01*
X143623809Y-91833147D02*
X143852380Y-91833147D01*
X143738094Y-91833147D02*
X143738094Y-91433147D01*
X143738094Y-91433147D02*
X143776190Y-91490290D01*
X143776190Y-91490290D02*
X143814285Y-91528385D01*
X143814285Y-91528385D02*
X143852380Y-91547433D01*
X143433333Y-91833147D02*
X143357142Y-91833147D01*
X143357142Y-91833147D02*
X143319047Y-91814100D01*
X143319047Y-91814100D02*
X143299999Y-91795052D01*
X143299999Y-91795052D02*
X143261904Y-91737909D01*
X143261904Y-91737909D02*
X143242857Y-91661719D01*
X143242857Y-91661719D02*
X143242857Y-91509338D01*
X143242857Y-91509338D02*
X143261904Y-91471242D01*
X143261904Y-91471242D02*
X143280952Y-91452195D01*
X143280952Y-91452195D02*
X143319047Y-91433147D01*
X143319047Y-91433147D02*
X143395238Y-91433147D01*
X143395238Y-91433147D02*
X143433333Y-91452195D01*
X143433333Y-91452195D02*
X143452380Y-91471242D01*
X143452380Y-91471242D02*
X143471428Y-91509338D01*
X143471428Y-91509338D02*
X143471428Y-91604576D01*
X143471428Y-91604576D02*
X143452380Y-91642671D01*
X143452380Y-91642671D02*
X143433333Y-91661719D01*
X143433333Y-91661719D02*
X143395238Y-91680766D01*
X143395238Y-91680766D02*
X143319047Y-91680766D01*
X143319047Y-91680766D02*
X143280952Y-91661719D01*
X143280952Y-91661719D02*
X143261904Y-91642671D01*
X143261904Y-91642671D02*
X143242857Y-91604576D01*
X137095237Y-99633147D02*
X136866666Y-99633147D01*
X136980952Y-100033147D02*
X136980952Y-99633147D01*
X136733332Y-100033147D02*
X136733332Y-99633147D01*
X136733332Y-99633147D02*
X136580951Y-99633147D01*
X136580951Y-99633147D02*
X136542856Y-99652195D01*
X136542856Y-99652195D02*
X136523809Y-99671242D01*
X136523809Y-99671242D02*
X136504761Y-99709338D01*
X136504761Y-99709338D02*
X136504761Y-99766480D01*
X136504761Y-99766480D02*
X136523809Y-99804576D01*
X136523809Y-99804576D02*
X136542856Y-99823623D01*
X136542856Y-99823623D02*
X136580951Y-99842671D01*
X136580951Y-99842671D02*
X136733332Y-99842671D01*
X136123809Y-100033147D02*
X136352380Y-100033147D01*
X136238094Y-100033147D02*
X136238094Y-99633147D01*
X136238094Y-99633147D02*
X136276190Y-99690290D01*
X136276190Y-99690290D02*
X136314285Y-99728385D01*
X136314285Y-99728385D02*
X136352380Y-99747433D01*
X135761904Y-99633147D02*
X135952380Y-99633147D01*
X135952380Y-99633147D02*
X135971428Y-99823623D01*
X135971428Y-99823623D02*
X135952380Y-99804576D01*
X135952380Y-99804576D02*
X135914285Y-99785528D01*
X135914285Y-99785528D02*
X135819047Y-99785528D01*
X135819047Y-99785528D02*
X135780952Y-99804576D01*
X135780952Y-99804576D02*
X135761904Y-99823623D01*
X135761904Y-99823623D02*
X135742857Y-99861719D01*
X135742857Y-99861719D02*
X135742857Y-99956957D01*
X135742857Y-99956957D02*
X135761904Y-99995052D01*
X135761904Y-99995052D02*
X135780952Y-100014100D01*
X135780952Y-100014100D02*
X135819047Y-100033147D01*
X135819047Y-100033147D02*
X135914285Y-100033147D01*
X135914285Y-100033147D02*
X135952380Y-100014100D01*
X135952380Y-100014100D02*
X135971428Y-99995052D01*
X154195237Y-118533147D02*
X153966666Y-118533147D01*
X154080952Y-118933147D02*
X154080952Y-118533147D01*
X153833332Y-118933147D02*
X153833332Y-118533147D01*
X153833332Y-118533147D02*
X153680951Y-118533147D01*
X153680951Y-118533147D02*
X153642856Y-118552195D01*
X153642856Y-118552195D02*
X153623809Y-118571242D01*
X153623809Y-118571242D02*
X153604761Y-118609338D01*
X153604761Y-118609338D02*
X153604761Y-118666480D01*
X153604761Y-118666480D02*
X153623809Y-118704576D01*
X153623809Y-118704576D02*
X153642856Y-118723623D01*
X153642856Y-118723623D02*
X153680951Y-118742671D01*
X153680951Y-118742671D02*
X153833332Y-118742671D01*
X153223809Y-118933147D02*
X153452380Y-118933147D01*
X153338094Y-118933147D02*
X153338094Y-118533147D01*
X153338094Y-118533147D02*
X153376190Y-118590290D01*
X153376190Y-118590290D02*
X153414285Y-118628385D01*
X153414285Y-118628385D02*
X153452380Y-118647433D01*
X153071428Y-118571242D02*
X153052380Y-118552195D01*
X153052380Y-118552195D02*
X153014285Y-118533147D01*
X153014285Y-118533147D02*
X152919047Y-118533147D01*
X152919047Y-118533147D02*
X152880952Y-118552195D01*
X152880952Y-118552195D02*
X152861904Y-118571242D01*
X152861904Y-118571242D02*
X152842857Y-118609338D01*
X152842857Y-118609338D02*
X152842857Y-118647433D01*
X152842857Y-118647433D02*
X152861904Y-118704576D01*
X152861904Y-118704576D02*
X153090476Y-118933147D01*
X153090476Y-118933147D02*
X152842857Y-118933147D01*
D11*
G04 #@! TO.C,J3*
X154181000Y-123556901D02*
G75*
G02*
X153419000Y-123556901I-381000J0D01*
G01*
X153419000Y-123556901D02*
G75*
G02*
X154181000Y-123556901I381000J0D01*
G01*
D12*
G04 #@! TO.C,TP10*
X140800000Y-117000000D02*
G75*
G02*
X139400000Y-117000000I-700000J0D01*
G01*
X139400000Y-117000000D02*
G75*
G02*
X140800000Y-117000000I700000J0D01*
G01*
G04 #@! TO.C,TP11*
X137400000Y-110400000D02*
G75*
G02*
X136000000Y-110400000I-700000J0D01*
G01*
X136000000Y-110400000D02*
G75*
G02*
X137400000Y-110400000I700000J0D01*
G01*
G04 #@! TO.C,TP16*
X139100000Y-101300000D02*
G75*
G02*
X137700000Y-101300000I-700000J0D01*
G01*
X137700000Y-101300000D02*
G75*
G02*
X139100000Y-101300000I700000J0D01*
G01*
G04 #@! TO.C,TP14*
X139200000Y-99200000D02*
G75*
G02*
X137800000Y-99200000I-700000J0D01*
G01*
X137800000Y-99200000D02*
G75*
G02*
X139200000Y-99200000I700000J0D01*
G01*
G04 #@! TO.C,TP17*
X143300000Y-98300000D02*
G75*
G02*
X141900000Y-98300000I-700000J0D01*
G01*
X141900000Y-98300000D02*
G75*
G02*
X143300000Y-98300000I700000J0D01*
G01*
G04 #@! TO.C,TP22*
X143700000Y-108100000D02*
G75*
G02*
X142300000Y-108100000I-700000J0D01*
G01*
X142300000Y-108100000D02*
G75*
G02*
X143700000Y-108100000I700000J0D01*
G01*
G04 #@! TO.C,TP20*
X136200000Y-112000000D02*
G75*
G02*
X134800000Y-112000000I-700000J0D01*
G01*
X134800000Y-112000000D02*
G75*
G02*
X136200000Y-112000000I700000J0D01*
G01*
G04 #@! TO.C,TP18*
X151500000Y-94600000D02*
G75*
G02*
X150100000Y-94600000I-700000J0D01*
G01*
X150100000Y-94600000D02*
G75*
G02*
X151500000Y-94600000I700000J0D01*
G01*
G04 #@! TO.C,TP13*
X152400000Y-118900000D02*
G75*
G02*
X151000000Y-118900000I-700000J0D01*
G01*
X151000000Y-118900000D02*
G75*
G02*
X152400000Y-118900000I700000J0D01*
G01*
G04 #@! TO.C,TP19*
X144600000Y-93100000D02*
G75*
G02*
X143200000Y-93100000I-700000J0D01*
G01*
X143200000Y-93100000D02*
G75*
G02*
X144600000Y-93100000I700000J0D01*
G01*
G04 #@! TO.C,TP15*
X137100000Y-101300000D02*
G75*
G02*
X135700000Y-101300000I-700000J0D01*
G01*
X135700000Y-101300000D02*
G75*
G02*
X137100000Y-101300000I700000J0D01*
G01*
G04 #@! TO.C,TP12*
X154200000Y-120200000D02*
G75*
G02*
X152800000Y-120200000I-700000J0D01*
G01*
X152800000Y-120200000D02*
G75*
G02*
X154200000Y-120200000I700000J0D01*
G01*
G04 #@! TD*
%LPC*%
D13*
G04 #@! TO.C,D1*
X107600000Y-102480000D03*
D14*
X107600000Y-110100000D03*
G04 #@! TD*
D15*
G04 #@! TO.C,D2*
X187400000Y-110000000D03*
D14*
X187400000Y-102380000D03*
G04 #@! TD*
D16*
G04 #@! TO.C,TP10*
X140100000Y-117000000D03*
G04 #@! TD*
G04 #@! TO.C,TP11*
X136700000Y-110400000D03*
G04 #@! TD*
G04 #@! TO.C,TP16*
X138400000Y-101300000D03*
G04 #@! TD*
G04 #@! TO.C,TP14*
X138500000Y-99200000D03*
G04 #@! TD*
G04 #@! TO.C,TP17*
X142600000Y-98300000D03*
G04 #@! TD*
G04 #@! TO.C,TP22*
X143000000Y-108100000D03*
G04 #@! TD*
G04 #@! TO.C,TP20*
X135500000Y-112000000D03*
G04 #@! TD*
G04 #@! TO.C,TP18*
X150800000Y-94600000D03*
G04 #@! TD*
G04 #@! TO.C,TP13*
X151700000Y-118900000D03*
G04 #@! TD*
G04 #@! TO.C,TP19*
X143900000Y-93100000D03*
G04 #@! TD*
G04 #@! TO.C,TP15*
X136400000Y-101300000D03*
G04 #@! TD*
G04 #@! TO.C,TP12*
X153500000Y-120200000D03*
G04 #@! TD*
%LPD*%
M02*
