ISO-10303-21;
HEADER;

/* File generated by Shapr3D Version 26.10.10376.0 */

FILE_DESCRIPTION(('HOOPS Exchange Step'),'2;1');

FILE_NAME('C:\\Users\\sanya\\AppData\\Local\\Packages\\Shapr3D.Shapr3D_dvv5p1vgwv6mp\\TempState\\export\\temp_export',
'2026-02-15T11:52:45+11:00',
('sanya'),
('Shapr3D Limited'),
'HOOPS Exchange 2025.9',
'Shapr3D',
'Authorized');

FILE_SCHEMA( ('AP242_MANAGED_MODEL_BASED_3D_ENGINEERING_MIM_LF {1 0 10303 442 1 1 4}') );

ENDSEC;

DATA;
#3=(NAMED_UNIT(*)PLANE_ANGLE_UNIT()SI_UNIT($,.RADIAN.));
#4=PLANE_ANGLE_MEASURE_WITH_UNIT(PLANE_ANGLE_MEASURE(0.0174532925),#3);
#5=(CONVERSION_BASED_UNIT('DEGREE',#4)NAMED_UNIT(#6)PLANE_ANGLE_UNIT());
#6=DIMENSIONAL_EXPONENTS(0.,0.,0.,0.,0.,0.,0.);
#7=(NAMED_UNIT(*)SI_UNIT($,.STERADIAN.)SOLID_ANGLE_UNIT());
#8=(LENGTH_UNIT()NAMED_UNIT(*)SI_UNIT(.MILLI.,.METRE.));
#9=UNCERTAINTY_MEASURE_WITH_UNIT(LENGTH_MEASURE(1.000000E-05),#8,'DISTANCE_ACCURACY_VALUE','Maximum Tolerance applied to model');
#10=(GEOMETRIC_REPRESENTATION_CONTEXT(3)GLOBAL_UNCERTAINTY_ASSIGNED_CONTEXT((#9))GLOBAL_UNIT_ASSIGNED_CONTEXT((#8,#5,#7))REPRESENTATION_CONTEXT('','130mah battery'));
#12=CARTESIAN_POINT('',(0.,0.,0.));
#13=DIRECTION('',(0.,0.,1.));
#14=DIRECTION('',(1.,0.,0.));
#15=AXIS2_PLACEMENT_3D('',#12,#13,#14);
#27=CARTESIAN_POINT('',(46.608324168,-12.5,-44.243136414));
#28=DIRECTION('',(-0.5,0.,0.866025404));
#29=DIRECTION('',(-0.866025404,0.,-0.5));
#30=AXIS2_PLACEMENT_3D('',#27,#28,#29);
#31=PLANE('',#30);
#32=CARTESIAN_POINT('',(48.773387678,-15.,-42.993136413));
#33=VERTEX_POINT('',#32);
#34=CARTESIAN_POINT('',(48.773387678,15.,-42.993136413));
#35=VERTEX_POINT('',#34);
#36=CARTESIAN_POINT('',(48.773387678,-15.,-42.993136413));
#37=DIRECTION('',(-0.,1.,-0.));
#38=VECTOR('',#37,30.);
#39=LINE('',#36,#38);
#40=EDGE_CURVE('',#33,#35,#39,.T.);
#41=ORIENTED_EDGE('',*,*,#40,.F.);
#42=CARTESIAN_POINT('',(45.309286063,-15.,-44.993136413));
#43=VERTEX_POINT('',#42);
#44=CARTESIAN_POINT('',(48.773387678,-15.,-42.993136413));
#45=DIRECTION('',(-0.866025404,0.,-0.5));
#46=VECTOR('',#45,4.);
#47=LINE('',#44,#46);
#48=EDGE_CURVE('',#33,#43,#47,.T.);
#49=ORIENTED_EDGE('',*,*,#48,.T.);
#50=CARTESIAN_POINT('',(45.309286063,15.,-44.993136413));
#51=VERTEX_POINT('',#50);
#52=CARTESIAN_POINT('',(45.309286063,-15.,-44.993136413));
#53=DIRECTION('',(0.,1.,0.));
#54=VECTOR('',#53,30.);
#55=LINE('',#52,#54);
#56=EDGE_CURVE('',#43,#51,#55,.T.);
#57=ORIENTED_EDGE('',*,*,#56,.T.);
#58=CARTESIAN_POINT('',(48.773387678,15.,-42.993136413));
#59=DIRECTION('',(-0.866025404,0.,-0.5));
#60=VECTOR('',#59,4.);
#61=LINE('',#58,#60);
#62=EDGE_CURVE('',#35,#51,#61,.T.);
#63=ORIENTED_EDGE('',*,*,#62,.F.);
#64=EDGE_LOOP('',(#41,#49,#57,#63));
#65=FACE_BOUND('',#64,.T.);
#66=ADVANCED_FACE('',(#65),#31,.F.);
#67=CARTESIAN_POINT('',(44.059286063,-12.5,-42.828072904));
#68=DIRECTION('',(0.866025404,0.,0.5));
#69=DIRECTION('',(-0.5,0.,0.866025404));
#70=AXIS2_PLACEMENT_3D('',#67,#68,#69);
#71=PLANE('',#70);
#72=ORIENTED_EDGE('',*,*,#56,.F.);
#73=CARTESIAN_POINT('',(39.309286062,-15.,-34.600831569));
#74=VERTEX_POINT('',#73);
#75=CARTESIAN_POINT('',(45.309286063,-15.,-44.993136413));
#76=DIRECTION('',(-0.5,0.,0.866025404));
#77=VECTOR('',#76,12.);
#78=LINE('',#75,#77);
#79=EDGE_CURVE('',#43,#74,#78,.T.);
#80=ORIENTED_EDGE('',*,*,#79,.T.);
#81=CARTESIAN_POINT('',(39.309286062,15.,-34.600831569));
#82=VERTEX_POINT('',#81);
#83=CARTESIAN_POINT('',(39.309286062,-15.,-34.600831569));
#84=DIRECTION('',(0.,1.,0.));
#85=VECTOR('',#84,30.);
#86=LINE('',#83,#85);
#87=EDGE_CURVE('',#74,#82,#86,.T.);
#88=ORIENTED_EDGE('',*,*,#87,.T.);
#89=CARTESIAN_POINT('',(45.309286063,15.,-44.993136413));
#90=DIRECTION('',(-0.5,0.,0.866025404));
#91=VECTOR('',#90,12.);
#92=LINE('',#89,#91);
#93=EDGE_CURVE('',#51,#82,#92,.T.);
#94=ORIENTED_EDGE('',*,*,#93,.F.);
#95=EDGE_LOOP('',(#72,#80,#88,#94));
#96=FACE_BOUND('',#95,.T.);
#97=ADVANCED_FACE('',(#96),#71,.F.);
#98=CARTESIAN_POINT('',(40.608324168,-12.5,-33.850831569));
#99=DIRECTION('',(0.5,0.,-0.866025404));
#100=DIRECTION('',(0.866025404,0.,0.5));
#101=AXIS2_PLACEMENT_3D('',#98,#99,#100);
#102=PLANE('',#101);
#103=ORIENTED_EDGE('',*,*,#87,.F.);
#104=CARTESIAN_POINT('',(42.773387677,-15.,-32.600831569));
#105=VERTEX_POINT('',#104);
#106=CARTESIAN_POINT('',(39.309286062,-15.,-34.600831569));
#107=DIRECTION('',(0.866025404,0.,0.5));
#108=VECTOR('',#107,4.);
#109=LINE('',#106,#108);
#110=EDGE_CURVE('',#74,#105,#109,.T.);
#111=ORIENTED_EDGE('',*,*,#110,.T.);
#112=CARTESIAN_POINT('',(42.773387677,15.,-32.600831569));
#113=VERTEX_POINT('',#112);
#114=CARTESIAN_POINT('',(42.773387677,-15.,-32.600831569));
#115=DIRECTION('',(0.,1.,0.));
#116=VECTOR('',#115,30.);
#117=LINE('',#114,#116);
#118=EDGE_CURVE('',#105,#113,#117,.T.);
#119=ORIENTED_EDGE('',*,*,#118,.T.);
#120=CARTESIAN_POINT('',(39.309286062,15.,-34.600831569));
#121=DIRECTION('',(0.866025404,0.,0.5));
#122=VECTOR('',#121,4.);
#123=LINE('',#120,#122);
#124=EDGE_CURVE('',#82,#113,#123,.T.);
#125=ORIENTED_EDGE('',*,*,#124,.F.);
#126=EDGE_LOOP('',(#103,#111,#119,#125));
#127=FACE_BOUND('',#126,.T.);
#128=ADVANCED_FACE('',(#127),#102,.F.);
#129=CARTESIAN_POINT('',(47.523387678,-12.5,-40.828072904));
#130=DIRECTION('',(-0.866025404,0.,-0.5));
#131=DIRECTION('',(0.5,0.,-0.866025404));
#132=AXIS2_PLACEMENT_3D('',#129,#130,#131);
#133=PLANE('',#132);
#134=ORIENTED_EDGE('',*,*,#118,.F.);
#135=CARTESIAN_POINT('',(42.773387677,-15.,-32.600831569));
#136=DIRECTION('',(0.5,0.,-0.866025404));
#137=VECTOR('',#136,12.);
#138=LINE('',#135,#137);
#139=EDGE_CURVE('',#105,#33,#138,.T.);
#140=ORIENTED_EDGE('',*,*,#139,.T.);
#141=ORIENTED_EDGE('',*,*,#40,.T.);
#142=CARTESIAN_POINT('',(42.773387677,15.,-32.600831569));
#143=DIRECTION('',(0.5,0.,-0.866025404));
#144=VECTOR('',#143,12.);
#145=LINE('',#142,#144);
#146=EDGE_CURVE('',#113,#35,#145,.T.);
#147=ORIENTED_EDGE('',*,*,#146,.F.);
#148=EDGE_LOOP('',(#134,#140,#141,#147));
#149=FACE_BOUND('',#148,.T.);
#150=ADVANCED_FACE('',(#149),#133,.F.);
#151=CARTESIAN_POINT('',(-0.558716781,-15.,-34.116897598));
#152=DIRECTION('',(0.,-1.,0.));
#153=DIRECTION('',(-0.866025404,0.,-0.5));
#154=AXIS2_PLACEMENT_3D('',#151,#152,#153);
#155=PLANE('',#154);
#156=ORIENTED_EDGE('',*,*,#48,.F.);
#157=ORIENTED_EDGE('',*,*,#139,.F.);
#158=ORIENTED_EDGE('',*,*,#110,.F.);
#159=ORIENTED_EDGE('',*,*,#79,.F.);
#160=EDGE_LOOP('',(#156,#157,#158,#159));
#161=FACE_BOUND('',#160,.T.);
#162=ADVANCED_FACE('',(#161),#155,.T.);
#163=CARTESIAN_POINT('',(-0.558716781,15.,-34.116897598));
#164=DIRECTION('',(0.,1.,0.));
#165=DIRECTION('',(-0.866025404,0.,-0.5));
#166=AXIS2_PLACEMENT_3D('',#163,#164,#165);
#167=PLANE('',#166);
#168=ORIENTED_EDGE('',*,*,#62,.T.);
#169=ORIENTED_EDGE('',*,*,#93,.T.);
#170=ORIENTED_EDGE('',*,*,#124,.T.);
#171=ORIENTED_EDGE('',*,*,#146,.T.);
#172=EDGE_LOOP('',(#168,#169,#170,#171));
#173=FACE_BOUND('',#172,.T.);
#174=ADVANCED_FACE('',(#173),#167,.T.);
#175=CLOSED_SHELL('',(#66,#97,#128,#150,#162,#174));
#176=MANIFOLD_SOLID_BREP('130mah battery',#175);
#177=COLOUR_RGB('',0.627451003,0.627451003,0.643137276);
#178=FILL_AREA_STYLE_COLOUR('',#177);
#179=FILL_AREA_STYLE('',(#178));
#180=SURFACE_STYLE_FILL_AREA(#179);
#181=SURFACE_SIDE_STYLE('',(#180));
#182=SURFACE_STYLE_USAGE(.BOTH.,#181);
#183=PRESENTATION_STYLE_ASSIGNMENT((#182));
#26=STYLED_ITEM('',(#183),#176);
#16=SHAPE_REPRESENTATION('130mah battery',(#15),#10);
#17=ADVANCED_BREP_SHAPE_REPRESENTATION('130mah battery',(#176),#10);
#191=SHAPE_REPRESENTATION_RELATIONSHIP('','',#16,#17);
#192=CARTESIAN_POINT('',(0.,0.,0.));
#193=DIRECTION('',(0.,0.,1.));
#194=DIRECTION('',(1.,0.,0.));
#195=AXIS2_PLACEMENT_3D('',#192,#193,#194);
#197=MAPPED_ITEM('',#196,#195);
#196=REPRESENTATION_MAP(#195,#16);
#198=APPLICATION_CONTEXT('Managed model based 3d engineering');
#199=APPLICATION_PROTOCOL_DEFINITION('international standard','ap242_managed_model_based_3d_engineering',2014,#198);
#200=PRODUCT_CONTEXT('',#198,'mechanical');
#201=PRODUCT_DEFINITION_CONTEXT('part definition',#198,'design');
#24=PRODUCT('130mah battery','130mah battery','',(#200));
#202=PRODUCT_RELATED_PRODUCT_CATEGORY('part','',(#24));
#203=PRODUCT_DEFINITION_FORMATION_WITH_SPECIFIED_SOURCE('','',#24,.NOT_KNOWN.);
#25=PRODUCT_DEFINITION('design','',#203,#201);
#23=PRODUCT_DEFINITION_SHAPE('','',#25);
#204=SHAPE_DEFINITION_REPRESENTATION(#23,#16);
#11=DRAUGHTING_MODEL('',(#197),#10);
#205=DESCRIPTIVE_REPRESENTATION_ITEM('KEY','C:\\Users\\sanya\\AppData\\Local\\Packages\\Shapr3D.Shapr3D_dvv5p1vgwv6mp\\TempState\\6a2595ba-1a61-48d8-a718-56fed83d2799.tmp');
#206=PROPERTY_DEFINITION('KEY','',#25);
#207=REPRESENTATION('',(#205),#10);
#208=PROPERTY_DEFINITION_REPRESENTATION(#206,#207);
#209=GENERAL_PROPERTY('','KEY','');
#210=GENERAL_PROPERTY_ASSOCIATION('','',#209,#206);
#1=MECHANICAL_DESIGN_GEOMETRIC_PRESENTATION_REPRESENTATION('',(#26),#10);
ENDSEC;
END-ISO-10303-21;
